ISO-10303-21;
HEADER;
FILE_DESCRIPTION (( 'STEP AP203' ),
    '1' );
FILE_NAME ('9559K118_Ultra-Chemical-Resistant Rigid PTFE O-Ring.STEP',
    '2022-12-08T20:57:13',
    ( 'Administrator' ),
    ( 'Managed by Terraform' ),
    'SwSTEP 2.0',
    'SolidWorks 2017',
    '' );
FILE_SCHEMA (( 'CONFIG_CONTROL_DESIGN' ));
ENDSEC;

DATA;
#1 = DIRECTION ( 'NONE',  ( 1.836970198721028700E-016, -0.0000000000000000000, 1.000000000000000000 ) ) ;
#2 = APPLICATION_CONTEXT ( 'configuration controlled 3d designs of mechanical parts and assemblies' ) ;
#3 = CARTESIAN_POINT ( 'NONE',  ( 0.0000000000000000000, 0.0000000000000000000, 0.0000000000000000000 ) ) ;
#4 = LOCAL_TIME ( 14, 57, 13.00000000000000000, #121 ) ;
#5 = CC_DESIGN_PERSON_AND_ORGANIZATION_ASSIGNMENT ( #12, #16, ( #150 ) ) ;
#6 = DIRECTION ( 'NONE',  ( 1.836970198721028700E-016, -0.0000000000000000000, 1.000000000000000000 ) ) ;
#7 = DIRECTION ( 'NONE',  ( 1.000000000000000000, 0.0000000000000000000, -1.836970198721028700E-016 ) ) ;
#8 = LOCAL_TIME ( 14, 57, 13.00000000000000000, #90 ) ;
#9 = PERSON_AND_ORGANIZATION ( #181, #43 ) ;
#10 = DIRECTION ( 'NONE',  ( 0.0000000000000000000, 0.0000000000000000000, -1.000000000000000000 ) ) ;
#11 = EDGE_CURVE ( 'NONE', #183, #64, #22, .T. ) ;
#12 = PERSON_AND_ORGANIZATION ( #181, #43 ) ;
#13 = COORDINATED_UNIVERSAL_TIME_OFFSET ( 6, 0, .BEHIND. ) ;
#14 = EDGE_CURVE ( 'NONE', #136, #133, #194, .T. ) ;
#15 = CARTESIAN_POINT ( 'NONE',  ( 0.6270000000000002200, 0.0000000000000000000, -2.218908437123187900E-016 ) ) ;
#16 = PERSON_AND_ORGANIZATION_ROLE ( 'creator' ) ;
#17 = ORIENTED_EDGE ( 'NONE', *, *, #20, .F. ) ;
#18 = LOCAL_TIME ( 14, 57, 13.00000000000000000, #168 ) ;
#19 = CIRCLE ( 'NONE', #127, 0.6270000000000002200 ) ;
#20 = EDGE_CURVE ( 'NONE', #133, #136, #31, .T. ) ;
#21 = PERSON_AND_ORGANIZATION ( #181, #43 ) ;
#22 = CIRCLE ( 'NONE', #169, 0.03500000000000013500 ) ;
#23 = FACE_OUTER_BOUND ( 'NONE', #59, .T. ) ;
#24 = DIRECTION ( 'NONE',  ( 1.836970198721028700E-016, -0.0000000000000000000, 1.000000000000000000 ) ) ;
#25 = FACE_OUTER_BOUND ( 'NONE', #105, .T. ) ;
#26 = ORIENTED_EDGE ( 'NONE', *, *, #11, .T. ) ;
#27 = DATE_TIME_ROLE ( 'classification_date' ) ;
#28 = CARTESIAN_POINT ( 'NONE',  ( -7.873738858974779100E-034, 0.0000000000000000000, -1.109990760495260400E-016 ) ) ;
#29 =( CONVERSION_BASED_UNIT ( 'INCH', #118 ) LENGTH_UNIT ( ) NAMED_UNIT ( #152 ) );
#30 = ORIENTED_EDGE ( 'NONE', *, *, #20, .T. ) ;
#31 = CIRCLE ( 'NONE', #46, 0.03500000000000017000 ) ;
#32 = PRODUCT ( '9559K118_Ultra-Chemical-Resistant Rigid PTFE O-Ring', '9559K118_Ultra-Chemical-Resistant Rigid PTFE O-Ring', '', ( #180 ) ) ;
#33 = ORIENTED_EDGE ( 'NONE', *, *, #88, .T. ) ;
#34 = APPROVAL ( #100, 'UNSPECIFIED' ) ;
#35 = PERSON_AND_ORGANIZATION_ROLE ( 'creator' ) ;
#36 = CALENDAR_DATE ( 2022, 8, 12 ) ;
#37 = CC_DESIGN_DATE_AND_TIME_ASSIGNMENT ( #85, #56, ( #150 ) ) ;
#38 = APPLICATION_PROTOCOL_DEFINITION ( 'international standard', 'config_control_design', 1994, #2 ) ;
#39 = DESIGN_CONTEXT ( 'detailed design', #148, 'design' ) ;
#40 = PERSON_AND_ORGANIZATION ( #181, #43 ) ;
#41 = SECURITY_CLASSIFICATION ( '', '', #52 ) ;
#42 = TOROIDAL_SURFACE ( 'NONE', #104, 0.5919999999999999700, 0.03500000000000013500 ) ;
#43 = ORGANIZATION ( 'UNSPECIFIED', 'UNSPECIFIED', '' ) ;
#44 = COORDINATED_UNIVERSAL_TIME_OFFSET ( 6, 0, .BEHIND. ) ;
#45 = CIRCLE ( 'NONE', #191, 0.6270000000000002200 ) ;
#46 = AXIS2_PLACEMENT_3D ( 'NONE', #171, #192, #111 ) ;
#47 = CLOSED_SHELL ( 'NONE', ( #190, #139, #49, #92 ) ) ;
#48 = LOCAL_TIME ( 14, 57, 13.00000000000000000, #44 ) ;
#49 = ADVANCED_FACE ( 'NONE', ( #25 ), #176, .T. ) ;
#50 = APPROVAL ( #69, 'UNSPECIFIED' ) ;
#51 = CIRCLE ( 'NONE', #114, 0.5569999999999999400 ) ;
#52 = SECURITY_CLASSIFICATION_LEVEL ( 'unclassified' ) ;
#53 = CARTESIAN_POINT ( 'NONE',  ( 0.0000000000000000000, 0.0000000000000000000, -1.067128122525102900E-016 ) ) ;
#54 = DIRECTION ( 'NONE',  ( 0.0000000000000000000, 0.0000000000000000000, 1.000000000000000000 ) ) ;
#55 = CARTESIAN_POINT ( 'NONE',  ( -0.6270000000000002200, 7.678535430653906100E-017, 8.465219207298244800E-018 ) ) ;
#56 = DATE_TIME_ROLE ( 'creation_date' ) ;
#57 = ORIENTED_EDGE ( 'NONE', *, *, #107, .T. ) ;
#58 = DATE_AND_TIME ( #123, #48 ) ;
#59 = EDGE_LOOP ( 'NONE', ( #17, #174, #109, #98 ) ) ;
#60 = CC_DESIGN_PERSON_AND_ORGANIZATION_ASSIGNMENT ( #21, #79, ( #151 ) ) ;
#61 = DIRECTION ( 'NONE',  ( 1.836970198721028700E-016, -0.0000000000000000000, 1.000000000000000000 ) ) ;
#62 = ORIENTED_EDGE ( 'NONE', *, *, #107, .F. ) ;
#63 = CARTESIAN_POINT ( 'NONE',  ( 0.0000000000000000000, 0.0000000000000000000, -1.067128122525102900E-016 ) ) ;
#64 = VERTEX_POINT ( 'NONE', #15 ) ;
#65 = DIRECTION ( 'NONE',  ( 1.836970198721028700E-016, -0.0000000000000000000, 1.000000000000000000 ) ) ;
#66 = EDGE_LOOP ( 'NONE', ( #106, #142, #188, #26 ) ) ;
#67 = AXIS2_PLACEMENT_3D ( 'NONE', #53, #82, #131 ) ;
#68 = CC_DESIGN_PERSON_AND_ORGANIZATION_ASSIGNMENT ( #134, #129, ( #41 ) ) ;
#69 = APPROVAL_STATUS ( 'not_yet_approved' ) ;
#70 = AXIS2_PLACEMENT_3D ( 'NONE', #3, #54, #119 ) ;
#71 =( NAMED_UNIT ( * ) SI_UNIT ( $, .STERADIAN. ) SOLID_ANGLE_UNIT ( ) );
#72 = CC_DESIGN_APPROVAL ( #34, ( #41 ) ) ;
#73 = DIRECTION ( 'NONE',  ( 1.836970198721028700E-016, -0.0000000000000000000, 1.000000000000000000 ) ) ;
#74 = DIRECTION ( 'NONE',  ( 1.000000000000000000, 0.0000000000000000000, -1.836970198721028700E-016 ) ) ;
#75 = DATE_AND_TIME ( #157, #86 ) ;
#76 = ADVANCED_BREP_SHAPE_REPRESENTATION ( '9559K118_Ultra-Chemical-Resistant Rigid PTFE O-Ring', ( #102, #70 ), #110 ) ;
#77 = APPROVAL_PERSON_ORGANIZATION ( #159, #50, #103 ) ;
#78 = APPROVAL_DATE_TIME ( #58, #179 ) ;
#79 = PERSON_AND_ORGANIZATION_ROLE ( 'design_supplier' ) ;
#80 = PERSON_AND_ORGANIZATION ( #181, #43 ) ;
#81 = FACE_OUTER_BOUND ( 'NONE', #66, .T. ) ;
#82 = DIRECTION ( 'NONE',  ( 1.836970198721028700E-016, -0.0000000000000000000, 1.000000000000000000 ) ) ;
#83 =( LENGTH_UNIT ( ) NAMED_UNIT ( * ) SI_UNIT ( $, .METRE. ) );
#84 = CC_DESIGN_APPROVAL ( #179, ( #151 ) ) ;
#85 = DATE_AND_TIME ( #96, #18 ) ;
#86 = LOCAL_TIME ( 14, 57, 13.00000000000000000, #13 ) ;
#87 = CALENDAR_DATE ( 2022, 8, 12 ) ;
#88 = EDGE_CURVE ( 'NONE', #183, #136, #91, .T. ) ;
#89 = CARTESIAN_POINT ( 'NONE',  ( 0.0000000000000000000, 0.0000000000000000000, -1.067128122525102900E-016 ) ) ;
#90 = COORDINATED_UNIVERSAL_TIME_OFFSET ( 6, 0, .BEHIND. ) ;
#91 = CIRCLE ( 'NONE', #154, 0.5569999999999999400 ) ;
#92 = ADVANCED_FACE ( 'NONE', ( #81 ), #135, .T. ) ;
#93 = CARTESIAN_POINT ( 'NONE',  ( 0.5919999999999999700, 0.0000000000000000000, -2.154614480167951900E-016 ) ) ;
#94 = ORIENTED_EDGE ( 'NONE', *, *, #88, .F. ) ;
#95 = DIRECTION ( 'NONE',  ( 0.0000000000000000000, -1.000000000000000000, -0.0000000000000000000 ) ) ;
#96 = CALENDAR_DATE ( 2022, 8, 12 ) ;
#97 = AXIS2_PLACEMENT_3D ( 'NONE', #155, #141, #193 ) ;
#98 = ORIENTED_EDGE ( 'NONE', *, *, #144, .F. ) ;
#99 = TOROIDAL_SURFACE ( 'NONE', #120, 0.5919999999999999700, 0.03500000000000013500 ) ;
#100 = APPROVAL_STATUS ( 'not_yet_approved' ) ;
#101 = DIRECTION ( 'NONE',  ( 1.000000000000000000, 0.0000000000000000000, -1.836970198721028200E-016 ) ) ;
#102 = MANIFOLD_SOLID_BREP ( 'Revolve1', #47 ) ;
#103 = APPROVAL_ROLE ( '' ) ;
#104 = AXIS2_PLACEMENT_3D ( 'NONE', #173, #65, #74 ) ;
#105 = EDGE_LOOP ( 'NONE', ( #62, #184, #33, #138 ) ) ;
#106 = ORIENTED_EDGE ( 'NONE', *, *, #162, .F. ) ;
#107 = EDGE_CURVE ( 'NONE', #64, #133, #19, .T. ) ;
#108 = CARTESIAN_POINT ( 'NONE',  ( 0.5569999999999999400, 0.0000000000000000000, -1.109990760495259600E-016 ) ) ;
#109 = ORIENTED_EDGE ( 'NONE', *, *, #189, .T. ) ;
#110 =( GEOMETRIC_REPRESENTATION_CONTEXT ( 3 ) GLOBAL_UNCERTAINTY_ASSIGNED_CONTEXT ( ( #170 ) ) GLOBAL_UNIT_ASSIGNED_CONTEXT ( ( #29, #161, #71 ) ) REPRESENTATION_CONTEXT ( 'NONE', 'WORKASPACE' ) );
#111 = DIRECTION ( 'NONE',  ( -1.000000000000000000, 1.224646799147352000E-016, 0.0000000000000000000 ) ) ;
#112 = CC_DESIGN_PERSON_AND_ORGANIZATION_ASSIGNMENT ( #40, #35, ( #151 ) ) ;
#113 = CARTESIAN_POINT ( 'NONE',  ( 0.0000000000000000000, 0.0000000000000000000, -1.067128122525102900E-016 ) ) ;
#114 = AXIS2_PLACEMENT_3D ( 'NONE', #166, #61, #7 ) ;
#115 = APPROVAL_DATE_TIME ( #75, #34 ) ;
#116 = DIRECTION ( 'NONE',  ( 1.836970198721028700E-016, -0.0000000000000000000, 1.000000000000000000 ) ) ;
#117 = CARTESIAN_POINT ( 'NONE',  ( -0.5569999999999999400, 6.821282671250755800E-017, -1.109990760495261600E-016 ) ) ;
#118 = LENGTH_MEASURE_WITH_UNIT ( LENGTH_MEASURE( 0.02539999999999999900 ), #83 );
#119 = DIRECTION ( 'NONE',  ( 1.000000000000000000, 0.0000000000000000000, 0.0000000000000000000 ) ) ;
#120 = AXIS2_PLACEMENT_3D ( 'NONE', #89, #6, #147 ) ;
#121 = COORDINATED_UNIVERSAL_TIME_OFFSET ( 6, 0, .BEHIND. ) ;
#122 = CARTESIAN_POINT ( 'NONE',  ( 0.5919999999999999700, 0.0000000000000000000, -2.154614480167951900E-016 ) ) ;
#123 = CALENDAR_DATE ( 2022, 8, 12 ) ;
#124 = CC_DESIGN_APPROVAL ( #50, ( #150 ) ) ;
#125 = SHAPE_DEFINITION_REPRESENTATION ( #185, #76 ) ;
#126 = CIRCLE ( 'NONE', #172, 0.03500000000000013500 ) ;
#127 = AXIS2_PLACEMENT_3D ( 'NONE', #158, #1, #101 ) ;
#128 = PERSON_AND_ORGANIZATION ( #181, #43 ) ;
#129 = PERSON_AND_ORGANIZATION_ROLE ( 'classification_officer' ) ;
#130 = FACE_OUTER_BOUND ( 'NONE', #140, .T. ) ;
#131 = DIRECTION ( 'NONE',  ( 1.000000000000000000, 0.0000000000000000000, -1.836970198721028700E-016 ) ) ;
#132 = DIRECTION ( 'NONE',  ( 0.0000000000000000000, 0.0000000000000000000, -1.000000000000000000 ) ) ;
#133 = VERTEX_POINT ( 'NONE', #55 ) ;
#134 = PERSON_AND_ORGANIZATION ( #181, #43 ) ;
#135 = TOROIDAL_SURFACE ( 'NONE', #67, 0.5919999999999999700, 0.03500000000000013500 ) ;
#136 = VERTEX_POINT ( 'NONE', #117 ) ;
#137 = DIRECTION ( 'NONE',  ( 0.0000000000000000000, -1.000000000000000000, -0.0000000000000000000 ) ) ;
#138 = ORIENTED_EDGE ( 'NONE', *, *, #14, .T. ) ;
#139 = ADVANCED_FACE ( 'NONE', ( #130 ), #42, .T. ) ;
#140 = EDGE_LOOP ( 'NONE', ( #149, #57, #30, #94 ) ) ;
#141 = DIRECTION ( 'NONE',  ( 1.224646799147353200E-016, 1.000000000000000000, -2.249639673992785000E-032 ) ) ;
#142 = ORIENTED_EDGE ( 'NONE', *, *, #14, .F. ) ;
#143 = APPROVAL_ROLE ( '' ) ;
#144 = EDGE_CURVE ( 'NONE', #136, #183, #51, .T. ) ;
#145 = APPROVAL_ROLE ( '' ) ;
#146 = DIRECTION ( 'NONE',  ( 1.000000000000000000, 0.0000000000000000000, -1.836970198721028700E-016 ) ) ;
#147 = DIRECTION ( 'NONE',  ( 1.000000000000000000, 0.0000000000000000000, -1.836970198721028700E-016 ) ) ;
#148 = APPLICATION_CONTEXT ( 'configuration controlled 3d designs of mechanical parts and assemblies' ) ;
#149 = ORIENTED_EDGE ( 'NONE', *, *, #189, .F. ) ;
#150 = PRODUCT_DEFINITION ( 'UNKNOWN', '', #151, #39 ) ;
#151 = PRODUCT_DEFINITION_FORMATION_WITH_SPECIFIED_SOURCE ( 'ANY', '', #32, .NOT_KNOWN. ) ;
#152 = DIMENSIONAL_EXPONENTS ( 1.000000000000000000, 0.0000000000000000000, 0.0000000000000000000, 0.0000000000000000000, 0.0000000000000000000, 0.0000000000000000000, 0.0000000000000000000 ) ;
#153 = APPROVAL_PERSON_ORGANIZATION ( #80, #34, #143 ) ;
#154 = AXIS2_PLACEMENT_3D ( 'NONE', #28, #116, #146 ) ;
#155 = CARTESIAN_POINT ( 'NONE',  ( -0.5919999999999999700, 7.249909050952331000E-017, 2.035823511774612700E-018 ) ) ;
#156 = CC_DESIGN_PERSON_AND_ORGANIZATION_ASSIGNMENT ( #9, #182, ( #32 ) ) ;
#157 = CALENDAR_DATE ( 2022, 8, 12 ) ;
#158 = CARTESIAN_POINT ( 'NONE',  ( 0.0000000000000000000, 0.0000000000000000000, -1.067128122525102900E-016 ) ) ;
#159 = PERSON_AND_ORGANIZATION ( #181, #43 ) ;
#160 = APPLICATION_PROTOCOL_DEFINITION ( 'international standard', 'config_control_design', 1994, #148 ) ;
#161 =( NAMED_UNIT ( * ) PLANE_ANGLE_UNIT ( ) SI_UNIT ( $, .RADIAN. ) );
#162 = EDGE_CURVE ( 'NONE', #133, #64, #45, .T. ) ;
#163 = APPROVAL_DATE_TIME ( #165, #50 ) ;
#164 = DATE_AND_TIME ( #36, #8 ) ;
#165 = DATE_AND_TIME ( #87, #4 ) ;
#166 = CARTESIAN_POINT ( 'NONE',  ( -7.873738858974779100E-034, 0.0000000000000000000, -1.109990760495260400E-016 ) ) ;
#167 = DIRECTION ( 'NONE',  ( 1.000000000000000000, 0.0000000000000000000, -1.836970198721028700E-016 ) ) ;
#168 = COORDINATED_UNIVERSAL_TIME_OFFSET ( 6, 0, .BEHIND. ) ;
#169 = AXIS2_PLACEMENT_3D ( 'NONE', #93, #95, #10 ) ;
#170 = UNCERTAINTY_MEASURE_WITH_UNIT (LENGTH_MEASURE( 1.000000000000000100E-005 ), #29, 'distance_accuracy_value', 'NONE');
#171 = CARTESIAN_POINT ( 'NONE',  ( -0.5919999999999999700, 7.249909050952331000E-017, 2.035823511774612700E-018 ) ) ;
#172 = AXIS2_PLACEMENT_3D ( 'NONE', #122, #137, #132 ) ;
#173 = CARTESIAN_POINT ( 'NONE',  ( 0.0000000000000000000, 0.0000000000000000000, -1.067128122525102900E-016 ) ) ;
#174 = ORIENTED_EDGE ( 'NONE', *, *, #162, .T. ) ;
#175 = APPROVAL_PERSON_ORGANIZATION ( #128, #179, #145 ) ;
#176 = TOROIDAL_SURFACE ( 'NONE', #178, 0.5919999999999999700, 0.03500000000000013500 ) ;
#177 = PRODUCT_RELATED_PRODUCT_CATEGORY ( 'detail', '', ( #32 ) ) ;
#178 = AXIS2_PLACEMENT_3D ( 'NONE', #113, #24, #167 ) ;
#179 = APPROVAL ( #196, 'UNSPECIFIED' ) ;
#180 = MECHANICAL_CONTEXT ( 'NONE', #2, 'mechanical' ) ;
#181 = PERSON ( 'UNSPECIFIED', 'UNSPECIFIED', 'UNSPECIFIED', ('UNSPECIFIED'), ('UNSPECIFIED'), ('UNSPECIFIED') ) ;
#182 = PERSON_AND_ORGANIZATION_ROLE ( 'design_owner' ) ;
#183 = VERTEX_POINT ( 'NONE', #108 ) ;
#184 = ORIENTED_EDGE ( 'NONE', *, *, #11, .F. ) ;
#185 = PRODUCT_DEFINITION_SHAPE ( 'NONE', 'NONE',  #150 ) ;
#186 = DIRECTION ( 'NONE',  ( 1.000000000000000000, 0.0000000000000000000, -1.836970198721028200E-016 ) ) ;
#187 = CC_DESIGN_DATE_AND_TIME_ASSIGNMENT ( #164, #27, ( #41 ) ) ;
#188 = ORIENTED_EDGE ( 'NONE', *, *, #144, .T. ) ;
#189 = EDGE_CURVE ( 'NONE', #64, #183, #126, .T. ) ;
#190 = ADVANCED_FACE ( 'NONE', ( #23 ), #99, .T. ) ;
#191 = AXIS2_PLACEMENT_3D ( 'NONE', #63, #73, #186 ) ;
#192 = DIRECTION ( 'NONE',  ( 1.224646799147353200E-016, 1.000000000000000000, -2.249639673992785000E-032 ) ) ;
#193 = DIRECTION ( 'NONE',  ( -1.000000000000000000, 1.224646799147352000E-016, 0.0000000000000000000 ) ) ;
#194 = CIRCLE ( 'NONE', #97, 0.03500000000000017000 ) ;
#195 = CC_DESIGN_SECURITY_CLASSIFICATION ( #41, ( #151 ) ) ;
#196 = APPROVAL_STATUS ( 'not_yet_approved' ) ;
ENDSEC;
END-ISO-10303-21;
