ISO-10303-21;
HEADER;
FILE_DESCRIPTION (( 'STEP AP203' ),
    '1' );
FILE_NAME ('91580A221_Internal Retaining Ring.STEP',
    '2021-09-08T22:51:22',
    ( 'Administrator' ),
    ( 'Managed by Terraform' ),
    'SwSTEP 2.0',
    'SolidWorks 2017',
    '' );
FILE_SCHEMA (( 'CONFIG_CONTROL_DESIGN' ));
ENDSEC;

DATA;
#1 = ORIENTED_EDGE ( 'NONE', *, *, #538, .F. ) ;
#2 = EDGE_CURVE ( 'NONE', #585, #203, #38, .T. ) ;
#3 = FACE_OUTER_BOUND ( 'NONE', #80, .T. ) ;
#4 = EDGE_CURVE ( 'NONE', #346, #336, #288, .T. ) ;
#5 = ORIENTED_EDGE ( 'NONE', *, *, #69, .F. ) ;
#6 = ORIENTED_EDGE ( 'NONE', *, *, #15, .F. ) ;
#7 = AXIS2_PLACEMENT_3D ( 'NONE', #244, #202, #41 ) ;
#8 = CARTESIAN_POINT ( 'NONE',  ( 0.4324048875935032100, 0.0000000000000000000, 0.3603391371367539700 ) ) ;
#9 = LOCAL_TIME ( 17, 51, 22.00000000000000000, #105 ) ;
#10 = CALENDAR_DATE ( 2021, 8, 9 ) ;
#11 = CYLINDRICAL_SURFACE ( 'NONE', #260, 0.08999999999999999700 ) ;
#12 = DIRECTION ( 'NONE',  ( 0.0000000000000000000, 0.0000000000000000000, -1.000000000000000000 ) ) ;
#13 = CC_DESIGN_PERSON_AND_ORGANIZATION_ASSIGNMENT ( #258, #199, ( #642 ) ) ;
#14 = CARTESIAN_POINT ( 'NONE',  ( -0.2639251044570636300, 0.0000000000000000000, 0.5659892130043893100 ) ) ;
#15 = EDGE_CURVE ( 'NONE', #385, #62, #139, .T. ) ;
#16 = DIRECTION ( 'NONE',  ( 0.0000000000000000000, -0.0000000000000000000, -1.000000000000000000 ) ) ;
#17 = ORIENTED_EDGE ( 'NONE', *, *, #468, .T. ) ;
#18 = DIRECTION ( 'NONE',  ( 0.9063077870366526000, -0.0000000000000000000, 0.4226182617406938300 ) ) ;
#19 = DIRECTION ( 'NONE',  ( 0.0000000000000000000, -1.000000000000000000, 0.0000000000000000000 ) ) ;
#20 = VECTOR ( 'NONE', #345, 39.37007874015748100 ) ;
#21 = CARTESIAN_POINT ( 'NONE',  ( 0.3120759006223094400, 0.0000000000000000000, 0.3498117148832156600 ) ) ;
#22 = CARTESIAN_POINT ( 'NONE',  ( -0.2226641829417211600, -0.05000000000000000300, 0.4775048812681351200 ) ) ;
#23 = CARTESIAN_POINT ( 'NONE',  ( 0.2226641829417211600, -0.05000000000000000300, 0.4775048812681351200 ) ) ;
#24 = DIRECTION ( 'NONE',  ( -0.9961946980917457700, -0.0000000000000000000, 0.08715574274765428000 ) ) ;
#25 = ORIENTED_EDGE ( 'NONE', *, *, #161, .F. ) ;
#26 = CARTESIAN_POINT ( 'NONE',  ( -0.2639251044570633000, -0.05000000000000000300, 0.5659892130043895400 ) ) ;
#27 = CARTESIAN_POINT ( 'NONE',  ( 0.4332764450209797800, 0.0000000000000000000, 0.3503771901558365200 ) ) ;
#28 = LOCAL_TIME ( 17, 51, 22.00000000000000000, #440 ) ;
#29 = CARTESIAN_POINT ( 'NONE',  ( 0.3042318837750199200, -0.05000000000000000300, 0.4394692377114726200 ) ) ;
#30 = CIRCLE ( 'NONE', #527, 0.01000000000000003000 ) ;
#31 = PLANE ( 'NONE',  #58 ) ;
#32 = CARTESIAN_POINT ( 'NONE',  ( 0.3042318837750199200, 0.0000000000000000000, 0.4394692377114726200 ) ) ;
#33 = DIRECTION ( 'NONE',  ( 0.0000000000000000000, 1.000000000000000000, 0.0000000000000000000 ) ) ;
#34 = DIRECTION ( 'NONE',  ( -0.0000000000000000000, -1.000000000000000000, -0.0000000000000000000 ) ) ;
#35 = ORIENTED_EDGE ( 'NONE', *, *, #138, .F. ) ;
#36 = VECTOR ( 'NONE', #176, 39.37007874015748100 ) ;
#37 = ADVANCED_FACE ( 'NONE', ( #322 ), #581, .F. ) ;
#38 = CIRCLE ( 'NONE', #560, 0.5450131752333554600 ) ;
#39 = ORIENTED_EDGE ( 'NONE', *, *, #240, .T. ) ;
#40 = VECTOR ( 'NONE', #170, 39.37007874015748100 ) ;
#41 = DIRECTION ( 'NONE',  ( -6.829619984160637700E-015, 0.0000000000000000000, -1.000000000000000000 ) ) ;
#42 = LINE ( 'NONE', #146, #515 ) ;
#43 = CC_DESIGN_PERSON_AND_ORGANIZATION_ASSIGNMENT ( #568, #152, ( #551 ) ) ;
#44 = DIRECTION ( 'NONE',  ( 0.0000000000000000000, 0.0000000000000000000, 1.000000000000000000 ) ) ;
#45 = CC_DESIGN_DATE_AND_TIME_ASSIGNMENT ( #561, #208, ( #473 ) ) ;
#46 = CARTESIAN_POINT ( 'NONE',  ( -0.4380159060309267700, -0.05000000000000000300, 0.3608300376408627400 ) ) ;
#47 = ADVANCED_FACE ( 'NONE', ( #462 ), #11, .T. ) ;
#48 = CIRCLE ( 'NONE', #120, 0.08999999999999999700 ) ;
#49 = ORIENTED_EDGE ( 'NONE', *, *, #4, .T. ) ;
#50 = EDGE_LOOP ( 'NONE', ( #410, #279, #299, #210, #431, #625, #211, #596, #494, #73, #204, #557 ) ) ;
#51 = EDGE_CURVE ( 'NONE', #81, #475, #48, .T. ) ;
#52 = CARTESIAN_POINT ( 'NONE',  ( 0.3042318837750199200, -0.05000000000000000300, 0.4784692377114727100 ) ) ;
#53 = CIRCLE ( 'NONE', #209, 0.01000000000000003000 ) ;
#54 = DIRECTION ( 'NONE',  ( 0.0000000000000000000, 0.0000000000000000000, 1.000000000000000000 ) ) ;
#55 = ORIENTED_EDGE ( 'NONE', *, *, #69, .T. ) ;
#56 = EDGE_LOOP ( 'NONE', ( #195, #103 ) ) ;
#57 = LINE ( 'NONE', #649, #142 ) ;
#58 = AXIS2_PLACEMENT_3D ( 'NONE', #185, #441, #227 ) ;
#59 = DIRECTION ( 'NONE',  ( 0.0000000000000000000, 0.0000000000000000000, 1.000000000000000000 ) ) ;
#60 = CARTESIAN_POINT ( 'NONE',  ( -0.4332764450209793400, 0.0000000000000000000, 0.3603771901558358000 ) ) ;
#61 = CARTESIAN_POINT ( 'NONE',  ( 0.0000000000000000000, 0.0000000000000000000, 0.0000000000000000000 ) ) ;
#62 = VERTEX_POINT ( 'NONE', #316 ) ;
#63 = DIRECTION ( 'NONE',  ( 0.0000000000000000000, 1.000000000000000000, 0.0000000000000000000 ) ) ;
#64 = ORGANIZATION ( 'UNSPECIFIED', 'UNSPECIFIED', '' ) ;
#65 = CIRCLE ( 'NONE', #432, 0.01000000000000003000 ) ;
#66 = DIRECTION ( 'NONE',  ( 0.0000000000000000000, -1.000000000000000000, 0.0000000000000000000 ) ) ;
#67 = CARTESIAN_POINT ( 'NONE',  ( 0.4413748707248327800, 0.0000000000000000000, 0.3562436627858907000 ) ) ;
#68 = DIRECTION ( 'NONE',  ( 0.0000000000000000000, 1.000000000000000000, 0.0000000000000000000 ) ) ;
#69 = EDGE_CURVE ( 'NONE', #608, #396, #42, .T. ) ;
#70 = CARTESIAN_POINT ( 'NONE',  ( 0.2639251044570633000, -0.05000000000000000300, 0.5659892130043895400 ) ) ;
#71 = ORIENTED_EDGE ( 'NONE', *, *, #492, .T. ) ;
#72 = CARTESIAN_POINT ( 'NONE',  ( 5.511805507587151900E-016, -0.05000000000000000300, 0.03651317523335548300 ) ) ;
#73 = ORIENTED_EDGE ( 'NONE', *, *, #261, .T. ) ;
#74 = EDGE_CURVE ( 'NONE', #140, #230, #65, .T. ) ;
#75 = CALENDAR_DATE ( 2021, 8, 9 ) ;
#76 = CARTESIAN_POINT ( 'NONE',  ( 0.2226641829417211600, 0.0000000000000000000, 0.4775048812681351200 ) ) ;
#77 = CARTESIAN_POINT ( 'NONE',  ( 0.4413748707248328400, -0.05000000000000000300, 0.3562436627858907600 ) ) ;
#78 = CARTESIAN_POINT ( 'NONE',  ( -0.3042318837750199200, 0.0000000000000000000, 0.4394692377114726200 ) ) ;
#79 = CARTESIAN_POINT ( 'NONE',  ( -0.3120759006223088300, -0.05000000000000000300, 0.3498117148832156100 ) ) ;
#80 = EDGE_LOOP ( 'NONE', ( #238, #25, #263, #266 ) ) ;
#81 = VERTEX_POINT ( 'NONE', #21 ) ;
#82 = CARTESIAN_POINT ( 'NONE',  ( 0.3042318837750199200, -0.05000000000000000300, 0.4004692377114725800 ) ) ;
#83 = LINE ( 'NONE', #310, #466 ) ;
#84 = CIRCLE ( 'NONE', #603, 0.03900000000000004900 ) ;
#85 = DIRECTION ( 'NONE',  ( 0.0000000000000000000, 0.0000000000000000000, 1.000000000000000000 ) ) ;
#86 = ORIENTED_EDGE ( 'NONE', *, *, #663, .F. ) ;
#87 = ORIENTED_EDGE ( 'NONE', *, *, #161, .T. ) ;
#88 = ADVANCED_FACE ( 'NONE', ( #520 ), #636, .T. ) ;
#89 = CARTESIAN_POINT ( 'NONE',  ( 5.511805507587151900E-016, -0.05000000000000000300, 0.03651317523335548300 ) ) ;
#90 = ORIENTED_EDGE ( 'NONE', *, *, #654, .F. ) ;
#91 = DIRECTION ( 'NONE',  ( -0.9961946980917457700, 0.0000000000000000000, 0.08715574274765428000 ) ) ;
#92 = ORIENTED_EDGE ( 'NONE', *, *, #501, .T. ) ;
#93 = CALENDAR_DATE ( 2021, 8, 9 ) ;
#94 = LINE ( 'NONE', #46, #157 ) ;
#95 = VECTOR ( 'NONE', #640, 39.37007874015748100 ) ;
#96 = AXIS2_PLACEMENT_3D ( 'NONE', #332, #183, #343 ) ;
#97 = ORIENTED_EDGE ( 'NONE', *, *, #137, .T. ) ;
#98 = LINE ( 'NONE', #380, #400 ) ;
#99 = EDGE_CURVE ( 'NONE', #629, #361, #420, .T. ) ;
#100 = AXIS2_PLACEMENT_3D ( 'NONE', #391, #34, #235 ) ;
#101 = ORIENTED_EDGE ( 'NONE', *, *, #2, .F. ) ;
#102 = CC_DESIGN_PERSON_AND_ORGANIZATION_ASSIGNMENT ( #377, #518, ( #473 ) ) ;
#103 = ORIENTED_EDGE ( 'NONE', *, *, #451, .T. ) ;
#104 = VERTEX_POINT ( 'NONE', #23 ) ;
#105 = COORDINATED_UNIVERSAL_TIME_OFFSET ( 6, 0, .BEHIND. ) ;
#106 = LINE ( 'NONE', #52, #563 ) ;
#107 = AXIS2_PLACEMENT_3D ( 'NONE', #145, #564, #553 ) ;
#108 = CARTESIAN_POINT ( 'NONE',  ( 0.2639251044570633000, 0.0000000000000000000, 0.5659892130043895400 ) ) ;
#109 = PLANE ( 'NONE',  #302 ) ;
#110 = CARTESIAN_POINT ( 'NONE',  ( -0.3042318837750199200, -0.05000000000000000300, 0.4394692377114726200 ) ) ;
#111 = CARTESIAN_POINT ( 'NONE',  ( -0.3042318837750199200, -0.05000000000000000300, 0.4004692377114726400 ) ) ;
#112 = EDGE_LOOP ( 'NONE', ( #522, #92, #355, #90 ) ) ;
#113 = CARTESIAN_POINT ( 'NONE',  ( -0.2226641829417211600, -0.05000000000000000300, 0.4775048812681351200 ) ) ;
#114 = CARTESIAN_POINT ( 'NONE',  ( 0.3120759006223094400, -0.05000000000000000300, 0.3498117148832156600 ) ) ;
#115 = PERSON_AND_ORGANIZATION ( #353, #64 ) ;
#116 = FACE_BOUND ( 'NONE', #56, .T. ) ;
#117 = DIRECTION ( 'NONE',  ( -0.9961946980917453200, 0.0000000000000000000, -0.08715574274766022000 ) ) ;
#118 = DIRECTION ( 'NONE',  ( -0.9063077870366526000, 0.0000000000000000000, 0.4226182617406938300 ) ) ;
#119 = CARTESIAN_POINT ( 'NONE',  ( -0.3120759006223088300, 0.0000000000000000000, 0.3498117148832156100 ) ) ;
#120 = AXIS2_PLACEMENT_3D ( 'NONE', #401, #287, #513 ) ;
#121 = CARTESIAN_POINT ( 'NONE',  ( -0.4332764450209793400, -0.05000000000000000300, 0.3503771901558357900 ) ) ;
#122 = EDGE_LOOP ( 'NONE', ( #268, #470 ) ) ;
#123 = AXIS2_PLACEMENT_3D ( 'NONE', #175, #232, #595 ) ;
#124 = ORIENTED_EDGE ( 'NONE', *, *, #638, .T. ) ;
#125 = DIRECTION ( 'NONE',  ( 0.0000000000000000000, 0.0000000000000000000, 1.000000000000000000 ) ) ;
#126 = DIRECTION ( 'NONE',  ( 0.4226182617406937800, 0.0000000000000000000, -0.9063077870366527100 ) ) ;
#127 = FACE_OUTER_BOUND ( 'NONE', #394, .T. ) ;
#128 = EDGE_CURVE ( 'NONE', #535, #104, #272, .T. ) ;
#129 = LINE ( 'NONE', #543, #222 ) ;
#130 = DIRECTION ( 'NONE',  ( 0.0000000000000000000, 1.000000000000000000, 0.0000000000000000000 ) ) ;
#131 = CC_DESIGN_DATE_AND_TIME_ASSIGNMENT ( #398, #306, ( #474 ) ) ;
#132 = APPLICATION_PROTOCOL_DEFINITION ( 'international standard', 'config_control_design', 1994, #402 ) ;
#133 = DIMENSIONAL_EXPONENTS ( 1.000000000000000000, 0.0000000000000000000, 0.0000000000000000000, 0.0000000000000000000, 0.0000000000000000000, 0.0000000000000000000, 0.0000000000000000000 ) ;
#134 = ORIENTED_EDGE ( 'NONE', *, *, #274, .F. ) ;
#135 = CYLINDRICAL_SURFACE ( 'NONE', #529, 0.08999999999999999700 ) ;
#136 = EDGE_CURVE ( 'NONE', #572, #396, #622, .T. ) ;
#137 = EDGE_CURVE ( 'NONE', #368, #464, #129, .T. ) ;
#138 = EDGE_CURVE ( 'NONE', #544, #661, #565, .T. ) ;
#139 = LINE ( 'NONE', #149, #188 ) ;
#140 = VERTEX_POINT ( 'NONE', #537 ) ;
#141 = ADVANCED_FACE ( 'NONE', ( #666 ), #135, .T. ) ;
#142 = VECTOR ( 'NONE', #635, 39.37007874015748100 ) ;
#143 = CIRCLE ( 'NONE', #369, 0.03900000000000004900 ) ;
#144 =( GEOMETRIC_REPRESENTATION_CONTEXT ( 3 ) GLOBAL_UNCERTAINTY_ASSIGNED_CONTEXT ( ( #151 ) ) GLOBAL_UNIT_ASSIGNED_CONTEXT ( ( #309, #621, #311 ) ) REPRESENTATION_CONTEXT ( 'NONE', 'WORKASPACE' ) );
#145 = CARTESIAN_POINT ( 'NONE',  ( 0.3042318837750199200, -0.05000000000000000300, 0.4394692377114726200 ) ) ;
#146 = CARTESIAN_POINT ( 'NONE',  ( -0.2639251044570636300, -0.05000000000000000300, 0.5659892130043893100 ) ) ;
#147 = ORIENTED_EDGE ( 'NONE', *, *, #501, .F. ) ;
#148 = CYLINDRICAL_SURFACE ( 'NONE', #158, 0.01000000000000003000 ) ;
#149 = CARTESIAN_POINT ( 'NONE',  ( 0.4324048875935032100, -0.05000000000000000300, 0.3603391371367539700 ) ) ;
#150 = DIRECTION ( 'NONE',  ( 0.0000000000000000000, 1.000000000000000000, 0.0000000000000000000 ) ) ;
#151 = UNCERTAINTY_MEASURE_WITH_UNIT (LENGTH_MEASURE( 1.000000000000000100E-005 ), #309, 'distance_accuracy_value', 'NONE');
#152 = PERSON_AND_ORGANIZATION_ROLE ( 'design_supplier' ) ;
#153 = AXIS2_PLACEMENT_3D ( 'NONE', #389, #386, #338 ) ;
#154 = VERTEX_POINT ( 'NONE', #67 ) ;
#155 = ORIENTED_EDGE ( 'NONE', *, *, #590, .T. ) ;
#156 = DATE_AND_TIME ( #487, #28 ) ;
#157 = VECTOR ( 'NONE', #566, 39.37007874015748900 ) ;
#158 = AXIS2_PLACEMENT_3D ( 'NONE', #280, #68, #59 ) ;
#159 = CYLINDRICAL_SURFACE ( 'NONE', #229, 0.01000000000000003000 ) ;
#160 = CARTESIAN_POINT ( 'NONE',  ( -0.4332764450209793400, 0.0000000000000000000, 0.3503771901558357900 ) ) ;
#161 = EDGE_CURVE ( 'NONE', #585, #140, #53, .T. ) ;
#162 = DIRECTION ( 'NONE',  ( -0.0000000000000000000, 1.000000000000000000, -0.0000000000000000000 ) ) ;
#163 = AXIS2_PLACEMENT_3D ( 'NONE', #528, #321, #16 ) ;
#164 = CARTESIAN_POINT ( 'NONE',  ( -0.3120759006223088300, -0.05000000000000000300, 0.3498117148832156100 ) ) ;
#165 = ORIENTED_EDGE ( 'NONE', *, *, #224, .F. ) ;
#166 = FACE_OUTER_BOUND ( 'NONE', #216, .T. ) ;
#167 = DIRECTION ( 'NONE',  ( 0.0000000000000000000, 0.0000000000000000000, -1.000000000000000000 ) ) ;
#168 = CIRCLE ( 'NONE', #406, 0.01000000000000003000 ) ;
#169 = DIRECTION ( 'NONE',  ( 0.0000000000000000000, 0.0000000000000000000, 1.000000000000000000 ) ) ;
#170 = DIRECTION ( 'NONE',  ( 0.0000000000000000000, 1.000000000000000000, 0.0000000000000000000 ) ) ;
#171 = AXIS2_PLACEMENT_3D ( 'NONE', #372, #580, #662 ) ;
#172 = DIRECTION ( 'NONE',  ( 0.0000000000000000000, 1.000000000000000000, 0.0000000000000000000 ) ) ;
#173 = EDGE_CURVE ( 'NONE', #217, #411, #606, .T. ) ;
#174 = DIRECTION ( 'NONE',  ( 0.0000000000000000000, 1.000000000000000000, 0.0000000000000000000 ) ) ;
#175 = CARTESIAN_POINT ( 'NONE',  ( 0.3042318837750199200, -0.05000000000000000300, 0.4394692377114726200 ) ) ;
#176 = DIRECTION ( 'NONE',  ( 0.0000000000000000000, 1.000000000000000000, 0.0000000000000000000 ) ) ;
#177 = EDGE_LOOP ( 'NONE', ( #573, #450, #349, #597 ) ) ;
#178 = ORIENTED_EDGE ( 'NONE', *, *, #490, .T. ) ;
#179 = CARTESIAN_POINT ( 'NONE',  ( -0.3042318837750199200, 0.0000000000000000000, 0.4394692377114726200 ) ) ;
#180 = EDGE_CURVE ( 'NONE', #535, #81, #478, .T. ) ;
#181 = DIRECTION ( 'NONE',  ( 0.0000000000000000000, 0.0000000000000000000, 1.000000000000000000 ) ) ;
#182 = FACE_OUTER_BOUND ( 'NONE', #262, .T. ) ;
#183 = DIRECTION ( 'NONE',  ( 0.0000000000000000000, -1.000000000000000000, 0.0000000000000000000 ) ) ;
#184 = AXIS2_PLACEMENT_3D ( 'NONE', #121, #639, #493 ) ;
#185 = CARTESIAN_POINT ( 'NONE',  ( 0.4380159060309273300, -0.05000000000000000300, 0.3608300376408635200 ) ) ;
#186 = CARTESIAN_POINT ( 'NONE',  ( -0.2639251044570633000, 0.0000000000000000000, 0.5659892130043895400 ) ) ;
#187 = DIRECTION ( 'NONE',  ( 0.0000000000000000000, 1.000000000000000000, 0.0000000000000000000 ) ) ;
#188 = VECTOR ( 'NONE', #264, 39.37007874015748100 ) ;
#189 = ORIENTED_EDGE ( 'NONE', *, *, #213, .F. ) ;
#190 = LOCAL_TIME ( 17, 51, 22.00000000000000000, #325 ) ;
#191 = CIRCLE ( 'NONE', #295, 0.6244999999999999400 ) ;
#192 = EDGE_CURVE ( 'NONE', #614, #417, #84, .T. ) ;
#193 = AXIS2_PLACEMENT_3D ( 'NONE', #160, #19, #12 ) ;
#194 = ORIENTED_EDGE ( 'NONE', *, *, #137, .F. ) ;
#195 = ORIENTED_EDGE ( 'NONE', *, *, #173, .T. ) ;
#196 = LINE ( 'NONE', #82, #319 ) ;
#197 = ADVANCED_FACE ( 'NONE', ( #427 ), #109, .T. ) ;
#198 = AXIS2_PLACEMENT_3D ( 'NONE', #415, #85, #449 ) ;
#199 = PERSON_AND_ORGANIZATION_ROLE ( 'design_owner' ) ;
#200 = ADVANCED_FACE ( 'NONE', ( #444 ), #556, .F. ) ;
#201 = EDGE_CURVE ( 'NONE', #417, #614, #143, .T. ) ;
#202 = DIRECTION ( 'NONE',  ( -0.0000000000000000000, 1.000000000000000000, -0.0000000000000000000 ) ) ;
#203 = VERTEX_POINT ( 'NONE', #397 ) ;
#204 = ORIENTED_EDGE ( 'NONE', *, *, #382, .T. ) ;
#205 = ORIENTED_EDGE ( 'NONE', *, *, #570, .T. ) ;
#206 = CARTESIAN_POINT ( 'NONE',  ( 0.3042318837750199200, 0.0000000000000000000, 0.4004692377114725800 ) ) ;
#207 = FACE_BOUND ( 'NONE', #122, .T. ) ;
#208 = DATE_TIME_ROLE ( 'classification_date' ) ;
#209 = AXIS2_PLACEMENT_3D ( 'NONE', #231, #582, #479 ) ;
#210 = ORIENTED_EDGE ( 'NONE', *, *, #247, .T. ) ;
#211 = ORIENTED_EDGE ( 'NONE', *, *, #376, .T. ) ;
#212 = VECTOR ( 'NONE', #499, 39.37007874015748100 ) ;
#213 = EDGE_CURVE ( 'NONE', #374, #154, #315, .T. ) ;
#214 = CARTESIAN_POINT ( 'NONE',  ( -0.3042318837750199200, 0.0000000000000000000, 0.4394692377114726200 ) ) ;
#215 = AXIS2_PLACEMENT_3D ( 'NONE', #297, #667, #91 ) ;
#216 = EDGE_LOOP ( 'NONE', ( #147, #495, #484, #627 ) ) ;
#217 = VERTEX_POINT ( 'NONE', #383 ) ;
#218 = CARTESIAN_POINT ( 'NONE',  ( -0.4413748707248323900, -0.05000000000000000300, 0.3562436627858897600 ) ) ;
#219 = DIRECTION ( 'NONE',  ( 0.0000000000000000000, 0.0000000000000000000, 1.000000000000000000 ) ) ;
#220 = SHAPE_DEFINITION_REPRESENTATION ( #384, #330 ) ;
#221 = CC_DESIGN_APPROVAL ( #545, ( #473 ) ) ;
#222 = VECTOR ( 'NONE', #530, 39.37007874015748100 ) ;
#223 = DIRECTION ( 'NONE',  ( 0.0000000000000000000, 0.0000000000000000000, 1.000000000000000000 ) ) ;
#224 = EDGE_CURVE ( 'NONE', #607, #608, #191, .T. ) ;
#225 = CARTESIAN_POINT ( 'NONE',  ( 0.3042318837750199200, 0.0000000000000000000, 0.4784692377114727100 ) ) ;
#226 = DIRECTION ( 'NONE',  ( 1.365923996832127500E-014, 0.0000000000000000000, -1.000000000000000000 ) ) ;
#227 = DIRECTION ( 'NONE',  ( -0.9961946980917453200, 0.0000000000000000000, -0.08715574274766023400 ) ) ;
#228 = EDGE_LOOP ( 'NONE', ( #134, #256, #205, #194 ) ) ;
#229 = AXIS2_PLACEMENT_3D ( 'NONE', #643, #393, #125 ) ;
#230 = VERTEX_POINT ( 'NONE', #599 ) ;
#231 = CARTESIAN_POINT ( 'NONE',  ( -0.4332764450209793400, -0.05000000000000000300, 0.3503771901558357900 ) ) ;
#232 = DIRECTION ( 'NONE',  ( 0.0000000000000000000, 1.000000000000000000, 0.0000000000000000000 ) ) ;
#233 = LENGTH_MEASURE_WITH_UNIT ( LENGTH_MEASURE( 0.02539999999999999900 ), #463 );
#234 = DIRECTION ( 'NONE',  ( 0.0000000000000000000, 1.000000000000000000, 0.0000000000000000000 ) ) ;
#235 = DIRECTION ( 'NONE',  ( 0.0000000000000000000, 0.0000000000000000000, 1.000000000000000000 ) ) ;
#236 = DIRECTION ( 'NONE',  ( 0.0000000000000000000, 0.0000000000000000000, 1.000000000000000000 ) ) ;
#237 = DIRECTION ( 'NONE',  ( 0.0000000000000000000, 1.000000000000000000, 0.0000000000000000000 ) ) ;
#238 = ORIENTED_EDGE ( 'NONE', *, *, #620, .F. ) ;
#239 = ORIENTED_EDGE ( 'NONE', *, *, #376, .F. ) ;
#240 = EDGE_CURVE ( 'NONE', #203, #154, #540, .T. ) ;
#241 = APPROVAL_PERSON_ORGANIZATION ( #657, #545, #469 ) ;
#242 = FACE_OUTER_BOUND ( 'NONE', #112, .T. ) ;
#243 = FACE_OUTER_BOUND ( 'NONE', #523, .T. ) ;
#244 = CARTESIAN_POINT ( 'NONE',  ( 0.4332764450209797800, -0.05000000000000000300, 0.3503771901558365200 ) ) ;
#245 = APPROVAL ( #250, 'UNSPECIFIED' ) ;
#246 = VERTEX_POINT ( 'NONE', #651 ) ;
#247 = EDGE_CURVE ( 'NONE', #396, #246, #589, .T. ) ;
#248 = FACE_BOUND ( 'NONE', #423, .T. ) ;
#249 = EDGE_CURVE ( 'NONE', #336, #544, #576, .T. ) ;
#250 = APPROVAL_STATUS ( 'not_yet_approved' ) ;
#251 = MANIFOLD_SOLID_BREP ( 'Fillet1', #455 ) ;
#252 = ORIENTED_EDGE ( 'NONE', *, *, #538, .T. ) ;
#253 = APPLICATION_PROTOCOL_DEFINITION ( 'international standard', 'config_control_design', 1994, #558 ) ;
#254 = ORIENTED_EDGE ( 'NONE', *, *, #422, .T. ) ;
#255 = ADVANCED_FACE ( 'NONE', ( #308 ), #352, .F. ) ;
#256 = ORIENTED_EDGE ( 'NONE', *, *, #99, .T. ) ;
#257 = LOCAL_TIME ( 17, 51, 22.00000000000000000, #270 ) ;
#258 = PERSON_AND_ORGANIZATION ( #353, #64 ) ;
#259 = AXIS2_PLACEMENT_3D ( 'NONE', #577, #320, #271 ) ;
#260 = AXIS2_PLACEMENT_3D ( 'NONE', #29, #174, #219 ) ;
#261 = EDGE_CURVE ( 'NONE', #154, #584, #453, .T. ) ;
#262 = EDGE_LOOP ( 'NONE', ( #536, #178, #35, #519 ) ) ;
#263 = ORIENTED_EDGE ( 'NONE', *, *, #468, .F. ) ;
#264 = DIRECTION ( 'NONE',  ( 0.0000000000000000000, -1.000000000000000000, 0.0000000000000000000 ) ) ;
#265 = CIRCLE ( 'NONE', #193, 0.01000000000000003000 ) ;
#266 = ORIENTED_EDGE ( 'NONE', *, *, #313, .F. ) ;
#267 = CARTESIAN_POINT ( 'NONE',  ( -0.4332764450209793400, 0.0000000000000000000, 0.3503771901558357900 ) ) ;
#268 = ORIENTED_EDGE ( 'NONE', *, *, #434, .T. ) ;
#269 = AXIS2_PLACEMENT_3D ( 'NONE', #78, #286, #641 ) ;
#270 = COORDINATED_UNIVERSAL_TIME_OFFSET ( 6, 0, .BEHIND. ) ;
#271 = DIRECTION ( 'NONE',  ( 0.0000000000000000000, 0.0000000000000000000, -1.000000000000000000 ) ) ;
#272 = CIRCLE ( 'NONE', #153, 0.08999999999999999700 ) ;
#273 = DIRECTION ( 'NONE',  ( -0.0000000000000000000, -1.000000000000000000, -0.0000000000000000000 ) ) ;
#274 = EDGE_CURVE ( 'NONE', #629, #368, #405, .T. ) ;
#275 = DIRECTION ( 'NONE',  ( 0.0000000000000000000, 1.000000000000000000, 0.0000000000000000000 ) ) ;
#276 = DIRECTION ( 'NONE',  ( 0.0000000000000000000, 0.0000000000000000000, 1.000000000000000000 ) ) ;
#277 = CARTESIAN_POINT ( 'NONE',  ( -0.3042318837750199200, 0.0000000000000000000, 0.4004692377114726400 ) ) ;
#278 = DIRECTION ( 'NONE',  ( 0.0000000000000000000, 1.000000000000000000, 0.0000000000000000000 ) ) ;
#279 = ORIENTED_EDGE ( 'NONE', *, *, #367, .T. ) ;
#280 = CARTESIAN_POINT ( 'NONE',  ( 0.4332764450209797800, -0.05000000000000000300, 0.3503771901558365200 ) ) ;
#281 = CIRCLE ( 'NONE', #612, 0.03899999999999997900 ) ;
#282 = DIRECTION ( 'NONE',  ( 0.4226182617406937800, -0.0000000000000000000, 0.9063077870366527100 ) ) ;
#283 = CARTESIAN_POINT ( 'NONE',  ( -0.2639251044570633000, -0.05000000000000000300, 0.5659892130043895400 ) ) ;
#284 = DIRECTION ( 'NONE',  ( 0.0000000000000000000, 1.000000000000000000, 0.0000000000000000000 ) ) ;
#285 = CARTESIAN_POINT ( 'NONE',  ( -0.4380159060309267700, 0.0000000000000000000, 0.3608300376408627400 ) ) ;
#286 = DIRECTION ( 'NONE',  ( 0.0000000000000000000, 1.000000000000000000, 0.0000000000000000000 ) ) ;
#287 = DIRECTION ( 'NONE',  ( -0.0000000000000000000, 1.000000000000000000, -0.0000000000000000000 ) ) ;
#288 = CIRCLE ( 'NONE', #552, 0.08999999999999999700 ) ;
#289 = EDGE_LOOP ( 'NONE', ( #421, #485 ) ) ;
#290 = ORIENTED_EDGE ( 'NONE', *, *, #74, .T. ) ;
#291 = CARTESIAN_POINT ( 'NONE',  ( -0.3042318837750199200, 0.0000000000000000000, 0.4784692377114725900 ) ) ;
#292 = CYLINDRICAL_SURFACE ( 'NONE', #373, 0.5450131752333554600 ) ;
#293 = DIRECTION ( 'NONE',  ( 0.0000000000000000000, 0.0000000000000000000, -1.000000000000000000 ) ) ;
#294 = VECTOR ( 'NONE', #575, 39.37007874015748100 ) ;
#295 = AXIS2_PLACEMENT_3D ( 'NONE', #496, #647, #181 ) ;
#296 = DIRECTION ( 'NONE',  ( 0.0000000000000000000, 0.0000000000000000000, 1.000000000000000000 ) ) ;
#297 = CARTESIAN_POINT ( 'NONE',  ( -0.4380159060309267700, -0.05000000000000000300, 0.3608300376408627400 ) ) ;
#298 = ORIENTED_EDGE ( 'NONE', *, *, #99, .F. ) ;
#299 = ORIENTED_EDGE ( 'NONE', *, *, #136, .T. ) ;
#300 = CIRCLE ( 'NONE', #123, 0.03900000000000004900 ) ;
#301 = ADVANCED_FACE ( 'NONE', ( #3 ), #159, .F. ) ;
#302 = AXIS2_PLACEMENT_3D ( 'NONE', #283, #18, #482 ) ;
#303 = ORIENTED_EDGE ( 'NONE', *, *, #247, .F. ) ;
#304 = CC_DESIGN_SECURITY_CLASSIFICATION ( #473, ( #551 ) ) ;
#305 = ORIENTED_EDGE ( 'NONE', *, *, #516, .T. ) ;
#306 = DATE_TIME_ROLE ( 'creation_date' ) ;
#307 = CIRCLE ( 'NONE', #7, 0.01000000000000003000 ) ;
#308 = FACE_OUTER_BOUND ( 'NONE', #430, .T. ) ;
#309 =( CONVERSION_BASED_UNIT ( 'INCH', #233 ) LENGTH_UNIT ( ) NAMED_UNIT ( #133 ) );
#310 = CARTESIAN_POINT ( 'NONE',  ( 0.4380159060309273300, -0.05000000000000000300, 0.3608300376408635200 ) ) ;
#311 =( NAMED_UNIT ( * ) SI_UNIT ( $, .STERADIAN. ) SOLID_ANGLE_UNIT ( ) );
#312 = ORIENTED_EDGE ( 'NONE', *, *, #201, .F. ) ;
#313 = EDGE_CURVE ( 'NONE', #362, #374, #265, .T. ) ;
#314 = APPROVAL_DATE_TIME ( #452, #245 ) ;
#315 = CIRCLE ( 'NONE', #100, 0.5450131752333554600 ) ;
#316 = CARTESIAN_POINT ( 'NONE',  ( 0.4324048875935032100, -0.05000000000000000300, 0.3603391371367539700 ) ) ;
#317 = ORIENTED_EDGE ( 'NONE', *, *, #541, .T. ) ;
#318 = ORIENTED_EDGE ( 'NONE', *, *, #224, .T. ) ;
#319 = VECTOR ( 'NONE', #284, 39.37007874015748100 ) ;
#320 = DIRECTION ( 'NONE',  ( 0.0000000000000000000, -1.000000000000000000, 0.0000000000000000000 ) ) ;
#321 = DIRECTION ( 'NONE',  ( 0.0000000000000000000, -1.000000000000000000, 0.0000000000000000000 ) ) ;
#322 = FACE_OUTER_BOUND ( 'NONE', #228, .T. ) ;
#323 = ORIENTED_EDGE ( 'NONE', *, *, #633, .F. ) ;
#324 = ORIENTED_EDGE ( 'NONE', *, *, #583, .F. ) ;
#325 = COORDINATED_UNIVERSAL_TIME_OFFSET ( 6, 0, .BEHIND. ) ;
#326 = CARTESIAN_POINT ( 'NONE',  ( -0.3042318837750199200, -0.05000000000000000300, 0.4784692377114725900 ) ) ;
#327 = LINE ( 'NONE', #108, #294 ) ;
#328 = DIRECTION ( 'NONE',  ( 0.0000000000000000000, 0.0000000000000000000, 1.000000000000000000 ) ) ;
#329 = EDGE_CURVE ( 'NONE', #246, #544, #526, .T. ) ;
#330 = ADVANCED_BREP_SHAPE_REPRESENTATION ( '91580A221_Internal Retaining Ring', ( #251, #198 ), #144 ) ;
#331 = DIRECTION ( 'NONE',  ( 0.0000000000000000000, 1.000000000000000000, 0.0000000000000000000 ) ) ;
#332 = CARTESIAN_POINT ( 'NONE',  ( 0.3042318837750199200, -0.05000000000000000300, 0.4394692377114726200 ) ) ;
#333 = CARTESIAN_POINT ( 'NONE',  ( 0.2639251044570633000, -0.05000000000000000300, 0.5659892130043895400 ) ) ;
#334 = ORIENTED_EDGE ( 'NONE', *, *, #434, .F. ) ;
#335 = DIRECTION ( 'NONE',  ( 0.0000000000000000000, 0.0000000000000000000, 1.000000000000000000 ) ) ;
#336 = VERTEX_POINT ( 'NONE', #164 ) ;
#337 = DIRECTION ( 'NONE',  ( -0.0000000000000000000, -1.000000000000000000, -0.0000000000000000000 ) ) ;
#338 = DIRECTION ( 'NONE',  ( 0.0000000000000000000, 0.0000000000000000000, -1.000000000000000000 ) ) ;
#339 = PRODUCT_RELATED_PRODUCT_CATEGORY ( 'detail', '', ( #642 ) ) ;
#340 = LINE ( 'NONE', #460, #212 ) ;
#341 = CARTESIAN_POINT ( 'NONE',  ( 0.4332764450209797800, 0.0000000000000000000, 0.3603771901558365800 ) ) ;
#342 = DIRECTION ( 'NONE',  ( 0.0000000000000000000, 1.000000000000000000, 0.0000000000000000000 ) ) ;
#343 = DIRECTION ( 'NONE',  ( 0.0000000000000000000, -0.0000000000000000000, -1.000000000000000000 ) ) ;
#344 = AXIS2_PLACEMENT_3D ( 'NONE', #539, #33, #547 ) ;
#345 = DIRECTION ( 'NONE',  ( 0.0000000000000000000, 1.000000000000000000, 0.0000000000000000000 ) ) ;
#346 = VERTEX_POINT ( 'NONE', #113 ) ;
#347 = ORIENTED_EDGE ( 'NONE', *, *, #422, .F. ) ;
#348 = DIRECTION ( 'NONE',  ( 0.4226182617406937800, 0.0000000000000000000, -0.9063077870366527100 ) ) ;
#349 = ORIENTED_EDGE ( 'NONE', *, *, #261, .F. ) ;
#350 = DIRECTION ( 'NONE',  ( 0.0000000000000000000, 0.0000000000000000000, 1.000000000000000000 ) ) ;
#351 = LINE ( 'NONE', #392, #40 ) ;
#352 = CYLINDRICAL_SURFACE ( 'NONE', #506, 0.03899999999999997900 ) ;
#353 = PERSON ( 'UNSPECIFIED', 'UNSPECIFIED', 'UNSPECIFIED', ('UNSPECIFIED'), ('UNSPECIFIED'), ('UNSPECIFIED') ) ;
#354 = DESIGN_CONTEXT ( 'detailed design', #558, 'design' ) ;
#355 = ORIENTED_EDGE ( 'NONE', *, *, #192, .T. ) ;
#356 = ORIENTED_EDGE ( 'NONE', *, *, #329, .F. ) ;
#357 = APPROVAL_DATE_TIME ( #156, #578 ) ;
#358 = CIRCLE ( 'NONE', #497, 0.03899999999999997900 ) ;
#359 = CARTESIAN_POINT ( 'NONE',  ( 0.3042318837750199200, -0.05000000000000000300, 0.4394692377114726200 ) ) ;
#360 = DIRECTION ( 'NONE',  ( 0.0000000000000000000, 1.000000000000000000, 0.0000000000000000000 ) ) ;
#361 = VERTEX_POINT ( 'NONE', #277 ) ;
#362 = VERTEX_POINT ( 'NONE', #60 ) ;
#363 = ORIENTED_EDGE ( 'NONE', *, *, #367, .F. ) ;
#364 = LINE ( 'NONE', #489, #442 ) ;
#365 = MECHANICAL_CONTEXT ( 'NONE', #402, 'mechanical' ) ;
#366 = EDGE_LOOP ( 'NONE', ( #645, #660, #477, #521 ) ) ;
#367 = EDGE_CURVE ( 'NONE', #475, #572, #327, .T. ) ;
#368 = VERTEX_POINT ( 'NONE', #326 ) ;
#369 = AXIS2_PLACEMENT_3D ( 'NONE', #32, #445, #439 ) ;
#370 = FACE_OUTER_BOUND ( 'NONE', #438, .T. ) ;
#371 = ORIENTED_EDGE ( 'NONE', *, *, #447, .F. ) ;
#372 = CARTESIAN_POINT ( 'NONE',  ( -0.3042318837750199200, -0.05000000000000000300, 0.4394692377114726200 ) ) ;
#373 = AXIS2_PLACEMENT_3D ( 'NONE', #89, #187, #44 ) ;
#374 = VERTEX_POINT ( 'NONE', #632 ) ;
#375 = DIRECTION ( 'NONE',  ( 0.0000000000000000000, 0.0000000000000000000, 1.000000000000000000 ) ) ;
#376 = EDGE_CURVE ( 'NONE', #661, #362, #168, .T. ) ;
#377 = PERSON_AND_ORGANIZATION ( #353, #64 ) ;
#378 = LINE ( 'NONE', #22, #514 ) ;
#379 = LINE ( 'NONE', #601, #631 ) ;
#380 = CARTESIAN_POINT ( 'NONE',  ( 0.4332764450209797800, -0.05000000000000000300, 0.3603771901558365800 ) ) ;
#381 = DIRECTION ( 'NONE',  ( 0.4226182617406937800, 0.0000000000000000000, 0.9063077870366524900 ) ) ;
#382 = EDGE_CURVE ( 'NONE', #584, #385, #569, .T. ) ;
#383 = CARTESIAN_POINT ( 'NONE',  ( 0.3042318837750199200, -0.05000000000000000300, 0.4784692377114727100 ) ) ;
#384 = PRODUCT_DEFINITION_SHAPE ( 'NONE', 'NONE',  #474 ) ;
#385 = VERTEX_POINT ( 'NONE', #8 ) ;
#386 = DIRECTION ( 'NONE',  ( -0.0000000000000000000, 1.000000000000000000, -0.0000000000000000000 ) ) ;
#387 = AXIS2_PLACEMENT_3D ( 'NONE', #587, #172, #594 ) ;
#388 = FACE_BOUND ( 'NONE', #289, .T. ) ;
#389 = CARTESIAN_POINT ( 'NONE',  ( 0.3042318837750199200, -0.05000000000000000300, 0.4394692377114726200 ) ) ;
#390 = CARTESIAN_POINT ( 'NONE',  ( 0.3120759006223094400, -0.05000000000000000300, 0.3498117148832156600 ) ) ;
#391 = CARTESIAN_POINT ( 'NONE',  ( 5.511805507587151900E-016, 0.0000000000000000000, 0.03651317523335548300 ) ) ;
#392 = CARTESIAN_POINT ( 'NONE',  ( 0.2226641829417211600, -0.05000000000000000300, 0.4775048812681351200 ) ) ;
#393 = DIRECTION ( 'NONE',  ( 0.0000000000000000000, 1.000000000000000000, 0.0000000000000000000 ) ) ;
#394 = EDGE_LOOP ( 'NONE', ( #618, #1, #318, #55 ) ) ;
#395 = ORIENTED_EDGE ( 'NONE', *, *, #180, .F. ) ;
#396 = VERTEX_POINT ( 'NONE', #14 ) ;
#397 = CARTESIAN_POINT ( 'NONE',  ( 0.4413748707248327800, -0.05000000000000000300, 0.3562436627858907000 ) ) ;
#398 = DATE_AND_TIME ( #424, #419 ) ;
#399 = CARTESIAN_POINT ( 'NONE',  ( -0.3042318837750199200, -0.05000000000000000300, 0.4394692377114726200 ) ) ;
#400 = VECTOR ( 'NONE', #531, 39.37007874015748100 ) ;
#401 = CARTESIAN_POINT ( 'NONE',  ( 0.3042318837750199200, 0.0000000000000000000, 0.4394692377114726200 ) ) ;
#402 = APPLICATION_CONTEXT ( 'configuration controlled 3d designs of mechanical parts and assemblies' ) ;
#403 = ADVANCED_FACE ( 'NONE', ( #388, #248, #658 ), #483, .F. ) ;
#404 = ORIENTED_EDGE ( 'NONE', *, *, #620, .T. ) ;
#405 = CIRCLE ( 'NONE', #592, 0.03899999999999997900 ) ;
#406 = AXIS2_PLACEMENT_3D ( 'NONE', #267, #66, #524 ) ;
#407 = ADVANCED_FACE ( 'NONE', ( #435 ), #148, .F. ) ;
#408 = ORIENTED_EDGE ( 'NONE', *, *, #192, .F. ) ;
#409 = APPROVAL_STATUS ( 'not_yet_approved' ) ;
#410 = ORIENTED_EDGE ( 'NONE', *, *, #51, .T. ) ;
#411 = VERTEX_POINT ( 'NONE', #533 ) ;
#412 = PERSON_AND_ORGANIZATION ( #353, #64 ) ;
#413 = CARTESIAN_POINT ( 'NONE',  ( -0.3042318837750199200, -0.05000000000000000300, 0.4004692377114726400 ) ) ;
#414 = VECTOR ( 'NONE', #24, 39.37007874015748900 ) ;
#415 = CARTESIAN_POINT ( 'NONE',  ( 0.0000000000000000000, 0.0000000000000000000, 0.0000000000000000000 ) ) ;
#416 = ORIENTED_EDGE ( 'NONE', *, *, #74, .F. ) ;
#417 = VERTEX_POINT ( 'NONE', #225 ) ;
#418 = APPROVAL_STATUS ( 'not_yet_approved' ) ;
#419 = LOCAL_TIME ( 17, 51, 22.00000000000000000, #637 ) ;
#420 = LINE ( 'NONE', #111, #36 ) ;
#421 = ORIENTED_EDGE ( 'NONE', *, *, #541, .F. ) ;
#422 = EDGE_CURVE ( 'NONE', #62, #511, #30, .T. ) ;
#423 = EDGE_LOOP ( 'NONE', ( #312, #408 ) ) ;
#424 = CALENDAR_DATE ( 2021, 8, 9 ) ;
#425 = CYLINDRICAL_SURFACE ( 'NONE', #107, 0.03900000000000004900 ) ;
#426 = DIRECTION ( 'NONE',  ( 0.0000000000000000000, 1.000000000000000000, 0.0000000000000000000 ) ) ;
#427 = FACE_OUTER_BOUND ( 'NONE', #465, .T. ) ;
#428 = DIRECTION ( 'NONE',  ( 0.0000000000000000000, 1.000000000000000000, 0.0000000000000000000 ) ) ;
#429 = CARTESIAN_POINT ( 'NONE',  ( -0.3042318837750199200, -0.05000000000000000300, 0.4394692377114726200 ) ) ;
#430 = EDGE_LOOP ( 'NONE', ( #298, #334, #97, #317 ) ) ;
#431 = ORIENTED_EDGE ( 'NONE', *, *, #329, .T. ) ;
#432 = AXIS2_PLACEMENT_3D ( 'NONE', #486, #437, #226 ) ;
#433 = DIRECTION ( 'NONE',  ( 0.0000000000000000000, 1.000000000000000000, 0.0000000000000000000 ) ) ;
#434 = EDGE_CURVE ( 'NONE', #368, #629, #281, .T. ) ;
#435 = FACE_OUTER_BOUND ( 'NONE', #567, .T. ) ;
#436 = DIRECTION ( 'NONE',  ( 0.0000000000000000000, 1.000000000000000000, 0.0000000000000000000 ) ) ;
#437 = DIRECTION ( 'NONE',  ( -0.0000000000000000000, 1.000000000000000000, -0.0000000000000000000 ) ) ;
#438 = EDGE_LOOP ( 'NONE', ( #416, #404, #239, #559 ) ) ;
#439 = DIRECTION ( 'NONE',  ( 0.0000000000000000000, 0.0000000000000000000, 1.000000000000000000 ) ) ;
#440 = COORDINATED_UNIVERSAL_TIME_OFFSET ( 6, 0, .BEHIND. ) ;
#441 = DIRECTION ( 'NONE',  ( 0.08715574274766023400, 0.0000000000000000000, -0.9961946980917453200 ) ) ;
#442 = VECTOR ( 'NONE', #542, 39.37007874015748100 ) ;
#443 = DIRECTION ( 'NONE',  ( 0.0000000000000000000, -1.000000000000000000, 0.0000000000000000000 ) ) ;
#444 = FACE_OUTER_BOUND ( 'NONE', #177, .T. ) ;
#445 = DIRECTION ( 'NONE',  ( 0.0000000000000000000, 1.000000000000000000, 0.0000000000000000000 ) ) ;
#446 = CARTESIAN_POINT ( 'NONE',  ( 0.2639251044570633000, 0.0000000000000000000, 0.5659892130043895400 ) ) ;
#447 = EDGE_CURVE ( 'NONE', #511, #584, #98, .T. ) ;
#448 = ORIENTED_EDGE ( 'NONE', *, *, #583, .T. ) ;
#449 = DIRECTION ( 'NONE',  ( 1.000000000000000000, 0.0000000000000000000, 0.0000000000000000000 ) ) ;
#450 = ORIENTED_EDGE ( 'NONE', *, *, #447, .T. ) ;
#451 = EDGE_CURVE ( 'NONE', #411, #217, #300, .T. ) ;
#452 = DATE_AND_TIME ( #10, #190 ) ;
#453 = CIRCLE ( 'NONE', #481, 0.01000000000000003000 ) ;
#454 = EDGE_LOOP ( 'NONE', ( #189, #17, #546, #39 ) ) ;
#455 = CLOSED_SHELL ( 'NONE', ( #200, #509, #37, #611, #47, #562, #605, #665, #141, #197, #504, #88, #457, #403, #655, #255, #301, #407 ) ) ;
#456 = APPROVAL_PERSON_ORGANIZATION ( #412, #578, #461 ) ;
#457 = ADVANCED_FACE ( 'NONE', ( #207, #116, #243 ), #591, .T. ) ;
#458 = FACE_OUTER_BOUND ( 'NONE', #366, .T. ) ;
#459 = EDGE_CURVE ( 'NONE', #385, #81, #379, .T. ) ;
#460 = CARTESIAN_POINT ( 'NONE',  ( -0.4332764450209793400, -0.05000000000000000300, 0.3603771901558358000 ) ) ;
#461 = APPROVAL_ROLE ( '' ) ;
#462 = FACE_OUTER_BOUND ( 'NONE', #471, .T. ) ;
#463 =( LENGTH_UNIT ( ) NAMED_UNIT ( * ) SI_UNIT ( $, .METRE. ) );
#464 = VERTEX_POINT ( 'NONE', #291 ) ;
#465 = EDGE_LOOP ( 'NONE', ( #303, #5, #71, #155 ) ) ;
#466 = VECTOR ( 'NONE', #653, 39.37007874015748900 ) ;
#467 = VECTOR ( 'NONE', #337, 39.37007874015748100 ) ;
#468 = EDGE_CURVE ( 'NONE', #374, #585, #498, .T. ) ;
#469 = APPROVAL_ROLE ( '' ) ;
#470 = ORIENTED_EDGE ( 'NONE', *, *, #274, .T. ) ;
#471 = EDGE_LOOP ( 'NONE', ( #602, #395, #628, #448 ) ) ;
#472 = VECTOR ( 'NONE', #282, 39.37007874015748100 ) ;
#473 = SECURITY_CLASSIFICATION ( '', '', #571 ) ;
#474 = PRODUCT_DEFINITION ( 'UNKNOWN', '', #551, #354 ) ;
#475 = VERTEX_POINT ( 'NONE', #76 ) ;
#476 = ORIENTED_EDGE ( 'NONE', *, *, #249, .T. ) ;
#477 = ORIENTED_EDGE ( 'NONE', *, *, #633, .T. ) ;
#478 = LINE ( 'NONE', #114, #95 ) ;
#479 = DIRECTION ( 'NONE',  ( 0.0000000000000000000, 0.0000000000000000000, -1.000000000000000000 ) ) ;
#480 = CARTESIAN_POINT ( 'NONE',  ( 0.4332764450209797800, -0.05000000000000000300, 0.3503771901558365200 ) ) ;
#481 = AXIS2_PLACEMENT_3D ( 'NONE', #27, #443, #293 ) ;
#482 = DIRECTION ( 'NONE',  ( 0.4226182617406937800, 0.0000000000000000000, -0.9063077870366524900 ) ) ;
#483 = PLANE ( 'NONE',  #163 ) ;
#484 = ORIENTED_EDGE ( 'NONE', *, *, #654, .T. ) ;
#485 = ORIENTED_EDGE ( 'NONE', *, *, #570, .F. ) ;
#486 = CARTESIAN_POINT ( 'NONE',  ( -0.4332764450209793400, -0.05000000000000000300, 0.3503771901558357900 ) ) ;
#487 = CALENDAR_DATE ( 2021, 8, 9 ) ;
#488 = VECTOR ( 'NONE', #126, 39.37007874015748100 ) ;
#489 = CARTESIAN_POINT ( 'NONE',  ( -0.4324048875935027600, 0.0000000000000000000, 0.3603391371367532000 ) ) ;
#490 = EDGE_CURVE ( 'NONE', #230, #661, #364, .T. ) ;
#491 = CARTESIAN_POINT ( 'NONE',  ( -0.4413748707248323900, -0.05000000000000000300, 0.3562436627858897600 ) ) ;
#492 = EDGE_CURVE ( 'NONE', #608, #346, #626, .T. ) ;
#493 = DIRECTION ( 'NONE',  ( 0.0000000000000000000, 0.0000000000000000000, 1.000000000000000000 ) ) ;
#494 = ORIENTED_EDGE ( 'NONE', *, *, #213, .T. ) ;
#495 = ORIENTED_EDGE ( 'NONE', *, *, #173, .F. ) ;
#496 = CARTESIAN_POINT ( 'NONE',  ( 0.0000000000000000000, -0.05000000000000000300, 0.0000000000000000000 ) ) ;
#497 = AXIS2_PLACEMENT_3D ( 'NONE', #179, #130, #236 ) ;
#498 = LINE ( 'NONE', #218, #467 ) ;
#499 = DIRECTION ( 'NONE',  ( 0.0000000000000000000, 1.000000000000000000, 0.0000000000000000000 ) ) ;
#500 = AXIS2_PLACEMENT_3D ( 'NONE', #61, #436, #276 ) ;
#501 = EDGE_CURVE ( 'NONE', #411, #614, #196, .T. ) ;
#502 = EDGE_LOOP ( 'NONE', ( #363, #324, #305, #252 ) ) ;
#503 = ORIENTED_EDGE ( 'NONE', *, *, #382, .F. ) ;
#504 = ADVANCED_FACE ( 'NONE', ( #127 ), #609, .T. ) ;
#505 = APPROVAL_PERSON_ORGANIZATION ( #604, #245, #610 ) ;
#506 = AXIS2_PLACEMENT_3D ( 'NONE', #600, #342, #296 ) ;
#507 = AXIS2_PLACEMENT_3D ( 'NONE', #359, #360, #350 ) ;
#508 = PLANE ( 'NONE',  #215 ) ;
#509 = ADVANCED_FACE ( 'NONE', ( #370 ), #598, .F. ) ;
#510 = ORIENTED_EDGE ( 'NONE', *, *, #128, .F. ) ;
#511 = VERTEX_POINT ( 'NONE', #644 ) ;
#512 = CC_DESIGN_APPROVAL ( #245, ( #474 ) ) ;
#513 = DIRECTION ( 'NONE',  ( 0.0000000000000000000, 0.0000000000000000000, -1.000000000000000000 ) ) ;
#514 = VECTOR ( 'NONE', #234, 39.37007874015748100 ) ;
#515 = VECTOR ( 'NONE', #150, 39.37007874015748100 ) ;
#516 = EDGE_CURVE ( 'NONE', #104, #607, #574, .T. ) ;
#517 = CARTESIAN_POINT ( 'NONE',  ( -0.4324048875935027600, 0.0000000000000000000, 0.3603391371367532000 ) ) ;
#518 = PERSON_AND_ORGANIZATION_ROLE ( 'classification_officer' ) ;
#519 = ORIENTED_EDGE ( 'NONE', *, *, #249, .F. ) ;
#520 = FACE_OUTER_BOUND ( 'NONE', #502, .T. ) ;
#521 = ORIENTED_EDGE ( 'NONE', *, *, #180, .T. ) ;
#522 = ORIENTED_EDGE ( 'NONE', *, *, #451, .F. ) ;
#523 = EDGE_LOOP ( 'NONE', ( #510, #323, #254, #124, #101, #87, #290, #86, #617, #656, #165, #634 ) ) ;
#524 = DIRECTION ( 'NONE',  ( 0.0000000000000000000, 0.0000000000000000000, -1.000000000000000000 ) ) ;
#525 = FACE_OUTER_BOUND ( 'NONE', #454, .T. ) ;
#526 = CIRCLE ( 'NONE', #624, 0.08999999999999999700 ) ;
#527 = AXIS2_PLACEMENT_3D ( 'NONE', #480, #162, #167 ) ;
#528 = CARTESIAN_POINT ( 'NONE',  ( 0.3042318837750199200, 0.0000000000000000000, 0.4394692377114726200 ) ) ;
#529 = AXIS2_PLACEMENT_3D ( 'NONE', #429, #428, #223 ) ;
#530 = DIRECTION ( 'NONE',  ( 0.0000000000000000000, 1.000000000000000000, 0.0000000000000000000 ) ) ;
#531 = DIRECTION ( 'NONE',  ( 0.0000000000000000000, 1.000000000000000000, 0.0000000000000000000 ) ) ;
#532 = CARTESIAN_POINT ( 'NONE',  ( 0.3042318837750199200, 0.0000000000000000000, 0.4394692377114726200 ) ) ;
#533 = CARTESIAN_POINT ( 'NONE',  ( 0.3042318837750199200, -0.05000000000000000300, 0.4004692377114725800 ) ) ;
#534 = AXIS2_PLACEMENT_3D ( 'NONE', #333, #118, #381 ) ;
#535 = VERTEX_POINT ( 'NONE', #390 ) ;
#536 = ORIENTED_EDGE ( 'NONE', *, *, #663, .T. ) ;
#537 = CARTESIAN_POINT ( 'NONE',  ( -0.4332764450209793400, -0.05000000000000000300, 0.3603771901558358000 ) ) ;
#538 = EDGE_CURVE ( 'NONE', #607, #572, #57, .T. ) ;
#539 = CARTESIAN_POINT ( 'NONE',  ( 0.0000000000000000000, -0.05000000000000000300, 0.0000000000000000000 ) ) ;
#540 = LINE ( 'NONE', #77, #20 ) ;
#541 = EDGE_CURVE ( 'NONE', #464, #361, #358, .T. ) ;
#542 = DIRECTION ( 'NONE',  ( -0.0000000000000000000, 1.000000000000000000, -0.0000000000000000000 ) ) ;
#543 = CARTESIAN_POINT ( 'NONE',  ( -0.3042318837750199200, -0.05000000000000000300, 0.4784692377114725900 ) ) ;
#544 = VERTEX_POINT ( 'NONE', #119 ) ;
#545 = APPROVAL ( #418, 'UNSPECIFIED' ) ;
#546 = ORIENTED_EDGE ( 'NONE', *, *, #2, .T. ) ;
#547 = DIRECTION ( 'NONE',  ( 0.0000000000000000000, 0.0000000000000000000, 1.000000000000000000 ) ) ;
#548 = DATE_AND_TIME ( #93, #9 ) ;
#549 = PERSON_AND_ORGANIZATION ( #353, #64 ) ;
#550 = VECTOR ( 'NONE', #237, 39.37007874015748100 ) ;
#551 = PRODUCT_DEFINITION_FORMATION_WITH_SPECIFIED_SOURCE ( 'ANY', '', #642, .NOT_KNOWN. ) ;
#552 = AXIS2_PLACEMENT_3D ( 'NONE', #399, #331, #335 ) ;
#553 = DIRECTION ( 'NONE',  ( 0.0000000000000000000, 0.0000000000000000000, 1.000000000000000000 ) ) ;
#554 = ORIENTED_EDGE ( 'NONE', *, *, #590, .F. ) ;
#555 = AXIS2_PLACEMENT_3D ( 'NONE', #593, #433, #169 ) ;
#556 = CYLINDRICAL_SURFACE ( 'NONE', #555, 0.01000000000000003000 ) ;
#557 = ORIENTED_EDGE ( 'NONE', *, *, #459, .T. ) ;
#558 = APPLICATION_CONTEXT ( 'configuration controlled 3d designs of mechanical parts and assemblies' ) ;
#559 = ORIENTED_EDGE ( 'NONE', *, *, #490, .F. ) ;
#560 = AXIS2_PLACEMENT_3D ( 'NONE', #72, #273, #54 ) ;
#561 = DATE_AND_TIME ( #75, #257 ) ;
#562 = ADVANCED_FACE ( 'NONE', ( #458 ), #31, .T. ) ;
#563 = VECTOR ( 'NONE', #613, 39.37007874015748100 ) ;
#564 = DIRECTION ( 'NONE',  ( 0.0000000000000000000, 1.000000000000000000, 0.0000000000000000000 ) ) ;
#565 = LINE ( 'NONE', #285, #414 ) ;
#566 = DIRECTION ( 'NONE',  ( -0.9961946980917457700, -0.0000000000000000000, 0.08715574274765428000 ) ) ;
#567 = EDGE_LOOP ( 'NONE', ( #371, #347, #6, #503 ) ) ;
#568 = PERSON_AND_ORGANIZATION ( #353, #64 ) ;
#569 = CIRCLE ( 'NONE', #259, 0.01000000000000003000 ) ;
#570 = EDGE_CURVE ( 'NONE', #361, #464, #588, .T. ) ;
#571 = SECURITY_CLASSIFICATION_LEVEL ( 'unclassified' ) ;
#572 = VERTEX_POINT ( 'NONE', #446 ) ;
#573 = ORIENTED_EDGE ( 'NONE', *, *, #638, .F. ) ;
#574 = LINE ( 'NONE', #70, #472 ) ;
#575 = DIRECTION ( 'NONE',  ( 0.4226182617406937800, -0.0000000000000000000, 0.9063077870366527100 ) ) ;
#576 = LINE ( 'NONE', #79, #550 ) ;
#577 = CARTESIAN_POINT ( 'NONE',  ( 0.4332764450209797800, 0.0000000000000000000, 0.3503771901558365200 ) ) ;
#578 = APPROVAL ( #409, 'UNSPECIFIED' ) ;
#579 = CARTESIAN_POINT ( 'NONE',  ( -0.3042318837750199200, -0.05000000000000000300, 0.4394692377114726200 ) ) ;
#580 = DIRECTION ( 'NONE',  ( 0.0000000000000000000, 1.000000000000000000, 0.0000000000000000000 ) ) ;
#581 = CYLINDRICAL_SURFACE ( 'NONE', #171, 0.03899999999999997900 ) ;
#582 = DIRECTION ( 'NONE',  ( -0.0000000000000000000, 1.000000000000000000, -0.0000000000000000000 ) ) ;
#583 = EDGE_CURVE ( 'NONE', #104, #475, #351, .T. ) ;
#584 = VERTEX_POINT ( 'NONE', #341 ) ;
#585 = VERTEX_POINT ( 'NONE', #491 ) ;
#586 = DIRECTION ( 'NONE',  ( 0.0000000000000000000, 0.0000000000000000000, 1.000000000000000000 ) ) ;
#587 = CARTESIAN_POINT ( 'NONE',  ( 0.3042318837750199200, -0.05000000000000000300, 0.4394692377114726200 ) ) ;
#588 = CIRCLE ( 'NONE', #269, 0.03899999999999997900 ) ;
#589 = LINE ( 'NONE', #186, #652 ) ;
#590 = EDGE_CURVE ( 'NONE', #346, #246, #378, .T. ) ;
#591 = PLANE ( 'NONE',  #96 ) ;
#592 = AXIS2_PLACEMENT_3D ( 'NONE', #110, #426, #586 ) ;
#593 = CARTESIAN_POINT ( 'NONE',  ( 0.4332764450209797800, -0.05000000000000000300, 0.3503771901558365200 ) ) ;
#594 = DIRECTION ( 'NONE',  ( 0.0000000000000000000, 0.0000000000000000000, 1.000000000000000000 ) ) ;
#595 = DIRECTION ( 'NONE',  ( 0.0000000000000000000, 0.0000000000000000000, 1.000000000000000000 ) ) ;
#596 = ORIENTED_EDGE ( 'NONE', *, *, #313, .T. ) ;
#597 = ORIENTED_EDGE ( 'NONE', *, *, #240, .F. ) ;
#598 = CYLINDRICAL_SURFACE ( 'NONE', #184, 0.01000000000000003000 ) ;
#599 = CARTESIAN_POINT ( 'NONE',  ( -0.4324048875935027600, -0.05000000000000000300, 0.3603391371367532000 ) ) ;
#600 = CARTESIAN_POINT ( 'NONE',  ( -0.3042318837750199200, -0.05000000000000000300, 0.4394692377114726200 ) ) ;
#601 = CARTESIAN_POINT ( 'NONE',  ( 0.4380159060309273300, 0.0000000000000000000, 0.3608300376408635200 ) ) ;
#602 = ORIENTED_EDGE ( 'NONE', *, *, #51, .F. ) ;
#603 = AXIS2_PLACEMENT_3D ( 'NONE', #532, #278, #328 ) ;
#604 = PERSON_AND_ORGANIZATION ( #353, #64 ) ;
#605 = ADVANCED_FACE ( 'NONE', ( #525 ), #292, .F. ) ;
#606 = CIRCLE ( 'NONE', #387, 0.03900000000000004900 ) ;
#607 = VERTEX_POINT ( 'NONE', #659 ) ;
#608 = VERTEX_POINT ( 'NONE', #616 ) ;
#609 = CYLINDRICAL_SURFACE ( 'NONE', #344, 0.6244999999999999400 ) ;
#610 = APPROVAL_ROLE ( '' ) ;
#611 = ADVANCED_FACE ( 'NONE', ( #242 ), #425, .F. ) ;
#612 = AXIS2_PLACEMENT_3D ( 'NONE', #579, #275, #630 ) ;
#613 = DIRECTION ( 'NONE',  ( 0.0000000000000000000, 1.000000000000000000, 0.0000000000000000000 ) ) ;
#614 = VERTEX_POINT ( 'NONE', #206 ) ;
#615 = CC_DESIGN_APPROVAL ( #578, ( #551 ) ) ;
#616 = CARTESIAN_POINT ( 'NONE',  ( -0.2639251044570636300, -0.05000000000000000300, 0.5659892130043893100 ) ) ;
#617 = ORIENTED_EDGE ( 'NONE', *, *, #4, .F. ) ;
#618 = ORIENTED_EDGE ( 'NONE', *, *, #136, .F. ) ;
#619 = CYLINDRICAL_SURFACE ( 'NONE', #507, 0.03900000000000004900 ) ;
#620 = EDGE_CURVE ( 'NONE', #140, #362, #340, .T. ) ;
#621 =( NAMED_UNIT ( * ) PLANE_ANGLE_UNIT ( ) SI_UNIT ( $, .RADIAN. ) );
#622 = CIRCLE ( 'NONE', #500, 0.6244999999999999400 ) ;
#623 = PERSON_AND_ORGANIZATION_ROLE ( 'creator' ) ;
#624 = AXIS2_PLACEMENT_3D ( 'NONE', #214, #63, #375 ) ;
#625 = ORIENTED_EDGE ( 'NONE', *, *, #138, .T. ) ;
#626 = LINE ( 'NONE', #26, #488 ) ;
#627 = ORIENTED_EDGE ( 'NONE', *, *, #201, .T. ) ;
#628 = ORIENTED_EDGE ( 'NONE', *, *, #128, .T. ) ;
#629 = VERTEX_POINT ( 'NONE', #413 ) ;
#630 = DIRECTION ( 'NONE',  ( 0.0000000000000000000, 0.0000000000000000000, 1.000000000000000000 ) ) ;
#631 = VECTOR ( 'NONE', #117, 39.37007874015748900 ) ;
#632 = CARTESIAN_POINT ( 'NONE',  ( -0.4413748707248323900, 0.0000000000000000000, 0.3562436627858897600 ) ) ;
#633 = EDGE_CURVE ( 'NONE', #62, #535, #83, .T. ) ;
#634 = ORIENTED_EDGE ( 'NONE', *, *, #516, .F. ) ;
#635 = DIRECTION ( 'NONE',  ( 0.0000000000000000000, 1.000000000000000000, 0.0000000000000000000 ) ) ;
#636 = PLANE ( 'NONE',  #534 ) ;
#637 = COORDINATED_UNIVERSAL_TIME_OFFSET ( 6, 0, .BEHIND. ) ;
#638 = EDGE_CURVE ( 'NONE', #511, #203, #307, .T. ) ;
#639 = DIRECTION ( 'NONE',  ( 0.0000000000000000000, 1.000000000000000000, 0.0000000000000000000 ) ) ;
#640 = DIRECTION ( 'NONE',  ( 0.0000000000000000000, 1.000000000000000000, 0.0000000000000000000 ) ) ;
#641 = DIRECTION ( 'NONE',  ( 0.0000000000000000000, 0.0000000000000000000, 1.000000000000000000 ) ) ;
#642 = PRODUCT ( '91580A221_Internal Retaining Ring', '91580A221_Internal Retaining Ring', '', ( #365 ) ) ;
#643 = CARTESIAN_POINT ( 'NONE',  ( -0.4332764450209793400, -0.05000000000000000300, 0.3503771901558357900 ) ) ;
#644 = CARTESIAN_POINT ( 'NONE',  ( 0.4332764450209797800, -0.05000000000000000300, 0.3603771901558365800 ) ) ;
#645 = ORIENTED_EDGE ( 'NONE', *, *, #459, .F. ) ;
#646 = EDGE_LOOP ( 'NONE', ( #356, #554, #49, #476 ) ) ;
#647 = DIRECTION ( 'NONE',  ( 0.0000000000000000000, 1.000000000000000000, 0.0000000000000000000 ) ) ;
#648 = APPROVAL_DATE_TIME ( #548, #545 ) ;
#649 = CARTESIAN_POINT ( 'NONE',  ( 0.2639251044570633000, -0.05000000000000000300, 0.5659892130043895400 ) ) ;
#650 = CC_DESIGN_PERSON_AND_ORGANIZATION_ASSIGNMENT ( #115, #623, ( #551 ) ) ;
#651 = CARTESIAN_POINT ( 'NONE',  ( -0.2226641829417211600, 0.0000000000000000000, 0.4775048812681351200 ) ) ;
#652 = VECTOR ( 'NONE', #348, 39.37007874015748100 ) ;
#653 = DIRECTION ( 'NONE',  ( -0.9961946980917453200, 0.0000000000000000000, -0.08715574274766022000 ) ) ;
#654 = EDGE_CURVE ( 'NONE', #217, #417, #106, .T. ) ;
#655 = ADVANCED_FACE ( 'NONE', ( #166 ), #619, .F. ) ;
#656 = ORIENTED_EDGE ( 'NONE', *, *, #492, .F. ) ;
#657 = PERSON_AND_ORGANIZATION ( #353, #64 ) ;
#658 = FACE_OUTER_BOUND ( 'NONE', #50, .T. ) ;
#659 = CARTESIAN_POINT ( 'NONE',  ( 0.2639251044570633000, -0.05000000000000000300, 0.5659892130043895400 ) ) ;
#660 = ORIENTED_EDGE ( 'NONE', *, *, #15, .T. ) ;
#661 = VERTEX_POINT ( 'NONE', #517 ) ;
#662 = DIRECTION ( 'NONE',  ( 0.0000000000000000000, 0.0000000000000000000, 1.000000000000000000 ) ) ;
#663 = EDGE_CURVE ( 'NONE', #336, #230, #94, .T. ) ;
#664 = PERSON_AND_ORGANIZATION_ROLE ( 'creator' ) ;
#665 = ADVANCED_FACE ( 'NONE', ( #182 ), #508, .T. ) ;
#666 = FACE_OUTER_BOUND ( 'NONE', #646, .T. ) ;
#667 = DIRECTION ( 'NONE',  ( -0.08715574274765429400, 0.0000000000000000000, -0.9961946980917458800 ) ) ;
#668 = CC_DESIGN_PERSON_AND_ORGANIZATION_ASSIGNMENT ( #549, #664, ( #474 ) ) ;
ENDSEC;
END-ISO-10303-21;
