ISO-10303-21;
HEADER;
FILE_DESCRIPTION (( 'STEP AP203' ),
    '1' );
FILE_NAME ('91580A191_Internal Retaining Ring.STEP',
    '2021-09-08T22:51:45',
    ( 'Administrator' ),
    ( 'Managed by Terraform' ),
    'SwSTEP 2.0',
    'SolidWorks 2017',
    '' );
FILE_SCHEMA (( 'CONFIG_CONTROL_DESIGN' ));
ENDSEC;

DATA;
#1 = AXIS2_PLACEMENT_3D ( 'NONE', #295, #49, #94 ) ;
#2 = CIRCLE ( 'NONE', #302, 0.009999999999999995000 ) ;
#3 = VERTEX_POINT ( 'NONE', #582 ) ;
#4 = ADVANCED_FACE ( 'NONE', ( #27 ), #326, .T. ) ;
#5 = LOCAL_TIME ( 17, 51, 45.00000000000000000, #172 ) ;
#6 = LINE ( 'NONE', #481, #515 ) ;
#7 = DIRECTION ( 'NONE',  ( 0.0000000000000000000, 1.000000000000000000, 0.0000000000000000000 ) ) ;
#8 = ORIENTED_EDGE ( 'NONE', *, *, #387, .T. ) ;
#9 = APPROVAL_PERSON_ORGANIZATION ( #491, #383, #289 ) ;
#10 = CARTESIAN_POINT ( 'NONE',  ( -0.2395278023694743200, -0.04200000000000001000, 0.3302884071414710600 ) ) ;
#11 = EDGE_CURVE ( 'NONE', #3, #333, #360, .T. ) ;
#12 = VECTOR ( 'NONE', #232, 39.37007874015748900 ) ;
#13 = DIRECTION ( 'NONE',  ( 0.0000000000000000000, 1.000000000000000000, 0.0000000000000000000 ) ) ;
#14 = DIRECTION ( 'NONE',  ( 0.0000000000000000000, 0.0000000000000000000, -1.000000000000000000 ) ) ;
#15 = CARTESIAN_POINT ( 'NONE',  ( 0.3537533722836210800, -0.04200000000000001000, 0.2624858121841378000 ) ) ;
#16 = DIRECTION ( 'NONE',  ( 0.0000000000000000000, 1.000000000000000000, 0.0000000000000000000 ) ) ;
#17 = CARTESIAN_POINT ( 'NONE',  ( -0.2395278023694743200, -0.04200000000000001000, 0.2992884071414710900 ) ) ;
#18 = ORIENTED_EDGE ( 'NONE', *, *, #329, .T. ) ;
#19 = ORIENTED_EDGE ( 'NONE', *, *, #378, .T. ) ;
#20 = CARTESIAN_POINT ( 'NONE',  ( 0.2051811660751068900, 0.0000000000000000000, 0.4400124306062948600 ) ) ;
#21 = CARTESIAN_POINT ( 'NONE',  ( -0.3486985291329992000, 0.0000000000000000000, 0.2620053723371226800 ) ) ;
#22 = CARTESIAN_POINT ( 'NONE',  ( 0.2462823724324181000, -0.04200000000000001000, 0.2530833180393609600 ) ) ;
#23 = DIRECTION ( 'NONE',  ( -0.0000000000000000000, 1.000000000000000000, -0.0000000000000000000 ) ) ;
#24 = DIRECTION ( 'NONE',  ( 0.0000000000000000000, 0.0000000000000000000, -1.000000000000000000 ) ) ;
#25 = VERTEX_POINT ( 'NONE', #541 ) ;
#26 = EDGE_CURVE ( 'NONE', #545, #25, #562, .T. ) ;
#27 = FACE_OUTER_BOUND ( 'NONE', #203, .T. ) ;
#28 = AXIS2_PLACEMENT_3D ( 'NONE', #420, #212, #265 ) ;
#29 = PLANE ( 'NONE',  #516 ) ;
#30 = FACE_BOUND ( 'NONE', #130, .T. ) ;
#31 = CARTESIAN_POINT ( 'NONE',  ( 0.3486985291329998100, 0.0000000000000000000, 0.2520053723371232800 ) ) ;
#32 = ORIENTED_EDGE ( 'NONE', *, *, #26, .F. ) ;
#33 = LINE ( 'NONE', #175, #550 ) ;
#34 = APPROVAL ( #150, 'UNSPECIFIED' ) ;
#35 = CARTESIAN_POINT ( 'NONE',  ( 0.3486985291329998100, -0.04200000000000001000, 0.2620053723371232900 ) ) ;
#36 = ORIENTED_EDGE ( 'NONE', *, *, #314, .F. ) ;
#37 = VERTEX_POINT ( 'NONE', #22 ) ;
#38 = DIRECTION ( 'NONE',  ( 0.0000000000000000000, 1.000000000000000000, 0.0000000000000000000 ) ) ;
#39 = EDGE_CURVE ( 'NONE', #37, #126, #534, .T. ) ;
#40 = CARTESIAN_POINT ( 'NONE',  ( 0.3486985291329998100, 0.0000000000000000000, 0.2620053723371232900 ) ) ;
#41 = PERSON_AND_ORGANIZATION ( #504, #557 ) ;
#42 = DATE_TIME_ROLE ( 'classification_date' ) ;
#43 = ORIENTED_EDGE ( 'NONE', *, *, #152, .T. ) ;
#44 = EDGE_LOOP ( 'NONE', ( #242, #466, #154, #604 ) ) ;
#45 =( GEOMETRIC_REPRESENTATION_CONTEXT ( 3 ) GLOBAL_UNCERTAINTY_ASSIGNED_CONTEXT ( ( #519 ) ) GLOBAL_UNIT_ASSIGNED_CONTEXT ( ( #76, #128, #493 ) ) REPRESENTATION_CONTEXT ( 'NONE', 'WORKASPACE' ) );
#46 = ORIENTED_EDGE ( 'NONE', *, *, #233, .F. ) ;
#47 = CIRCLE ( 'NONE', #105, 0.03099999999999995500 ) ;
#48 = EDGE_CURVE ( 'NONE', #496, #301, #158, .T. ) ;
#49 = DIRECTION ( 'NONE',  ( 0.0000000000000000000, 1.000000000000000000, 0.0000000000000000000 ) ) ;
#50 = LINE ( 'NONE', #655, #553 ) ;
#51 = ORIENTED_EDGE ( 'NONE', *, *, #305, .T. ) ;
#52 = DIRECTION ( 'NONE',  ( 0.0000000000000000000, -1.000000000000000000, 0.0000000000000000000 ) ) ;
#53 = AXIS2_PLACEMENT_3D ( 'NONE', #358, #162, #568 ) ;
#54 = DIRECTION ( 'NONE',  ( 0.0000000000000000000, 0.0000000000000000000, 1.000000000000000000 ) ) ;
#55 = ADVANCED_FACE ( 'NONE', ( #664 ), #512, .F. ) ;
#56 = ORIENTED_EDGE ( 'NONE', *, *, #423, .F. ) ;
#57 = ORIENTED_EDGE ( 'NONE', *, *, #620, .T. ) ;
#58 = CARTESIAN_POINT ( 'NONE',  ( 0.3570761150010746100, -0.04200000000000001000, 0.2574657802910250700 ) ) ;
#59 = AXIS2_PLACEMENT_3D ( 'NONE', #10, #7, #356 ) ;
#60 = ADVANCED_FACE ( 'NONE', ( #229 ), #528, .F. ) ;
#61 = VECTOR ( 'NONE', #23, 39.37007874015748100 ) ;
#62 = DIRECTION ( 'NONE',  ( -6.829619984160661400E-015, 0.0000000000000000000, -1.000000000000000000 ) ) ;
#63 = CC_DESIGN_PERSON_AND_ORGANIZATION_ASSIGNMENT ( #524, #461, ( #627 ) ) ;
#64 = ORIENTED_EDGE ( 'NONE', *, *, #26, .T. ) ;
#65 = ORIENTED_EDGE ( 'NONE', *, *, #510, .F. ) ;
#66 = CARTESIAN_POINT ( 'NONE',  ( 0.2395278023694743000, -0.04200000000000001000, 0.3612884071414709800 ) ) ;
#67 = DIRECTION ( 'NONE',  ( 0.0000000000000000000, 0.0000000000000000000, 1.000000000000000000 ) ) ;
#68 = EDGE_CURVE ( 'NONE', #352, #427, #520, .T. ) ;
#69 = CARTESIAN_POINT ( 'NONE',  ( 4.722546443913154000E-016, -0.04200000000000001000, 0.02472793800516758000 ) ) ;
#70 = CARTESIAN_POINT ( 'NONE',  ( 0.2395278023694743000, 0.0000000000000000000, 0.3302884071414710100 ) ) ;
#71 = ORIENTED_EDGE ( 'NONE', *, *, #579, .T. ) ;
#72 = DIRECTION ( 'NONE',  ( 0.0000000000000000000, 1.000000000000000000, 0.0000000000000000000 ) ) ;
#73 = CARTESIAN_POINT ( 'NONE',  ( -0.3486985291329992000, 0.0000000000000000000, 0.2520053723371226700 ) ) ;
#74 = VECTOR ( 'NONE', #552, 39.37007874015748900 ) ;
#75 = CIRCLE ( 'NONE', #196, 0.03099999999999995500 ) ;
#76 =( CONVERSION_BASED_UNIT ( 'INCH', #256 ) LENGTH_UNIT ( ) NAMED_UNIT ( #474 ) );
#77 = VERTEX_POINT ( 'NONE', #17 ) ;
#78 = EDGE_LOOP ( 'NONE', ( #374, #442, #57, #657 ) ) ;
#79 = EDGE_CURVE ( 'NONE', #660, #570, #401, .T. ) ;
#80 = CARTESIAN_POINT ( 'NONE',  ( 0.2395278023694743200, -0.04200000000000001000, 0.3302884071414710100 ) ) ;
#81 = EDGE_CURVE ( 'NONE', #126, #323, #625, .T. ) ;
#82 = CARTESIAN_POINT ( 'NONE',  ( -0.3486985291329992000, -0.04200000000000001000, 0.2520053723371226700 ) ) ;
#83 = CARTESIAN_POINT ( 'NONE',  ( -0.2051811660751068900, -0.04200000000000001000, 0.4400124306062948600 ) ) ;
#84 = LINE ( 'NONE', #446, #143 ) ;
#85 = ORIENTED_EDGE ( 'NONE', *, *, #108, .T. ) ;
#86 = ORIENTED_EDGE ( 'NONE', *, *, #598, .F. ) ;
#87 = DATE_TIME_ROLE ( 'creation_date' ) ;
#88 = LINE ( 'NONE', #262, #344 ) ;
#89 = VERTEX_POINT ( 'NONE', #129 ) ;
#90 = CALENDAR_DATE ( 2021, 8, 9 ) ;
#91 = FACE_OUTER_BOUND ( 'NONE', #392, .T. ) ;
#92 = EDGE_CURVE ( 'NONE', #95, #146, #267, .T. ) ;
#93 = VERTEX_POINT ( 'NONE', #279 ) ;
#94 = DIRECTION ( 'NONE',  ( 0.0000000000000000000, 0.0000000000000000000, 1.000000000000000000 ) ) ;
#95 = VERTEX_POINT ( 'NONE', #447 ) ;
#96 = CC_DESIGN_APPROVAL ( #383, ( #509 ) ) ;
#97 = CYLINDRICAL_SURFACE ( 'NONE', #567, 0.4262279380051675600 ) ;
#98 = ADVANCED_FACE ( 'NONE', ( #185 ), #407, .F. ) ;
#99 = AXIS2_PLACEMENT_3D ( 'NONE', #140, #190, #603 ) ;
#100 = VERTEX_POINT ( 'NONE', #144 ) ;
#101 = ORIENTED_EDGE ( 'NONE', *, *, #226, .F. ) ;
#102 = CYLINDRICAL_SURFACE ( 'NONE', #608, 0.009999999999999995000 ) ;
#103 = CARTESIAN_POINT ( 'NONE',  ( -0.2395278023694743200, -0.04200000000000001000, 0.3302884071414710600 ) ) ;
#104 = FACE_OUTER_BOUND ( 'NONE', #141, .T. ) ;
#105 = AXIS2_PLACEMENT_3D ( 'NONE', #431, #16, #540 ) ;
#106 = EDGE_LOOP ( 'NONE', ( #64, #639, #298, #71, #438, #422, #649, #472, #404, #630, #486, #222 ) ) ;
#107 = ORIENTED_EDGE ( 'NONE', *, *, #378, .F. ) ;
#108 = EDGE_CURVE ( 'NONE', #3, #535, #208, .T. ) ;
#109 = EDGE_CURVE ( 'NONE', #77, #614, #50, .T. ) ;
#110 = FACE_OUTER_BOUND ( 'NONE', #120, .T. ) ;
#111 = DIRECTION ( 'NONE',  ( 0.0000000000000000000, 1.000000000000000000, 0.0000000000000000000 ) ) ;
#112 = DIRECTION ( 'NONE',  ( -0.0000000000000000000, 1.000000000000000000, -0.0000000000000000000 ) ) ;
#113 = PLANE ( 'NONE',  #264 ) ;
#114 = DIRECTION ( 'NONE',  ( -0.0000000000000000000, 1.000000000000000000, -0.0000000000000000000 ) ) ;
#115 = APPROVAL ( #193, 'UNSPECIFIED' ) ;
#116 = EDGE_LOOP ( 'NONE', ( #186, #571, #324, #19 ) ) ;
#117 = ORIENTED_EDGE ( 'NONE', *, *, #544, .F. ) ;
#118 = CARTESIAN_POINT ( 'NONE',  ( -0.3478269717055226300, 0.0000000000000000000, 0.2619673193180401300 ) ) ;
#119 = DIRECTION ( 'NONE',  ( 0.0000000000000000000, 1.000000000000000000, 0.0000000000000000000 ) ) ;
#120 = EDGE_LOOP ( 'NONE', ( #259, #382, #436, #513 ) ) ;
#121 = CARTESIAN_POINT ( 'NONE',  ( 4.722546443913154000E-016, 0.0000000000000000000, 0.02472793800516758000 ) ) ;
#122 = PERSON_AND_ORGANIZATION ( #504, #557 ) ;
#123 = DIRECTION ( 'NONE',  ( 0.0000000000000000000, 0.0000000000000000000, -1.000000000000000000 ) ) ;
#124 = FACE_OUTER_BOUND ( 'NONE', #291, .T. ) ;
#125 = DIRECTION ( 'NONE',  ( 0.0000000000000000000, 1.000000000000000000, 0.0000000000000000000 ) ) ;
#126 = VERTEX_POINT ( 'NONE', #336 ) ;
#127 = AXIS2_PLACEMENT_3D ( 'NONE', #70, #119, #353 ) ;
#128 =( NAMED_UNIT ( * ) PLANE_ANGLE_UNIT ( ) SI_UNIT ( $, .RADIAN. ) );
#129 = CARTESIAN_POINT ( 'NONE',  ( -0.3570761150010740000, -0.04200000000000001000, 0.2574657802910244600 ) ) ;
#130 = EDGE_LOOP ( 'NONE', ( #417, #650 ) ) ;
#131 = DIRECTION ( 'NONE',  ( 0.0000000000000000000, 1.000000000000000000, 0.0000000000000000000 ) ) ;
#132 = VECTOR ( 'NONE', #367, 39.37007874015748900 ) ;
#133 = DIRECTION ( 'NONE',  ( 0.0000000000000000000, -1.000000000000000000, 0.0000000000000000000 ) ) ;
#134 = CARTESIAN_POINT ( 'NONE',  ( 0.3478269717055231800, 0.0000000000000000000, 0.2619673193180407400 ) ) ;
#135 = ORIENTED_EDGE ( 'NONE', *, *, #136, .T. ) ;
#136 = EDGE_CURVE ( 'NONE', #126, #25, #254, .T. ) ;
#137 = CARTESIAN_POINT ( 'NONE',  ( 0.3486985291329998100, -0.04200000000000001000, 0.2520053723371232800 ) ) ;
#138 = CARTESIAN_POINT ( 'NONE',  ( 0.1692889488741339000, -0.04200000000000001000, 0.3630413224263747700 ) ) ;
#139 = CARTESIAN_POINT ( 'NONE',  ( -0.1692889488741339000, 0.0000000000000000000, 0.3630413224263747700 ) ) ;
#140 = CARTESIAN_POINT ( 'NONE',  ( 0.3486985291329998100, -0.04200000000000001000, 0.2520053723371232800 ) ) ;
#141 = EDGE_LOOP ( 'NONE', ( #410, #597, #477, #306 ) ) ;
#142 = CALENDAR_DATE ( 2021, 8, 9 ) ;
#143 = VECTOR ( 'NONE', #330, 39.37007874015748100 ) ;
#144 = CARTESIAN_POINT ( 'NONE',  ( 0.2395278023694743000, 0.0000000000000000000, 0.3612884071414709800 ) ) ;
#145 = APPROVAL_STATUS ( 'not_yet_approved' ) ;
#146 = VERTEX_POINT ( 'NONE', #189 ) ;
#147 = AXIS2_PLACEMENT_3D ( 'NONE', #331, #599, #187 ) ;
#148 = DIRECTION ( 'NONE',  ( 1.000000000000000000, 0.0000000000000000000, 0.0000000000000000000 ) ) ;
#149 = LOCAL_TIME ( 17, 51, 45.00000000000000000, #200 ) ;
#150 = APPROVAL_STATUS ( 'not_yet_approved' ) ;
#151 = CYLINDRICAL_SURFACE ( 'NONE', #403, 0.03099999999999995500 ) ;
#152 = EDGE_CURVE ( 'NONE', #543, #93, #368, .T. ) ;
#153 = ORIENTED_EDGE ( 'NONE', *, *, #620, .F. ) ;
#154 = ORIENTED_EDGE ( 'NONE', *, *, #372, .F. ) ;
#155 = CC_DESIGN_DATE_AND_TIME_ASSIGNMENT ( #565, #87, ( #343 ) ) ;
#156 = DIRECTION ( 'NONE',  ( 0.0000000000000000000, 0.0000000000000000000, 1.000000000000000000 ) ) ;
#157 = EDGE_LOOP ( 'NONE', ( #581, #51 ) ) ;
#158 = CIRCLE ( 'NONE', #531, 0.009999999999999995000 ) ;
#159 = CARTESIAN_POINT ( 'NONE',  ( 0.2051811660751068900, -0.04200000000000001000, 0.4400124306062948600 ) ) ;
#160 = AXIS2_PLACEMENT_3D ( 'NONE', #69, #636, #67 ) ;
#161 = LOCAL_TIME ( 17, 51, 45.00000000000000000, #441 ) ;
#162 = DIRECTION ( 'NONE',  ( -0.9063077870366527100, 0.0000000000000000000, 0.4226182617406937200 ) ) ;
#163 = FACE_OUTER_BOUND ( 'NONE', #284, .T. ) ;
#164 = CARTESIAN_POINT ( 'NONE',  ( 0.0000000000000000000, -0.04200000000000001000, 0.0000000000000000000 ) ) ;
#165 = EDGE_LOOP ( 'NONE', ( #457, #191, #277, #86 ) ) ;
#166 = ORIENTED_EDGE ( 'NONE', *, *, #136, .F. ) ;
#167 = CARTESIAN_POINT ( 'NONE',  ( -0.2462823724324175200, -0.04200000000000001000, 0.2530833180393609600 ) ) ;
#168 = CARTESIAN_POINT ( 'NONE',  ( 0.2395278023694743200, -0.04200000000000001000, 0.3302884071414710100 ) ) ;
#169 = AXIS2_PLACEMENT_3D ( 'NONE', #559, #607, #194 ) ;
#170 = DIRECTION ( 'NONE',  ( 0.0000000000000000000, 1.000000000000000000, 0.0000000000000000000 ) ) ;
#171 = DIRECTION ( 'NONE',  ( 0.0000000000000000000, 1.000000000000000000, 0.0000000000000000000 ) ) ;
#172 = COORDINATED_UNIVERSAL_TIME_OFFSET ( 6, 0, .BEHIND. ) ;
#173 = DIRECTION ( 'NONE',  ( 0.0000000000000000000, 0.0000000000000000000, 1.000000000000000000 ) ) ;
#174 = DIRECTION ( 'NONE',  ( 0.9063077870366527100, -0.0000000000000000000, 0.4226182617406937200 ) ) ;
#175 = CARTESIAN_POINT ( 'NONE',  ( -0.3570761150010740000, -0.04200000000000001000, 0.2574657802910245200 ) ) ;
#176 = DIRECTION ( 'NONE',  ( 0.0000000000000000000, 0.0000000000000000000, 1.000000000000000000 ) ) ;
#177 = ORIENTED_EDGE ( 'NONE', *, *, #204, .T. ) ;
#178 = CALENDAR_DATE ( 2021, 8, 9 ) ;
#179 = DIRECTION ( 'NONE',  ( 0.0000000000000000000, 0.0000000000000000000, -1.000000000000000000 ) ) ;
#180 = DIRECTION ( 'NONE',  ( 0.0000000000000000000, 1.000000000000000000, 0.0000000000000000000 ) ) ;
#181 = CIRCLE ( 'NONE', #1, 0.03099999999999995500 ) ;
#182 = DIRECTION ( 'NONE',  ( 0.0000000000000000000, -1.000000000000000000, 0.0000000000000000000 ) ) ;
#183 = EDGE_CURVE ( 'NONE', #614, #241, #485, .T. ) ;
#184 = CARTESIAN_POINT ( 'NONE',  ( -0.1692889488741339000, -0.04200000000000001000, 0.3630413224263747700 ) ) ;
#185 = FACE_OUTER_BOUND ( 'NONE', #198, .T. ) ;
#186 = ORIENTED_EDGE ( 'NONE', *, *, #11, .F. ) ;
#187 = DIRECTION ( 'NONE',  ( 0.0000000000000000000, 0.0000000000000000000, 1.000000000000000000 ) ) ;
#188 = DIRECTION ( 'NONE',  ( 0.0000000000000000000, 0.0000000000000000000, 1.000000000000000000 ) ) ;
#189 = CARTESIAN_POINT ( 'NONE',  ( 0.3570761150010745600, -0.04200000000000001000, 0.2574657802910250700 ) ) ;
#190 = DIRECTION ( 'NONE',  ( -0.0000000000000000000, 1.000000000000000000, -0.0000000000000000000 ) ) ;
#191 = ORIENTED_EDGE ( 'NONE', *, *, #11, .T. ) ;
#192 = ORIENTED_EDGE ( 'NONE', *, *, #233, .T. ) ;
#193 = APPROVAL_STATUS ( 'not_yet_approved' ) ;
#194 = DIRECTION ( 'NONE',  ( 0.0000000000000000000, 0.0000000000000000000, 1.000000000000000000 ) ) ;
#195 = CALENDAR_DATE ( 2021, 8, 9 ) ;
#196 = AXIS2_PLACEMENT_3D ( 'NONE', #518, #180, #228 ) ;
#197 = FACE_OUTER_BOUND ( 'NONE', #522, .T. ) ;
#198 = EDGE_LOOP ( 'NONE', ( #46, #369, #618, #312 ) ) ;
#199 = EDGE_LOOP ( 'NONE', ( #101, #426, #8, #505 ) ) ;
#200 = COORDINATED_UNIVERSAL_TIME_OFFSET ( 6, 0, .BEHIND. ) ;
#201 = ADVANCED_FACE ( 'NONE', ( #351 ), #617, .T. ) ;
#202 = EDGE_CURVE ( 'NONE', #521, #77, #638, .T. ) ;
#203 = EDGE_LOOP ( 'NONE', ( #230, #56, #561, #408 ) ) ;
#204 = EDGE_CURVE ( 'NONE', #89, #240, #337, .T. ) ;
#205 = DIRECTION ( 'NONE',  ( -0.9961946980917453200, 0.0000000000000000000, -0.08715574274766077500 ) ) ;
#206 = CYLINDRICAL_SURFACE ( 'NONE', #411, 0.07749999999999979100 ) ;
#207 = CC_DESIGN_APPROVAL ( #115, ( #343 ) ) ;
#208 = CIRCLE ( 'NONE', #169, 0.03099999999999995500 ) ;
#209 = ORIENTED_EDGE ( 'NONE', *, *, #210, .F. ) ;
#210 = EDGE_CURVE ( 'NONE', #37, #545, #88, .T. ) ;
#211 = CARTESIAN_POINT ( 'NONE',  ( 0.3486985291329998100, 0.0000000000000000000, 0.2520053723371232800 ) ) ;
#212 = DIRECTION ( 'NONE',  ( 0.0000000000000000000, 1.000000000000000000, 0.0000000000000000000 ) ) ;
#213 = DIRECTION ( 'NONE',  ( -0.0000000000000000000, -1.000000000000000000, -0.0000000000000000000 ) ) ;
#214 = FACE_OUTER_BOUND ( 'NONE', #106, .T. ) ;
#215 = CARTESIAN_POINT ( 'NONE',  ( -0.2051811660751071100, -0.04200000000000001000, 0.4400124306062946900 ) ) ;
#216 = DIRECTION ( 'NONE',  ( 0.0000000000000000000, 1.000000000000000000, 0.0000000000000000000 ) ) ;
#217 = ORIENTED_EDGE ( 'NONE', *, *, #387, .F. ) ;
#218 = ORIENTED_EDGE ( 'NONE', *, *, #651, .F. ) ;
#219 = DIRECTION ( 'NONE',  ( 0.4226182617406937200, 0.0000000000000000000, -0.9063077870366527100 ) ) ;
#220 = CARTESIAN_POINT ( 'NONE',  ( 0.3537533722836210800, -0.04200000000000001000, 0.2624858121841378000 ) ) ;
#221 = PERSON_AND_ORGANIZATION ( #504, #557 ) ;
#222 = ORIENTED_EDGE ( 'NONE', *, *, #622, .T. ) ;
#223 = LINE ( 'NONE', #538, #566 ) ;
#224 = DIRECTION ( 'NONE',  ( 0.0000000000000000000, 1.000000000000000000, 0.0000000000000000000 ) ) ;
#225 = CARTESIAN_POINT ( 'NONE',  ( 0.2395278023694743000, -0.04200000000000001000, 0.3302884071414710100 ) ) ;
#226 = EDGE_CURVE ( 'NONE', #478, #413, #502, .T. ) ;
#227 = DIRECTION ( 'NONE',  ( -0.9961946980917453200, 0.0000000000000000000, -0.08715574274766077500 ) ) ;
#228 = DIRECTION ( 'NONE',  ( 0.0000000000000000000, 0.0000000000000000000, 1.000000000000000000 ) ) ;
#229 = FACE_OUTER_BOUND ( 'NONE', #116, .T. ) ;
#230 = ORIENTED_EDGE ( 'NONE', *, *, #579, .F. ) ;
#231 = CARTESIAN_POINT ( 'NONE',  ( 0.3537533722836210800, 0.0000000000000000000, 0.2624858121841378000 ) ) ;
#232 = DIRECTION ( 'NONE',  ( 0.4226182617406937200, 0.0000000000000000000, -0.9063077870366527100 ) ) ;
#233 = EDGE_CURVE ( 'NONE', #240, #93, #2, .T. ) ;
#234 = LINE ( 'NONE', #654, #645 ) ;
#235 = CARTESIAN_POINT ( 'NONE',  ( 0.2395278023694743200, 0.0000000000000000000, 0.3302884071414710100 ) ) ;
#236 = AXIS2_PLACEMENT_3D ( 'NONE', #238, #276, #648 ) ;
#237 = DIRECTION ( 'NONE',  ( 0.0000000000000000000, -0.0000000000000000000, -1.000000000000000000 ) ) ;
#238 = CARTESIAN_POINT ( 'NONE',  ( -0.2395278023694743200, 0.0000000000000000000, 0.3302884071414710600 ) ) ;
#239 = VECTOR ( 'NONE', #292, 39.37007874015748900 ) ;
#240 = VERTEX_POINT ( 'NONE', #434 ) ;
#241 = VERTEX_POINT ( 'NONE', #359 ) ;
#242 = ORIENTED_EDGE ( 'NONE', *, *, #92, .F. ) ;
#243 = LOCAL_TIME ( 17, 51, 45.00000000000000000, #601 ) ;
#244 = VECTOR ( 'NONE', #380, 39.37007874015748900 ) ;
#245 = PERSON_AND_ORGANIZATION_ROLE ( 'creator' ) ;
#246 = CARTESIAN_POINT ( 'NONE',  ( -0.2395278023694743200, 0.0000000000000000000, 0.3302884071414710600 ) ) ;
#247 = PRODUCT_RELATED_PRODUCT_CATEGORY ( 'detail', '', ( #290 ) ) ;
#248 = ORIENTED_EDGE ( 'NONE', *, *, #439, .T. ) ;
#249 = ORIENTED_EDGE ( 'NONE', *, *, #490, .T. ) ;
#250 = DESIGN_CONTEXT ( 'detailed design', #611, 'design' ) ;
#251 = EDGE_CURVE ( 'NONE', #89, #146, #492, .T. ) ;
#252 = CYLINDRICAL_SURFACE ( 'NONE', #646, 0.4854999999999999900 ) ;
#253 = DIRECTION ( 'NONE',  ( 0.0000000000000000000, 1.000000000000000000, 0.0000000000000000000 ) ) ;
#254 = LINE ( 'NONE', #138, #656 ) ;
#255 = ORIENTED_EDGE ( 'NONE', *, *, #632, .F. ) ;
#256 = LENGTH_MEASURE_WITH_UNIT ( LENGTH_MEASURE( 0.02539999999999999900 ), #381 );
#257 = CYLINDRICAL_SURFACE ( 'NONE', #294, 0.009999999999999995000 ) ;
#258 = CARTESIAN_POINT ( 'NONE',  ( 0.2395278023694743000, 0.0000000000000000000, 0.2992884071414710400 ) ) ;
#259 = ORIENTED_EDGE ( 'NONE', *, *, #109, .F. ) ;
#260 = ORIENTED_EDGE ( 'NONE', *, *, #416, .F. ) ;
#261 = EDGE_CURVE ( 'NONE', #301, #89, #33, .T. ) ;
#262 = CARTESIAN_POINT ( 'NONE',  ( 0.2462823724324181000, -0.04200000000000001000, 0.2530833180393609600 ) ) ;
#263 = CIRCLE ( 'NONE', #127, 0.03099999999999995500 ) ;
#264 = AXIS2_PLACEMENT_3D ( 'NONE', #220, #275, #319 ) ;
#265 = DIRECTION ( 'NONE',  ( 0.0000000000000000000, 0.0000000000000000000, 1.000000000000000000 ) ) ;
#266 = DIRECTION ( 'NONE',  ( 0.0000000000000000000, 1.000000000000000000, 0.0000000000000000000 ) ) ;
#267 = CIRCLE ( 'NONE', #99, 0.009999999999999995000 ) ;
#268 = ORIENTED_EDGE ( 'NONE', *, *, #109, .T. ) ;
#269 = AXIS2_PLACEMENT_3D ( 'NONE', #168, #112, #24 ) ;
#270 = VERTEX_POINT ( 'NONE', #215 ) ;
#271 = PLANE ( 'NONE',  #350 ) ;
#272 = CALENDAR_DATE ( 2021, 8, 9 ) ;
#273 = DIRECTION ( 'NONE',  ( 0.0000000000000000000, 0.0000000000000000000, 1.000000000000000000 ) ) ;
#274 = FACE_OUTER_BOUND ( 'NONE', #199, .T. ) ;
#275 = DIRECTION ( 'NONE',  ( 0.08715574274766077500, 0.0000000000000000000, -0.9961946980917453200 ) ) ;
#276 = DIRECTION ( 'NONE',  ( 0.0000000000000000000, 1.000000000000000000, 0.0000000000000000000 ) ) ;
#277 = ORIENTED_EDGE ( 'NONE', *, *, #346, .T. ) ;
#278 = ADVANCED_BREP_SHAPE_REPRESENTATION ( '91580A191_Internal Retaining Ring', ( #634, #616 ), #45 ) ;
#279 = CARTESIAN_POINT ( 'NONE',  ( -0.3478269717055226300, -0.04200000000000001000, 0.2619673193180401300 ) ) ;
#280 = PERSON_AND_ORGANIZATION ( #504, #557 ) ;
#281 = LINE ( 'NONE', #286, #12 ) ;
#282 = DIRECTION ( 'NONE',  ( 0.0000000000000000000, -1.000000000000000000, 0.0000000000000000000 ) ) ;
#283 = EDGE_CURVE ( 'NONE', #240, #496, #6, .T. ) ;
#284 = EDGE_LOOP ( 'NONE', ( #43, #249, #587, #363 ) ) ;
#285 = ORIENTED_EDGE ( 'NONE', *, *, #79, .F. ) ;
#286 = CARTESIAN_POINT ( 'NONE',  ( -0.2051811660751068900, 0.0000000000000000000, 0.4400124306062948600 ) ) ;
#287 = DIRECTION ( 'NONE',  ( 0.0000000000000000000, 1.000000000000000000, 0.0000000000000000000 ) ) ;
#288 = ORIENTED_EDGE ( 'NONE', *, *, #458, .T. ) ;
#289 = APPROVAL_ROLE ( '' ) ;
#290 = PRODUCT ( '91580A191_Internal Retaining Ring', '91580A191_Internal Retaining Ring', '', ( #402 ) ) ;
#291 = EDGE_LOOP ( 'NONE', ( #576, #268, #297, #117 ) ) ;
#292 = DIRECTION ( 'NONE',  ( -0.9961946980917457700, -0.0000000000000000000, 0.08715574274765443300 ) ) ;
#293 = ORIENTED_EDGE ( 'NONE', *, *, #346, .F. ) ;
#294 = AXIS2_PLACEMENT_3D ( 'NONE', #668, #465, #156 ) ;
#295 = CARTESIAN_POINT ( 'NONE',  ( -0.2395278023694743200, 0.0000000000000000000, 0.3302884071414710600 ) ) ;
#296 = LINE ( 'NONE', #437, #379 ) ;
#297 = ORIENTED_EDGE ( 'NONE', *, *, #183, .T. ) ;
#298 = ORIENTED_EDGE ( 'NONE', *, *, #226, .T. ) ;
#299 = PRODUCT_DEFINITION_SHAPE ( 'NONE', 'NONE',  #343 ) ;
#300 = ADVANCED_FACE ( 'NONE', ( #91 ), #508, .F. ) ;
#301 = VERTEX_POINT ( 'NONE', #310 ) ;
#302 = AXIS2_PLACEMENT_3D ( 'NONE', #529, #425, #14 ) ;
#303 = CARTESIAN_POINT ( 'NONE',  ( -0.2395278023694743200, -0.04200000000000001000, 0.3302884071414710600 ) ) ;
#304 = DIRECTION ( 'NONE',  ( 0.0000000000000000000, 0.0000000000000000000, 1.000000000000000000 ) ) ;
#305 = EDGE_CURVE ( 'NONE', #77, #521, #539, .T. ) ;
#306 = ORIENTED_EDGE ( 'NONE', *, *, #48, .F. ) ;
#307 = ADVANCED_FACE ( 'NONE', ( #405 ), #206, .T. ) ;
#308 = APPROVAL_PERSON_ORGANIZATION ( #414, #115, #459 ) ;
#309 = LINE ( 'NONE', #118, #61 ) ;
#310 = CARTESIAN_POINT ( 'NONE',  ( -0.3570761150010740000, 0.0000000000000000000, 0.2574657802910244600 ) ) ;
#311 = DIRECTION ( 'NONE',  ( 0.0000000000000000000, 1.000000000000000000, 0.0000000000000000000 ) ) ;
#312 = ORIENTED_EDGE ( 'NONE', *, *, #490, .F. ) ;
#313 = EDGE_LOOP ( 'NONE', ( #32, #209, #575, #135 ) ) ;
#314 = EDGE_CURVE ( 'NONE', #470, #37, #631, .T. ) ;
#315 = DIRECTION ( 'NONE',  ( 0.0000000000000000000, 0.0000000000000000000, 1.000000000000000000 ) ) ;
#316 = DIRECTION ( 'NONE',  ( 1.365923996832132300E-014, 0.0000000000000000000, -1.000000000000000000 ) ) ;
#317 = CARTESIAN_POINT ( 'NONE',  ( 0.2395278023694743200, 0.0000000000000000000, 0.3302884071414710100 ) ) ;
#318 = LOCAL_TIME ( 17, 51, 45.00000000000000000, #609 ) ;
#319 = DIRECTION ( 'NONE',  ( -0.9961946980917453200, 0.0000000000000000000, -0.08715574274766077500 ) ) ;
#320 = CARTESIAN_POINT ( 'NONE',  ( 0.2395278023694743000, -0.04200000000000001000, 0.2992884071414710400 ) ) ;
#321 = CARTESIAN_POINT ( 'NONE',  ( -0.2051811660751071100, 0.0000000000000000000, 0.4400124306062946900 ) ) ;
#322 = DIRECTION ( 'NONE',  ( 0.0000000000000000000, -1.000000000000000000, 0.0000000000000000000 ) ) ;
#323 = VERTEX_POINT ( 'NONE', #159 ) ;
#324 = ORIENTED_EDGE ( 'NONE', *, *, #598, .T. ) ;
#325 = CARTESIAN_POINT ( 'NONE',  ( 0.3478269717055231800, -0.04200000000000001000, 0.2619673193180407400 ) ) ;
#326 = PLANE ( 'NONE',  #527 ) ;
#327 = DATE_AND_TIME ( #178, #149 ) ;
#328 = LINE ( 'NONE', #586, #591 ) ;
#329 = EDGE_CURVE ( 'NONE', #146, #642, #558, .T. ) ;
#330 = DIRECTION ( 'NONE',  ( 0.0000000000000000000, 1.000000000000000000, 0.0000000000000000000 ) ) ;
#331 = CARTESIAN_POINT ( 'NONE',  ( -0.2395278023694743200, -0.04200000000000001000, 0.3302884071414710600 ) ) ;
#332 = VERTEX_POINT ( 'NONE', #526 ) ;
#333 = VERTEX_POINT ( 'NONE', #258 ) ;
#334 = CC_DESIGN_PERSON_AND_ORGANIZATION_ASSIGNMENT ( #122, #605, ( #290 ) ) ;
#335 = AXIS2_PLACEMENT_3D ( 'NONE', #211, #52, #348 ) ;
#336 = CARTESIAN_POINT ( 'NONE',  ( 0.1692889488741339000, -0.04200000000000001000, 0.3630413224263747700 ) ) ;
#337 = CIRCLE ( 'NONE', #572, 0.009999999999999995000 ) ;
#338 = ORIENTED_EDGE ( 'NONE', *, *, #251, .T. ) ;
#339 = EDGE_CURVE ( 'NONE', #241, #614, #181, .T. ) ;
#340 = PERSON_AND_ORGANIZATION ( #504, #557 ) ;
#341 = VECTOR ( 'NONE', #253, 39.37007874015748100 ) ;
#342 = APPLICATION_PROTOCOL_DEFINITION ( 'international standard', 'config_control_design', 1994, #611 ) ;
#343 = PRODUCT_DEFINITION ( 'UNKNOWN', '', #627, #250 ) ;
#344 = VECTOR ( 'NONE', #216, 39.37007874015748100 ) ;
#345 = ORIENTED_EDGE ( 'NONE', *, *, #81, .T. ) ;
#346 = EDGE_CURVE ( 'NONE', #333, #100, #263, .T. ) ;
#347 = CIRCLE ( 'NONE', #335, 0.009999999999999995000 ) ;
#348 = DIRECTION ( 'NONE',  ( 0.0000000000000000000, 0.0000000000000000000, -1.000000000000000000 ) ) ;
#349 = ADVANCED_FACE ( 'NONE', ( #104 ), #257, .F. ) ;
#350 = AXIS2_PLACEMENT_3D ( 'NONE', #628, #640, #479 ) ;
#351 = FACE_OUTER_BOUND ( 'NONE', #313, .T. ) ;
#352 = VERTEX_POINT ( 'NONE', #139 ) ;
#353 = DIRECTION ( 'NONE',  ( 0.0000000000000000000, 0.0000000000000000000, 1.000000000000000000 ) ) ;
#354 = VECTOR ( 'NONE', #227, 39.37007874015748900 ) ;
#355 = LINE ( 'NONE', #435, #132 ) ;
#356 = DIRECTION ( 'NONE',  ( 0.0000000000000000000, 0.0000000000000000000, 1.000000000000000000 ) ) ;
#357 = AXIS2_PLACEMENT_3D ( 'NONE', #246, #390, #450 ) ;
#358 = CARTESIAN_POINT ( 'NONE',  ( 0.2051811660751068900, -0.04200000000000001000, 0.4400124306062948600 ) ) ;
#359 = CARTESIAN_POINT ( 'NONE',  ( -0.2395278023694743200, 0.0000000000000000000, 0.3612884071414710400 ) ) ;
#360 = LINE ( 'NONE', #320, #448 ) ;
#361 = ADVANCED_FACE ( 'NONE', ( #124 ), #151, .F. ) ;
#362 = ORIENTED_EDGE ( 'NONE', *, *, #314, .T. ) ;
#363 = ORIENTED_EDGE ( 'NONE', *, *, #514, .F. ) ;
#364 = CARTESIAN_POINT ( 'NONE',  ( 4.722546443913154000E-016, -0.04200000000000001000, 0.02472793800516758000 ) ) ;
#365 = LINE ( 'NONE', #635, #244 ) ;
#366 = CC_DESIGN_PERSON_AND_ORGANIZATION_ASSIGNMENT ( #41, #245, ( #627 ) ) ;
#367 = DIRECTION ( 'NONE',  ( -0.9961946980917457700, -0.0000000000000000000, 0.08715574274765443300 ) ) ;
#368 = LINE ( 'NONE', #659, #239 ) ;
#369 = ORIENTED_EDGE ( 'NONE', *, *, #283, .T. ) ;
#370 = AXIS2_PLACEMENT_3D ( 'NONE', #375, #171, #489 ) ;
#371 = CARTESIAN_POINT ( 'NONE',  ( 0.2395278023694743000, -0.04200000000000001000, 0.3302884071414710100 ) ) ;
#372 = EDGE_CURVE ( 'NONE', #642, #660, #347, .T. ) ;
#373 = DIRECTION ( 'NONE',  ( -0.0000000000000000000, 1.000000000000000000, -0.0000000000000000000 ) ) ;
#374 = ORIENTED_EDGE ( 'NONE', *, *, #68, .F. ) ;
#375 = CARTESIAN_POINT ( 'NONE',  ( 0.3486985291329998100, -0.04200000000000001000, 0.2520053723371232800 ) ) ;
#376 = ORIENTED_EDGE ( 'NONE', *, *, #210, .T. ) ;
#377 = EDGE_LOOP ( 'NONE', ( #626, #36, #430, #537, #488, #177, #192, #449, #153, #255, #217, #389 ) ) ;
#378 = EDGE_CURVE ( 'NONE', #100, #333, #75, .T. ) ;
#379 = VECTOR ( 'NONE', #224, 39.37007874015748100 ) ;
#380 = DIRECTION ( 'NONE',  ( 0.4226182617406937200, -0.0000000000000000000, 0.9063077870366527100 ) ) ;
#381 =( LENGTH_UNIT ( ) NAMED_UNIT ( * ) SI_UNIT ( $, .METRE. ) );
#382 = ORIENTED_EDGE ( 'NONE', *, *, #202, .F. ) ;
#383 = APPROVAL ( #145, 'UNSPECIFIED' ) ;
#384 = DIRECTION ( 'NONE',  ( 0.0000000000000000000, 1.000000000000000000, 0.0000000000000000000 ) ) ;
#385 = DIRECTION ( 'NONE',  ( 0.0000000000000000000, 1.000000000000000000, 0.0000000000000000000 ) ) ;
#386 = VECTOR ( 'NONE', #633, 39.37007874015748100 ) ;
#387 = EDGE_CURVE ( 'NONE', #323, #270, #578, .T. ) ;
#388 = DIRECTION ( 'NONE',  ( 0.0000000000000000000, 0.0000000000000000000, 1.000000000000000000 ) ) ;
#389 = ORIENTED_EDGE ( 'NONE', *, *, #81, .F. ) ;
#390 = DIRECTION ( 'NONE',  ( 0.0000000000000000000, 1.000000000000000000, 0.0000000000000000000 ) ) ;
#391 = DIRECTION ( 'NONE',  ( 0.0000000000000000000, 1.000000000000000000, 0.0000000000000000000 ) ) ;
#392 = EDGE_LOOP ( 'NONE', ( #218, #606, #580, #285 ) ) ;
#393 = EDGE_LOOP ( 'NONE', ( #107, #293 ) ) ;
#394 = CC_DESIGN_PERSON_AND_ORGANIZATION_ASSIGNMENT ( #221, #454, ( #343 ) ) ;
#395 = APPROVAL_ROLE ( '' ) ;
#396 = APPROVAL_PERSON_ORGANIZATION ( #340, #34, #395 ) ;
#397 = PERSON_AND_ORGANIZATION_ROLE ( 'classification_officer' ) ;
#398 = FACE_OUTER_BOUND ( 'NONE', #464, .T. ) ;
#399 = CC_DESIGN_DATE_AND_TIME_ASSIGNMENT ( #621, #42, ( #509 ) ) ;
#400 = CLOSED_SHELL ( 'NONE', ( #667, #98, #361, #55, #201, #462, #569, #517, #307, #4, #469, #409, #573, #624, #60, #619, #349, #300 ) ) ;
#401 = CIRCLE ( 'NONE', #663, 0.009999999999999995000 ) ;
#402 = MECHANICAL_CONTEXT ( 'NONE', #592, 'mechanical' ) ;
#403 = AXIS2_PLACEMENT_3D ( 'NONE', #303, #287, #176 ) ;
#404 = ORIENTED_EDGE ( 'NONE', *, *, #416, .T. ) ;
#405 = FACE_OUTER_BOUND ( 'NONE', #78, .T. ) ;
#406 = CC_DESIGN_PERSON_AND_ORGANIZATION_ASSIGNMENT ( #280, #397, ( #509 ) ) ;
#407 = CYLINDRICAL_SURFACE ( 'NONE', #476, 0.009999999999999995000 ) ;
#408 = ORIENTED_EDGE ( 'NONE', *, *, #418, .T. ) ;
#409 = ADVANCED_FACE ( 'NONE', ( #398 ), #523, .T. ) ;
#410 = ORIENTED_EDGE ( 'NONE', *, *, #283, .F. ) ;
#411 = AXIS2_PLACEMENT_3D ( 'NONE', #103, #311, #304 ) ;
#412 = EDGE_CURVE ( 'NONE', #427, #332, #355, .T. ) ;
#413 = VERTEX_POINT ( 'NONE', #321 ) ;
#414 = PERSON_AND_ORGANIZATION ( #504, #557 ) ;
#415 = LINE ( 'NONE', #231, #354 ) ;
#416 = EDGE_CURVE ( 'NONE', #301, #642, #666, .T. ) ;
#417 = ORIENTED_EDGE ( 'NONE', *, *, #339, .F. ) ;
#418 = EDGE_CURVE ( 'NONE', #613, #352, #223, .T. ) ;
#419 = VECTOR ( 'NONE', #391, 39.37007874015748100 ) ;
#420 = CARTESIAN_POINT ( 'NONE',  ( 0.0000000000000000000, 0.0000000000000000000, 0.0000000000000000000 ) ) ;
#421 = FACE_OUTER_BOUND ( 'NONE', #463, .T. ) ;
#422 = ORIENTED_EDGE ( 'NONE', *, *, #412, .T. ) ;
#423 = EDGE_CURVE ( 'NONE', #270, #413, #460, .T. ) ;
#424 = DIRECTION ( 'NONE',  ( 0.0000000000000000000, 1.000000000000000000, 0.0000000000000000000 ) ) ;
#425 = DIRECTION ( 'NONE',  ( -0.0000000000000000000, 1.000000000000000000, -0.0000000000000000000 ) ) ;
#426 = ORIENTED_EDGE ( 'NONE', *, *, #458, .F. ) ;
#427 = VERTEX_POINT ( 'NONE', #643 ) ;
#428 = DIRECTION ( 'NONE',  ( -0.0000000000000000000, 1.000000000000000000, -0.0000000000000000000 ) ) ;
#429 = CARTESIAN_POINT ( 'NONE',  ( -0.2051811660751068900, -0.04200000000000001000, 0.4400124306062948600 ) ) ;
#430 = ORIENTED_EDGE ( 'NONE', *, *, #455, .T. ) ;
#431 = CARTESIAN_POINT ( 'NONE',  ( 0.2395278023694743000, -0.04200000000000001000, 0.3302884071414710100 ) ) ;
#432 = DIRECTION ( 'NONE',  ( 0.0000000000000000000, 1.000000000000000000, 0.0000000000000000000 ) ) ;
#433 = CC_DESIGN_APPROVAL ( #34, ( #627 ) ) ;
#434 = CARTESIAN_POINT ( 'NONE',  ( -0.3486985291329992000, -0.04200000000000001000, 0.2620053723371226800 ) ) ;
#435 = CARTESIAN_POINT ( 'NONE',  ( -0.3537533722836206400, 0.0000000000000000000, 0.2624858121841371900 ) ) ;
#436 = ORIENTED_EDGE ( 'NONE', *, *, #544, .T. ) ;
#437 = CARTESIAN_POINT ( 'NONE',  ( -0.2462823724324175200, -0.04200000000000001000, 0.2530833180393609600 ) ) ;
#438 = ORIENTED_EDGE ( 'NONE', *, *, #68, .T. ) ;
#439 = EDGE_CURVE ( 'NONE', #535, #3, #47, .T. ) ;
#440 = CARTESIAN_POINT ( 'NONE',  ( 0.2462823724324181000, 0.0000000000000000000, 0.2530833180393609600 ) ) ;
#441 = COORDINATED_UNIVERSAL_TIME_OFFSET ( 6, 0, .BEHIND. ) ;
#442 = ORIENTED_EDGE ( 'NONE', *, *, #418, .F. ) ;
#443 = AXIS2_PLACEMENT_3D ( 'NONE', #225, #641, #629 ) ;
#444 = LINE ( 'NONE', #532, #386 ) ;
#445 = DIRECTION ( 'NONE',  ( 0.0000000000000000000, -1.000000000000000000, 0.0000000000000000000 ) ) ;
#446 = CARTESIAN_POINT ( 'NONE',  ( -0.2395278023694743200, -0.04200000000000001000, 0.3612884071414710400 ) ) ;
#447 = CARTESIAN_POINT ( 'NONE',  ( 0.3486985291329998100, -0.04200000000000001000, 0.2620053723371232900 ) ) ;
#448 = VECTOR ( 'NONE', #432, 39.37007874015748100 ) ;
#449 = ORIENTED_EDGE ( 'NONE', *, *, #152, .F. ) ;
#450 = DIRECTION ( 'NONE',  ( 0.0000000000000000000, 0.0000000000000000000, 1.000000000000000000 ) ) ;
#451 = APPROVAL_DATE_TIME ( #549, #383 ) ;
#452 = DIRECTION ( 'NONE',  ( 0.0000000000000000000, 1.000000000000000000, 0.0000000000000000000 ) ) ;
#453 = EDGE_CURVE ( 'NONE', #570, #470, #444, .T. ) ;
#454 = PERSON_AND_ORGANIZATION_ROLE ( 'creator' ) ;
#455 = EDGE_CURVE ( 'NONE', #470, #95, #623, .T. ) ;
#456 = DIRECTION ( 'NONE',  ( 0.0000000000000000000, 1.000000000000000000, 0.0000000000000000000 ) ) ;
#457 = ORIENTED_EDGE ( 'NONE', *, *, #108, .F. ) ;
#458 = EDGE_CURVE ( 'NONE', #323, #478, #328, .T. ) ;
#459 = APPROVAL_ROLE ( '' ) ;
#460 = LINE ( 'NONE', #487, #475 ) ;
#461 = PERSON_AND_ORGANIZATION_ROLE ( 'design_supplier' ) ;
#462 = ADVANCED_FACE ( 'NONE', ( #197 ), #113, .T. ) ;
#463 = EDGE_LOOP ( 'NONE', ( #260, #554, #338, #18 ) ) ;
#464 = EDGE_LOOP ( 'NONE', ( #65, #166, #345, #288 ) ) ;
#465 = DIRECTION ( 'NONE',  ( 0.0000000000000000000, 1.000000000000000000, 0.0000000000000000000 ) ) ;
#466 = ORIENTED_EDGE ( 'NONE', *, *, #651, .T. ) ;
#467 = SHAPE_DEFINITION_REPRESENTATION ( #299, #278 ) ;
#468 = AXIS2_PLACEMENT_3D ( 'NONE', #164, #13, #54 ) ;
#469 = ADVANCED_FACE ( 'NONE', ( #274 ), #252, .T. ) ;
#470 = VERTEX_POINT ( 'NONE', #325 ) ;
#471 = AXIS2_PLACEMENT_3D ( 'NONE', #595, #282, #497 ) ;
#472 = ORIENTED_EDGE ( 'NONE', *, *, #48, .T. ) ;
#473 = LINE ( 'NONE', #35, #419 ) ;
#474 = DIMENSIONAL_EXPONENTS ( 1.000000000000000000, 0.0000000000000000000, 0.0000000000000000000, 0.0000000000000000000, 0.0000000000000000000, 0.0000000000000000000, 0.0000000000000000000 ) ;
#475 = VECTOR ( 'NONE', #111, 39.37007874015748100 ) ;
#476 = AXIS2_PLACEMENT_3D ( 'NONE', #82, #456, #556 ) ;
#477 = ORIENTED_EDGE ( 'NONE', *, *, #261, .F. ) ;
#478 = VERTEX_POINT ( 'NONE', #20 ) ;
#479 = DIRECTION ( 'NONE',  ( -0.9961946980917457700, 0.0000000000000000000, 0.08715574274765444700 ) ) ;
#480 = AXIS2_PLACEMENT_3D ( 'NONE', #588, #428, #316 ) ;
#481 = CARTESIAN_POINT ( 'NONE',  ( -0.3486985291329992000, -0.04200000000000001000, 0.2620053723371226800 ) ) ;
#482 = CARTESIAN_POINT ( 'NONE',  ( 0.0000000000000000000, -0.04200000000000001000, 0.0000000000000000000 ) ) ;
#483 = DIRECTION ( 'NONE',  ( 0.0000000000000000000, 0.0000000000000000000, -1.000000000000000000 ) ) ;
#484 = DIRECTION ( 'NONE',  ( -0.0000000000000000000, -1.000000000000000000, -0.0000000000000000000 ) ) ;
#485 = CIRCLE ( 'NONE', #357, 0.03099999999999995500 ) ;
#486 = ORIENTED_EDGE ( 'NONE', *, *, #79, .T. ) ;
#487 = CARTESIAN_POINT ( 'NONE',  ( -0.2051811660751071100, -0.04200000000000001000, 0.4400124306062946900 ) ) ;
#488 = ORIENTED_EDGE ( 'NONE', *, *, #251, .F. ) ;
#489 = DIRECTION ( 'NONE',  ( 0.0000000000000000000, 0.0000000000000000000, 1.000000000000000000 ) ) ;
#490 = EDGE_CURVE ( 'NONE', #93, #332, #309, .T. ) ;
#491 = PERSON_AND_ORGANIZATION ( #504, #557 ) ;
#492 = CIRCLE ( 'NONE', #160, 0.4262279380051675600 ) ;
#493 =( NAMED_UNIT ( * ) SI_UNIT ( $, .STERADIAN. ) SOLID_ANGLE_UNIT ( ) );
#494 = CARTESIAN_POINT ( 'NONE',  ( -0.2395278023694743200, 0.0000000000000000000, 0.2992884071414710900 ) ) ;
#495 = VECTOR ( 'NONE', #593, 39.37007874015748900 ) ;
#496 = VERTEX_POINT ( 'NONE', #21 ) ;
#497 = DIRECTION ( 'NONE',  ( 0.0000000000000000000, 0.0000000000000000000, -1.000000000000000000 ) ) ;
#498 = AXIS2_PLACEMENT_3D ( 'NONE', #317, #114, #483 ) ;
#499 = CIRCLE ( 'NONE', #594, 0.07749999999999979100 ) ;
#500 = PLANE ( 'NONE',  #665 ) ;
#501 = DIRECTION ( 'NONE',  ( 0.0000000000000000000, 1.000000000000000000, 0.0000000000000000000 ) ) ;
#502 = CIRCLE ( 'NONE', #28, 0.4854999999999999900 ) ;
#503 = EDGE_LOOP ( 'NONE', ( #248, #85 ) ) ;
#504 = PERSON ( 'UNSPECIFIED', 'UNSPECIFIED', 'UNSPECIFIED', ('UNSPECIFIED'), ('UNSPECIFIED'), ('UNSPECIFIED') ) ;
#505 = ORIENTED_EDGE ( 'NONE', *, *, #423, .T. ) ;
#506 = DATE_AND_TIME ( #272, #5 ) ;
#507 = DIRECTION ( 'NONE',  ( 0.0000000000000000000, 1.000000000000000000, 0.0000000000000000000 ) ) ;
#508 = CYLINDRICAL_SURFACE ( 'NONE', #370, 0.009999999999999995000 ) ;
#509 = SECURITY_CLASSIFICATION ( '', '', #602 ) ;
#510 = EDGE_CURVE ( 'NONE', #25, #478, #365, .T. ) ;
#511 = DIRECTION ( 'NONE',  ( 0.0000000000000000000, 0.0000000000000000000, 1.000000000000000000 ) ) ;
#512 = CYLINDRICAL_SURFACE ( 'NONE', #560, 0.03099999999999995500 ) ;
#513 = ORIENTED_EDGE ( 'NONE', *, *, #339, .T. ) ;
#514 = EDGE_CURVE ( 'NONE', #543, #427, #296, .T. ) ;
#515 = VECTOR ( 'NONE', #536, 39.37007874015748100 ) ;
#516 = AXIS2_PLACEMENT_3D ( 'NONE', #235, #445, #652 ) ;
#517 = ADVANCED_FACE ( 'NONE', ( #163 ), #271, .T. ) ;
#518 = CARTESIAN_POINT ( 'NONE',  ( 0.2395278023694743000, 0.0000000000000000000, 0.3302884071414710100 ) ) ;
#519 = UNCERTAINTY_MEASURE_WITH_UNIT (LENGTH_MEASURE( 1.000000000000000100E-005 ), #76, 'distance_accuracy_value', 'NONE');
#520 = CIRCLE ( 'NONE', #236, 0.07749999999999979100 ) ;
#521 = VERTEX_POINT ( 'NONE', #590 ) ;
#522 = EDGE_LOOP ( 'NONE', ( #547, #596, #362, #376 ) ) ;
#523 = PLANE ( 'NONE',  #53 ) ;
#524 = PERSON_AND_ORGANIZATION ( #504, #557 ) ;
#525 = FACE_OUTER_BOUND ( 'NONE', #377, .T. ) ;
#526 = CARTESIAN_POINT ( 'NONE',  ( -0.3478269717055226300, 0.0000000000000000000, 0.2619673193180401300 ) ) ;
#527 = AXIS2_PLACEMENT_3D ( 'NONE', #429, #174, #219 ) ;
#528 = CYLINDRICAL_SURFACE ( 'NONE', #443, 0.03099999999999995500 ) ;
#529 = CARTESIAN_POINT ( 'NONE',  ( -0.3486985291329992000, -0.04200000000000001000, 0.2520053723371226700 ) ) ;
#530 = VECTOR ( 'NONE', #205, 39.37007874015748900 ) ;
#531 = AXIS2_PLACEMENT_3D ( 'NONE', #73, #322, #123 ) ;
#532 = CARTESIAN_POINT ( 'NONE',  ( 0.3478269717055231800, -0.04200000000000001000, 0.2619673193180407400 ) ) ;
#533 = CARTESIAN_POINT ( 'NONE',  ( -0.2395278023694743200, -0.04200000000000001000, 0.3302884071414710600 ) ) ;
#534 = CIRCLE ( 'NONE', #269, 0.07749999999999981900 ) ;
#535 = VERTEX_POINT ( 'NONE', #66 ) ;
#536 = DIRECTION ( 'NONE',  ( 0.0000000000000000000, 1.000000000000000000, 0.0000000000000000000 ) ) ;
#537 = ORIENTED_EDGE ( 'NONE', *, *, #92, .T. ) ;
#538 = CARTESIAN_POINT ( 'NONE',  ( -0.1692889488741339000, -0.04200000000000001000, 0.3630413224263747700 ) ) ;
#539 = CIRCLE ( 'NONE', #59, 0.03099999999999995500 ) ;
#540 = DIRECTION ( 'NONE',  ( 0.0000000000000000000, 0.0000000000000000000, 1.000000000000000000 ) ) ;
#541 = CARTESIAN_POINT ( 'NONE',  ( 0.1692889488741339000, 0.0000000000000000000, 0.3630413224263747700 ) ) ;
#542 = CC_DESIGN_SECURITY_CLASSIFICATION ( #509, ( #627 ) ) ;
#543 = VERTEX_POINT ( 'NONE', #167 ) ;
#544 = EDGE_CURVE ( 'NONE', #521, #241, #84, .T. ) ;
#545 = VERTEX_POINT ( 'NONE', #440 ) ;
#546 = AXIS2_PLACEMENT_3D ( 'NONE', #563, #38, #555 ) ;
#547 = ORIENTED_EDGE ( 'NONE', *, *, #622, .F. ) ;
#548 = DIRECTION ( 'NONE',  ( 0.0000000000000000000, 0.0000000000000000000, 1.000000000000000000 ) ) ;
#549 = DATE_AND_TIME ( #195, #318 ) ;
#550 = VECTOR ( 'NONE', #484, 39.37007874015748100 ) ;
#551 = CARTESIAN_POINT ( 'NONE',  ( 0.3570761150010745600, 0.0000000000000000000, 0.2574657802910250700 ) ) ;
#552 = DIRECTION ( 'NONE',  ( 0.4226182617406937200, 0.0000000000000000000, -0.9063077870366527100 ) ) ;
#553 = VECTOR ( 'NONE', #452, 39.37007874015748100 ) ;
#554 = ORIENTED_EDGE ( 'NONE', *, *, #261, .T. ) ;
#555 = DIRECTION ( 'NONE',  ( 0.0000000000000000000, 0.0000000000000000000, 1.000000000000000000 ) ) ;
#556 = DIRECTION ( 'NONE',  ( 0.0000000000000000000, 0.0000000000000000000, 1.000000000000000000 ) ) ;
#557 = ORGANIZATION ( 'UNSPECIFIED', 'UNSPECIFIED', '' ) ;
#558 = LINE ( 'NONE', #58, #341 ) ;
#559 = CARTESIAN_POINT ( 'NONE',  ( 0.2395278023694743000, -0.04200000000000001000, 0.3302884071414710100 ) ) ;
#560 = AXIS2_PLACEMENT_3D ( 'NONE', #371, #125, #273 ) ;
#561 = ORIENTED_EDGE ( 'NONE', *, *, #632, .T. ) ;
#562 = CIRCLE ( 'NONE', #498, 0.07749999999999981900 ) ;
#563 = CARTESIAN_POINT ( 'NONE',  ( 0.2395278023694743200, -0.04200000000000001000, 0.3302884071414710100 ) ) ;
#564 = APPLICATION_PROTOCOL_DEFINITION ( 'international standard', 'config_control_design', 1994, #592 ) ;
#565 = DATE_AND_TIME ( #142, #161 ) ;
#566 = VECTOR ( 'NONE', #72, 39.37007874015748100 ) ;
#567 = AXIS2_PLACEMENT_3D ( 'NONE', #364, #424, #548 ) ;
#568 = DIRECTION ( 'NONE',  ( 0.4226182617406937200, 0.0000000000000000000, 0.9063077870366527100 ) ) ;
#569 = ADVANCED_FACE ( 'NONE', ( #421 ), #97, .F. ) ;
#570 = VERTEX_POINT ( 'NONE', #134 ) ;
#571 = ORIENTED_EDGE ( 'NONE', *, *, #439, .F. ) ;
#572 = AXIS2_PLACEMENT_3D ( 'NONE', #637, #373, #62 ) ;
#573 = ADVANCED_FACE ( 'NONE', ( #610, #662, #525 ), #500, .T. ) ;
#574 = LINE ( 'NONE', #83, #74 ) ;
#575 = ORIENTED_EDGE ( 'NONE', *, *, #39, .T. ) ;
#576 = ORIENTED_EDGE ( 'NONE', *, *, #305, .F. ) ;
#577 = APPROVAL_DATE_TIME ( #327, #115 ) ;
#578 = CIRCLE ( 'NONE', #468, 0.4854999999999999900 ) ;
#579 = EDGE_CURVE ( 'NONE', #413, #352, #281, .T. ) ;
#580 = ORIENTED_EDGE ( 'NONE', *, *, #453, .F. ) ;
#581 = ORIENTED_EDGE ( 'NONE', *, *, #202, .T. ) ;
#582 = CARTESIAN_POINT ( 'NONE',  ( 0.2395278023694743000, -0.04200000000000001000, 0.2992884071414710400 ) ) ;
#583 = AXIS2_PLACEMENT_3D ( 'NONE', #121, #213, #315 ) ;
#584 = FACE_OUTER_BOUND ( 'NONE', #44, .T. ) ;
#585 = DIRECTION ( 'NONE',  ( 0.0000000000000000000, 0.0000000000000000000, 1.000000000000000000 ) ) ;
#586 = CARTESIAN_POINT ( 'NONE',  ( 0.2051811660751068900, -0.04200000000000001000, 0.4400124306062948600 ) ) ;
#587 = ORIENTED_EDGE ( 'NONE', *, *, #412, .F. ) ;
#588 = CARTESIAN_POINT ( 'NONE',  ( 0.3486985291329998100, -0.04200000000000001000, 0.2520053723371232800 ) ) ;
#589 = AXIS2_PLACEMENT_3D ( 'NONE', #533, #385, #585 ) ;
#590 = CARTESIAN_POINT ( 'NONE',  ( -0.2395278023694743200, -0.04200000000000001000, 0.3612884071414710400 ) ) ;
#591 = VECTOR ( 'NONE', #266, 39.37007874015748100 ) ;
#592 = APPLICATION_CONTEXT ( 'configuration controlled 3d designs of mechanical parts and assemblies' ) ;
#593 = DIRECTION ( 'NONE',  ( 0.4226182617406937200, -0.0000000000000000000, 0.9063077870366527100 ) ) ;
#594 = AXIS2_PLACEMENT_3D ( 'NONE', #647, #384, #388 ) ;
#595 = CARTESIAN_POINT ( 'NONE',  ( -0.3486985291329992000, 0.0000000000000000000, 0.2520053723371226700 ) ) ;
#596 = ORIENTED_EDGE ( 'NONE', *, *, #453, .T. ) ;
#597 = ORIENTED_EDGE ( 'NONE', *, *, #204, .F. ) ;
#598 = EDGE_CURVE ( 'NONE', #535, #100, #234, .T. ) ;
#599 = DIRECTION ( 'NONE',  ( 0.0000000000000000000, 1.000000000000000000, 0.0000000000000000000 ) ) ;
#600 = CARTESIAN_POINT ( 'NONE',  ( 0.2051811660751068900, -0.04200000000000001000, 0.4400124306062948600 ) ) ;
#601 = COORDINATED_UNIVERSAL_TIME_OFFSET ( 6, 0, .BEHIND. ) ;
#602 = SECURITY_CLASSIFICATION_LEVEL ( 'unclassified' ) ;
#603 = DIRECTION ( 'NONE',  ( -6.829619984160661400E-015, 0.0000000000000000000, -1.000000000000000000 ) ) ;
#604 = ORIENTED_EDGE ( 'NONE', *, *, #329, .F. ) ;
#605 = PERSON_AND_ORGANIZATION_ROLE ( 'design_owner' ) ;
#606 = ORIENTED_EDGE ( 'NONE', *, *, #455, .F. ) ;
#607 = DIRECTION ( 'NONE',  ( 0.0000000000000000000, 1.000000000000000000, 0.0000000000000000000 ) ) ;
#608 = AXIS2_PLACEMENT_3D ( 'NONE', #137, #501, #188 ) ;
#609 = COORDINATED_UNIVERSAL_TIME_OFFSET ( 6, 0, .BEHIND. ) ;
#610 = FACE_BOUND ( 'NONE', #157, .T. ) ;
#611 = APPLICATION_CONTEXT ( 'configuration controlled 3d designs of mechanical parts and assemblies' ) ;
#612 = EDGE_CURVE ( 'NONE', #332, #496, #653, .T. ) ;
#613 = VERTEX_POINT ( 'NONE', #184 ) ;
#614 = VERTEX_POINT ( 'NONE', #494 ) ;
#615 = FACE_BOUND ( 'NONE', #393, .T. ) ;
#616 = AXIS2_PLACEMENT_3D ( 'NONE', #658, #511, #148 ) ;
#617 = CYLINDRICAL_SURFACE ( 'NONE', #546, 0.07749999999999979100 ) ;
#618 = ORIENTED_EDGE ( 'NONE', *, *, #612, .F. ) ;
#619 = ADVANCED_FACE ( 'NONE', ( #110 ), #644, .F. ) ;
#620 = EDGE_CURVE ( 'NONE', #613, #543, #499, .T. ) ;
#621 = DATE_AND_TIME ( #90, #243 ) ;
#622 = EDGE_CURVE ( 'NONE', #570, #545, #415, .T. ) ;
#623 = CIRCLE ( 'NONE', #480, 0.009999999999999995000 ) ;
#624 = ADVANCED_FACE ( 'NONE', ( #30, #615, #214 ), #29, .F. ) ;
#625 = LINE ( 'NONE', #600, #495 ) ;
#626 = ORIENTED_EDGE ( 'NONE', *, *, #39, .F. ) ;
#627 = PRODUCT_DEFINITION_FORMATION_WITH_SPECIFIED_SOURCE ( 'ANY', '', #290, .NOT_KNOWN. ) ;
#628 = CARTESIAN_POINT ( 'NONE',  ( -0.3537533722836206400, -0.04200000000000001000, 0.2624858121841371900 ) ) ;
#629 = DIRECTION ( 'NONE',  ( 0.0000000000000000000, 0.0000000000000000000, 1.000000000000000000 ) ) ;
#630 = ORIENTED_EDGE ( 'NONE', *, *, #372, .T. ) ;
#631 = LINE ( 'NONE', #15, #530 ) ;
#632 = EDGE_CURVE ( 'NONE', #270, #613, #574, .T. ) ;
#633 = DIRECTION ( 'NONE',  ( 0.0000000000000000000, -1.000000000000000000, 0.0000000000000000000 ) ) ;
#634 = MANIFOLD_SOLID_BREP ( 'Fillet1', #400 ) ;
#635 = CARTESIAN_POINT ( 'NONE',  ( 0.2051811660751068900, 0.0000000000000000000, 0.4400124306062948600 ) ) ;
#636 = DIRECTION ( 'NONE',  ( -0.0000000000000000000, -1.000000000000000000, -0.0000000000000000000 ) ) ;
#637 = CARTESIAN_POINT ( 'NONE',  ( -0.3486985291329992000, -0.04200000000000001000, 0.2520053723371226700 ) ) ;
#638 = CIRCLE ( 'NONE', #589, 0.03099999999999995500 ) ;
#639 = ORIENTED_EDGE ( 'NONE', *, *, #510, .T. ) ;
#640 = DIRECTION ( 'NONE',  ( -0.08715574274765446100, 0.0000000000000000000, -0.9961946980917458800 ) ) ;
#641 = DIRECTION ( 'NONE',  ( 0.0000000000000000000, 1.000000000000000000, 0.0000000000000000000 ) ) ;
#642 = VERTEX_POINT ( 'NONE', #551 ) ;
#643 = CARTESIAN_POINT ( 'NONE',  ( -0.2462823724324175200, 0.0000000000000000000, 0.2530833180393609600 ) ) ;
#644 = CYLINDRICAL_SURFACE ( 'NONE', #147, 0.03099999999999995500 ) ;
#645 = VECTOR ( 'NONE', #131, 39.37007874015748100 ) ;
#646 = AXIS2_PLACEMENT_3D ( 'NONE', #482, #170, #173 ) ;
#647 = CARTESIAN_POINT ( 'NONE',  ( -0.2395278023694743200, -0.04200000000000001000, 0.3302884071414710600 ) ) ;
#648 = DIRECTION ( 'NONE',  ( 0.0000000000000000000, 0.0000000000000000000, 1.000000000000000000 ) ) ;
#649 = ORIENTED_EDGE ( 'NONE', *, *, #612, .T. ) ;
#650 = ORIENTED_EDGE ( 'NONE', *, *, #183, .F. ) ;
#651 = EDGE_CURVE ( 'NONE', #95, #660, #473, .T. ) ;
#652 = DIRECTION ( 'NONE',  ( 0.0000000000000000000, -0.0000000000000000000, -1.000000000000000000 ) ) ;
#653 = CIRCLE ( 'NONE', #471, 0.009999999999999995000 ) ;
#654 = CARTESIAN_POINT ( 'NONE',  ( 0.2395278023694743000, -0.04200000000000001000, 0.3612884071414709800 ) ) ;
#655 = CARTESIAN_POINT ( 'NONE',  ( -0.2395278023694743200, -0.04200000000000001000, 0.2992884071414710900 ) ) ;
#656 = VECTOR ( 'NONE', #507, 39.37007874015748100 ) ;
#657 = ORIENTED_EDGE ( 'NONE', *, *, #514, .T. ) ;
#658 = CARTESIAN_POINT ( 'NONE',  ( 0.0000000000000000000, 0.0000000000000000000, 0.0000000000000000000 ) ) ;
#659 = CARTESIAN_POINT ( 'NONE',  ( -0.3537533722836206400, -0.04200000000000001000, 0.2624858121841371900 ) ) ;
#660 = VERTEX_POINT ( 'NONE', #40 ) ;
#661 = APPROVAL_DATE_TIME ( #506, #34 ) ;
#662 = FACE_BOUND ( 'NONE', #503, .T. ) ;
#663 = AXIS2_PLACEMENT_3D ( 'NONE', #31, #182, #179 ) ;
#664 = FACE_OUTER_BOUND ( 'NONE', #165, .T. ) ;
#665 = AXIS2_PLACEMENT_3D ( 'NONE', #80, #133, #237 ) ;
#666 = CIRCLE ( 'NONE', #583, 0.4262279380051675600 ) ;
#667 = ADVANCED_FACE ( 'NONE', ( #584 ), #102, .F. ) ;
#668 = CARTESIAN_POINT ( 'NONE',  ( -0.3486985291329992000, -0.04200000000000001000, 0.2520053723371226700 ) ) ;
ENDSEC;
END-ISO-10303-21;
