ISO-10303-21;
HEADER;
FILE_DESCRIPTION (( 'STEP AP203' ),
    '1' );
FILE_NAME ('90107A007_316 Stainless Steel Washer.STEP',
    '2023-10-19T19:02:38',
    ( 'Administrator' ),
    ( 'Managed by Terraform' ),
    'SwSTEP 2.0',
    'SolidWorks 2017',
    '' );
FILE_SCHEMA (( 'CONFIG_CONTROL_DESIGN' ));
ENDSEC;

DATA;
#1 = AXIS2_PLACEMENT_3D ( 'NONE', #20, #274, #182 ) ;
#2 = CARTESIAN_POINT ( 'NONE',  ( -0.07799999999999995800, 0.0000000000000000000, -0.01550000000000015800 ) ) ;
#3 = CIRCLE ( 'NONE', #289, 0.07799999999999995800 ) ;
#4 = APPROVAL_STATUS ( 'not_yet_approved' ) ;
#5 = ORIENTED_EDGE ( 'NONE', *, *, #17, .T. ) ;
#6 = PERSON_AND_ORGANIZATION_ROLE ( 'creator' ) ;
#7 = APPROVAL_DATE_TIME ( #105, #179 ) ;
#8 = TOROIDAL_SURFACE ( 'NONE', #189, 0.1482499999999999100, 0.007749999999999999900 ) ;
#9 = VERTEX_POINT ( 'NONE', #266 ) ;
#10 = DIRECTION ( 'NONE',  ( 0.0000000000000000000, 0.0000000000000000000, 1.000000000000000000 ) ) ;
#11 = ADVANCED_FACE ( 'NONE', ( #118 ), #333, .T. ) ;
#12 = CARTESIAN_POINT ( 'NONE',  ( 0.0000000000000000000, 0.0000000000000000000, -0.01550000000000015800 ) ) ;
#13 = CARTESIAN_POINT ( 'NONE',  ( 0.0000000000000000000, 0.0000000000000000000, 0.01549999999999984200 ) ) ;
#14 = APPROVAL ( #35, 'UNSPECIFIED' ) ;
#15 = APPROVAL_PERSON_ORGANIZATION ( #51, #55, #115 ) ;
#16 = VECTOR ( 'NONE', #267, 39.37007874015748100 ) ;
#17 = EDGE_CURVE ( 'NONE', #73, #107, #318, .T. ) ;
#18 = CARTESIAN_POINT ( 'NONE',  ( 0.0000000000000000000, 0.0000000000000000000, 0.01549999999999984200 ) ) ;
#19 = ORIENTED_EDGE ( 'NONE', *, *, #332, .F. ) ;
#20 = CARTESIAN_POINT ( 'NONE',  ( 0.0000000000000000000, 0.0000000000000000000, -0.01550000000000015800 ) ) ;
#21 = CARTESIAN_POINT ( 'NONE',  ( 0.0000000000000000000, 0.0000000000000000000, 0.007749999999999842100 ) ) ;
#22 = CIRCLE ( 'NONE', #110, 0.1559999999999999200 ) ;
#23 = EDGE_CURVE ( 'NONE', #143, #199, #211, .T. ) ;
#24 = DIRECTION ( 'NONE',  ( 1.000000000000000000, 0.0000000000000000000, 0.0000000000000000000 ) ) ;
#25 = TOROIDAL_SURFACE ( 'NONE', #215, 0.08574999999999996500, 0.007749999999999999900 ) ;
#26 = DIRECTION ( 'NONE',  ( 0.0000000000000000000, 0.0000000000000000000, 1.000000000000000000 ) ) ;
#27 = VERTEX_POINT ( 'NONE', #66 ) ;
#28 = DIRECTION ( 'NONE',  ( -0.0000000000000000000, -0.0000000000000000000, -1.000000000000000000 ) ) ;
#29 = EDGE_CURVE ( 'NONE', #143, #9, #157, .T. ) ;
#30 = CYLINDRICAL_SURFACE ( 'NONE', #338, 0.07799999999999995800 ) ;
#31 = PERSON_AND_ORGANIZATION_ROLE ( 'creator' ) ;
#32 = DIRECTION ( 'NONE',  ( 0.0000000000000000000, 0.0000000000000000000, -1.000000000000000000 ) ) ;
#33 = LOCAL_TIME ( 14, 2, 38.00000000000000000, #348 ) ;
#34 = DIRECTION ( 'NONE',  ( 1.000000000000000000, 0.0000000000000000000, 0.0000000000000000000 ) ) ;
#35 = APPROVAL_STATUS ( 'not_yet_approved' ) ;
#36 = EDGE_LOOP ( 'NONE', ( #352, #117, #335, #152 ) ) ;
#37 = APPROVAL_PERSON_ORGANIZATION ( #331, #179, #228 ) ;
#38 = FACE_OUTER_BOUND ( 'NONE', #36, .T. ) ;
#39 = PRODUCT_DEFINITION ( 'UNKNOWN', '', #344, #153 ) ;
#40 = EDGE_CURVE ( 'NONE', #341, #81, #3, .T. ) ;
#41 = EDGE_LOOP ( 'NONE', ( #195, #217, #89, #19 ) ) ;
#42 = CARTESIAN_POINT ( 'NONE',  ( 0.0000000000000000000, 0.0000000000000000000, -0.01550000000000015800 ) ) ;
#43 = LOCAL_TIME ( 14, 2, 38.00000000000000000, #87 ) ;
#44 = CARTESIAN_POINT ( 'NONE',  ( -0.08574999999999996500, 1.050134630268855100E-017, 0.007749999999999842100 ) ) ;
#45 = AXIS2_PLACEMENT_3D ( 'NONE', #255, #137, #190 ) ;
#46 = VERTEX_POINT ( 'NONE', #144 ) ;
#47 = DIRECTION ( 'NONE',  ( 1.000000000000000000, 0.0000000000000000000, -0.0000000000000000000 ) ) ;
#48 = ORIENTED_EDGE ( 'NONE', *, *, #276, .F. ) ;
#49 = AXIS2_PLACEMENT_3D ( 'NONE', #13, #205, #206 ) ;
#50 = EDGE_LOOP ( 'NONE', ( #253, #285, #132, #249 ) ) ;
#51 = PERSON_AND_ORGANIZATION ( #135, #160 ) ;
#52 = AXIS2_PLACEMENT_3D ( 'NONE', #216, #57, #32 ) ;
#53 = AXIS2_PLACEMENT_3D ( 'NONE', #130, #212, #345 ) ;
#54 = VECTOR ( 'NONE', #320, 39.37007874015748100 ) ;
#55 = APPROVAL ( #165, 'UNSPECIFIED' ) ;
#56 = DIRECTION ( 'NONE',  ( 0.0000000000000000000, 0.0000000000000000000, 1.000000000000000000 ) ) ;
#57 = DIRECTION ( 'NONE',  ( 0.0000000000000000000, -1.000000000000000000, 0.0000000000000000000 ) ) ;
#58 = EDGE_CURVE ( 'NONE', #242, #107, #265, .T. ) ;
#59 = APPLICATION_PROTOCOL_DEFINITION ( 'international standard', 'config_control_design', 1994, #167 ) ;
#60 = ORIENTED_EDGE ( 'NONE', *, *, #340, .T. ) ;
#61 = PERSON_AND_ORGANIZATION_ROLE ( 'design_supplier' ) ;
#62 = DATE_AND_TIME ( #210, #33 ) ;
#63 = FACE_BOUND ( 'NONE', #71, .T. ) ;
#64 = DIRECTION ( 'NONE',  ( 1.000000000000000000, 0.0000000000000000000, 0.0000000000000000000 ) ) ;
#65 = ADVANCED_FACE ( 'NONE', ( #161 ), #109, .T. ) ;
#66 = CARTESIAN_POINT ( 'NONE',  ( -0.1559999999999999200, 0.0000000000000000000, 0.007749999999999842100 ) ) ;
#67 = AXIS2_PLACEMENT_3D ( 'NONE', #121, #10, #64 ) ;
#68 = LOCAL_TIME ( 14, 2, 38.00000000000000000, #131 ) ;
#69 = CARTESIAN_POINT ( 'NONE',  ( 0.0000000000000000000, 0.0000000000000000000, 0.01549999999999984200 ) ) ;
#70 = CC_DESIGN_DATE_AND_TIME_ASSIGNMENT ( #62, #197, ( #313 ) ) ;
#71 = EDGE_LOOP ( 'NONE', ( #96, #304 ) ) ;
#72 = PERSON_AND_ORGANIZATION ( #135, #160 ) ;
#73 = VERTEX_POINT ( 'NONE', #145 ) ;
#74 = CARTESIAN_POINT ( 'NONE',  ( 0.0000000000000000000, 0.0000000000000000000, 0.007749999999999842100 ) ) ;
#75 = CC_DESIGN_PERSON_AND_ORGANIZATION_ASSIGNMENT ( #328, #61, ( #344 ) ) ;
#76 = AXIS2_PLACEMENT_3D ( 'NONE', #69, #155, #125 ) ;
#77 = COORDINATED_UNIVERSAL_TIME_OFFSET ( 6, 0, .BEHIND. ) ;
#78 = FACE_BOUND ( 'NONE', #355, .T. ) ;
#79 = MANIFOLD_SOLID_BREP ( 'Imported1', #234 ) ;
#80 = CARTESIAN_POINT ( 'NONE',  ( 0.0000000000000000000, 0.0000000000000000000, 0.01549999999999984200 ) ) ;
#81 = VERTEX_POINT ( 'NONE', #316 ) ;
#82 = AXIS2_PLACEMENT_3D ( 'NONE', #12, #268, #200 ) ;
#83 = FACE_OUTER_BOUND ( 'NONE', #171, .T. ) ;
#84 = DIRECTION ( 'NONE',  ( -0.0000000000000000000, -0.0000000000000000000, -1.000000000000000000 ) ) ;
#85 = APPLICATION_CONTEXT ( 'configuration controlled 3d designs of mechanical parts and assemblies' ) ;
#86 = APPROVAL_ROLE ( '' ) ;
#87 = COORDINATED_UNIVERSAL_TIME_OFFSET ( 6, 0, .BEHIND. ) ;
#88 = CYLINDRICAL_SURFACE ( 'NONE', #213, 0.07799999999999995800 ) ;
#89 = ORIENTED_EDGE ( 'NONE', *, *, #246, .T. ) ;
#90 = CC_DESIGN_SECURITY_CLASSIFICATION ( #313, ( #344 ) ) ;
#91 = UNCERTAINTY_MEASURE_WITH_UNIT (LENGTH_MEASURE( 1.000000000000000100E-005 ), #261, 'distance_accuracy_value', 'NONE');
#92 = LINE ( 'NONE', #164, #295 ) ;
#93 = DIRECTION ( 'NONE',  ( 0.0000000000000000000, 0.0000000000000000000, 1.000000000000000000 ) ) ;
#94 = AXIS2_PLACEMENT_3D ( 'NONE', #95, #270, #343 ) ;
#95 = CARTESIAN_POINT ( 'NONE',  ( 0.0000000000000000000, 0.0000000000000000000, 0.01549999999999984200 ) ) ;
#96 = ORIENTED_EDGE ( 'NONE', *, *, #29, .T. ) ;
#97 = CARTESIAN_POINT ( 'NONE',  ( 0.07799999999999995800, 9.552245033349349300E-018, 0.007749999999999842100 ) ) ;
#98 = SHAPE_DEFINITION_REPRESENTATION ( #354, #350 ) ;
#99 = FACE_OUTER_BOUND ( 'NONE', #322, .T. ) ;
#100 = DIRECTION ( 'NONE',  ( 1.000000000000000000, 0.0000000000000000000, 0.0000000000000000000 ) ) ;
#101 = ORIENTED_EDGE ( 'NONE', *, *, #58, .F. ) ;
#102 = FACE_OUTER_BOUND ( 'NONE', #50, .T. ) ;
#103 = ORIENTED_EDGE ( 'NONE', *, *, #150, .T. ) ;
#104 = PRODUCT ( '90107A007_316 Stainless Steel Washer', '90107A007_316 Stainless Steel Washer', '', ( #309 ) ) ;
#105 = DATE_AND_TIME ( #151, #311 ) ;
#106 = DIRECTION ( 'NONE',  ( 0.0000000000000000000, 0.0000000000000000000, 1.000000000000000000 ) ) ;
#107 = VERTEX_POINT ( 'NONE', #203 ) ;
#108 = DIRECTION ( 'NONE',  ( 0.0000000000000000000, 0.0000000000000000000, 1.000000000000000000 ) ) ;
#109 = CYLINDRICAL_SURFACE ( 'NONE', #94, 0.1559999999999999200 ) ;
#110 = AXIS2_PLACEMENT_3D ( 'NONE', #229, #279, #283 ) ;
#111 = DIRECTION ( 'NONE',  ( -0.0000000000000000000, -0.0000000000000000000, -1.000000000000000000 ) ) ;
#112 = DIRECTION ( 'NONE',  ( -1.000000000000000000, 1.224646799147352200E-016, 0.0000000000000000000 ) ) ;
#113 = DIRECTION ( 'NONE',  ( 1.224646799147353200E-016, 1.000000000000000000, -0.0000000000000000000 ) ) ;
#114 = APPLICATION_PROTOCOL_DEFINITION ( 'international standard', 'config_control_design', 1994, #85 ) ;
#115 = APPROVAL_ROLE ( '' ) ;
#116 = EDGE_CURVE ( 'NONE', #107, #242, #183, .T. ) ;
#117 = ORIENTED_EDGE ( 'NONE', *, *, #286, .T. ) ;
#118 = FACE_OUTER_BOUND ( 'NONE', #346, .T. ) ;
#119 = PLANE ( 'NONE',  #170 ) ;
#120 = AXIS2_PLACEMENT_3D ( 'NONE', #123, #235, #172 ) ;
#121 = CARTESIAN_POINT ( 'NONE',  ( 0.0000000000000000000, 0.0000000000000000000, 0.007749999999999842100 ) ) ;
#122 = ORIENTED_EDGE ( 'NONE', *, *, #222, .F. ) ;
#123 = CARTESIAN_POINT ( 'NONE',  ( 0.08574999999999996500, 0.0000000000000000000, 0.007749999999999842100 ) ) ;
#124 = CALENDAR_DATE ( 2023, 19, 10 ) ;
#125 = DIRECTION ( 'NONE',  ( -1.000000000000000000, 0.0000000000000000000, 0.0000000000000000000 ) ) ;
#126 = AXIS2_PLACEMENT_3D ( 'NONE', #336, #196, #34 ) ;
#127 = EDGE_LOOP ( 'NONE', ( #327, #103, #330, #288 ) ) ;
#128 = DATE_AND_TIME ( #244, #68 ) ;
#129 = CIRCLE ( 'NONE', #52, 0.007749999999999999900 ) ;
#130 = CARTESIAN_POINT ( 'NONE',  ( 0.0000000000000000000, 0.0000000000000000000, -0.01550000000000015800 ) ) ;
#131 = COORDINATED_UNIVERSAL_TIME_OFFSET ( 6, 0, .BEHIND. ) ;
#132 = ORIENTED_EDGE ( 'NONE', *, *, #317, .T. ) ;
#133 = DIRECTION ( 'NONE',  ( 1.000000000000000000, 0.0000000000000000000, 0.0000000000000000000 ) ) ;
#134 = FACE_OUTER_BOUND ( 'NONE', #173, .T. ) ;
#135 = PERSON ( 'UNSPECIFIED', 'UNSPECIFIED', 'UNSPECIFIED', ('UNSPECIFIED'), ('UNSPECIFIED'), ('UNSPECIFIED') ) ;
#136 = DIRECTION ( 'NONE',  ( 1.000000000000000000, 0.0000000000000000000, 0.0000000000000000000 ) ) ;
#137 = DIRECTION ( 'NONE',  ( -0.0000000000000000000, -0.0000000000000000000, -1.000000000000000000 ) ) ;
#138 = DATE_TIME_ROLE ( 'creation_date' ) ;
#139 = ORIENTED_EDGE ( 'NONE', *, *, #246, .F. ) ;
#140 = AXIS2_PLACEMENT_3D ( 'NONE', #226, #108, #356 ) ;
#141 = VERTEX_POINT ( 'NONE', #207 ) ;
#142 = CALENDAR_DATE ( 2023, 19, 10 ) ;
#143 = VERTEX_POINT ( 'NONE', #237 ) ;
#144 = CARTESIAN_POINT ( 'NONE',  ( -0.07799999999999995800, 0.0000000000000000000, 0.007749999999999842100 ) ) ;
#145 = CARTESIAN_POINT ( 'NONE',  ( 0.1559999999999999200, 1.910449006669869900E-017, 0.007749999999999842100 ) ) ;
#146 = CIRCLE ( 'NONE', #254, 0.1559999999999999200 ) ;
#147 = ADVANCED_FACE ( 'NONE', ( #83, #63 ), #119, .T. ) ;
#148 = DIRECTION ( 'NONE',  ( 0.0000000000000000000, 0.0000000000000000000, 1.000000000000000000 ) ) ;
#149 = ORIENTED_EDGE ( 'NONE', *, *, #222, .T. ) ;
#150 = EDGE_CURVE ( 'NONE', #9, #46, #227, .T. ) ;
#151 = CALENDAR_DATE ( 2023, 19, 10 ) ;
#152 = ORIENTED_EDGE ( 'NONE', *, *, #58, .T. ) ;
#153 = DESIGN_CONTEXT ( 'detailed design', #85, 'design' ) ;
#154 = DIRECTION ( 'NONE',  ( 1.224646799147353200E-016, 1.000000000000000000, -0.0000000000000000000 ) ) ;
#155 = DIRECTION ( 'NONE',  ( -0.0000000000000000000, -0.0000000000000000000, -1.000000000000000000 ) ) ;
#156 = ORIENTED_EDGE ( 'NONE', *, *, #340, .F. ) ;
#157 = CIRCLE ( 'NONE', #49, 0.08574999999999996500 ) ;
#158 = AXIS2_PLACEMENT_3D ( 'NONE', #305, #113, #112 ) ;
#159 = CARTESIAN_POINT ( 'NONE',  ( 0.0000000000000000000, 0.0000000000000000000, 0.007749999999999842100 ) ) ;
#160 = ORGANIZATION ( 'UNSPECIFIED', 'UNSPECIFIED', '' ) ;
#161 = FACE_OUTER_BOUND ( 'NONE', #314, .T. ) ;
#162 = ORIENTED_EDGE ( 'NONE', *, *, #150, .F. ) ;
#163 = CIRCLE ( 'NONE', #300, 0.07799999999999995800 ) ;
#164 = CARTESIAN_POINT ( 'NONE',  ( -0.07799999999999995800, 0.0000000000000000000, 0.01549999999999984200 ) ) ;
#165 = APPROVAL_STATUS ( 'not_yet_approved' ) ;
#166 = PERSON_AND_ORGANIZATION_ROLE ( 'design_owner' ) ;
#167 = APPLICATION_CONTEXT ( 'configuration controlled 3d designs of mechanical parts and assemblies' ) ;
#168 = APPROVAL_DATE_TIME ( #128, #14 ) ;
#169 = PERSON_AND_ORGANIZATION_ROLE ( 'classification_officer' ) ;
#170 = AXIS2_PLACEMENT_3D ( 'NONE', #18, #148, #47 ) ;
#171 = EDGE_LOOP ( 'NONE', ( #149, #349 ) ) ;
#172 = DIRECTION ( 'NONE',  ( 0.0000000000000000000, 0.0000000000000000000, -1.000000000000000000 ) ) ;
#173 = EDGE_LOOP ( 'NONE', ( #162, #269, #180, #185 ) ) ;
#174 = ADVANCED_FACE ( 'NONE', ( #134 ), #25, .T. ) ;
#175 = VECTOR ( 'NONE', #250, 39.37007874015748100 ) ;
#176 = ADVANCED_FACE ( 'NONE', ( #38 ), #232, .T. ) ;
#177 = CARTESIAN_POINT ( 'NONE',  ( 0.1559999999999999200, 1.910449006669869900E-017, 0.01549999999999984200 ) ) ;
#178 = DIRECTION ( 'NONE',  ( -1.000000000000000000, 1.224646799147352200E-016, 0.0000000000000000000 ) ) ;
#179 = APPROVAL ( #4, 'UNSPECIFIED' ) ;
#180 = ORIENTED_EDGE ( 'NONE', *, *, #23, .T. ) ;
#181 = DIRECTION ( 'NONE',  ( 1.000000000000000000, 0.0000000000000000000, 0.0000000000000000000 ) ) ;
#182 = DIRECTION ( 'NONE',  ( 1.000000000000000000, 0.0000000000000000000, -0.0000000000000000000 ) ) ;
#183 = CIRCLE ( 'NONE', #53, 0.1559999999999999200 ) ;
#184 = AXIS2_PLACEMENT_3D ( 'NONE', #306, #56, #136 ) ;
#185 = ORIENTED_EDGE ( 'NONE', *, *, #238, .F. ) ;
#186 = APPROVAL_DATE_TIME ( #299, #55 ) ;
#187 = AXIS2_PLACEMENT_3D ( 'NONE', #44, #154, #178 ) ;
#188 = DIRECTION ( 'NONE',  ( 1.000000000000000000, 0.0000000000000000000, 0.0000000000000000000 ) ) ;
#189 = AXIS2_PLACEMENT_3D ( 'NONE', #159, #326, #188 ) ;
#190 = DIRECTION ( 'NONE',  ( 1.000000000000000000, 0.0000000000000000000, 0.0000000000000000000 ) ) ;
#191 = PERSON_AND_ORGANIZATION ( #135, #160 ) ;
#192 = LINE ( 'NONE', #219, #175 ) ;
#193 = DIRECTION ( 'NONE',  ( 0.0000000000000000000, 0.0000000000000000000, 1.000000000000000000 ) ) ;
#194 = CARTESIAN_POINT ( 'NONE',  ( 0.0000000000000000000, 0.0000000000000000000, 0.0000000000000000000 ) ) ;
#195 = ORIENTED_EDGE ( 'NONE', *, *, #282, .F. ) ;
#196 = DIRECTION ( 'NONE',  ( 0.0000000000000000000, 0.0000000000000000000, 1.000000000000000000 ) ) ;
#197 = DATE_TIME_ROLE ( 'classification_date' ) ;
#198 =( NAMED_UNIT ( * ) PLANE_ANGLE_UNIT ( ) SI_UNIT ( $, .RADIAN. ) );
#199 = VERTEX_POINT ( 'NONE', #97 ) ;
#200 = DIRECTION ( 'NONE',  ( 1.000000000000000000, 0.0000000000000000000, 0.0000000000000000000 ) ) ;
#201 = FACE_OUTER_BOUND ( 'NONE', #41, .T. ) ;
#202 = DIMENSIONAL_EXPONENTS ( 1.000000000000000000, 0.0000000000000000000, 0.0000000000000000000, 0.0000000000000000000, 0.0000000000000000000, 0.0000000000000000000, 0.0000000000000000000 ) ;
#203 = CARTESIAN_POINT ( 'NONE',  ( 0.1559999999999999200, 1.910449006669869900E-017, -0.01550000000000015800 ) ) ;
#204 = AXIS2_PLACEMENT_3D ( 'NONE', #194, #193, #339 ) ;
#205 = DIRECTION ( 'NONE',  ( -0.0000000000000000000, -0.0000000000000000000, -1.000000000000000000 ) ) ;
#206 = DIRECTION ( 'NONE',  ( 1.000000000000000000, 0.0000000000000000000, 0.0000000000000000000 ) ) ;
#207 = CARTESIAN_POINT ( 'NONE',  ( 0.1482499999999999100, 0.0000000000000000000, 0.01549999999999984200 ) ) ;
#208 = DIRECTION ( 'NONE',  ( 0.0000000000000000000, 0.0000000000000000000, 1.000000000000000000 ) ) ;
#209 = CARTESIAN_POINT ( 'NONE',  ( 0.0000000000000000000, 0.0000000000000000000, 0.01549999999999984200 ) ) ;
#210 = CALENDAR_DATE ( 2023, 19, 10 ) ;
#211 = CIRCLE ( 'NONE', #120, 0.007749999999999999900 ) ;
#212 = DIRECTION ( 'NONE',  ( 0.0000000000000000000, 0.0000000000000000000, 1.000000000000000000 ) ) ;
#213 = AXIS2_PLACEMENT_3D ( 'NONE', #80, #308, #252 ) ;
#214 = CARTESIAN_POINT ( 'NONE',  ( -0.1559999999999999200, 0.0000000000000000000, -0.01550000000000015800 ) ) ;
#215 = AXIS2_PLACEMENT_3D ( 'NONE', #74, #208, #100 ) ;
#216 = CARTESIAN_POINT ( 'NONE',  ( 0.1482499999999999100, 0.0000000000000000000, 0.007749999999999842100 ) ) ;
#217 = ORIENTED_EDGE ( 'NONE', *, *, #286, .F. ) ;
#218 = EDGE_LOOP ( 'NONE', ( #101, #221 ) ) ;
#219 = CARTESIAN_POINT ( 'NONE',  ( -0.1559999999999999200, 0.0000000000000000000, 0.01549999999999984200 ) ) ;
#220 = LOCAL_TIME ( 14, 2, 38.00000000000000000, #272 ) ;
#221 = ORIENTED_EDGE ( 'NONE', *, *, #116, .F. ) ;
#222 = EDGE_CURVE ( 'NONE', #141, #260, #257, .T. ) ;
#223 = DIRECTION ( 'NONE',  ( -1.000000000000000000, 0.0000000000000000000, 0.0000000000000000000 ) ) ;
#224 = CARTESIAN_POINT ( 'NONE',  ( 0.0000000000000000000, 0.0000000000000000000, 0.007749999999999842100 ) ) ;
#225 = CC_DESIGN_PERSON_AND_ORGANIZATION_ASSIGNMENT ( #287, #169, ( #313 ) ) ;
#226 = CARTESIAN_POINT ( 'NONE',  ( 0.0000000000000000000, 0.0000000000000000000, 0.007749999999999842100 ) ) ;
#227 = CIRCLE ( 'NONE', #187, 0.007750000000000006000 ) ;
#228 = APPROVAL_ROLE ( '' ) ;
#229 = CARTESIAN_POINT ( 'NONE',  ( 0.0000000000000000000, 0.0000000000000000000, 0.007749999999999842100 ) ) ;
#230 =( LENGTH_UNIT ( ) NAMED_UNIT ( * ) SI_UNIT ( $, .METRE. ) );
#231 = EDGE_CURVE ( 'NONE', #199, #81, #312, .T. ) ;
#232 = CYLINDRICAL_SURFACE ( 'NONE', #76, 0.1559999999999999200 ) ;
#233 = AXIS2_PLACEMENT_3D ( 'NONE', #334, #26, #258 ) ;
#234 = CLOSED_SHELL ( 'NONE', ( #319, #11, #290, #65, #147, #176, #315, #236, #240, #174 ) ) ;
#235 = DIRECTION ( 'NONE',  ( 0.0000000000000000000, -1.000000000000000000, 0.0000000000000000000 ) ) ;
#236 = ADVANCED_FACE ( 'NONE', ( #78, #245 ), #292, .F. ) ;
#237 = CARTESIAN_POINT ( 'NONE',  ( 0.08574999999999996500, 0.0000000000000000000, 0.01549999999999984200 ) ) ;
#238 = EDGE_CURVE ( 'NONE', #46, #199, #163, .T. ) ;
#239 = CIRCLE ( 'NONE', #45, 0.08574999999999996500 ) ;
#240 = ADVANCED_FACE ( 'NONE', ( #201 ), #8, .T. ) ;
#241 = DIRECTION ( 'NONE',  ( 1.000000000000000000, 0.0000000000000000000, 0.0000000000000000000 ) ) ;
#242 = VERTEX_POINT ( 'NONE', #214 ) ;
#243 = CARTESIAN_POINT ( 'NONE',  ( 0.07799999999999995800, 9.552245033349349300E-018, 0.01549999999999984200 ) ) ;
#244 = CALENDAR_DATE ( 2023, 19, 10 ) ;
#245 = FACE_OUTER_BOUND ( 'NONE', #218, .T. ) ;
#246 = EDGE_CURVE ( 'NONE', #73, #141, #129, .T. ) ;
#247 = ORIENTED_EDGE ( 'NONE', *, *, #231, .T. ) ;
#248 = ORIENTED_EDGE ( 'NONE', *, *, #40, .F. ) ;
#249 = ORIENTED_EDGE ( 'NONE', *, *, #273, .F. ) ;
#250 = DIRECTION ( 'NONE',  ( -0.0000000000000000000, -0.0000000000000000000, -1.000000000000000000 ) ) ;
#251 = LENGTH_MEASURE_WITH_UNIT ( LENGTH_MEASURE( 0.02539999999999999900 ), #230 );
#252 = DIRECTION ( 'NONE',  ( -1.000000000000000000, 0.0000000000000000000, 0.0000000000000000000 ) ) ;
#253 = ORIENTED_EDGE ( 'NONE', *, *, #231, .F. ) ;
#254 = AXIS2_PLACEMENT_3D ( 'NONE', #224, #28, #133 ) ;
#255 = CARTESIAN_POINT ( 'NONE',  ( 0.0000000000000000000, 0.0000000000000000000, 0.01549999999999984200 ) ) ;
#256 = PERSON_AND_ORGANIZATION ( #135, #160 ) ;
#257 = CIRCLE ( 'NONE', #325, 0.1482499999999999100 ) ;
#258 = DIRECTION ( 'NONE',  ( 1.000000000000000000, 0.0000000000000000000, 0.0000000000000000000 ) ) ;
#259 = CARTESIAN_POINT ( 'NONE',  ( 0.0000000000000000000, 0.0000000000000000000, 0.01549999999999984200 ) ) ;
#260 = VERTEX_POINT ( 'NONE', #302 ) ;
#261 =( CONVERSION_BASED_UNIT ( 'INCH', #251 ) LENGTH_UNIT ( ) NAMED_UNIT ( #202 ) );
#262 = CC_DESIGN_PERSON_AND_ORGANIZATION_ASSIGNMENT ( #337, #31, ( #39 ) ) ;
#263 = SECURITY_CLASSIFICATION_LEVEL ( 'unclassified' ) ;
#264 = ORIENTED_EDGE ( 'NONE', *, *, #273, .T. ) ;
#265 = CIRCLE ( 'NONE', #82, 0.1559999999999999200 ) ;
#266 = CARTESIAN_POINT ( 'NONE',  ( -0.08574999999999996500, 1.050134630268855100E-017, 0.01549999999999984200 ) ) ;
#267 = DIRECTION ( 'NONE',  ( -0.0000000000000000000, -0.0000000000000000000, -1.000000000000000000 ) ) ;
#268 = DIRECTION ( 'NONE',  ( 0.0000000000000000000, 0.0000000000000000000, 1.000000000000000000 ) ) ;
#269 = ORIENTED_EDGE ( 'NONE', *, *, #29, .F. ) ;
#270 = DIRECTION ( 'NONE',  ( -0.0000000000000000000, -0.0000000000000000000, -1.000000000000000000 ) ) ;
#271 =( GEOMETRIC_REPRESENTATION_CONTEXT ( 3 ) GLOBAL_UNCERTAINTY_ASSIGNED_CONTEXT ( ( #91 ) ) GLOBAL_UNIT_ASSIGNED_CONTEXT ( ( #261, #198, #310 ) ) REPRESENTATION_CONTEXT ( 'NONE', 'WORKASPACE' ) );
#272 = COORDINATED_UNIVERSAL_TIME_OFFSET ( 6, 0, .BEHIND. ) ;
#273 = EDGE_CURVE ( 'NONE', #81, #341, #275, .T. ) ;
#274 = DIRECTION ( 'NONE',  ( 0.0000000000000000000, 0.0000000000000000000, 1.000000000000000000 ) ) ;
#275 = CIRCLE ( 'NONE', #233, 0.07799999999999995800 ) ;
#276 = EDGE_CURVE ( 'NONE', #27, #242, #192, .T. ) ;
#277 = CC_DESIGN_APPROVAL ( #55, ( #344 ) ) ;
#278 = ORIENTED_EDGE ( 'NONE', *, *, #116, .T. ) ;
#279 = DIRECTION ( 'NONE',  ( -0.0000000000000000000, -0.0000000000000000000, -1.000000000000000000 ) ) ;
#280 = APPROVAL_PERSON_ORGANIZATION ( #191, #14, #86 ) ;
#281 = CIRCLE ( 'NONE', #158, 0.007750000000000006000 ) ;
#282 = EDGE_CURVE ( 'NONE', #27, #260, #281, .T. ) ;
#283 = DIRECTION ( 'NONE',  ( 1.000000000000000000, 0.0000000000000000000, 0.0000000000000000000 ) ) ;
#284 = CC_DESIGN_APPROVAL ( #14, ( #313 ) ) ;
#285 = ORIENTED_EDGE ( 'NONE', *, *, #353, .T. ) ;
#286 = EDGE_CURVE ( 'NONE', #73, #27, #22, .T. ) ;
#287 = PERSON_AND_ORGANIZATION ( #135, #160 ) ;
#288 = ORIENTED_EDGE ( 'NONE', *, *, #23, .F. ) ;
#289 = AXIS2_PLACEMENT_3D ( 'NONE', #42, #93, #241 ) ;
#290 = ADVANCED_FACE ( 'NONE', ( #99 ), #30, .F. ) ;
#291 = ORIENTED_EDGE ( 'NONE', *, *, #317, .F. ) ;
#292 = PLANE ( 'NONE',  #1 ) ;
#293 = CC_DESIGN_PERSON_AND_ORGANIZATION_ASSIGNMENT ( #72, #6, ( #344 ) ) ;
#294 = DATE_AND_TIME ( #124, #43 ) ;
#295 = VECTOR ( 'NONE', #84, 39.37007874015748100 ) ;
#296 = EDGE_CURVE ( 'NONE', #9, #143, #239, .T. ) ;
#297 = ORIENTED_EDGE ( 'NONE', *, *, #40, .T. ) ;
#298 = CC_DESIGN_PERSON_AND_ORGANIZATION_ASSIGNMENT ( #256, #166, ( #104 ) ) ;
#299 = DATE_AND_TIME ( #142, #220 ) ;
#300 = AXIS2_PLACEMENT_3D ( 'NONE', #21, #106, #24 ) ;
#301 = FACE_OUTER_BOUND ( 'NONE', #127, .T. ) ;
#302 = CARTESIAN_POINT ( 'NONE',  ( -0.1482499999999999100, 1.862993943202909900E-017, 0.01549999999999984200 ) ) ;
#303 = CC_DESIGN_APPROVAL ( #179, ( #39 ) ) ;
#304 = ORIENTED_EDGE ( 'NONE', *, *, #296, .T. ) ;
#305 = CARTESIAN_POINT ( 'NONE',  ( -0.1482499999999999100, 1.815538879735949900E-017, 0.007749999999999842100 ) ) ;
#306 = CARTESIAN_POINT ( 'NONE',  ( 0.0000000000000000000, 0.0000000000000000000, 0.01549999999999984200 ) ) ;
#307 = TOROIDAL_SURFACE ( 'NONE', #140, 0.08574999999999996500, 0.007749999999999999900 ) ;
#308 = DIRECTION ( 'NONE',  ( -0.0000000000000000000, -0.0000000000000000000, -1.000000000000000000 ) ) ;
#309 = MECHANICAL_CONTEXT ( 'NONE', #167, 'mechanical' ) ;
#310 =( NAMED_UNIT ( * ) SI_UNIT ( $, .STERADIAN. ) SOLID_ANGLE_UNIT ( ) );
#311 = LOCAL_TIME ( 14, 2, 38.00000000000000000, #77 ) ;
#312 = LINE ( 'NONE', #243, #54 ) ;
#313 = SECURITY_CLASSIFICATION ( '', '', #263 ) ;
#314 = EDGE_LOOP ( 'NONE', ( #60, #5, #278, #48 ) ) ;
#315 = ADVANCED_FACE ( 'NONE', ( #102 ), #88, .F. ) ;
#316 = CARTESIAN_POINT ( 'NONE',  ( 0.07799999999999995800, 9.552245033349349300E-018, -0.01550000000000015800 ) ) ;
#317 = EDGE_CURVE ( 'NONE', #46, #341, #92, .T. ) ;
#318 = LINE ( 'NONE', #177, #16 ) ;
#319 = ADVANCED_FACE ( 'NONE', ( #301 ), #307, .T. ) ;
#320 = DIRECTION ( 'NONE',  ( -0.0000000000000000000, -0.0000000000000000000, -1.000000000000000000 ) ) ;
#321 = DIRECTION ( 'NONE',  ( 0.0000000000000000000, 0.0000000000000000000, 1.000000000000000000 ) ) ;
#322 = EDGE_LOOP ( 'NONE', ( #351, #247, #248, #291 ) ) ;
#323 = CC_DESIGN_DATE_AND_TIME_ASSIGNMENT ( #294, #138, ( #39 ) ) ;
#324 = CIRCLE ( 'NONE', #126, 0.07799999999999995800 ) ;
#325 = AXIS2_PLACEMENT_3D ( 'NONE', #209, #321, #181 ) ;
#326 = DIRECTION ( 'NONE',  ( 0.0000000000000000000, 0.0000000000000000000, 1.000000000000000000 ) ) ;
#327 = ORIENTED_EDGE ( 'NONE', *, *, #296, .F. ) ;
#328 = PERSON_AND_ORGANIZATION ( #135, #160 ) ;
#329 = PRODUCT_RELATED_PRODUCT_CATEGORY ( 'detail', '', ( #104 ) ) ;
#330 = ORIENTED_EDGE ( 'NONE', *, *, #353, .F. ) ;
#331 = PERSON_AND_ORGANIZATION ( #135, #160 ) ;
#332 = EDGE_CURVE ( 'NONE', #260, #141, #342, .T. ) ;
#333 = TOROIDAL_SURFACE ( 'NONE', #67, 0.1482499999999999100, 0.007749999999999999900 ) ;
#334 = CARTESIAN_POINT ( 'NONE',  ( 0.0000000000000000000, 0.0000000000000000000, -0.01550000000000015800 ) ) ;
#335 = ORIENTED_EDGE ( 'NONE', *, *, #276, .T. ) ;
#336 = CARTESIAN_POINT ( 'NONE',  ( 0.0000000000000000000, 0.0000000000000000000, 0.007749999999999842100 ) ) ;
#337 = PERSON_AND_ORGANIZATION ( #135, #160 ) ;
#338 = AXIS2_PLACEMENT_3D ( 'NONE', #259, #111, #223 ) ;
#339 = DIRECTION ( 'NONE',  ( 1.000000000000000000, 0.0000000000000000000, 0.0000000000000000000 ) ) ;
#340 = EDGE_CURVE ( 'NONE', #27, #73, #146, .T. ) ;
#341 = VERTEX_POINT ( 'NONE', #2 ) ;
#342 = CIRCLE ( 'NONE', #184, 0.1482499999999999100 ) ;
#343 = DIRECTION ( 'NONE',  ( -1.000000000000000000, 0.0000000000000000000, 0.0000000000000000000 ) ) ;
#344 = PRODUCT_DEFINITION_FORMATION_WITH_SPECIFIED_SOURCE ( 'ANY', '', #104, .NOT_KNOWN. ) ;
#345 = DIRECTION ( 'NONE',  ( 1.000000000000000000, 0.0000000000000000000, 0.0000000000000000000 ) ) ;
#346 = EDGE_LOOP ( 'NONE', ( #156, #347, #122, #139 ) ) ;
#347 = ORIENTED_EDGE ( 'NONE', *, *, #282, .T. ) ;
#348 = COORDINATED_UNIVERSAL_TIME_OFFSET ( 6, 0, .BEHIND. ) ;
#349 = ORIENTED_EDGE ( 'NONE', *, *, #332, .T. ) ;
#350 = ADVANCED_BREP_SHAPE_REPRESENTATION ( '90107A007_316 Stainless Steel Washer', ( #79, #204 ), #271 ) ;
#351 = ORIENTED_EDGE ( 'NONE', *, *, #238, .T. ) ;
#352 = ORIENTED_EDGE ( 'NONE', *, *, #17, .F. ) ;
#353 = EDGE_CURVE ( 'NONE', #199, #46, #324, .T. ) ;
#354 = PRODUCT_DEFINITION_SHAPE ( 'NONE', 'NONE',  #39 ) ;
#355 = EDGE_LOOP ( 'NONE', ( #297, #264 ) ) ;
#356 = DIRECTION ( 'NONE',  ( 1.000000000000000000, 0.0000000000000000000, 0.0000000000000000000 ) ) ;
ENDSEC;
END-ISO-10303-21;
