ISO-10303-21;
HEADER;
FILE_DESCRIPTION (( 'STEP AP203' ),
    '1' );
FILE_NAME ('9559K116_Ultra-Chemical-Resistant Rigid PTFE O-Ring.STEP',
    '2022-12-08T20:55:59',
    ( 'Administrator' ),
    ( 'Managed by Terraform' ),
    'SwSTEP 2.0',
    'SolidWorks 2017',
    '' );
FILE_SCHEMA (( 'CONFIG_CONTROL_DESIGN' ));
ENDSEC;

DATA;
#1 = TOROIDAL_SURFACE ( 'NONE', #64, 0.5295000000000000800, 0.03500000000000013500 ) ;
#2 = PRODUCT ( '9559K116_Ultra-Chemical-Resistant Rigid PTFE O-Ring', '9559K116_Ultra-Chemical-Resistant Rigid PTFE O-Ring', '', ( #21 ) ) ;
#3 =( NAMED_UNIT ( * ) PLANE_ANGLE_UNIT ( ) SI_UNIT ( $, .RADIAN. ) );
#4 = DATE_AND_TIME ( #85, #68 ) ;
#5 = PERSON_AND_ORGANIZATION_ROLE ( 'classification_officer' ) ;
#6 =( LENGTH_UNIT ( ) NAMED_UNIT ( * ) SI_UNIT ( $, .METRE. ) );
#7 = FACE_OUTER_BOUND ( 'NONE', #130, .T. ) ;
#8 = CALENDAR_DATE ( 2022, 8, 12 ) ;
#9 = EDGE_CURVE ( 'NONE', #143, #53, #109, .T. ) ;
#10 = CARTESIAN_POINT ( 'NONE',  ( 0.5645000000000001100, 0.0000000000000000000, -2.018727549901115700E-016 ) ) ;
#11 = DIRECTION ( 'NONE',  ( 1.836970198721028700E-016, -0.0000000000000000000, 1.000000000000000000 ) ) ;
#12 = PERSON_AND_ORGANIZATION ( #125, #60 ) ;
#13 = CC_DESIGN_DATE_AND_TIME_ASSIGNMENT ( #4, #36, ( #102 ) ) ;
#14 = AXIS2_PLACEMENT_3D ( 'NONE', #71, #45, #155 ) ;
#15 = APPROVAL_PERSON_ORGANIZATION ( #12, #177, #126 ) ;
#16 = APPROVAL_DATE_TIME ( #178, #175 ) ;
#17 = ADVANCED_FACE ( 'NONE', ( #7 ), #66, .T. ) ;
#18 = CC_DESIGN_APPROVAL ( #175, ( #100 ) ) ;
#19 = CARTESIAN_POINT ( 'NONE',  ( -0.5295000000000000800, 6.484504801485236300E-017, -9.082152500309820300E-019 ) ) ;
#20 = CALENDAR_DATE ( 2022, 8, 12 ) ;
#21 = MECHANICAL_CONTEXT ( 'NONE', #182, 'mechanical' ) ;
#22 = DIRECTION ( 'NONE',  ( 1.000000000000000000, 0.0000000000000000000, -1.836970198721028700E-016 ) ) ;
#23 = DIRECTION ( 'NONE',  ( 1.224646799147353200E-016, 1.000000000000000000, -2.249639673992785000E-032 ) ) ;
#24 = CIRCLE ( 'NONE', #181, 0.5645000000000001100 ) ;
#25 = DIRECTION ( 'NONE',  ( 1.000000000000000000, 0.0000000000000000000, -1.836970198721028700E-016 ) ) ;
#26 = MANIFOLD_SOLID_BREP ( 'Revolve1', #134 ) ;
#27 = DESIGN_CONTEXT ( 'detailed design', #88, 'design' ) ;
#28 = EDGE_CURVE ( 'NONE', #81, #53, #105, .T. ) ;
#29 = TOROIDAL_SURFACE ( 'NONE', #114, 0.5295000000000000800, 0.03500000000000013500 ) ;
#30 = ADVANCED_BREP_SHAPE_REPRESENTATION ( '9559K116_Ultra-Chemical-Resistant Rigid PTFE O-Ring', ( #26, #14 ), #144 ) ;
#31 = PERSON_AND_ORGANIZATION ( #125, #60 ) ;
#32 =( NAMED_UNIT ( * ) SI_UNIT ( $, .STERADIAN. ) SOLID_ANGLE_UNIT ( ) );
#33 = DATE_TIME_ROLE ( 'creation_date' ) ;
#34 = ORIENTED_EDGE ( 'NONE', *, *, #9, .T. ) ;
#35 = DIRECTION ( 'NONE',  ( -1.000000000000000000, 1.224646799147354200E-016, 0.0000000000000000000 ) ) ;
#36 = DATE_TIME_ROLE ( 'classification_date' ) ;
#37 = EDGE_CURVE ( 'NONE', #53, #143, #149, .T. ) ;
#38 = CALENDAR_DATE ( 2022, 8, 12 ) ;
#39 = LOCAL_TIME ( 14, 55, 59.00000000000000000, #50 ) ;
#40 = PRODUCT_DEFINITION_FORMATION_WITH_SPECIFIED_SOURCE ( 'ANY', '', #2, .NOT_KNOWN. ) ;
#41 = EDGE_LOOP ( 'NONE', ( #123, #160, #166, #86 ) ) ;
#42 = PRODUCT_DEFINITION_SHAPE ( 'NONE', 'NONE',  #100 ) ;
#43 = DIRECTION ( 'NONE',  ( -1.000000000000000000, 1.224646799147354200E-016, 0.0000000000000000000 ) ) ;
#44 = CIRCLE ( 'NONE', #79, 0.03500000000000010700 ) ;
#45 = DIRECTION ( 'NONE',  ( 0.0000000000000000000, 0.0000000000000000000, 1.000000000000000000 ) ) ;
#46 = LOCAL_TIME ( 14, 55, 59.00000000000000000, #165 ) ;
#47 = DIRECTION ( 'NONE',  ( 1.836970198721028700E-016, -0.0000000000000000000, 1.000000000000000000 ) ) ;
#48 = VERTEX_POINT ( 'NONE', #113 ) ;
#49 = CARTESIAN_POINT ( 'NONE',  ( 0.0000000000000000000, 0.0000000000000000000, -9.817578727230945600E-017 ) ) ;
#50 = COORDINATED_UNIVERSAL_TIME_OFFSET ( 6, 0, .BEHIND. ) ;
#51 = PERSON_AND_ORGANIZATION ( #125, #60 ) ;
#52 = AXIS2_PLACEMENT_3D ( 'NONE', #108, #196, #173 ) ;
#53 = VERTEX_POINT ( 'NONE', #93 ) ;
#54 = LENGTH_MEASURE_WITH_UNIT ( LENGTH_MEASURE( 0.02539999999999999900 ), #6 );
#55 = ORIENTED_EDGE ( 'NONE', *, *, #65, .T. ) ;
#56 = UNCERTAINTY_MEASURE_WITH_UNIT (LENGTH_MEASURE( 1.000000000000000100E-005 ), #187, 'distance_accuracy_value', 'NONE');
#57 = DIRECTION ( 'NONE',  ( 1.836970198721028700E-016, -0.0000000000000000000, 1.000000000000000000 ) ) ;
#58 = APPROVAL_ROLE ( '' ) ;
#59 = CARTESIAN_POINT ( 'NONE',  ( -7.873738858974779100E-034, 0.0000000000000000000, -1.024620510693252100E-016 ) ) ;
#60 = ORGANIZATION ( 'UNSPECIFIED', 'UNSPECIFIED', '' ) ;
#61 = DIRECTION ( 'NONE',  ( 1.836970198721028700E-016, -0.0000000000000000000, 1.000000000000000000 ) ) ;
#62 = FACE_OUTER_BOUND ( 'NONE', #41, .T. ) ;
#63 = CC_DESIGN_PERSON_AND_ORGANIZATION_ASSIGNMENT ( #163, #186, ( #40 ) ) ;
#64 = AXIS2_PLACEMENT_3D ( 'NONE', #189, #188, #25 ) ;
#65 = EDGE_CURVE ( 'NONE', #81, #48, #117, .T. ) ;
#66 = TOROIDAL_SURFACE ( 'NONE', #104, 0.5295000000000000800, 0.03500000000000013500 ) ;
#67 = ADVANCED_FACE ( 'NONE', ( #84 ), #1, .T. ) ;
#68 = LOCAL_TIME ( 14, 55, 59.00000000000000000, #131 ) ;
#69 = CARTESIAN_POINT ( 'NONE',  ( 0.0000000000000000000, 0.0000000000000000000, -9.817578727230945600E-017 ) ) ;
#70 = ORIENTED_EDGE ( 'NONE', *, *, #128, .T. ) ;
#71 = CARTESIAN_POINT ( 'NONE',  ( 0.0000000000000000000, 0.0000000000000000000, 0.0000000000000000000 ) ) ;
#72 = LOCAL_TIME ( 14, 55, 59.00000000000000000, #118 ) ;
#73 = CARTESIAN_POINT ( 'NONE',  ( 0.0000000000000000000, 0.0000000000000000000, -9.817578727230945600E-017 ) ) ;
#74 = APPROVAL_ROLE ( '' ) ;
#75 = CARTESIAN_POINT ( 'NONE',  ( -0.4944999999999999400, 6.055878421783661100E-017, -1.024620510693253100E-016 ) ) ;
#76 = CARTESIAN_POINT ( 'NONE',  ( 0.0000000000000000000, 0.0000000000000000000, -9.817578727230945600E-017 ) ) ;
#77 = COORDINATED_UNIVERSAL_TIME_OFFSET ( 6, 0, .BEHIND. ) ;
#78 = DIRECTION ( 'NONE',  ( 0.0000000000000000000, 0.0000000000000000000, -1.000000000000000000 ) ) ;
#79 = AXIS2_PLACEMENT_3D ( 'NONE', #19, #23, #43 ) ;
#80 = AXIS2_PLACEMENT_3D ( 'NONE', #59, #171, #185 ) ;
#81 = VERTEX_POINT ( 'NONE', #10 ) ;
#82 = APPROVAL_PERSON_ORGANIZATION ( #96, #175, #58 ) ;
#83 = AXIS2_PLACEMENT_3D ( 'NONE', #122, #151, #35 ) ;
#84 = FACE_OUTER_BOUND ( 'NONE', #140, .T. ) ;
#85 = CALENDAR_DATE ( 2022, 8, 12 ) ;
#86 = ORIENTED_EDGE ( 'NONE', *, *, #9, .F. ) ;
#87 = AXIS2_PLACEMENT_3D ( 'NONE', #176, #174, #78 ) ;
#88 = APPLICATION_CONTEXT ( 'configuration controlled 3d designs of mechanical parts and assemblies' ) ;
#89 = LOCAL_TIME ( 14, 55, 59.00000000000000000, #77 ) ;
#90 = DIRECTION ( 'NONE',  ( 0.0000000000000000000, -1.000000000000000000, -0.0000000000000000000 ) ) ;
#91 = DIRECTION ( 'NONE',  ( 1.836970198721028700E-016, -0.0000000000000000000, 1.000000000000000000 ) ) ;
#92 = SECURITY_CLASSIFICATION_LEVEL ( 'unclassified' ) ;
#93 = CARTESIAN_POINT ( 'NONE',  ( 0.4944999999999999400, 0.0000000000000000000, -1.024620510693251300E-016 ) ) ;
#94 = ORIENTED_EDGE ( 'NONE', *, *, #37, .T. ) ;
#95 = DIRECTION ( 'NONE',  ( 1.000000000000000000, 0.0000000000000000000, -1.836970198721028700E-016 ) ) ;
#96 = PERSON_AND_ORGANIZATION ( #125, #60 ) ;
#97 = DIRECTION ( 'NONE',  ( 1.000000000000000000, 0.0000000000000000000, -1.836970198721028900E-016 ) ) ;
#98 = EDGE_CURVE ( 'NONE', #48, #81, #24, .T. ) ;
#99 = DIRECTION ( 'NONE',  ( 1.000000000000000000, 0.0000000000000000000, -1.836970198721028700E-016 ) ) ;
#100 = PRODUCT_DEFINITION ( 'UNKNOWN', '', #40, #27 ) ;
#101 = ORIENTED_EDGE ( 'NONE', *, *, #98, .F. ) ;
#102 = SECURITY_CLASSIFICATION ( '', '', #92 ) ;
#103 = FACE_OUTER_BOUND ( 'NONE', #133, .T. ) ;
#104 = AXIS2_PLACEMENT_3D ( 'NONE', #73, #91, #22 ) ;
#105 = CIRCLE ( 'NONE', #87, 0.03500000000000013500 ) ;
#106 = PERSON_AND_ORGANIZATION ( #125, #60 ) ;
#107 = DIMENSIONAL_EXPONENTS ( 1.000000000000000000, 0.0000000000000000000, 0.0000000000000000000, 0.0000000000000000000, 0.0000000000000000000, 0.0000000000000000000, 0.0000000000000000000 ) ;
#108 = CARTESIAN_POINT ( 'NONE',  ( 0.0000000000000000000, 0.0000000000000000000, -9.817578727230945600E-017 ) ) ;
#109 = CIRCLE ( 'NONE', #80, 0.4944999999999999400 ) ;
#110 = APPROVAL_STATUS ( 'not_yet_approved' ) ;
#111 = DIRECTION ( 'NONE',  ( 0.0000000000000000000, 0.0000000000000000000, -1.000000000000000000 ) ) ;
#112 = CC_DESIGN_PERSON_AND_ORGANIZATION_ASSIGNMENT ( #51, #142, ( #40 ) ) ;
#113 = CARTESIAN_POINT ( 'NONE',  ( -0.5645000000000001100, 6.913131181186811400E-017, 5.521180445492641800E-018 ) ) ;
#114 = AXIS2_PLACEMENT_3D ( 'NONE', #69, #57, #95 ) ;
#115 = SHAPE_DEFINITION_REPRESENTATION ( #42, #30 ) ;
#116 = APPROVAL_DATE_TIME ( #156, #190 ) ;
#117 = CIRCLE ( 'NONE', #150, 0.5645000000000001100 ) ;
#118 = COORDINATED_UNIVERSAL_TIME_OFFSET ( 6, 0, .BEHIND. ) ;
#119 = CC_DESIGN_SECURITY_CLASSIFICATION ( #102, ( #40 ) ) ;
#120 = CC_DESIGN_PERSON_AND_ORGANIZATION_ASSIGNMENT ( #106, #127, ( #2 ) ) ;
#121 = DATE_AND_TIME ( #8, #72 ) ;
#122 = CARTESIAN_POINT ( 'NONE',  ( -0.5295000000000000800, 6.484504801485236300E-017, -9.082152500309820300E-019 ) ) ;
#123 = ORIENTED_EDGE ( 'NONE', *, *, #158, .F. ) ;
#124 = APPLICATION_PROTOCOL_DEFINITION ( 'international standard', 'config_control_design', 1994, #88 ) ;
#125 = PERSON ( 'UNSPECIFIED', 'UNSPECIFIED', 'UNSPECIFIED', ('UNSPECIFIED'), ('UNSPECIFIED'), ('UNSPECIFIED') ) ;
#126 = APPROVAL_ROLE ( '' ) ;
#127 = PERSON_AND_ORGANIZATION_ROLE ( 'design_owner' ) ;
#128 = EDGE_CURVE ( 'NONE', #53, #81, #192, .T. ) ;
#129 = CC_DESIGN_PERSON_AND_ORGANIZATION_ASSIGNMENT ( #167, #172, ( #100 ) ) ;
#130 = EDGE_LOOP ( 'NONE', ( #101, #184, #34, #70 ) ) ;
#131 = COORDINATED_UNIVERSAL_TIME_OFFSET ( 6, 0, .BEHIND. ) ;
#132 = CC_DESIGN_APPROVAL ( #177, ( #102 ) ) ;
#133 = EDGE_LOOP ( 'NONE', ( #162, #180, #94, #164 ) ) ;
#134 = CLOSED_SHELL ( 'NONE', ( #137, #67, #194, #17 ) ) ;
#135 = DATE_AND_TIME ( #161, #39 ) ;
#136 = CC_DESIGN_PERSON_AND_ORGANIZATION_ASSIGNMENT ( #169, #5, ( #102 ) ) ;
#137 = ADVANCED_FACE ( 'NONE', ( #62 ), #153, .T. ) ;
#138 = APPROVAL_PERSON_ORGANIZATION ( #31, #190, #74 ) ;
#139 = DIRECTION ( 'NONE',  ( 1.000000000000000000, 0.0000000000000000000, -1.836970198721028900E-016 ) ) ;
#140 = EDGE_LOOP ( 'NONE', ( #145, #55, #179, #141 ) ) ;
#141 = ORIENTED_EDGE ( 'NONE', *, *, #37, .F. ) ;
#142 = PERSON_AND_ORGANIZATION_ROLE ( 'creator' ) ;
#143 = VERTEX_POINT ( 'NONE', #75 ) ;
#144 =( GEOMETRIC_REPRESENTATION_CONTEXT ( 3 ) GLOBAL_UNCERTAINTY_ASSIGNED_CONTEXT ( ( #56 ) ) GLOBAL_UNIT_ASSIGNED_CONTEXT ( ( #187, #3, #32 ) ) REPRESENTATION_CONTEXT ( 'NONE', 'WORKASPACE' ) );
#145 = ORIENTED_EDGE ( 'NONE', *, *, #28, .F. ) ;
#146 = AXIS2_PLACEMENT_3D ( 'NONE', #157, #61, #99 ) ;
#147 = CC_DESIGN_APPROVAL ( #190, ( #40 ) ) ;
#148 = EDGE_CURVE ( 'NONE', #143, #48, #44, .T. ) ;
#149 = CIRCLE ( 'NONE', #146, 0.4944999999999999400 ) ;
#150 = AXIS2_PLACEMENT_3D ( 'NONE', #76, #11, #97 ) ;
#151 = DIRECTION ( 'NONE',  ( 1.224646799147353200E-016, 1.000000000000000000, -2.249639673992785000E-032 ) ) ;
#152 = APPLICATION_PROTOCOL_DEFINITION ( 'international standard', 'config_control_design', 1994, #182 ) ;
#153 = TOROIDAL_SURFACE ( 'NONE', #52, 0.5295000000000000800, 0.03500000000000013500 ) ;
#154 = CARTESIAN_POINT ( 'NONE',  ( 0.5295000000000000800, 0.0000000000000000000, -1.954433592945879500E-016 ) ) ;
#155 = DIRECTION ( 'NONE',  ( 1.000000000000000000, 0.0000000000000000000, 0.0000000000000000000 ) ) ;
#156 = DATE_AND_TIME ( #38, #46 ) ;
#157 = CARTESIAN_POINT ( 'NONE',  ( -7.873738858974779100E-034, 0.0000000000000000000, -1.024620510693252100E-016 ) ) ;
#158 = EDGE_CURVE ( 'NONE', #48, #143, #191, .T. ) ;
#159 = CC_DESIGN_DATE_AND_TIME_ASSIGNMENT ( #135, #33, ( #100 ) ) ;
#160 = ORIENTED_EDGE ( 'NONE', *, *, #98, .T. ) ;
#161 = CALENDAR_DATE ( 2022, 8, 12 ) ;
#162 = ORIENTED_EDGE ( 'NONE', *, *, #65, .F. ) ;
#163 = PERSON_AND_ORGANIZATION ( #125, #60 ) ;
#164 = ORIENTED_EDGE ( 'NONE', *, *, #148, .T. ) ;
#165 = COORDINATED_UNIVERSAL_TIME_OFFSET ( 6, 0, .BEHIND. ) ;
#166 = ORIENTED_EDGE ( 'NONE', *, *, #28, .T. ) ;
#167 = PERSON_AND_ORGANIZATION ( #125, #60 ) ;
#168 = PRODUCT_RELATED_PRODUCT_CATEGORY ( 'detail', '', ( #2 ) ) ;
#169 = PERSON_AND_ORGANIZATION ( #125, #60 ) ;
#170 = APPROVAL_STATUS ( 'not_yet_approved' ) ;
#171 = DIRECTION ( 'NONE',  ( 1.836970198721028700E-016, -0.0000000000000000000, 1.000000000000000000 ) ) ;
#172 = PERSON_AND_ORGANIZATION_ROLE ( 'creator' ) ;
#173 = DIRECTION ( 'NONE',  ( 1.000000000000000000, 0.0000000000000000000, -1.836970198721028700E-016 ) ) ;
#174 = DIRECTION ( 'NONE',  ( 0.0000000000000000000, -1.000000000000000000, -0.0000000000000000000 ) ) ;
#175 = APPROVAL ( #183, 'UNSPECIFIED' ) ;
#176 = CARTESIAN_POINT ( 'NONE',  ( 0.5295000000000000800, 0.0000000000000000000, -1.954433592945879500E-016 ) ) ;
#177 = APPROVAL ( #110, 'UNSPECIFIED' ) ;
#178 = DATE_AND_TIME ( #20, #89 ) ;
#179 = ORIENTED_EDGE ( 'NONE', *, *, #158, .T. ) ;
#180 = ORIENTED_EDGE ( 'NONE', *, *, #128, .F. ) ;
#181 = AXIS2_PLACEMENT_3D ( 'NONE', #49, #47, #139 ) ;
#182 = APPLICATION_CONTEXT ( 'configuration controlled 3d designs of mechanical parts and assemblies' ) ;
#183 = APPROVAL_STATUS ( 'not_yet_approved' ) ;
#184 = ORIENTED_EDGE ( 'NONE', *, *, #148, .F. ) ;
#185 = DIRECTION ( 'NONE',  ( 1.000000000000000000, 0.0000000000000000000, -1.836970198721028700E-016 ) ) ;
#186 = PERSON_AND_ORGANIZATION_ROLE ( 'design_supplier' ) ;
#187 =( CONVERSION_BASED_UNIT ( 'INCH', #54 ) LENGTH_UNIT ( ) NAMED_UNIT ( #107 ) );
#188 = DIRECTION ( 'NONE',  ( 1.836970198721028700E-016, -0.0000000000000000000, 1.000000000000000000 ) ) ;
#189 = CARTESIAN_POINT ( 'NONE',  ( 0.0000000000000000000, 0.0000000000000000000, -9.817578727230945600E-017 ) ) ;
#190 = APPROVAL ( #170, 'UNSPECIFIED' ) ;
#191 = CIRCLE ( 'NONE', #83, 0.03500000000000010700 ) ;
#192 = CIRCLE ( 'NONE', #195, 0.03500000000000013500 ) ;
#193 = APPROVAL_DATE_TIME ( #121, #177 ) ;
#194 = ADVANCED_FACE ( 'NONE', ( #103 ), #29, .T. ) ;
#195 = AXIS2_PLACEMENT_3D ( 'NONE', #154, #90, #111 ) ;
#196 = DIRECTION ( 'NONE',  ( 1.836970198721028700E-016, -0.0000000000000000000, 1.000000000000000000 ) ) ;
ENDSEC;
END-ISO-10303-21;
