ISO-10303-21;
HEADER;
FILE_DESCRIPTION (( 'STEP AP203' ),
    '1' );
FILE_NAME ('5154T63_Spring-Loaded Rotary Shaft Seal.STEP',
    '2021-09-08T06:39:45',
    ( 'Administrator' ),
    ( 'Managed by Terraform' ),
    'SwSTEP 2.0',
    'SolidWorks 2017',
    '' );
FILE_SCHEMA (( 'CONFIG_CONTROL_DESIGN' ));
ENDSEC;

DATA;
#1 = CARTESIAN_POINT ( 'NONE',  ( 0.0000000000000000000, -6.829619984160658000E-017, -0.1279527559055119400 ) ) ;
#2 = DIRECTION ( 'NONE',  ( -0.2852535947741888800, 0.0000000000000000000, -0.9584520784412764400 ) ) ;
#3 = CARTESIAN_POINT ( 'NONE',  ( 0.0000000000000000000, 0.0000000000000000000, 0.0000000000000000000 ) ) ;
#4 = DIRECTION ( 'NONE',  ( 0.0000000000000000000, -1.000000000000000000, 0.0000000000000000000 ) ) ;
#5 = CARTESIAN_POINT ( 'NONE',  ( -0.4330708661417329600, -1.526031483916207400E-017, 0.1181102362204723400 ) ) ;
#6 = AXIS2_PLACEMENT_3D ( 'NONE', #801, #1049, #54 ) ;
#7 = CONICAL_SURFACE ( 'NONE', #474, 0.2559055118110236700, 0.1609337392561785200 ) ;
#8 = DIRECTION ( 'NONE',  ( -0.0000000000000000000, -0.0000000000000000000, 1.000000000000000000 ) ) ;
#9 = PERSON_AND_ORGANIZATION_ROLE ( 'classification_officer' ) ;
#10 = CIRCLE ( 'NONE', #765, 0.2755905511811024300 ) ;
#11 = DIRECTION ( 'NONE',  ( 1.000000000000000000, 0.0000000000000000000, 0.0000000000000000000 ) ) ;
#12 = ORIENTED_EDGE ( 'NONE', *, *, #216, .T. ) ;
#13 = ORIENTED_EDGE ( 'NONE', *, *, #1061, .T. ) ;
#14 = FACE_OUTER_BOUND ( 'NONE', #344, .T. ) ;
#15 = VERTEX_POINT ( 'NONE', #225 ) ;
#16 = CARTESIAN_POINT ( 'NONE',  ( 0.0000000000000000000, -3.522547650101167200E-017, -0.1322146919477583700 ) ) ;
#17 = EDGE_CURVE ( 'NONE', #617, #304, #261, .T. ) ;
#18 = AXIS2_PLACEMENT_3D ( 'NONE', #433, #578, #833 ) ;
#19 = CARTESIAN_POINT ( 'NONE',  ( 0.4133858267716542500, -3.522547650101167200E-017, -0.1230314960629924100 ) ) ;
#20 = ADVANCED_FACE ( 'NONE', ( #52 ), #231, .T. ) ;
#21 = CARTESIAN_POINT ( 'NONE',  ( 0.0000000000000000000, -3.522547650101167200E-017, -0.1377952755905511600 ) ) ;
#22 = AXIS2_PLACEMENT_3D ( 'NONE', #620, #209, #777 ) ;
#23 = TOROIDAL_SURFACE ( 'NONE', #781, 0.2755905511811024300, 0.01599409448818852800 ) ;
#24 = DIRECTION ( 'NONE',  ( -0.0000000000000000000, -0.0000000000000000000, 1.000000000000000000 ) ) ;
#25 = EDGE_LOOP ( 'NONE', ( #916, #704 ) ) ;
#26 = CLOSED_SHELL ( 'NONE', ( #856, #284, #611, #516 ) ) ;
#27 = CYLINDRICAL_SURFACE ( 'NONE', #61, 0.4133858267716542000 ) ;
#28 = ORIENTED_EDGE ( 'NONE', *, *, #1020, .F. ) ;
#29 = DIRECTION ( 'NONE',  ( 0.0000000000000000000, 0.0000000000000000000, 1.000000000000000000 ) ) ;
#30 = EDGE_CURVE ( 'NONE', #45, #641, #141, .T. ) ;
#31 = AXIS2_PLACEMENT_3D ( 'NONE', #167, #249, #496 ) ;
#32 = ADVANCED_FACE ( 'NONE', ( #912 ), #625, .T. ) ;
#33 = EDGE_CURVE ( 'NONE', #1043, #471, #558, .T. ) ;
#34 = FACE_OUTER_BOUND ( 'NONE', #731, .T. ) ;
#35 = ORIENTED_EDGE ( 'NONE', *, *, #429, .T. ) ;
#36 = DIRECTION ( 'NONE',  ( -0.1602399498972566800, 1.962373417372076400E-017, 0.9870780913671037800 ) ) ;
#37 = CLOSED_SHELL ( 'NONE', ( #367, #606, #532, #928, #593, #831, #590, #274, #679, #179, #109, #773, #196, #917, #95, #763, #20, #836, #507, #693, #362, #1021, #684, #445, #32, #360, #843, #848, #1031, #598, #670, #1011, #441, #935 ) ) ;
#38 = ORIENTED_EDGE ( 'NONE', *, *, #331, .T. ) ;
#39 = FACE_OUTER_BOUND ( 'NONE', #248, .T. ) ;
#40 = EDGE_CURVE ( 'NONE', #401, #289, #887, .T. ) ;
#41 = CARTESIAN_POINT ( 'NONE',  ( 0.0000000000000000000, -3.522547650101167200E-017, -0.02755905511811025700 ) ) ;
#42 = CIRCLE ( 'NONE', #678, 0.4133858267716542500 ) ;
#43 = EDGE_CURVE ( 'NONE', #692, #358, #219, .T. ) ;
#44 = FACE_OUTER_BOUND ( 'NONE', #957, .T. ) ;
#45 = VERTEX_POINT ( 'NONE', #830 ) ;
#46 = ORIENTED_EDGE ( 'NONE', *, *, #758, .F. ) ;
#47 = EDGE_LOOP ( 'NONE', ( #981, #587, #664, #741 ) ) ;
#48 = CARTESIAN_POINT ( 'NONE',  ( 0.0000000000000000000, -3.522547650101167200E-017, 0.09370078740157478100 ) ) ;
#49 = DIRECTION ( 'NONE',  ( 0.0000000000000000000, -1.000000000000000000, 0.0000000000000000000 ) ) ;
#50 = CYLINDRICAL_SURFACE ( 'NONE', #22, 0.4133858267716542000 ) ;
#51 = CARTESIAN_POINT ( 'NONE',  ( 0.0000000000000000000, -3.522547650101167200E-017, 0.09370078740157480900 ) ) ;
#52 = FACE_OUTER_BOUND ( 'NONE', #1001, .T. ) ;
#53 = EDGE_CURVE ( 'NONE', #743, #212, #1065, .T. ) ;
#54 = DIRECTION ( 'NONE',  ( 1.000000000000000000, 0.0000000000000000000, -0.0000000000000000000 ) ) ;
#55 = ORIENTED_EDGE ( 'NONE', *, *, #404, .F. ) ;
#56 = PERSON_AND_ORGANIZATION ( #1041, #1079 ) ;
#57 = ORIENTED_EDGE ( 'NONE', *, *, #243, .F. ) ;
#58 = DIRECTION ( 'NONE',  ( 0.0000000000000000000, 0.0000000000000000000, 1.000000000000000000 ) ) ;
#59 = CARTESIAN_POINT ( 'NONE',  ( 0.0000000000000000000, -3.522547650101167200E-017, -0.09370078740157478100 ) ) ;
#60 = EDGE_CURVE ( 'NONE', #840, #826, #874, .T. ) ;
#61 = AXIS2_PLACEMENT_3D ( 'NONE', #21, #286, #106 ) ;
#62 = CARTESIAN_POINT ( 'NONE',  ( 0.0000000000000000000, -3.522547650101167200E-017, -0.1230314960629924100 ) ) ;
#63 = DIRECTION ( 'NONE',  ( 1.000000000000000000, 0.0000000000000000000, 0.0000000000000000000 ) ) ;
#64 = DIRECTION ( 'NONE',  ( 1.000000000000000000, 0.0000000000000000000, 0.0000000000000000000 ) ) ;
#65 = CIRCLE ( 'NONE', #961, 0.01968503937007869100 ) ;
#66 = CARTESIAN_POINT ( 'NONE',  ( 0.4133858267716542000, -6.829619984160658000E-017, -0.1279527559055119400 ) ) ;
#67 = CIRCLE ( 'NONE', #1033, 0.2755905511811024300 ) ;
#68 = PRODUCT_DEFINITION_SHAPE ( 'NONE', 'NONE',  #309 ) ;
#69 = DIRECTION ( 'NONE',  ( 0.0000000000000000000, 0.0000000000000000000, 1.000000000000000000 ) ) ;
#70 = CALENDAR_DATE ( 2021, 8, 9 ) ;
#71 = VERTEX_POINT ( 'NONE', #528 ) ;
#72 = AXIS2_PLACEMENT_3D ( 'NONE', #685, #275, #298 ) ;
#73 = VERTEX_POINT ( 'NONE', #921 ) ;
#74 = FACE_OUTER_BOUND ( 'NONE', #294, .T. ) ;
#75 = CARTESIAN_POINT ( 'NONE',  ( 0.0000000000000000000, -3.522547650101167200E-017, -0.02755905511811025700 ) ) ;
#76 = AXIS2_PLACEMENT_3D ( 'NONE', #824, #184, #341 ) ;
#77 = CARTESIAN_POINT ( 'NONE',  ( 0.0000000000000000000, -6.829619984160658000E-017, -0.1279527559055119400 ) ) ;
#78 = EDGE_CURVE ( 'NONE', #391, #91, #997, .T. ) ;
#79 = DIRECTION ( 'NONE',  ( 0.0000000000000000000, 0.0000000000000000000, 1.000000000000000000 ) ) ;
#80 = CARTESIAN_POINT ( 'NONE',  ( -0.2362204724409449900, -3.522547650101167200E-017, -0.02755905511811025700 ) ) ;
#81 =( CONVERSION_BASED_UNIT ( 'INCH', #1057 ) LENGTH_UNIT ( ) NAMED_UNIT ( #520 ) );
#82 = FACE_OUTER_BOUND ( 'NONE', #855, .T. ) ;
#83 = DIRECTION ( 'NONE',  ( 1.000000000000000000, 0.0000000000000000000, 0.0000000000000000000 ) ) ;
#84 = ORIENTED_EDGE ( 'NONE', *, *, #643, .T. ) ;
#85 = ORIENTED_EDGE ( 'NONE', *, *, #710, .T. ) ;
#86 = CARTESIAN_POINT ( 'NONE',  ( 0.0000000000000000000, -3.522547650101167200E-017, 0.09370078740157480900 ) ) ;
#87 = APPROVAL_DATE_TIME ( #952, #820 ) ;
#88 = EDGE_CURVE ( 'NONE', #641, #314, #115, .T. ) ;
#89 = ORIENTED_EDGE ( 'NONE', *, *, #306, .F. ) ;
#90 = DATE_TIME_ROLE ( 'creation_date' ) ;
#91 = VERTEX_POINT ( 'NONE', #604 ) ;
#92 = DIRECTION ( 'NONE',  ( 0.0000000000000000000, 0.0000000000000000000, 1.000000000000000000 ) ) ;
#93 = CARTESIAN_POINT ( 'NONE',  ( 0.0000000000000000000, -3.522547650101167200E-017, -0.1230314960629924100 ) ) ;
#94 = CARTESIAN_POINT ( 'NONE',  ( 0.0000000000000000000, -3.522547650101167200E-017, -0.09370078740157478100 ) ) ;
#95 = ADVANCED_FACE ( 'NONE', ( #699 ), #775, .F. ) ;
#96 = EDGE_CURVE ( 'NONE', #1026, #451, #536, .T. ) ;
#97 = FACE_OUTER_BOUND ( 'NONE', #589, .T. ) ;
#98 = CARTESIAN_POINT ( 'NONE',  ( -0.2595964566929139200, -2.356702944906137800E-018, -0.02755905511811025000 ) ) ;
#99 = VECTOR ( 'NONE', #987, 39.37007874015748900 ) ;
#100 = DIRECTION ( 'NONE',  ( 0.0000000000000000000, 0.0000000000000000000, 1.000000000000000000 ) ) ;
#101 = CALENDAR_DATE ( 2021, 8, 9 ) ;
#102 = CARTESIAN_POINT ( 'NONE',  ( 0.0000000000000000000, -6.829619984160658000E-017, 0.1181102362204723800 ) ) ;
#103 = VERTEX_POINT ( 'NONE', #543 ) ;
#104 = EDGE_LOOP ( 'NONE', ( #28, #200, #244, #210 ) ) ;
#105 = SHAPE_DEFINITION_REPRESENTATION ( #68, #633 ) ;
#106 = DIRECTION ( 'NONE',  ( 1.000000000000000000, 0.0000000000000000000, 0.0000000000000000000 ) ) ;
#107 = ORIENTED_EDGE ( 'NONE', *, *, #138, .F. ) ;
#108 = EDGE_CURVE ( 'NONE', #212, #451, #10, .T. ) ;
#109 = ADVANCED_FACE ( 'NONE', ( #862 ), #398, .F. ) ;
#110 = DIRECTION ( 'NONE',  ( 1.000000000000000000, 0.0000000000000000000, 0.0000000000000000000 ) ) ;
#111 = DIRECTION ( 'NONE',  ( 1.000000000000000000, 0.0000000000000000000, 0.0000000000000000000 ) ) ;
#112 = FACE_OUTER_BOUND ( 'NONE', #467, .T. ) ;
#113 = DIRECTION ( 'NONE',  ( 0.0000000000000000000, -1.000000000000000000, 0.0000000000000000000 ) ) ;
#114 = CARTESIAN_POINT ( 'NONE',  ( 0.0000000000000000000, -3.414809992080329000E-017, -0.02755905511811025000 ) ) ;
#115 = LINE ( 'NONE', #271, #195 ) ;
#116 = ORIENTED_EDGE ( 'NONE', *, *, #681, .T. ) ;
#117 = APPROVAL_PERSON_ORGANIZATION ( #56, #820, #260 ) ;
#118 = ORIENTED_EDGE ( 'NONE', *, *, #1053, .T. ) ;
#119 = VERTEX_POINT ( 'NONE', #221 ) ;
#120 = DIRECTION ( 'NONE',  ( 1.224646799147353200E-016, 1.000000000000000000, -0.0000000000000000000 ) ) ;
#121 = DIRECTION ( 'NONE',  ( 0.0000000000000000000, 0.0000000000000000000, 1.000000000000000000 ) ) ;
#122 = AXIS2_PLACEMENT_3D ( 'NONE', #349, #939, #453 ) ;
#123 = DIRECTION ( 'NONE',  ( 1.000000000000000000, 0.0000000000000000000, 0.0000000000000000000 ) ) ;
#124 = CARTESIAN_POINT ( 'NONE',  ( 0.0000000000000000000, -3.522547650101167200E-017, -0.04355314960629877400 ) ) ;
#125 = EDGE_CURVE ( 'NONE', #304, #810, #378, .T. ) ;
#126 = AXIS2_PLACEMENT_3D ( 'NONE', #749, #920, #180 ) ;
#127 = CYLINDRICAL_SURFACE ( 'NONE', #1039, 0.2755905511811024300 ) ;
#128 = CIRCLE ( 'NONE', #394, 0.2595964566929139200 ) ;
#129 = DIRECTION ( 'NONE',  ( 0.0000000000000000000, 0.0000000000000000000, 1.000000000000000000 ) ) ;
#130 = ORIENTED_EDGE ( 'NONE', *, *, #863, .T. ) ;
#131 = EDGE_LOOP ( 'NONE', ( #187, #340, #888, #302 ) ) ;
#132 = FACE_OUTER_BOUND ( 'NONE', #171, .T. ) ;
#133 = DIRECTION ( 'NONE',  ( 0.0000000000000000000, 0.0000000000000000000, -1.000000000000000000 ) ) ;
#134 = VERTEX_POINT ( 'NONE', #346 ) ;
#135 = CARTESIAN_POINT ( 'NONE',  ( -0.2755905511811024300, -1.475367863092476400E-018, -0.04355314960629877400 ) ) ;
#136 = AXIS2_PLACEMENT_3D ( 'NONE', #542, #626, #462 ) ;
#137 = ORIENTED_EDGE ( 'NONE', *, *, #201, .F. ) ;
#138 = EDGE_CURVE ( 'NONE', #71, #692, #965, .T. ) ;
#139 = DIRECTION ( 'NONE',  ( 0.0000000000000000000, 0.0000000000000000000, 1.000000000000000000 ) ) ;
#140 = TOROIDAL_SURFACE ( 'NONE', #154, 0.2755905511811024300, 0.01599409448818851800 ) ;
#141 = CIRCLE ( 'NONE', #858, 0.2755905511811024300 ) ;
#142 = EDGE_LOOP ( 'NONE', ( #718, #730 ) ) ;
#143 = APPROVAL_DATE_TIME ( #370, #521 ) ;
#144 = CARTESIAN_POINT ( 'NONE',  ( 0.4109251968503949100, -3.522547650101167200E-017, -0.1322146919477583700 ) ) ;
#145 = ORIENTED_EDGE ( 'NONE', *, *, #788, .T. ) ;
#146 = CARTESIAN_POINT ( 'NONE',  ( 0.2362204724409449900, -6.296811954223785100E-018, -0.02755905511811025700 ) ) ;
#147 = EDGE_CURVE ( 'NONE', #1059, #653, #1012, .T. ) ;
#148 = AXIS2_PLACEMENT_3D ( 'NONE', #77, #420, #995 ) ;
#149 = CARTESIAN_POINT ( 'NONE',  ( -0.2595964566929139200, -2.356702944906137800E-018, -0.02755905511811025000 ) ) ;
#150 = DIRECTION ( 'NONE',  ( -1.000000000000000000, 1.224646799147353500E-016, 0.0000000000000000000 ) ) ;
#151 = CIRCLE ( 'NONE', #682, 0.4232283464566937700 ) ;
#152 = DIRECTION ( 'NONE',  ( 1.000000000000000000, 0.0000000000000000000, 0.0000000000000000000 ) ) ;
#153 = CIRCLE ( 'NONE', #871, 0.4084645669291355200 ) ;
#154 = AXIS2_PLACEMENT_3D ( 'NONE', #477, #1060, #559 ) ;
#155 = CARTESIAN_POINT ( 'NONE',  ( 0.0000000000000000000, -3.414809992080329000E-017, -0.02755905511811025000 ) ) ;
#156 = DATE_AND_TIME ( #702, #762 ) ;
#157 = ORIENTED_EDGE ( 'NONE', *, *, #541, .T. ) ;
#158 = VERTEX_POINT ( 'NONE', #985 ) ;
#159 = FACE_BOUND ( 'NONE', #142, .T. ) ;
#160 = EDGE_CURVE ( 'NONE', #599, #809, #448, .T. ) ;
#161 = CC_DESIGN_PERSON_AND_ORGANIZATION_ASSIGNMENT ( #673, #579, ( #405 ) ) ;
#162 = DIRECTION ( 'NONE',  ( 1.000000000000000000, 0.0000000000000000000, 0.0000000000000000000 ) ) ;
#163 = APPLICATION_CONTEXT ( 'configuration controlled 3d designs of mechanical parts and assemblies' ) ;
#164 = DIRECTION ( 'NONE',  ( 0.0000000000000000000, 0.0000000000000000000, 1.000000000000000000 ) ) ;
#165 = TOROIDAL_SURFACE ( 'NONE', #192, 0.2755905511811024300, 0.01599409448818852800 ) ;
#166 = DIRECTION ( 'NONE',  ( 1.000000000000000000, 0.0000000000000000000, 0.0000000000000000000 ) ) ;
#167 = CARTESIAN_POINT ( 'NONE',  ( 0.0000000000000000000, -3.522547650101167200E-017, -0.01156496062992172800 ) ) ;
#168 = CONICAL_SURFACE ( 'NONE', #122, 0.2362204724409449900, 0.2892710056091412600 ) ;
#169 = ORIENTED_EDGE ( 'NONE', *, *, #243, .T. ) ;
#170 = CIRCLE ( 'NONE', #610, 0.2915846456692909300 ) ;
#171 = EDGE_LOOP ( 'NONE', ( #316, #38, #13, #493 ) ) ;
#172 = ORIENTED_EDGE ( 'NONE', *, *, #1061, .F. ) ;
#173 = CARTESIAN_POINT ( 'NONE',  ( 0.0000000000000000000, -3.414809992080329000E-017, -0.02755905511811025000 ) ) ;
#174 = DIRECTION ( 'NONE',  ( 0.0000000000000000000, 0.0000000000000000000, 1.000000000000000000 ) ) ;
#175 = CARTESIAN_POINT ( 'NONE',  ( 0.0000000000000000000, -3.522547650101167200E-017, -0.1377952755905511900 ) ) ;
#176 = CARTESIAN_POINT ( 'NONE',  ( 0.2595964566929139200, -3.414809992080329000E-017, -0.02755905511811025000 ) ) ;
#177 = AXIS2_PLACEMENT_3D ( 'NONE', #59, #139, #651 ) ;
#178 = DIRECTION ( 'NONE',  ( 0.0000000000000000000, 0.0000000000000000000, 1.000000000000000000 ) ) ;
#179 = ADVANCED_FACE ( 'NONE', ( #650 ), #1077, .T. ) ;
#180 = DIRECTION ( 'NONE',  ( 1.000000000000000000, 0.0000000000000000000, 0.0000000000000000000 ) ) ;
#181 = DIRECTION ( 'NONE',  ( 0.0000000000000000000, 0.0000000000000000000, 1.000000000000000000 ) ) ;
#182 = VECTOR ( 'NONE', #530, 39.37007874015748100 ) ;
#183 = FACE_OUTER_BOUND ( 'NONE', #47, .T. ) ;
#184 = DIRECTION ( 'NONE',  ( 0.0000000000000000000, 0.0000000000000000000, 1.000000000000000000 ) ) ;
#185 = EDGE_CURVE ( 'NONE', #371, #73, #784, .T. ) ;
#186 = AXIS2_PLACEMENT_3D ( 'NONE', #986, #971, #150 ) ;
#187 = ORIENTED_EDGE ( 'NONE', *, *, #43, .T. ) ;
#188 = ORIENTED_EDGE ( 'NONE', *, *, #863, .F. ) ;
#189 = CONICAL_SURFACE ( 'NONE', #237, 0.4109251968503949100, 0.5235987755981818000 ) ;
#190 = CARTESIAN_POINT ( 'NONE',  ( -0.2755905511811024300, -1.475367863092476400E-018, -0.09370078740157478100 ) ) ;
#191 = DIRECTION ( 'NONE',  ( 0.0000000000000000000, 0.0000000000000000000, 1.000000000000000000 ) ) ;
#192 = AXIS2_PLACEMENT_3D ( 'NONE', #790, #621, #708 ) ;
#193 = DIRECTION ( 'NONE',  ( 1.000000000000000000, 0.0000000000000000000, 0.0000000000000000000 ) ) ;
#194 = TOROIDAL_SURFACE ( 'NONE', #440, 0.4232283464566937700, 0.009842519685039267600 ) ;
#195 = VECTOR ( 'NONE', #181, 39.37007874015748100 ) ;
#196 = ADVANCED_FACE ( 'NONE', ( #183 ), #168, .F. ) ;
#197 = ORIENTED_EDGE ( 'NONE', *, *, #566, .T. ) ;
#198 = CYLINDRICAL_SURFACE ( 'NONE', #594, 0.4330708661417329600 ) ;
#199 = CARTESIAN_POINT ( 'NONE',  ( 0.4133858267716542000, -6.829619984160658000E-017, 0.07770669291338630500 ) ) ;
#200 = ORIENTED_EDGE ( 'NONE', *, *, #185, .F. ) ;
#201 = EDGE_CURVE ( 'NONE', #451, #212, #851, .T. ) ;
#202 = ORIENTED_EDGE ( 'NONE', *, *, #758, .T. ) ;
#203 = DIRECTION ( 'NONE',  ( 0.0000000000000000000, 0.0000000000000000000, -1.000000000000000000 ) ) ;
#204 = DIRECTION ( 'NONE',  ( 0.0000000000000000000, 0.0000000000000000000, 1.000000000000000000 ) ) ;
#205 = DIRECTION ( 'NONE',  ( -1.000000000000000000, 1.224646799147352500E-016, 0.0000000000000000000 ) ) ;
#206 = EDGE_CURVE ( 'NONE', #899, #371, #637, .T. ) ;
#207 = DIRECTION ( 'NONE',  ( 0.0000000000000000000, 0.0000000000000000000, 1.000000000000000000 ) ) ;
#208 = CIRCLE ( 'NONE', #319, 0.4330708661417329000 ) ;
#209 = DIRECTION ( 'NONE',  ( 0.0000000000000000000, 0.0000000000000000000, 1.000000000000000000 ) ) ;
#210 = ORIENTED_EDGE ( 'NONE', *, *, #609, .T. ) ;
#211 = ORIENTED_EDGE ( 'NONE', *, *, #352, .T. ) ;
#212 = VERTEX_POINT ( 'NONE', #135 ) ;
#213 = LINE ( 'NONE', #241, #585 ) ;
#214 = AXIS2_PLACEMENT_3D ( 'NONE', #1046, #385, #948 ) ;
#215 = DIRECTION ( 'NONE',  ( 0.0000000000000000000, -1.000000000000000000, 0.0000000000000000000 ) ) ;
#216 = EDGE_CURVE ( 'NONE', #676, #617, #153, .T. ) ;
#217 = AXIS2_PLACEMENT_3D ( 'NONE', #565, #58, #152 ) ;
#218 = TOROIDAL_SURFACE ( 'NONE', #308, 0.2755905511811024300, 0.01599409448818851800 ) ;
#219 = CIRCLE ( 'NONE', #323, 0.4330708661417330100 ) ;
#220 = EDGE_LOOP ( 'NONE', ( #415, #480, #211, #688 ) ) ;
#221 = CARTESIAN_POINT ( 'NONE',  ( -0.2559055118110236700, -3.886089908658134700E-018, 0.09370078740157480900 ) ) ;
#222 = ORIENTED_EDGE ( 'NONE', *, *, #877, .F. ) ;
#223 = ORIENTED_EDGE ( 'NONE', *, *, #258, .T. ) ;
#224 = DIRECTION ( 'NONE',  ( 0.0000000000000000000, 0.0000000000000000000, 1.000000000000000000 ) ) ;
#225 = CARTESIAN_POINT ( 'NONE',  ( -0.4133858267716542500, -1.646567586194489500E-017, 0.1377952755905511000 ) ) ;
#226 = CARTESIAN_POINT ( 'NONE',  ( 0.0000000000000000000, -3.414809992080329000E-017, -0.02755905511811025000 ) ) ;
#227 = AXIS2_PLACEMENT_3D ( 'NONE', #461, #215, #1045 ) ;
#228 = CARTESIAN_POINT ( 'NONE',  ( -0.2559055118110236700, -3.522547650101167200E-017, -0.09370078740157478100 ) ) ;
#229 = CONICAL_SURFACE ( 'NONE', #732, 0.2362204724409449900, 0.2892710056091412600 ) ;
#230 = AXIS2_PLACEMENT_3D ( 'NONE', #1, #399, #64 ) ;
#231 = TOROIDAL_SURFACE ( 'NONE', #800, 0.4133858267716542500, 0.01968503937007868100 ) ;
#232 = DIRECTION ( 'NONE',  ( 1.000000000000000000, 0.0000000000000000000, 0.0000000000000000000 ) ) ;
#233 = ORIENTED_EDGE ( 'NONE', *, *, #974, .T. ) ;
#234 = VECTOR ( 'NONE', #893, 39.37007874015748100 ) ;
#235 = DIRECTION ( 'NONE',  ( 1.000000000000000000, 0.0000000000000000000, 0.0000000000000000000 ) ) ;
#236 = EDGE_CURVE ( 'NONE', #875, #808, #613, .T. ) ;
#237 = AXIS2_PLACEMENT_3D ( 'NONE', #769, #923, #111 ) ;
#238 = CARTESIAN_POINT ( 'NONE',  ( 0.0000000000000000000, -3.522547650101167200E-017, -0.1377952755905511600 ) ) ;
#239 = DIRECTION ( 'NONE',  ( 1.000000000000000000, 0.0000000000000000000, 0.0000000000000000000 ) ) ;
#240 = DIRECTION ( 'NONE',  ( 0.0000000000000000000, 0.0000000000000000000, 1.000000000000000000 ) ) ;
#241 = CARTESIAN_POINT ( 'NONE',  ( -0.4330708661417329600, 1.781040850143284100E-017, -0.1377952755905511600 ) ) ;
#242 = FACE_OUTER_BOUND ( 'NONE', #245, .T. ) ;
#243 = EDGE_CURVE ( 'NONE', #1052, #15, #1076, .T. ) ;
#244 = ORIENTED_EDGE ( 'NONE', *, *, #804, .T. ) ;
#245 = EDGE_LOOP ( 'NONE', ( #705, #933, #1042, #901 ) ) ;
#246 = CARTESIAN_POINT ( 'NONE',  ( -0.4109251968503949100, -1.782170701257554200E-017, -0.1322146919477583700 ) ) ;
#247 = ORIENTED_EDGE ( 'NONE', *, *, #648, .T. ) ;
#248 = EDGE_LOOP ( 'NONE', ( #715, #628, #794, #197 ) ) ;
#249 = DIRECTION ( 'NONE',  ( 0.0000000000000000000, 0.0000000000000000000, 1.000000000000000000 ) ) ;
#250 = AXIS2_PLACEMENT_3D ( 'NONE', #478, #880, #310 ) ;
#251 = DIRECTION ( 'NONE',  ( -0.0000000000000000000, -0.0000000000000000000, 1.000000000000000000 ) ) ;
#252 = DIRECTION ( 'NONE',  ( 0.0000000000000000000, 0.0000000000000000000, 1.000000000000000000 ) ) ;
#253 = APPROVAL_ROLE ( '' ) ;
#254 = DIRECTION ( 'NONE',  ( 1.000000000000000000, 0.0000000000000000000, 0.0000000000000000000 ) ) ;
#255 = DIRECTION ( 'NONE',  ( 0.0000000000000000000, 0.0000000000000000000, -1.000000000000000000 ) ) ;
#256 = LINE ( 'NONE', #146, #849 ) ;
#257 = CARTESIAN_POINT ( 'NONE',  ( 0.0000000000000000000, -3.522547650101167200E-017, 0.1377952755905511000 ) ) ;
#258 = EDGE_CURVE ( 'NONE', #826, #289, #951, .T. ) ;
#259 = PRODUCT_RELATED_PRODUCT_CATEGORY ( 'detail', '', ( #281 ) ) ;
#260 = APPROVAL_ROLE ( '' ) ;
#261 = LINE ( 'NONE', #144, #509 ) ;
#262 = DIRECTION ( 'NONE',  ( 1.000000000000000000, 0.0000000000000000000, 0.0000000000000000000 ) ) ;
#263 = ORIENTED_EDGE ( 'NONE', *, *, #788, .F. ) ;
#264 = DATE_AND_TIME ( #70, #291 ) ;
#265 = EDGE_LOOP ( 'NONE', ( #797, #944, #1069, #84 ) ) ;
#266 = CIRCLE ( 'NONE', #31, 0.2755905511811024300 ) ;
#267 = CARTESIAN_POINT ( 'NONE',  ( 0.4133858267716542500, -6.829619984160658000E-017, 0.1181102362204723800 ) ) ;
#268 = CARTESIAN_POINT ( 'NONE',  ( 0.0000000000000000000, -3.522547650101167200E-017, 0.09370078740157480900 ) ) ;
#269 = DIRECTION ( 'NONE',  ( 0.0000000000000000000, 0.0000000000000000000, 1.000000000000000000 ) ) ;
#270 = AXIS2_PLACEMENT_3D ( 'NONE', #1009, #442, #427 ) ;
#271 = CARTESIAN_POINT ( 'NONE',  ( -0.2755905511811024300, -1.475367863092476400E-018, -0.1377952755905511600 ) ) ;
#272 = CARTESIAN_POINT ( 'NONE',  ( 0.0000000000000000000, -6.829619984160658000E-017, 0.1181102362204723800 ) ) ;
#273 = LINE ( 'NONE', #602, #182 ) ;
#274 = ADVANCED_FACE ( 'NONE', ( #82 ), #50, .F. ) ;
#275 = DIRECTION ( 'NONE',  ( 0.0000000000000000000, 0.0000000000000000000, 1.000000000000000000 ) ) ;
#276 = FACE_OUTER_BOUND ( 'NONE', #629, .T. ) ;
#277 = DIRECTION ( 'NONE',  ( 0.0000000000000000000, 0.0000000000000000000, 1.000000000000000000 ) ) ;
#278 = EDGE_CURVE ( 'NONE', #158, #314, #67, .T. ) ;
#279 = CC_DESIGN_APPROVAL ( #353, ( #309 ) ) ;
#280 = ORIENTED_EDGE ( 'NONE', *, *, #206, .F. ) ;
#281 = PRODUCT ( '5154T63_Spring-Loaded Rotary Shaft Seal', '5154T63_Spring-Loaded Rotary Shaft Seal', '', ( #426 ) ) ;
#282 = ORIENTED_EDGE ( 'NONE', *, *, #386, .T. ) ;
#283 = CARTESIAN_POINT ( 'NONE',  ( -0.4133858267716542000, -1.767103688472772500E-017, 0.07770669291338630500 ) ) ;
#284 = ADVANCED_FACE ( 'NONE', ( #34 ), #165, .T. ) ;
#285 = CARTESIAN_POINT ( 'NONE',  ( -0.2755905511811024300, -3.979912828840977200E-019, -0.02755905511811025000 ) ) ;
#286 = DIRECTION ( 'NONE',  ( 0.0000000000000000000, 0.0000000000000000000, 1.000000000000000000 ) ) ;
#287 = CARTESIAN_POINT ( 'NONE',  ( 0.0000000000000000000, -3.522547650101167200E-017, 0.09370078740157480900 ) ) ;
#288 = LINE ( 'NONE', #959, #748 ) ;
#289 = VERTEX_POINT ( 'NONE', #865 ) ;
#290 = ORIENTED_EDGE ( 'NONE', *, *, #30, .T. ) ;
#291 = LOCAL_TIME ( 1, 39, 45.00000000000000000, #492 ) ;
#292 = DIRECTION ( 'NONE',  ( 1.000000000000000000, 0.0000000000000000000, 0.0000000000000000000 ) ) ;
#293 = AXIS2_PLACEMENT_3D ( 'NONE', #499, #240, #993 ) ;
#294 = EDGE_LOOP ( 'NONE', ( #572, #1040, #223, #384 ) ) ;
#295 = EDGE_CURVE ( 'NONE', #617, #676, #910, .T. ) ;
#296 = AXIS2_PLACEMENT_3D ( 'NONE', #75, #915, #343 ) ;
#297 = DIRECTION ( 'NONE',  ( 0.0000000000000000000, 0.0000000000000000000, 1.000000000000000000 ) ) ;
#298 = DIRECTION ( 'NONE',  ( 1.000000000000000000, 0.0000000000000000000, 0.0000000000000000000 ) ) ;
#299 = CIRCLE ( 'NONE', #869, 0.4330708661417329000 ) ;
#300 = FACE_OUTER_BOUND ( 'NONE', #930, .T. ) ;
#301 = ORIENTED_EDGE ( 'NONE', *, *, #185, .T. ) ;
#302 = ORIENTED_EDGE ( 'NONE', *, *, #352, .F. ) ;
#303 = TOROIDAL_SURFACE ( 'NONE', #649, 0.3973917322834656900, 0.01599409448818853900 ) ;
#304 = VERTEX_POINT ( 'NONE', #375 ) ;
#305 = DIRECTION ( 'NONE',  ( 1.000000000000000000, 0.0000000000000000000, 0.0000000000000000000 ) ) ;
#306 = EDGE_CURVE ( 'NONE', #694, #71, #924, .T. ) ;
#307 = DIRECTION ( 'NONE',  ( -0.0000000000000000000, -0.0000000000000000000, -1.000000000000000000 ) ) ;
#308 = AXIS2_PLACEMENT_3D ( 'NONE', #226, #564, #473 ) ;
#309 = PRODUCT_DEFINITION ( 'UNKNOWN', '', #405, #1018 ) ;
#310 = DIRECTION ( 'NONE',  ( -1.000000000000000000, 1.224646799147356700E-016, 0.0000000000000000000 ) ) ;
#311 = CONICAL_SURFACE ( 'NONE', #396, 0.4109251968503949100, 0.5235987755981818000 ) ;
#312 = ORIENTED_EDGE ( 'NONE', *, *, #404, .T. ) ;
#313 = DIRECTION ( 'NONE',  ( 0.1602399498972566800, 0.0000000000000000000, 0.9870780913671037800 ) ) ;
#314 = VERTEX_POINT ( 'NONE', #374 ) ;
#315 = ORIENTED_EDGE ( 'NONE', *, *, #592, .T. ) ;
#316 = ORIENTED_EDGE ( 'NONE', *, *, #1073, .F. ) ;
#317 = DIRECTION ( 'NONE',  ( 0.0000000000000000000, -1.000000000000000000, 0.0000000000000000000 ) ) ;
#318 = EDGE_CURVE ( 'NONE', #617, #776, #761, .T. ) ;
#319 = AXIS2_PLACEMENT_3D ( 'NONE', #680, #29, #686 ) ;
#320 = CARTESIAN_POINT ( 'NONE',  ( -0.3973917322834656900, -1.865039271573874500E-017, 0.09370078740157478100 ) ) ;
#321 = DIRECTION ( 'NONE',  ( 1.000000000000000000, 0.0000000000000000000, 0.0000000000000000000 ) ) ;
#322 = CARTESIAN_POINT ( 'NONE',  ( 0.0000000000000000000, -3.522547650101167200E-017, -0.1377952755905511600 ) ) ;
#323 = AXIS2_PLACEMENT_3D ( 'NONE', #607, #92, #437 ) ;
#324 = CARTESIAN_POINT ( 'NONE',  ( 0.2755905511811024300, -3.522547650101167200E-017, -0.1377952755905511600 ) ) ;
#325 = CIRCLE ( 'NONE', #791, 0.2915846456692909300 ) ;
#326 = LINE ( 'NONE', #644, #873 ) ;
#327 = CARTESIAN_POINT ( 'NONE',  ( 0.4133858267716542000, -3.522547650101167200E-017, -0.1377952755905511600 ) ) ;
#328 = ORIENTED_EDGE ( 'NONE', *, *, #719, .F. ) ;
#329 = EDGE_LOOP ( 'NONE', ( #402, #365, #764, #1015 ) ) ;
#330 = TOROIDAL_SURFACE ( 'NONE', #126, 0.4133858267716542000, 0.004921259842519549700 ) ;
#331 = EDGE_CURVE ( 'NONE', #808, #119, #636, .T. ) ;
#332 = DIRECTION ( 'NONE',  ( 0.0000000000000000000, 0.0000000000000000000, 1.000000000000000000 ) ) ;
#333 = DIRECTION ( 'NONE',  ( 0.0000000000000000000, 0.0000000000000000000, -1.000000000000000000 ) ) ;
#334 = CARTESIAN_POINT ( 'NONE',  ( 0.0000000000000000000, -6.829619984160658000E-017, -0.1279527559055119400 ) ) ;
#335 = CARTESIAN_POINT ( 'NONE',  ( -0.4232283464566937700, -1.586299535055346700E-017, -0.1377952755905509900 ) ) ;
#336 = AXIS2_PLACEMENT_3D ( 'NONE', #438, #204, #110 ) ;
#337 = DIRECTION ( 'NONE',  ( 1.000000000000000000, 0.0000000000000000000, 0.0000000000000000000 ) ) ;
#338 = CIRCLE ( 'NONE', #838, 0.4330708661417330100 ) ;
#339 = EDGE_LOOP ( 'NONE', ( #116, #169, #1081, #328 ) ) ;
#340 = ORIENTED_EDGE ( 'NONE', *, *, #918, .T. ) ;
#341 = DIRECTION ( 'NONE',  ( 1.000000000000000000, 0.0000000000000000000, 0.0000000000000000000 ) ) ;
#342 = PERSON_AND_ORGANIZATION ( #1041, #1079 ) ;
#343 = DIRECTION ( 'NONE',  ( 1.000000000000000000, 0.0000000000000000000, 0.0000000000000000000 ) ) ;
#344 = EDGE_LOOP ( 'NONE', ( #434, #798 ) ) ;
#345 = CARTESIAN_POINT ( 'NONE',  ( -0.4133858267716542500, 1.539968645586719300E-017, -0.1230314960629924100 ) ) ;
#346 = CARTESIAN_POINT ( 'NONE',  ( 0.2915846456692909300, -3.414809992080329000E-017, -0.02755905511811025000 ) ) ;
#347 = DIRECTION ( 'NONE',  ( 0.0000000000000000000, 0.0000000000000000000, 1.000000000000000000 ) ) ;
#348 = AXIS2_PLACEMENT_3D ( 'NONE', #722, #950, #857 ) ;
#349 = CARTESIAN_POINT ( 'NONE',  ( 0.0000000000000000000, -3.522547650101167200E-017, -0.02755905511811025700 ) ) ;
#350 = FACE_OUTER_BOUND ( 'NONE', #540, .T. ) ;
#351 = DIRECTION ( 'NONE',  ( 0.0000000000000000000, 0.0000000000000000000, 1.000000000000000000 ) ) ;
#352 = EDGE_CURVE ( 'NONE', #692, #956, #1050, .T. ) ;
#353 = APPROVAL ( #818, 'UNSPECIFIED' ) ;
#354 = ORIENTED_EDGE ( 'NONE', *, *, #751, .F. ) ;
#355 = ORIENTED_EDGE ( 'NONE', *, *, #570, .T. ) ;
#356 = ORIENTED_EDGE ( 'NONE', *, *, #236, .F. ) ;
#357 = APPROVAL_PERSON_ORGANIZATION ( #787, #353, #253 ) ;
#358 = VERTEX_POINT ( 'NONE', #395 ) ;
#359 = PLANE ( 'NONE',  #634 ) ;
#360 = ADVANCED_FACE ( 'NONE', ( #1024, #447 ), #1062, .F. ) ;
#361 = AXIS2_PLACEMENT_3D ( 'NONE', #285, #616, #1035 ) ;
#362 = ADVANCED_FACE ( 'NONE', ( #964 ), #229, .F. ) ;
#363 = DIRECTION ( 'NONE',  ( 0.0000000000000000000, -1.000000000000000000, 0.0000000000000000000 ) ) ;
#364 = CIRCLE ( 'NONE', #937, 0.01599409448818853200 ) ;
#365 = ORIENTED_EDGE ( 'NONE', *, *, #96, .T. ) ;
#366 = AXIS2_PLACEMENT_3D ( 'NONE', #926, #768, #839 ) ;
#367 = ADVANCED_FACE ( 'NONE', ( #300 ), #218, .F. ) ;
#368 = CC_DESIGN_PERSON_AND_ORGANIZATION_ASSIGNMENT ( #1027, #1080, ( #309 ) ) ;
#369 = ORIENTED_EDGE ( 'NONE', *, *, #382, .F. ) ;
#370 = DATE_AND_TIME ( #400, #548 ) ;
#371 = VERTEX_POINT ( 'NONE', #149 ) ;
#372 = ORIENTED_EDGE ( 'NONE', *, *, #17, .T. ) ;
#373 = EDGE_CURVE ( 'NONE', #875, #573, #326, .T. ) ;
#374 = CARTESIAN_POINT ( 'NONE',  ( -0.2755905511811024300, -1.475367863092476400E-018, 0.09370078740157480900 ) ) ;
#375 = CARTESIAN_POINT ( 'NONE',  ( 0.4109251968503949100, -3.522547650101167200E-017, -0.1322146919477583700 ) ) ;
#376 = FACE_OUTER_BOUND ( 'NONE', #867, .T. ) ;
#377 = DIRECTION ( 'NONE',  ( 0.0000000000000000000, 0.0000000000000000000, 1.000000000000000000 ) ) ;
#378 = CIRCLE ( 'NONE', #815, 0.004921259842519553100 ) ;
#379 = PERSON_AND_ORGANIZATION ( #1041, #1079 ) ;
#380 = DIRECTION ( 'NONE',  ( 0.0000000000000000000, 0.0000000000000000000, 1.000000000000000000 ) ) ;
#381 = ORIENTED_EDGE ( 'NONE', *, *, #484, .T. ) ;
#382 = EDGE_CURVE ( 'NONE', #875, #91, #256, .T. ) ;
#383 = EDGE_LOOP ( 'NONE', ( #419, #955 ) ) ;
#384 = ORIENTED_EDGE ( 'NONE', *, *, #894, .T. ) ;
#385 = DIRECTION ( 'NONE',  ( 1.224646799147353200E-016, 1.000000000000000000, -0.0000000000000000000 ) ) ;
#386 = EDGE_CURVE ( 'NONE', #694, #358, #412, .T. ) ;
#387 = AXIS2_PLACEMENT_3D ( 'NONE', #814, #482, #232 ) ;
#388 = FACE_OUTER_BOUND ( 'NONE', #750, .T. ) ;
#389 = EDGE_LOOP ( 'NONE', ( #263, #89 ) ) ;
#390 = ORIENTED_EDGE ( 'NONE', *, *, #468, .F. ) ;
#391 = VERTEX_POINT ( 'NONE', #228 ) ;
#392 = ORIENTED_EDGE ( 'NONE', *, *, #819, .T. ) ;
#393 = CARTESIAN_POINT ( 'NONE',  ( 0.0000000000000000000, -3.522547650101167200E-017, -0.1377952755905511900 ) ) ;
#394 = AXIS2_PLACEMENT_3D ( 'NONE', #155, #332, #816 ) ;
#395 = CARTESIAN_POINT ( 'NONE',  ( -0.4330708661417330100, -1.526031483916205800E-017, -0.1279527559055118900 ) ) ;
#396 = AXIS2_PLACEMENT_3D ( 'NONE', #581, #79, #235 ) ;
#397 = CIRCLE ( 'NONE', #799, 0.2755905511811024300 ) ;
#398 = TOROIDAL_SURFACE ( 'NONE', #603, 0.2755905511811024300, 0.01599409448818851800 ) ;
#399 = DIRECTION ( 'NONE',  ( 0.0000000000000000000, 0.0000000000000000000, 1.000000000000000000 ) ) ;
#400 = CALENDAR_DATE ( 2021, 8, 9 ) ;
#401 = VERTEX_POINT ( 'NONE', #320 ) ;
#402 = ORIENTED_EDGE ( 'NONE', *, *, #990, .F. ) ;
#403 = CIRCLE ( 'NONE', #720, 0.2559055118110236700 ) ;
#404 = EDGE_CURVE ( 'NONE', #1059, #304, #938, .T. ) ;
#405 = PRODUCT_DEFINITION_FORMATION_WITH_SPECIFIED_SOURCE ( 'ANY', '', #281, .NOT_KNOWN. ) ;
#406 = DIRECTION ( 'NONE',  ( 1.000000000000000000, 0.0000000000000000000, 0.0000000000000000000 ) ) ;
#407 = CARTESIAN_POINT ( 'NONE',  ( 0.0000000000000000000, -3.522547650101167200E-017, 0.09370078740157478100 ) ) ;
#408 = DIRECTION ( 'NONE',  ( 1.000000000000000000, 0.0000000000000000000, 0.0000000000000000000 ) ) ;
#409 = CARTESIAN_POINT ( 'NONE',  ( 0.2595964566929139200, -3.414809992080329000E-017, -0.02755905511811025000 ) ) ;
#410 = AXIS2_PLACEMENT_3D ( 'NONE', #783, #129, #292 ) ;
#411 = DIRECTION ( 'NONE',  ( 1.000000000000000000, 0.0000000000000000000, 0.0000000000000000000 ) ) ;
#412 = CIRCLE ( 'NONE', #250, 0.009842519685039243300 ) ;
#413 = CARTESIAN_POINT ( 'NONE',  ( -0.4133858267716542000, 1.539968645586718400E-017, -0.1377952755905511600 ) ) ;
#414 = ORIENTED_EDGE ( 'NONE', *, *, #125, .F. ) ;
#415 = ORIENTED_EDGE ( 'NONE', *, *, #918, .F. ) ;
#416 = CALENDAR_DATE ( 2021, 8, 9 ) ;
#417 = DIRECTION ( 'NONE',  ( 1.224646799147353200E-016, 1.000000000000000000, -0.0000000000000000000 ) ) ;
#418 = EDGE_LOOP ( 'NONE', ( #726, #968, #449, #538 ) ) ;
#419 = ORIENTED_EDGE ( 'NONE', *, *, #656, .T. ) ;
#420 = DIRECTION ( 'NONE',  ( 0.0000000000000000000, 0.0000000000000000000, 1.000000000000000000 ) ) ;
#421 = DIRECTION ( 'NONE',  ( 1.000000000000000000, 0.0000000000000000000, 0.0000000000000000000 ) ) ;
#422 = AXIS2_PLACEMENT_3D ( 'NONE', #48, #883, #11 ) ;
#423 = CC_DESIGN_PERSON_AND_ORGANIZATION_ASSIGNMENT ( #342, #1007, ( #405 ) ) ;
#424 = AXIS2_PLACEMENT_3D ( 'NONE', #747, #174, #83 ) ;
#425 = DIRECTION ( 'NONE',  ( 0.0000000000000000000, 0.0000000000000000000, -1.000000000000000000 ) ) ;
#426 = MECHANICAL_CONTEXT ( 'NONE', #674, 'mechanical' ) ;
#427 = DIRECTION ( 'NONE',  ( 1.000000000000000000, 0.0000000000000000000, 0.0000000000000000000 ) ) ;
#428 = DIRECTION ( 'NONE',  ( 1.000000000000000000, 0.0000000000000000000, 0.0000000000000000000 ) ) ;
#429 = EDGE_CURVE ( 'NONE', #471, #1043, #687, .T. ) ;
#430 =( LENGTH_UNIT ( ) NAMED_UNIT ( * ) SI_UNIT ( $, .METRE. ) );
#431 = FACE_OUTER_BOUND ( 'NONE', #913, .T. ) ;
#432 = EDGE_LOOP ( 'NONE', ( #878, #881, #998, #659 ) ) ;
#433 = CARTESIAN_POINT ( 'NONE',  ( -0.2755905511811024300, -3.979912828840977200E-019, -0.02755905511811025000 ) ) ;
#434 = ORIENTED_EDGE ( 'NONE', *, *, #160, .F. ) ;
#435 = ORIENTED_EDGE ( 'NONE', *, *, #894, .F. ) ;
#436 = CIRCLE ( 'NONE', #707, 0.01599409448818852100 ) ;
#437 = DIRECTION ( 'NONE',  ( 1.000000000000000000, 0.0000000000000000000, 0.0000000000000000000 ) ) ;
#438 = CARTESIAN_POINT ( 'NONE',  ( 0.0000000000000000000, -3.522547650101167200E-017, 0.09370078740157480900 ) ) ;
#439 = APPROVAL_ROLE ( '' ) ;
#440 = AXIS2_PLACEMENT_3D ( 'NONE', #969, #972, #305 ) ;
#441 = ADVANCED_FACE ( 'NONE', ( #242 ), #194, .T. ) ;
#442 = DIRECTION ( 'NONE',  ( 0.0000000000000000000, 0.0000000000000000000, 1.000000000000000000 ) ) ;
#443 = DIRECTION ( 'NONE',  ( 1.000000000000000000, 0.0000000000000000000, 0.0000000000000000000 ) ) ;
#444 = EDGE_CURVE ( 'NONE', #91, #391, #466, .T. ) ;
#445 = ADVANCED_FACE ( 'NONE', ( #479 ), #140, .F. ) ;
#446 = AXIS2_PLACEMENT_3D ( 'NONE', #691, #363, #772 ) ;
#447 = FACE_BOUND ( 'NONE', #25, .T. ) ;
#448 = CIRCLE ( 'NONE', #136, 0.2755905511811024300 ) ;
#449 = ORIENTED_EDGE ( 'NONE', *, *, #108, .T. ) ;
#450 = CARTESIAN_POINT ( 'NONE',  ( 0.0000000000000000000, -3.522547650101167200E-017, -0.1377952755905509900 ) ) ;
#451 = VERTEX_POINT ( 'NONE', #792 ) ;
#452 = DIRECTION ( 'NONE',  ( -1.000000000000000000, 0.0000000000000000000, 0.0000000000000000000 ) ) ;
#453 = DIRECTION ( 'NONE',  ( -1.000000000000000000, 0.0000000000000000000, 0.0000000000000000000 ) ) ;
#454 = DIRECTION ( 'NONE',  ( 0.0000000000000000000, 0.0000000000000000000, 1.000000000000000000 ) ) ;
#455 = DIRECTION ( 'NONE',  ( 0.0000000000000000000, 0.0000000000000000000, 1.000000000000000000 ) ) ;
#456 = FACE_OUTER_BOUND ( 'NONE', #104, .T. ) ;
#457 = ORIENTED_EDGE ( 'NONE', *, *, #295, .F. ) ;
#458 = AXIS2_PLACEMENT_3D ( 'NONE', #62, #655, #900 ) ;
#459 = ORIENTED_EDGE ( 'NONE', *, *, #43, .F. ) ;
#460 = CIRCLE ( 'NONE', #498, 0.2755905511811024300 ) ;
#461 = CARTESIAN_POINT ( 'NONE',  ( 0.3973917322834656900, -6.829619984160658000E-017, 0.07770669291338627700 ) ) ;
#462 = DIRECTION ( 'NONE',  ( 1.000000000000000000, 0.0000000000000000000, 0.0000000000000000000 ) ) ;
#463 = EDGE_CURVE ( 'NONE', #809, #212, #725, .T. ) ;
#464 = AXIS2_PLACEMENT_3D ( 'NONE', #1013, #518, #1023 ) ;
#465 = DIRECTION ( 'NONE',  ( 1.000000000000000000, 0.0000000000000000000, 0.0000000000000000000 ) ) ;
#466 = CIRCLE ( 'NONE', #177, 0.2559055118110236700 ) ;
#467 = EDGE_LOOP ( 'NONE', ( #130, #752, #527, #472 ) ) ;
#468 = EDGE_CURVE ( 'NONE', #15, #512, #821, .T. ) ;
#469 = ORIENTED_EDGE ( 'NONE', *, *, #318, .F. ) ;
#470 = CIRCLE ( 'NONE', #296, 0.2362204724409449900 ) ;
#471 = VERTEX_POINT ( 'NONE', #567 ) ;
#472 = ORIENTED_EDGE ( 'NONE', *, *, #1053, .F. ) ;
#473 = DIRECTION ( 'NONE',  ( 1.000000000000000000, 0.0000000000000000000, 0.0000000000000000000 ) ) ;
#474 = AXIS2_PLACEMENT_3D ( 'NONE', #86, #596, #757 ) ;
#475 = AXIS2_PLACEMENT_3D ( 'NONE', #1063, #642, #882 ) ;
#476 = CC_DESIGN_DATE_AND_TIME_ASSIGNMENT ( #156, #683, ( #936 ) ) ;
#477 = CARTESIAN_POINT ( 'NONE',  ( 0.0000000000000000000, -3.414809992080329000E-017, -0.02755905511811025000 ) ) ;
#478 = CARTESIAN_POINT ( 'NONE',  ( -0.4232283464566937700, -1.646567586194487300E-017, -0.1279527559055118900 ) ) ;
#479 = FACE_OUTER_BOUND ( 'NONE', #329, .T. ) ;
#480 = ORIENTED_EDGE ( 'NONE', *, *, #553, .T. ) ;
#481 = ORIENTED_EDGE ( 'NONE', *, *, #719, .T. ) ;
#482 = DIRECTION ( 'NONE',  ( 0.0000000000000000000, 0.0000000000000000000, 1.000000000000000000 ) ) ;
#483 = COORDINATED_UNIVERSAL_TIME_OFFSET ( 6, 0, .BEHIND. ) ;
#484 = EDGE_CURVE ( 'NONE', #573, #1043, #288, .T. ) ;
#485 = ORIENTED_EDGE ( 'NONE', *, *, #40, .T. ) ;
#486 = DIRECTION ( 'NONE',  ( 0.0000000000000000000, 0.0000000000000000000, 1.000000000000000000 ) ) ;
#487 = PLANE ( 'NONE',  #805 ) ;
#488 = AXIS2_PLACEMENT_3D ( 'NONE', #646, #49, #556 ) ;
#489 = VECTOR ( 'NONE', #2, 39.37007874015748900 ) ;
#490 = DIRECTION ( 'NONE',  ( 0.0000000000000000000, 0.0000000000000000000, 1.000000000000000000 ) ) ;
#491 = TOROIDAL_SURFACE ( 'NONE', #230, 0.4133858267716542000, 0.009842519685039236400 ) ;
#492 = COORDINATED_UNIVERSAL_TIME_OFFSET ( 6, 0, .BEHIND. ) ;
#493 = ORIENTED_EDGE ( 'NONE', *, *, #373, .F. ) ;
#494 = ORIENTED_EDGE ( 'NONE', *, *, #60, .T. ) ;
#495 = ORIENTED_EDGE ( 'NONE', *, *, #429, .F. ) ;
#496 = DIRECTION ( 'NONE',  ( 1.000000000000000000, 0.0000000000000000000, 0.0000000000000000000 ) ) ;
#497 = EDGE_CURVE ( 'NONE', #743, #1026, #128, .T. ) ;
#498 = AXIS2_PLACEMENT_3D ( 'NONE', #742, #1066, #973 ) ;
#499 = CARTESIAN_POINT ( 'NONE',  ( 0.0000000000000000000, -3.522547650101167200E-017, 0.1377952755905511000 ) ) ;
#500 = DIRECTION ( 'NONE',  ( 1.000000000000000000, 0.0000000000000000000, 0.0000000000000000000 ) ) ;
#501 = DIRECTION ( 'NONE',  ( 1.000000000000000000, 0.0000000000000000000, -0.0000000000000000000 ) ) ;
#502 = DIRECTION ( 'NONE',  ( 1.000000000000000000, 0.0000000000000000000, 0.0000000000000000000 ) ) ;
#503 = CARTESIAN_POINT ( 'NONE',  ( 0.0000000000000000000, -3.522547650101167200E-017, -0.09370078740157478100 ) ) ;
#504 = DIRECTION ( 'NONE',  ( 0.0000000000000000000, 0.0000000000000000000, 1.000000000000000000 ) ) ;
#505 = VECTOR ( 'NONE', #224, 39.37007874015748100 ) ;
#506 = AXIS2_PLACEMENT_3D ( 'NONE', #272, #277, #531 ) ;
#507 = ADVANCED_FACE ( 'NONE', ( #388 ), #697, .F. ) ;
#508 = CARTESIAN_POINT ( 'NONE',  ( 0.0000000000000000000, -3.414809992080329000E-017, -0.02755905511811025000 ) ) ;
#509 = VECTOR ( 'NONE', #1051, 39.37007874015748900 ) ;
#510 = ORIENTED_EDGE ( 'NONE', *, *, #33, .T. ) ;
#511 = ORIENTED_EDGE ( 'NONE', *, *, #295, .T. ) ;
#512 = VERTEX_POINT ( 'NONE', #895 ) ;
#513 = DIRECTION ( 'NONE',  ( 1.000000000000000000, 0.0000000000000000000, 0.0000000000000000000 ) ) ;
#514 = SECURITY_CLASSIFICATION_LEVEL ( 'unclassified' ) ;
#515 = AXIS2_PLACEMENT_3D ( 'NONE', #322, #806, #411 ) ;
#516 = ADVANCED_FACE ( 'NONE', ( #456 ), #23, .T. ) ;
#517 = DIRECTION ( 'NONE',  ( 1.000000000000000000, 0.0000000000000000000, 0.0000000000000000000 ) ) ;
#518 = DIRECTION ( 'NONE',  ( -0.0000000000000000000, -0.0000000000000000000, 1.000000000000000000 ) ) ;
#519 = EDGE_CURVE ( 'NONE', #599, #451, #612, .T. ) ;
#520 = DIMENSIONAL_EXPONENTS ( 1.000000000000000000, 0.0000000000000000000, 0.0000000000000000000, 0.0000000000000000000, 0.0000000000000000000, 0.0000000000000000000, 0.0000000000000000000 ) ;
#521 = APPROVAL ( #522, 'UNSPECIFIED' ) ;
#522 = APPROVAL_STATUS ( 'not_yet_approved' ) ;
#523 = TOROIDAL_SURFACE ( 'NONE', #723, 0.3973917322834656900, 0.01599409448818853900 ) ;
#524 = VECTOR ( 'NONE', #945, 39.37007874015748100 ) ;
#525 = LOCAL_TIME ( 1, 39, 45.00000000000000000, #914 ) ;
#526 = ORIENTED_EDGE ( 'NONE', *, *, #88, .F. ) ;
#527 = ORIENTED_EDGE ( 'NONE', *, *, #974, .F. ) ;
#528 = CARTESIAN_POINT ( 'NONE',  ( 0.4232283464566937700, -3.522547650101167200E-017, -0.1377952755905509900 ) ) ;
#529 = EDGE_LOOP ( 'NONE', ( #652, #495 ) ) ;
#530 = DIRECTION ( 'NONE',  ( 0.0000000000000000000, 0.0000000000000000000, 1.000000000000000000 ) ) ;
#531 = DIRECTION ( 'NONE',  ( 1.000000000000000000, 0.0000000000000000000, 0.0000000000000000000 ) ) ;
#532 = ADVANCED_FACE ( 'NONE', ( #885 ), #669, .T. ) ;
#533 = AXIS2_PLACEMENT_3D ( 'NONE', #555, #963, #962 ) ;
#534 = AXIS2_PLACEMENT_3D ( 'NONE', #3, #989, #337 ) ;
#535 = TOROIDAL_SURFACE ( 'NONE', #424, 0.2755905511811024300, 0.01599409448818851800 ) ;
#536 = CIRCLE ( 'NONE', #622, 0.01599409448818852100 ) ;
#537 = DIRECTION ( 'NONE',  ( 0.0000000000000000000, 0.0000000000000000000, 1.000000000000000000 ) ) ;
#538 = ORIENTED_EDGE ( 'NONE', *, *, #96, .F. ) ;
#539 = DIRECTION ( 'NONE',  ( 1.000000000000000000, 0.0000000000000000000, 0.0000000000000000000 ) ) ;
#540 = EDGE_LOOP ( 'NONE', ( #1016, #778 ) ) ;
#541 = EDGE_CURVE ( 'NONE', #653, #810, #793, .T. ) ;
#542 = CARTESIAN_POINT ( 'NONE',  ( 0.0000000000000000000, -3.522547650101167200E-017, -0.09370078740157478100 ) ) ;
#543 = CARTESIAN_POINT ( 'NONE',  ( -0.4133858267716542000, -1.767103688472772800E-017, -0.1377952755905511900 ) ) ;
#544 = FACE_OUTER_BOUND ( 'NONE', #671, .T. ) ;
#545 = CARTESIAN_POINT ( 'NONE',  ( 0.0000000000000000000, -3.522547650101167200E-017, -0.1364766279900049300 ) ) ;
#546 = CIRCLE ( 'NONE', #946, 0.4133858267716542000 ) ;
#547 = AXIS2_PLACEMENT_3D ( 'NONE', #756, #100, #1017 ) ;
#548 = LOCAL_TIME ( 1, 39, 45.00000000000000000, #943 ) ;
#549 = ORIENTED_EDGE ( 'NONE', *, *, #845, .F. ) ;
#550 = ORIENTED_EDGE ( 'NONE', *, *, #736, .F. ) ;
#551 = LINE ( 'NONE', #327, #234 ) ;
#552 = DIRECTION ( 'NONE',  ( 1.000000000000000000, 0.0000000000000000000, 0.0000000000000000000 ) ) ;
#553 = EDGE_CURVE ( 'NONE', #358, #692, #338, .T. ) ;
#554 = AXIS2_PLACEMENT_3D ( 'NONE', #407, #892, #321 ) ;
#555 = CARTESIAN_POINT ( 'NONE',  ( 0.0000000000000000000, -3.522547650101167200E-017, 0.1377952755905511600 ) ) ;
#556 = DIRECTION ( 'NONE',  ( 0.0000000000000000000, 0.0000000000000000000, -1.000000000000000000 ) ) ;
#557 = TOROIDAL_SURFACE ( 'NONE', #624, 0.2755905511811024300, 0.01599409448818852800 ) ;
#558 = CIRCLE ( 'NONE', #983, 0.2559055118110237800 ) ;
#559 = DIRECTION ( 'NONE',  ( 1.000000000000000000, 0.0000000000000000000, 0.0000000000000000000 ) ) ;
#560 = ORIENTED_EDGE ( 'NONE', *, *, #660, .T. ) ;
#561 = EDGE_LOOP ( 'NONE', ( #145, #282, #459, #107 ) ) ;
#562 = ORIENTED_EDGE ( 'NONE', *, *, #206, .T. ) ;
#563 = CARTESIAN_POINT ( 'NONE',  ( 0.0000000000000000000, -3.522547650101167200E-017, -0.1377952755905511600 ) ) ;
#564 = DIRECTION ( 'NONE',  ( 0.0000000000000000000, 0.0000000000000000000, 1.000000000000000000 ) ) ;
#565 = CARTESIAN_POINT ( 'NONE',  ( 0.0000000000000000000, -3.414809992080329000E-017, -0.02755905511811025000 ) ) ;
#566 = EDGE_CURVE ( 'NONE', #826, #840, #546, .T. ) ;
#567 = CARTESIAN_POINT ( 'NONE',  ( -0.2559055118110237800, -3.886089908658123100E-018, 0.1377952755905511600 ) ) ;
#568 = DIRECTION ( 'NONE',  ( -0.0000000000000000000, -0.0000000000000000000, 1.000000000000000000 ) ) ;
#569 = DIRECTION ( 'NONE',  ( 1.000000000000000000, 0.0000000000000000000, -0.0000000000000000000 ) ) ;
#570 = EDGE_CURVE ( 'NONE', #676, #1059, #978, .T. ) ;
#571 = CC_DESIGN_APPROVAL ( #521, ( #936 ) ) ;
#572 = ORIENTED_EDGE ( 'NONE', *, *, #1003, .F. ) ;
#573 = VERTEX_POINT ( 'NONE', #979 ) ;
#574 = CIRCLE ( 'NONE', #864, 0.4133858267716542000 ) ;
#575 = DIRECTION ( 'NONE',  ( 0.0000000000000000000, 0.0000000000000000000, 1.000000000000000000 ) ) ;
#576 = PLANE ( 'NONE',  #919 ) ;
#577 = DIRECTION ( 'NONE',  ( 0.0000000000000000000, 0.0000000000000000000, 1.000000000000000000 ) ) ;
#578 = DIRECTION ( 'NONE',  ( 1.224646799147353200E-016, 1.000000000000000000, 0.0000000000000000000 ) ) ;
#579 = PERSON_AND_ORGANIZATION_ROLE ( 'design_supplier' ) ;
#580 = VECTOR ( 'NONE', #577, 39.37007874015748100 ) ;
#581 = CARTESIAN_POINT ( 'NONE',  ( 0.0000000000000000000, -3.522547650101167200E-017, -0.1322146919477583700 ) ) ;
#582 = ORIENTED_EDGE ( 'NONE', *, *, #1003, .T. ) ;
#583 = ORIENTED_EDGE ( 'NONE', *, *, #258, .F. ) ;
#584 = DIRECTION ( 'NONE',  ( 1.000000000000000000, 0.0000000000000000000, 0.0000000000000000000 ) ) ;
#585 = VECTOR ( 'NONE', #69, 39.37007874015748100 ) ;
#586 = ORIENTED_EDGE ( 'NONE', *, *, #444, .F. ) ;
#587 = ORIENTED_EDGE ( 'NONE', *, *, #382, .T. ) ;
#588 = AXIS2_PLACEMENT_3D ( 'NONE', #713, #627, #123 ) ;
#589 = EDGE_LOOP ( 'NONE', ( #827, #12, #740, #785 ) ) ;
#590 = ADVANCED_FACE ( 'NONE', ( #994 ), #712, .F. ) ;
#591 = CARTESIAN_POINT ( 'NONE',  ( 0.0000000000000000000, -6.829619984160658000E-017, 0.07770669291338627700 ) ) ;
#592 = EDGE_CURVE ( 'NONE', #676, #103, #774, .T. ) ;
#593 = ADVANCED_FACE ( 'NONE', ( #658 ), #491, .T. ) ;
#594 = AXIS2_PLACEMENT_3D ( 'NONE', #563, #735, #645 ) ;
#595 = VECTOR ( 'NONE', #269, 39.37007874015748100 ) ;
#596 = DIRECTION ( 'NONE',  ( 0.0000000000000000000, 0.0000000000000000000, 1.000000000000000000 ) ) ;
#597 = ORIENTED_EDGE ( 'NONE', *, *, #236, .T. ) ;
#598 = ADVANCED_FACE ( 'NONE', ( #276 ), #311, .F. ) ;
#599 = VERTEX_POINT ( 'NONE', #739 ) ;
#600 = ORIENTED_EDGE ( 'NONE', *, *, #953, .F. ) ;
#601 = FACE_OUTER_BOUND ( 'NONE', #389, .T. ) ;
#602 = CARTESIAN_POINT ( 'NONE',  ( 0.2755905511811024300, -3.522547650101167200E-017, -0.1377952755905511600 ) ) ;
#603 = AXIS2_PLACEMENT_3D ( 'NONE', #1036, #377, #721 ) ;
#604 = CARTESIAN_POINT ( 'NONE',  ( 0.2559055118110236700, -3.886089908658134700E-018, -0.09370078740157478100 ) ) ;
#605 = CARTESIAN_POINT ( 'NONE',  ( 0.0000000000000000000, -6.829619984160658000E-017, 0.07770669291338627700 ) ) ;
#606 = ADVANCED_FACE ( 'NONE', ( #112 ), #535, .F. ) ;
#607 = CARTESIAN_POINT ( 'NONE',  ( 0.0000000000000000000, -3.522547650101167200E-017, -0.1279527559055118900 ) ) ;
#608 = DIRECTION ( 'NONE',  ( 0.0000000000000000000, 0.0000000000000000000, 1.000000000000000000 ) ) ;
#609 = EDGE_CURVE ( 'NONE', #899, #134, #364, .T. ) ;
#610 = AXIS2_PLACEMENT_3D ( 'NONE', #508, #908, #755 ) ;
#611 = ADVANCED_FACE ( 'NONE', ( #44 ), #557, .T. ) ;
#612 = LINE ( 'NONE', #324, #580 ) ;
#613 = CIRCLE ( 'NONE', #925, 0.2362204724409449900 ) ;
#614 = ORIENTED_EDGE ( 'NONE', *, *, #484, .F. ) ;
#615 = APPROVAL_DATE_TIME ( #825, #353 ) ;
#616 = DIRECTION ( 'NONE',  ( 1.224646799147353200E-016, 1.000000000000000000, 0.0000000000000000000 ) ) ;
#617 = VERTEX_POINT ( 'NONE', #999 ) ;
#618 = ORIENTED_EDGE ( 'NONE', *, *, #463, .F. ) ;
#619 = CARTESIAN_POINT ( 'NONE',  ( -0.4133858267716542000, -1.767103688472772800E-017, -0.1279527559055119400 ) ) ;
#620 = CARTESIAN_POINT ( 'NONE',  ( 0.0000000000000000000, -3.522547650101167200E-017, -0.1377952755905511600 ) ) ;
#621 = DIRECTION ( 'NONE',  ( -0.0000000000000000000, -0.0000000000000000000, 1.000000000000000000 ) ) ;
#622 = AXIS2_PLACEMENT_3D ( 'NONE', #701, #861, #133 ) ;
#623 = TOROIDAL_SURFACE ( 'NONE', #148, 0.4133858267716542000, 0.009842519685039236400 ) ;
#624 = AXIS2_PLACEMENT_3D ( 'NONE', #753, #251, #254 ) ;
#625 = CYLINDRICAL_SURFACE ( 'NONE', #72, 0.2755905511811024300 ) ;
#626 = DIRECTION ( 'NONE',  ( 0.0000000000000000000, 0.0000000000000000000, 1.000000000000000000 ) ) ;
#627 = DIRECTION ( 'NONE',  ( -0.0000000000000000000, -0.0000000000000000000, 1.000000000000000000 ) ) ;
#628 = ORIENTED_EDGE ( 'NONE', *, *, #643, .F. ) ;
#629 = EDGE_LOOP ( 'NONE', ( #689, #457, #372, #247 ) ) ;
#630 = FACE_OUTER_BOUND ( 'NONE', #432, .T. ) ;
#631 = EDGE_LOOP ( 'NONE', ( #55, #966, #157, #414 ) ) ;
#632 = EDGE_CURVE ( 'NONE', #512, #15, #42, .T. ) ;
#633 = ADVANCED_BREP_SHAPE_REPRESENTATION ( '5154T63_Spring-Loaded Rotary Shaft Seal', ( #960, #813, #534 ), #1054 ) ;
#634 = AXIS2_PLACEMENT_3D ( 'NONE', #1028, #1019, #452 ) ;
#635 = DIRECTION ( 'NONE',  ( 1.000000000000000000, 0.0000000000000000000, 0.0000000000000000000 ) ) ;
#636 = LINE ( 'NONE', #954, #738 ) ;
#637 = CIRCLE ( 'NONE', #588, 0.2595964566929139200 ) ;
#638 = ORIENTED_EDGE ( 'NONE', *, *, #278, .F. ) ;
#639 = LOCAL_TIME ( 1, 39, 45.00000000000000000, #767 ) ;
#640 = ORIENTED_EDGE ( 'NONE', *, *, #1038, .T. ) ;
#641 = VERTEX_POINT ( 'NONE', #911 ) ;
#642 = DIRECTION ( 'NONE',  ( 0.0000000000000000000, 0.0000000000000000000, 1.000000000000000000 ) ) ;
#643 = EDGE_CURVE ( 'NONE', #810, #653, #896, .T. ) ;
#644 = CARTESIAN_POINT ( 'NONE',  ( 0.2559055118110236700, -3.522547650101167200E-017, 0.09370078740157480900 ) ) ;
#645 = DIRECTION ( 'NONE',  ( 1.000000000000000000, 0.0000000000000000000, 0.0000000000000000000 ) ) ;
#646 = CARTESIAN_POINT ( 'NONE',  ( 0.4133858267716542000, -6.829619984160658000E-017, -0.1279527559055119400 ) ) ;
#647 = VECTOR ( 'NONE', #988, 39.37007874015748100 ) ;
#648 = EDGE_CURVE ( 'NONE', #304, #1059, #760, .T. ) ;
#649 = AXIS2_PLACEMENT_3D ( 'NONE', #605, #932, #443 ) ;
#650 = FACE_OUTER_BOUND ( 'NONE', #714, .T. ) ;
#651 = DIRECTION ( 'NONE',  ( 1.000000000000000000, 0.0000000000000000000, 0.0000000000000000000 ) ) ;
#652 = ORIENTED_EDGE ( 'NONE', *, *, #33, .F. ) ;
#653 = VERTEX_POINT ( 'NONE', #345 ) ;
#654 = CIRCLE ( 'NONE', #18, 0.01599409448818851400 ) ;
#655 = DIRECTION ( 'NONE',  ( 0.0000000000000000000, 0.0000000000000000000, 1.000000000000000000 ) ) ;
#656 = EDGE_CURVE ( 'NONE', #776, #103, #949, .T. ) ;
#657 = DIRECTION ( 'NONE',  ( 1.000000000000000000, 0.0000000000000000000, 0.0000000000000000000 ) ) ;
#658 = FACE_OUTER_BOUND ( 'NONE', #1078, .T. ) ;
#659 = ORIENTED_EDGE ( 'NONE', *, *, #804, .F. ) ;
#660 = EDGE_CURVE ( 'NONE', #134, #73, #325, .T. ) ;
#661 = AXIS2_PLACEMENT_3D ( 'NONE', #817, #897, #977 ) ;
#662 = EDGE_LOOP ( 'NONE', ( #526, #118, #202, #222 ) ) ;
#663 = CARTESIAN_POINT ( 'NONE',  ( 0.0000000000000000000, -3.522547650101167200E-017, 0.07770669291338630500 ) ) ;
#664 = ORIENTED_EDGE ( 'NONE', *, *, #78, .F. ) ;
#665 = CARTESIAN_POINT ( 'NONE',  ( 0.0000000000000000000, 0.2559055118110236700, -0.09370078740157478100 ) ) ;
#666 = DIRECTION ( 'NONE',  ( 0.0000000000000000000, 0.0000000000000000000, 1.000000000000000000 ) ) ;
#667 = DIRECTION ( 'NONE',  ( 0.0000000000000000000, 0.0000000000000000000, 1.000000000000000000 ) ) ;
#668 =( NAMED_UNIT ( * ) PLANE_ANGLE_UNIT ( ) SI_UNIT ( $, .RADIAN. ) );
#669 = CYLINDRICAL_SURFACE ( 'NONE', #890, 0.4330708661417329600 ) ;
#670 = ADVANCED_FACE ( 'NONE', ( #97 ), #623, .T. ) ;
#671 = EDGE_LOOP ( 'NONE', ( #795, #582, #485, #583 ) ) ;
#672 = CARTESIAN_POINT ( 'NONE',  ( 0.4330708661417330100, -6.829619984160658000E-017, -0.1279527559055118900 ) ) ;
#673 = PERSON_AND_ORGANIZATION ( #1041, #1079 ) ;
#674 = APPLICATION_CONTEXT ( 'configuration controlled 3d designs of mechanical parts and assemblies' ) ;
#675 = AXIS2_PLACEMENT_3D ( 'NONE', #940, #454, #1032 ) ;
#676 = VERTEX_POINT ( 'NONE', #759 ) ;
#677 = FACE_OUTER_BOUND ( 'NONE', #561, .T. ) ;
#678 = AXIS2_PLACEMENT_3D ( 'NONE', #257, #905, #584 ) ;
#679 = ADVANCED_FACE ( 'NONE', ( #544 ), #523, .F. ) ;
#680 = CARTESIAN_POINT ( 'NONE',  ( 0.0000000000000000000, -3.522547650101167200E-017, 0.1181102362204723400 ) ) ;
#681 = EDGE_CURVE ( 'NONE', #956, #1052, #299, .T. ) ;
#682 = AXIS2_PLACEMENT_3D ( 'NONE', #450, #351, #695 ) ;
#683 = DATE_TIME_ROLE ( 'classification_date' ) ;
#684 = ADVANCED_FACE ( 'NONE', ( #734 ), #711, .T. ) ;
#685 = CARTESIAN_POINT ( 'NONE',  ( 0.0000000000000000000, -3.522547650101167200E-017, -0.1377952755905511600 ) ) ;
#686 = DIRECTION ( 'NONE',  ( 1.000000000000000000, 0.0000000000000000000, 0.0000000000000000000 ) ) ;
#687 = CIRCLE ( 'NONE', #533, 0.2559055118110237800 ) ;
#688 = ORIENTED_EDGE ( 'NONE', *, *, #819, .F. ) ;
#689 = ORIENTED_EDGE ( 'NONE', *, *, #570, .F. ) ;
#690 = FACE_OUTER_BOUND ( 'NONE', #265, .T. ) ;
#691 = CARTESIAN_POINT ( 'NONE',  ( 0.2755905511811024300, -3.414809992080329000E-017, -0.02755905511811025000 ) ) ;
#692 = VERTEX_POINT ( 'NONE', #672 ) ;
#693 = ADVANCED_FACE ( 'NONE', ( #431 ), #7, .F. ) ;
#694 = VERTEX_POINT ( 'NONE', #335 ) ;
#695 = DIRECTION ( 'NONE',  ( 1.000000000000000000, 0.0000000000000000000, 0.0000000000000000000 ) ) ;
#696 = AXIS2_PLACEMENT_3D ( 'NONE', #94, #1005, #262 ) ;
#697 = CYLINDRICAL_SURFACE ( 'NONE', #515, 0.2559055118110237200 ) ;
#698 = CARTESIAN_POINT ( 'NONE',  ( 0.4232283464566937700, -6.829619984160658000E-017, -0.1279527559055118900 ) ) ;
#699 = FACE_OUTER_BOUND ( 'NONE', #929, .T. ) ;
#700 = ORIENTED_EDGE ( 'NONE', *, *, #736, .T. ) ;
#701 = CARTESIAN_POINT ( 'NONE',  ( 0.2755905511811024300, -3.414809992080329000E-017, -0.02755905511811025000 ) ) ;
#702 = CALENDAR_DATE ( 2021, 8, 9 ) ;
#703 = ORIENTED_EDGE ( 'NONE', *, *, #30, .F. ) ;
#704 = ORIENTED_EDGE ( 'NONE', *, *, #877, .T. ) ;
#705 = ORIENTED_EDGE ( 'NONE', *, *, #386, .F. ) ;
#706 = EDGE_CURVE ( 'NONE', #808, #391, #922, .T. ) ;
#707 = AXIS2_PLACEMENT_3D ( 'NONE', #729, #317, #1072 ) ;
#708 = DIRECTION ( 'NONE',  ( 1.000000000000000000, 0.0000000000000000000, 0.0000000000000000000 ) ) ;
#709 = DIRECTION ( 'NONE',  ( 0.0000000000000000000, 0.0000000000000000000, 1.000000000000000000 ) ) ;
#710 = EDGE_CURVE ( 'NONE', #809, #599, #397, .T. ) ;
#711 = CYLINDRICAL_SURFACE ( 'NONE', #76, 0.2755905511811024300 ) ;
#712 = TOROIDAL_SURFACE ( 'NONE', #1068, 0.4133858267716542000, 0.004921259842519549700 ) ;
#713 = CARTESIAN_POINT ( 'NONE',  ( 0.0000000000000000000, -3.414809992080329000E-017, -0.02755905511811025000 ) ) ;
#714 = EDGE_LOOP ( 'NONE', ( #290, #866, #638, #46 ) ) ;
#715 = ORIENTED_EDGE ( 'NONE', *, *, #770, .F. ) ;
#716 = CIRCLE ( 'NONE', #661, 0.01599409448818851400 ) ;
#717 = DIRECTION ( 'NONE',  ( 0.0000000000000000000, -1.000000000000000000, 0.0000000000000000000 ) ) ;
#718 = ORIENTED_EDGE ( 'NONE', *, *, #78, .T. ) ;
#719 = EDGE_CURVE ( 'NONE', #956, #512, #65, .T. ) ;
#720 = AXIS2_PLACEMENT_3D ( 'NONE', #268, #504, #421 ) ;
#721 = DIRECTION ( 'NONE',  ( 1.000000000000000000, 0.0000000000000000000, 0.0000000000000000000 ) ) ;
#722 = CARTESIAN_POINT ( 'NONE',  ( 0.0000000000000000000, -3.522547650101167200E-017, -0.1377952755905511600 ) ) ;
#723 = AXIS2_PLACEMENT_3D ( 'NONE', #591, #252, #500 ) ;
#724 = CARTESIAN_POINT ( 'NONE',  ( 0.0000000000000000000, -3.522547650101167200E-017, -0.02755905511811025700 ) ) ;
#725 = LINE ( 'NONE', #884, #505 ) ;
#726 = ORIENTED_EDGE ( 'NONE', *, *, #497, .F. ) ;
#727 = UNCERTAINTY_MEASURE_WITH_UNIT (LENGTH_MEASURE( 1.000000000000000100E-005 ), #81, 'distance_accuracy_value', 'NONE');
#728 = ORIENTED_EDGE ( 'NONE', *, *, #706, .T. ) ;
#729 = CARTESIAN_POINT ( 'NONE',  ( 0.2755905511811024300, -3.414809992080329000E-017, -0.02755905511811025000 ) ) ;
#730 = ORIENTED_EDGE ( 'NONE', *, *, #444, .T. ) ;
#731 = EDGE_LOOP ( 'NONE', ( #549, #560, #640, #280 ) ) ;
#732 = AXIS2_PLACEMENT_3D ( 'NONE', #724, #307, #1055 ) ;
#733 = DIRECTION ( 'NONE',  ( -1.000000000000000000, 1.224646799147353000E-016, 0.0000000000000000000 ) ) ;
#734 = FACE_OUTER_BOUND ( 'NONE', #786, .T. ) ;
#735 = DIRECTION ( 'NONE',  ( 0.0000000000000000000, 0.0000000000000000000, 1.000000000000000000 ) ) ;
#736 = EDGE_CURVE ( 'NONE', #119, #471, #860, .T. ) ;
#737 = CC_DESIGN_PERSON_AND_ORGANIZATION_ASSIGNMENT ( #853, #1075, ( #281 ) ) ;
#738 = VECTOR ( 'NONE', #36, 39.37007874015748100 ) ;
#739 = CARTESIAN_POINT ( 'NONE',  ( 0.2755905511811024300, -3.522547650101167200E-017, -0.09370078740157478100 ) ) ;
#740 = ORIENTED_EDGE ( 'NONE', *, *, #318, .T. ) ;
#741 = ORIENTED_EDGE ( 'NONE', *, *, #706, .F. ) ;
#742 = CARTESIAN_POINT ( 'NONE',  ( 0.0000000000000000000, -3.522547650101167200E-017, 0.09370078740157480900 ) ) ;
#743 = VERTEX_POINT ( 'NONE', #98 ) ;
#744 = CARTESIAN_POINT ( 'NONE',  ( -0.4109251968503949100, 1.509834620017154600E-017, -0.1322146919477583700 ) ) ;
#745 = APPLICATION_PROTOCOL_DEFINITION ( 'international standard', 'config_control_design', 1994, #163 ) ;
#746 = CARTESIAN_POINT ( 'NONE',  ( 0.2559055118110237800, -3.522547650101167200E-017, 0.1377952755905511600 ) ) ;
#747 = CARTESIAN_POINT ( 'NONE',  ( 0.0000000000000000000, -3.414809992080329000E-017, -0.02755905511811025000 ) ) ;
#748 = VECTOR ( 'NONE', #984, 39.37007874015748100 ) ;
#749 = CARTESIAN_POINT ( 'NONE',  ( 0.0000000000000000000, -6.829619984160658000E-017, -0.1279527559055119400 ) ) ;
#750 = EDGE_LOOP ( 'NONE', ( #550, #354, #381, #510 ) ) ;
#751 = EDGE_CURVE ( 'NONE', #573, #119, #976, .T. ) ;
#752 = ORIENTED_EDGE ( 'NONE', *, *, #497, .T. ) ;
#753 = CARTESIAN_POINT ( 'NONE',  ( 0.0000000000000000000, -3.414809992080329000E-017, -0.02755905511811025000 ) ) ;
#754 = EDGE_LOOP ( 'NONE', ( #435, #1082 ) ) ;
#755 = DIRECTION ( 'NONE',  ( 1.000000000000000000, 0.0000000000000000000, 0.0000000000000000000 ) ) ;
#756 = CARTESIAN_POINT ( 'NONE',  ( 0.0000000000000000000, -3.522547650101167200E-017, 0.07770669291338630500 ) ) ;
#757 = DIRECTION ( 'NONE',  ( 1.000000000000000000, 0.0000000000000000000, 0.0000000000000000000 ) ) ;
#758 = EDGE_CURVE ( 'NONE', #45, #158, #273, .T. ) ;
#759 = CARTESIAN_POINT ( 'NONE',  ( -0.4084645669291355200, 1.494767607232372200E-017, -0.1364766279900049300 ) ) ;
#760 = CIRCLE ( 'NONE', #992, 0.4109251968503949100 ) ;
#761 = CIRCLE ( 'NONE', #488, 0.009842519685039243300 ) ;
#762 = LOCAL_TIME ( 1, 39, 45.00000000000000000, #483 ) ;
#763 = ADVANCED_FACE ( 'NONE', ( #834 ), #1037, .T. ) ;
#764 = ORIENTED_EDGE ( 'NONE', *, *, #201, .T. ) ;
#765 = AXIS2_PLACEMENT_3D ( 'NONE', #124, #709, #635 ) ;
#766 = ORIENTED_EDGE ( 'NONE', *, *, #108, .F. ) ;
#767 = COORDINATED_UNIVERSAL_TIME_OFFSET ( 6, 0, .BEHIND. ) ;
#768 = DIRECTION ( 'NONE',  ( 1.224646799147353200E-016, 1.000000000000000000, -0.0000000000000000000 ) ) ;
#769 = CARTESIAN_POINT ( 'NONE',  ( 0.0000000000000000000, -3.522547650101167200E-017, -0.1322146919477583700 ) ) ;
#770 = EDGE_CURVE ( 'NONE', #653, #840, #807, .T. ) ;
#771 = CC_DESIGN_APPROVAL ( #820, ( #405 ) ) ;
#772 = DIRECTION ( 'NONE',  ( 0.0000000000000000000, 0.0000000000000000000, -1.000000000000000000 ) ) ;
#773 = ADVANCED_FACE ( 'NONE', ( #376 ), #127, .T. ) ;
#774 = CIRCLE ( 'NONE', #1008, 0.009842519685039243300 ) ;
#775 = CYLINDRICAL_SURFACE ( 'NONE', #270, 0.2559055118110237200 ) ;
#776 = VERTEX_POINT ( 'NONE', #850 ) ;
#777 = DIRECTION ( 'NONE',  ( 1.000000000000000000, 0.0000000000000000000, 0.0000000000000000000 ) ) ;
#778 = ORIENTED_EDGE ( 'NONE', *, *, #468, .T. ) ;
#779 = CARTESIAN_POINT ( 'NONE',  ( 0.4330708661417329600, -3.522547650101167200E-017, -0.1377952755905511600 ) ) ;
#780 = CARTESIAN_POINT ( 'NONE',  ( 0.0000000000000000000, -3.522547650101167200E-017, -0.04355314960629877400 ) ) ;
#781 = AXIS2_PLACEMENT_3D ( 'NONE', #822, #568, #1074 ) ;
#782 = FACE_OUTER_BOUND ( 'NONE', #852, .T. ) ;
#783 = CARTESIAN_POINT ( 'NONE',  ( 0.0000000000000000000, -3.522547650101167200E-017, -0.1377952755905509900 ) ) ;
#784 = CIRCLE ( 'NONE', #361, 0.01599409448818851400 ) ;
#785 = ORIENTED_EDGE ( 'NONE', *, *, #934, .F. ) ;
#786 = EDGE_LOOP ( 'NONE', ( #618, #85, #1030, #766 ) ) ;
#787 = PERSON_AND_ORGANIZATION ( #1041, #1079 ) ;
#788 = EDGE_CURVE ( 'NONE', #71, #694, #151, .T. ) ;
#789 = CC_DESIGN_SECURITY_CLASSIFICATION ( #936, ( #405 ) ) ;
#790 = CARTESIAN_POINT ( 'NONE',  ( 0.0000000000000000000, -3.414809992080329000E-017, -0.02755905511811025000 ) ) ;
#791 = AXIS2_PLACEMENT_3D ( 'NONE', #173, #8, #517 ) ;
#792 = CARTESIAN_POINT ( 'NONE',  ( 0.2755905511811024300, -3.522547650101167200E-017, -0.04355314960629877400 ) ) ;
#793 = CIRCLE ( 'NONE', #458, 0.4133858267716542500 ) ;
#794 = ORIENTED_EDGE ( 'NONE', *, *, #953, .T. ) ;
#795 = ORIENTED_EDGE ( 'NONE', *, *, #60, .F. ) ;
#796 = CIRCLE ( 'NONE', #446, 0.01599409448818853200 ) ;
#797 = ORIENTED_EDGE ( 'NONE', *, *, #147, .F. ) ;
#798 = ORIENTED_EDGE ( 'NONE', *, *, #710, .F. ) ;
#799 = AXIS2_PLACEMENT_3D ( 'NONE', #503, #667, #828 ) ;
#800 = AXIS2_PLACEMENT_3D ( 'NONE', #102, #537, #859 ) ;
#801 = CARTESIAN_POINT ( 'NONE',  ( 0.0000000000000000000, 0.2755905511811024300, 0.09370078740157478100 ) ) ;
#802 = CARTESIAN_POINT ( 'NONE',  ( 0.2362204724409449900, -3.522547650101167200E-017, -0.02755905511811025700 ) ) ;
#803 = CARTESIAN_POINT ( 'NONE',  ( 0.4330708661417329600, -6.829619984160658000E-017, 0.1181102362204723400 ) ) ;
#804 = EDGE_CURVE ( 'NONE', #371, #899, #1064, .T. ) ;
#805 = AXIS2_PLACEMENT_3D ( 'NONE', #1071, #490, #569 ) ;
#806 = DIRECTION ( 'NONE',  ( 0.0000000000000000000, 0.0000000000000000000, 1.000000000000000000 ) ) ;
#807 = LINE ( 'NONE', #413, #595 ) ;
#808 = VERTEX_POINT ( 'NONE', #844 ) ;
#809 = VERTEX_POINT ( 'NONE', #190 ) ;
#810 = VERTEX_POINT ( 'NONE', #19 ) ;
#811 = CIRCLE ( 'NONE', #217, 0.2595964566929139200 ) ;
#812 = ORIENTED_EDGE ( 'NONE', *, *, #373, .T. ) ;
#813 = MANIFOLD_SOLID_BREP ( 'Revolve2', #26 ) ;
#814 = CARTESIAN_POINT ( 'NONE',  ( 0.0000000000000000000, -6.829619984160658000E-017, -0.1279527559055118900 ) ) ;
#815 = AXIS2_PLACEMENT_3D ( 'NONE', #66, #717, #255 ) ;
#816 = DIRECTION ( 'NONE',  ( 1.000000000000000000, 0.0000000000000000000, 0.0000000000000000000 ) ) ;
#817 = CARTESIAN_POINT ( 'NONE',  ( -0.3973917322834656900, -1.962974854674976600E-017, 0.07770669291338627700 ) ) ;
#818 = APPROVAL_STATUS ( 'not_yet_approved' ) ;
#819 = EDGE_CURVE ( 'NONE', #1052, #956, #208, .T. ) ;
#820 = APPROVAL ( #829, 'UNSPECIFIED' ) ;
#821 = CIRCLE ( 'NONE', #293, 0.4133858267716542500 ) ;
#822 = CARTESIAN_POINT ( 'NONE',  ( 0.0000000000000000000, -3.414809992080329000E-017, -0.02755905511811025000 ) ) ;
#823 = ORIENTED_EDGE ( 'NONE', *, *, #660, .F. ) ;
#824 = CARTESIAN_POINT ( 'NONE',  ( 0.0000000000000000000, -3.522547650101167200E-017, -0.1377952755905511600 ) ) ;
#825 = DATE_AND_TIME ( #416, #639 ) ;
#826 = VERTEX_POINT ( 'NONE', #199 ) ;
#827 = ORIENTED_EDGE ( 'NONE', *, *, #592, .F. ) ;
#828 = DIRECTION ( 'NONE',  ( 1.000000000000000000, 0.0000000000000000000, 0.0000000000000000000 ) ) ;
#829 = APPROVAL_STATUS ( 'not_yet_approved' ) ;
#830 = CARTESIAN_POINT ( 'NONE',  ( 0.2755905511811024300, -3.414809992080329000E-017, -0.01156496062992172800 ) ) ;
#831 = ADVANCED_FACE ( 'NONE', ( #782 ), #189, .F. ) ;
#832 = CARTESIAN_POINT ( 'NONE',  ( 0.0000000000000000000, -3.522547650101167200E-017, 0.1181102362204723400 ) ) ;
#833 = DIRECTION ( 'NONE',  ( -1.000000000000000000, 1.224646799147354200E-016, 0.0000000000000000000 ) ) ;
#834 = FACE_OUTER_BOUND ( 'NONE', #339, .T. ) ;
#835 = DIRECTION ( 'NONE',  ( 0.0000000000000000000, -1.000000000000000000, 0.0000000000000000000 ) ) ;
#836 = ADVANCED_FACE ( 'NONE', ( #1010, #350 ), #359, .F. ) ;
#837 = ORIENTED_EDGE ( 'NONE', *, *, #656, .F. ) ;
#838 = AXIS2_PLACEMENT_3D ( 'NONE', #891, #164, #657 ) ;
#839 = DIRECTION ( 'NONE',  ( -1.000000000000000000, 1.224646799147353500E-016, 0.0000000000000000000 ) ) ;
#840 = VERTEX_POINT ( 'NONE', #283 ) ;
#841 = EDGE_LOOP ( 'NONE', ( #369, #597, #728, #586 ) ) ;
#842 = FACE_BOUND ( 'NONE', #383, .T. ) ;
#843 = ADVANCED_FACE ( 'NONE', ( #74 ), #303, .F. ) ;
#844 = CARTESIAN_POINT ( 'NONE',  ( -0.2362204724409449900, -5.091450931440960300E-018, -0.02755905511811025700 ) ) ;
#845 = EDGE_CURVE ( 'NONE', #134, #899, #796, .T. ) ;
#846 = CC_DESIGN_DATE_AND_TIME_ASSIGNMENT ( #264, #90, ( #309 ) ) ;
#847 = CARTESIAN_POINT ( 'NONE',  ( 0.0000000000000000000, -3.522547650101167200E-017, -0.1377952755905511600 ) ) ;
#848 = ADVANCED_FACE ( 'NONE', ( #39 ), #27, .F. ) ;
#849 = VECTOR ( 'NONE', #872, 39.37007874015748900 ) ;
#850 = CARTESIAN_POINT ( 'NONE',  ( 0.4133858267716542000, -6.829619984160658000E-017, -0.1377952755905511900 ) ) ;
#851 = CIRCLE ( 'NONE', #967, 0.2755905511811024300 ) ;
#852 = EDGE_LOOP ( 'NONE', ( #941, #355, #312, #898 ) ) ;
#853 = PERSON_AND_ORGANIZATION ( #1041, #1079 ) ;
#854 = ORIENTED_EDGE ( 'NONE', *, *, #331, .F. ) ;
#855 = EDGE_LOOP ( 'NONE', ( #1029, #1067, #494, #600 ) ) ;
#856 = ADVANCED_FACE ( 'NONE', ( #630 ), #876, .T. ) ;
#857 = DIRECTION ( 'NONE',  ( 1.000000000000000000, 0.0000000000000000000, 0.0000000000000000000 ) ) ;
#858 = AXIS2_PLACEMENT_3D ( 'NONE', #1022, #608, #1048 ) ;
#859 = DIRECTION ( 'NONE',  ( 1.000000000000000000, 0.0000000000000000000, 0.0000000000000000000 ) ) ;
#860 = LINE ( 'NONE', #1002, #647 ) ;
#861 = DIRECTION ( 'NONE',  ( 0.0000000000000000000, -1.000000000000000000, 0.0000000000000000000 ) ) ;
#862 = FACE_OUTER_BOUND ( 'NONE', #418, .T. ) ;
#863 = EDGE_CURVE ( 'NONE', #641, #743, #1044, .T. ) ;
#864 = AXIS2_PLACEMENT_3D ( 'NONE', #393, #486, #63 ) ;
#865 = CARTESIAN_POINT ( 'NONE',  ( 0.3973917322834656900, -3.522547650101167200E-017, 0.09370078740157478100 ) ) ;
#866 = ORIENTED_EDGE ( 'NONE', *, *, #88, .T. ) ;
#867 = EDGE_LOOP ( 'NONE', ( #980, #1056, #137, #942 ) ) ;
#868 = FACE_OUTER_BOUND ( 'NONE', #220, .T. ) ;
#869 = AXIS2_PLACEMENT_3D ( 'NONE', #832, #178, #428 ) ;
#870 = DIRECTION ( 'NONE',  ( 1.000000000000000000, 0.0000000000000000000, 0.0000000000000000000 ) ) ;
#871 = AXIS2_PLACEMENT_3D ( 'NONE', #545, #207, #552 ) ;
#872 = DIRECTION ( 'NONE',  ( 0.2852535947741888800, 3.493349017854865900E-017, -0.9584520784412764400 ) ) ;
#873 = VECTOR ( 'NONE', #313, 39.37007874015748100 ) ;
#874 = CIRCLE ( 'NONE', #547, 0.4133858267716542000 ) ;
#875 = VERTEX_POINT ( 'NONE', #802 ) ;
#876 = TOROIDAL_SURFACE ( 'NONE', #975, 0.2755905511811024300, 0.01599409448818852800 ) ;
#877 = EDGE_CURVE ( 'NONE', #314, #158, #460, .T. ) ;
#878 = ORIENTED_EDGE ( 'NONE', *, *, #1038, .F. ) ;
#879 = AXIS2_PLACEMENT_3D ( 'NONE', #51, #886, #239 ) ;
#880 = DIRECTION ( 'NONE',  ( 1.224646799147353200E-016, 1.000000000000000000, -0.0000000000000000000 ) ) ;
#881 = ORIENTED_EDGE ( 'NONE', *, *, #1020, .T. ) ;
#882 = DIRECTION ( 'NONE',  ( 1.000000000000000000, 0.0000000000000000000, 0.0000000000000000000 ) ) ;
#883 = DIRECTION ( 'NONE',  ( 0.0000000000000000000, 0.0000000000000000000, 1.000000000000000000 ) ) ;
#884 = CARTESIAN_POINT ( 'NONE',  ( -0.2755905511811024300, -1.475367863092476400E-018, -0.1377952755905511600 ) ) ;
#885 = FACE_OUTER_BOUND ( 'NONE', #131, .T. ) ;
#886 = DIRECTION ( 'NONE',  ( 0.0000000000000000000, 0.0000000000000000000, 1.000000000000000000 ) ) ;
#887 = CIRCLE ( 'NONE', #422, 0.3973917322834656900 ) ;
#888 = ORIENTED_EDGE ( 'NONE', *, *, #681, .F. ) ;
#889 = CIRCLE ( 'NONE', #554, 0.3973917322834656900 ) ;
#890 = AXIS2_PLACEMENT_3D ( 'NONE', #238, #666, #162 ) ;
#891 = CARTESIAN_POINT ( 'NONE',  ( 0.0000000000000000000, -3.522547650101167200E-017, -0.1279527559055118900 ) ) ;
#892 = DIRECTION ( 'NONE',  ( 0.0000000000000000000, 0.0000000000000000000, 1.000000000000000000 ) ) ;
#893 = DIRECTION ( 'NONE',  ( 0.0000000000000000000, 0.0000000000000000000, 1.000000000000000000 ) ) ;
#894 = EDGE_CURVE ( 'NONE', #289, #401, #889, .T. ) ;
#895 = CARTESIAN_POINT ( 'NONE',  ( 0.4133858267716542500, -3.522547650101167200E-017, 0.1377952755905511000 ) ) ;
#896 = CIRCLE ( 'NONE', #970, 0.4133858267716542500 ) ;
#897 = DIRECTION ( 'NONE',  ( 1.224646799147353200E-016, 1.000000000000000000, -0.0000000000000000000 ) ) ;
#898 = ORIENTED_EDGE ( 'NONE', *, *, #17, .F. ) ;
#899 = VERTEX_POINT ( 'NONE', #409 ) ;
#900 = DIRECTION ( 'NONE',  ( 1.000000000000000000, 0.0000000000000000000, 0.0000000000000000000 ) ) ;
#901 = ORIENTED_EDGE ( 'NONE', *, *, #553, .F. ) ;
#902 = DIRECTION ( 'NONE',  ( 0.0000000000000000000, 0.0000000000000000000, 1.000000000000000000 ) ) ;
#903 =( NAMED_UNIT ( * ) SI_UNIT ( $, .STERADIAN. ) SOLID_ANGLE_UNIT ( ) );
#904 = CARTESIAN_POINT ( 'NONE',  ( -0.4133858267716542000, -1.767103688472772800E-017, -0.1279527559055119400 ) ) ;
#905 = DIRECTION ( 'NONE',  ( 0.0000000000000000000, 0.0000000000000000000, 1.000000000000000000 ) ) ;
#906 = CARTESIAN_POINT ( 'NONE',  ( 0.2755905511811024300, -3.414809992080329000E-017, -0.02755905511811025000 ) ) ;
#907 = DIRECTION ( 'NONE',  ( 0.0000000000000000000, 0.0000000000000000000, 1.000000000000000000 ) ) ;
#908 = DIRECTION ( 'NONE',  ( -0.0000000000000000000, -0.0000000000000000000, 1.000000000000000000 ) ) ;
#909 = AXIS2_PLACEMENT_3D ( 'NONE', #619, #120, #205 ) ;
#910 = CIRCLE ( 'NONE', #675, 0.4084645669291355200 ) ;
#911 = CARTESIAN_POINT ( 'NONE',  ( -0.2755905511811024300, -3.979912828840977200E-019, -0.01156496062992172800 ) ) ;
#912 = FACE_OUTER_BOUND ( 'NONE', #662, .T. ) ;
#913 = EDGE_LOOP ( 'NONE', ( #854, #356, #812, #1025 ) ) ;
#914 = COORDINATED_UNIVERSAL_TIME_OFFSET ( 6, 0, .BEHIND. ) ;
#915 = DIRECTION ( 'NONE',  ( 0.0000000000000000000, 0.0000000000000000000, 1.000000000000000000 ) ) ;
#916 = ORIENTED_EDGE ( 'NONE', *, *, #278, .T. ) ;
#917 = ADVANCED_FACE ( 'NONE', ( #132 ), #931, .F. ) ;
#918 = EDGE_CURVE ( 'NONE', #358, #1052, #213, .T. ) ;
#919 = AXIS2_PLACEMENT_3D ( 'NONE', #665, #1004, #501 ) ;
#920 = DIRECTION ( 'NONE',  ( 0.0000000000000000000, 0.0000000000000000000, 1.000000000000000000 ) ) ;
#921 = CARTESIAN_POINT ( 'NONE',  ( -0.2915846456692909300, 1.560720379137941500E-018, -0.02755905511811025000 ) ) ;
#922 = LINE ( 'NONE', #80, #489 ) ;
#923 = DIRECTION ( 'NONE',  ( 0.0000000000000000000, 0.0000000000000000000, 1.000000000000000000 ) ) ;
#924 = CIRCLE ( 'NONE', #410, 0.4232283464566937700 ) ;
#925 = AXIS2_PLACEMENT_3D ( 'NONE', #41, #380, #539 ) ;
#926 = CARTESIAN_POINT ( 'NONE',  ( -0.2755905511811024300, -3.979912828840977200E-019, -0.02755905511811025000 ) ) ;
#927 = APPROVAL_PERSON_ORGANIZATION ( #1014, #521, #439 ) ;
#928 = ADVANCED_FACE ( 'NONE', ( #677 ), #982, .T. ) ;
#929 = EDGE_LOOP ( 'NONE', ( #172, #700, #35, #614 ) ) ;
#930 = EDGE_LOOP ( 'NONE', ( #233, #1000, #188, #703 ) ) ;
#931 = CONICAL_SURFACE ( 'NONE', #879, 0.2559055118110236700, 0.1609337392561785200 ) ;
#932 = DIRECTION ( 'NONE',  ( 0.0000000000000000000, 0.0000000000000000000, 1.000000000000000000 ) ) ;
#933 = ORIENTED_EDGE ( 'NONE', *, *, #306, .T. ) ;
#934 = EDGE_CURVE ( 'NONE', #103, #776, #574, .T. ) ;
#935 = ADVANCED_FACE ( 'NONE', ( #868 ), #198, .T. ) ;
#936 = SECURITY_CLASSIFICATION ( '', '', #514 ) ;
#937 = AXIS2_PLACEMENT_3D ( 'NONE', #906, #4, #425 ) ;
#938 = CIRCLE ( 'NONE', #475, 0.4109251968503949100 ) ;
#939 = DIRECTION ( 'NONE',  ( -0.0000000000000000000, -0.0000000000000000000, -1.000000000000000000 ) ) ;
#940 = CARTESIAN_POINT ( 'NONE',  ( 0.0000000000000000000, -3.522547650101167200E-017, -0.1364766279900049300 ) ) ;
#941 = ORIENTED_EDGE ( 'NONE', *, *, #216, .F. ) ;
#942 = ORIENTED_EDGE ( 'NONE', *, *, #519, .F. ) ;
#943 = COORDINATED_UNIVERSAL_TIME_OFFSET ( 6, 0, .BEHIND. ) ;
#944 = ORIENTED_EDGE ( 'NONE', *, *, #648, .F. ) ;
#945 = DIRECTION ( 'NONE',  ( 0.0000000000000000000, 0.0000000000000000000, 1.000000000000000000 ) ) ;
#946 = AXIS2_PLACEMENT_3D ( 'NONE', #663, #1070, #406 ) ;
#947 = DIRECTION ( 'NONE',  ( 1.000000000000000000, 0.0000000000000000000, 0.0000000000000000000 ) ) ;
#948 = DIRECTION ( 'NONE',  ( -1.000000000000000000, 1.224646799147352700E-016, 0.0000000000000000000 ) ) ;
#949 = CIRCLE ( 'NONE', #1034, 0.4133858267716542000 ) ;
#950 = DIRECTION ( 'NONE',  ( 0.0000000000000000000, 0.0000000000000000000, 1.000000000000000000 ) ) ;
#951 = CIRCLE ( 'NONE', #227, 0.01599409448818853900 ) ;
#952 = DATE_AND_TIME ( #101, #525 ) ;
#953 = EDGE_CURVE ( 'NONE', #810, #826, #551, .T. ) ;
#954 = CARTESIAN_POINT ( 'NONE',  ( -0.2559055118110236700, -3.886089908658134700E-018, 0.09370078740157480900 ) ) ;
#955 = ORIENTED_EDGE ( 'NONE', *, *, #934, .T. ) ;
#956 = VERTEX_POINT ( 'NONE', #803 ) ;
#957 = EDGE_LOOP ( 'NONE', ( #823, #1058, #562, #301 ) ) ;
#958 = CARTESIAN_POINT ( 'NONE',  ( 0.0000000000000000000, -3.522547650101167200E-017, 0.1377952755905511600 ) ) ;
#959 = CARTESIAN_POINT ( 'NONE',  ( 0.2559055118110237200, -3.522547650101167200E-017, -0.1377952755905511600 ) ) ;
#960 = MANIFOLD_SOLID_BREP ( 'Revolve1', #37 ) ;
#961 = AXIS2_PLACEMENT_3D ( 'NONE', #267, #835, #333 ) ;
#962 = DIRECTION ( 'NONE',  ( 1.000000000000000000, 0.0000000000000000000, 0.0000000000000000000 ) ) ;
#963 = DIRECTION ( 'NONE',  ( 0.0000000000000000000, 0.0000000000000000000, 1.000000000000000000 ) ) ;
#964 = FACE_OUTER_BOUND ( 'NONE', #841, .T. ) ;
#965 = CIRCLE ( 'NONE', #1047, 0.009842519685039276300 ) ;
#966 = ORIENTED_EDGE ( 'NONE', *, *, #147, .T. ) ;
#967 = AXIS2_PLACEMENT_3D ( 'NONE', #780, #297, #465 ) ;
#968 = ORIENTED_EDGE ( 'NONE', *, *, #53, .T. ) ;
#969 = CARTESIAN_POINT ( 'NONE',  ( 0.0000000000000000000, -6.829619984160658000E-017, -0.1279527559055118900 ) ) ;
#970 = AXIS2_PLACEMENT_3D ( 'NONE', #93, #347, #1006 ) ;
#971 = DIRECTION ( 'NONE',  ( 1.224646799147353200E-016, 1.000000000000000000, -0.0000000000000000000 ) ) ;
#972 = DIRECTION ( 'NONE',  ( 0.0000000000000000000, 0.0000000000000000000, 1.000000000000000000 ) ) ;
#973 = DIRECTION ( 'NONE',  ( 1.000000000000000000, 0.0000000000000000000, 0.0000000000000000000 ) ) ;
#974 = EDGE_CURVE ( 'NONE', #45, #1026, #436, .T. ) ;
#975 = AXIS2_PLACEMENT_3D ( 'NONE', #114, #24, #502 ) ;
#976 = CIRCLE ( 'NONE', #336, 0.2559055118110236700 ) ;
#977 = DIRECTION ( 'NONE',  ( -1.000000000000000000, 1.224646799147355200E-016, 0.0000000000000000000 ) ) ;
#978 = LINE ( 'NONE', #744, #99 ) ;
#979 = CARTESIAN_POINT ( 'NONE',  ( 0.2559055118110236700, -3.522547650101167200E-017, 0.09370078740157480900 ) ) ;
#980 = ORIENTED_EDGE ( 'NONE', *, *, #160, .T. ) ;
#981 = ORIENTED_EDGE ( 'NONE', *, *, #1073, .T. ) ;
#982 = TOROIDAL_SURFACE ( 'NONE', #387, 0.4232283464566937700, 0.009842519685039267600 ) ;
#983 = AXIS2_PLACEMENT_3D ( 'NONE', #958, #455, #947 ) ;
#984 = DIRECTION ( 'NONE',  ( 0.0000000000000000000, 0.0000000000000000000, 1.000000000000000000 ) ) ;
#985 = CARTESIAN_POINT ( 'NONE',  ( 0.2755905511811024300, -3.522547650101167200E-017, 0.09370078740157480900 ) ) ;
#986 = CARTESIAN_POINT ( 'NONE',  ( -0.2755905511811024300, -3.979912828840977200E-019, -0.02755905511811025000 ) ) ;
#987 = DIRECTION ( 'NONE',  ( -0.4999999999998984700, 6.123233995735522300E-017, 0.8660254037844971100 ) ) ;
#988 = DIRECTION ( 'NONE',  ( 0.0000000000000000000, 0.0000000000000000000, 1.000000000000000000 ) ) ;
#989 = DIRECTION ( 'NONE',  ( 0.0000000000000000000, 0.0000000000000000000, 1.000000000000000000 ) ) ;
#990 = EDGE_CURVE ( 'NONE', #1026, #743, #811, .T. ) ;
#991 = CC_DESIGN_PERSON_AND_ORGANIZATION_ASSIGNMENT ( #379, #9, ( #936 ) ) ;
#992 = AXIS2_PLACEMENT_3D ( 'NONE', #16, #907, #513 ) ;
#993 = DIRECTION ( 'NONE',  ( 1.000000000000000000, 0.0000000000000000000, 0.0000000000000000000 ) ) ;
#994 = FACE_OUTER_BOUND ( 'NONE', #631, .T. ) ;
#995 = DIRECTION ( 'NONE',  ( 1.000000000000000000, 0.0000000000000000000, 0.0000000000000000000 ) ) ;
#996 = APPLICATION_PROTOCOL_DEFINITION ( 'international standard', 'config_control_design', 1994, #674 ) ;
#997 = CIRCLE ( 'NONE', #696, 0.2559055118110236700 ) ;
#998 = ORIENTED_EDGE ( 'NONE', *, *, #845, .T. ) ;
#999 = CARTESIAN_POINT ( 'NONE',  ( 0.4084645669291355200, -3.522547650101167200E-017, -0.1364766279900049300 ) ) ;
#1000 = ORIENTED_EDGE ( 'NONE', *, *, #990, .T. ) ;
#1001 = EDGE_LOOP ( 'NONE', ( #57, #392, #481, #390 ) ) ;
#1002 = CARTESIAN_POINT ( 'NONE',  ( -0.2559055118110237200, -3.886089908658130800E-018, -0.1377952755905511600 ) ) ;
#1003 = EDGE_CURVE ( 'NONE', #840, #401, #716, .T. ) ;
#1004 = DIRECTION ( 'NONE',  ( 0.0000000000000000000, 0.0000000000000000000, 1.000000000000000000 ) ) ;
#1005 = DIRECTION ( 'NONE',  ( 0.0000000000000000000, 0.0000000000000000000, 1.000000000000000000 ) ) ;
#1006 = DIRECTION ( 'NONE',  ( 1.000000000000000000, 0.0000000000000000000, 0.0000000000000000000 ) ) ;
#1007 = PERSON_AND_ORGANIZATION_ROLE ( 'creator' ) ;
#1008 = AXIS2_PLACEMENT_3D ( 'NONE', #904, #417, #733 ) ;
#1009 = CARTESIAN_POINT ( 'NONE',  ( 0.0000000000000000000, -3.522547650101167200E-017, -0.1377952755905511600 ) ) ;
#1010 = FACE_BOUND ( 'NONE', #529, .T. ) ;
#1011 = ADVANCED_FACE ( 'NONE', ( #601, #842 ), #487, .F. ) ;
#1012 = CIRCLE ( 'NONE', #909, 0.004921259842519553100 ) ;
#1013 = CARTESIAN_POINT ( 'NONE',  ( 0.0000000000000000000, -3.414809992080329000E-017, -0.02755905511811025000 ) ) ;
#1014 = PERSON_AND_ORGANIZATION ( #1041, #1079 ) ;
#1015 = ORIENTED_EDGE ( 'NONE', *, *, #53, .F. ) ;
#1016 = ORIENTED_EDGE ( 'NONE', *, *, #632, .T. ) ;
#1017 = DIRECTION ( 'NONE',  ( 1.000000000000000000, 0.0000000000000000000, 0.0000000000000000000 ) ) ;
#1018 = DESIGN_CONTEXT ( 'detailed design', #163, 'design' ) ;
#1019 = DIRECTION ( 'NONE',  ( -0.0000000000000000000, 0.0000000000000000000, -1.000000000000000000 ) ) ;
#1020 = EDGE_CURVE ( 'NONE', #73, #134, #170, .T. ) ;
#1021 = ADVANCED_FACE ( 'NONE', ( #14, #159 ), #576, .F. ) ;
#1022 = CARTESIAN_POINT ( 'NONE',  ( 0.0000000000000000000, -3.522547650101167200E-017, -0.01156496062992172800 ) ) ;
#1023 = DIRECTION ( 'NONE',  ( 1.000000000000000000, 0.0000000000000000000, 0.0000000000000000000 ) ) ;
#1024 = FACE_OUTER_BOUND ( 'NONE', #754, .T. ) ;
#1025 = ORIENTED_EDGE ( 'NONE', *, *, #751, .T. ) ;
#1026 = VERTEX_POINT ( 'NONE', #176 ) ;
#1027 = PERSON_AND_ORGANIZATION ( #1041, #1079 ) ;
#1028 = CARTESIAN_POINT ( 'NONE',  ( 0.0000000000000000000, 0.4133858267716542000, 0.1377952755905511600 ) ) ;
#1029 = ORIENTED_EDGE ( 'NONE', *, *, #541, .F. ) ;
#1030 = ORIENTED_EDGE ( 'NONE', *, *, #519, .T. ) ;
#1031 = ADVANCED_FACE ( 'NONE', ( #690 ), #330, .F. ) ;
#1032 = DIRECTION ( 'NONE',  ( 1.000000000000000000, 0.0000000000000000000, 0.0000000000000000000 ) ) ;
#1033 = AXIS2_PLACEMENT_3D ( 'NONE', #287, #121, #870 ) ;
#1034 = AXIS2_PLACEMENT_3D ( 'NONE', #175, #902, #166 ) ;
#1035 = DIRECTION ( 'NONE',  ( -1.000000000000000000, 1.224646799147354200E-016, 0.0000000000000000000 ) ) ;
#1036 = CARTESIAN_POINT ( 'NONE',  ( 0.0000000000000000000, -3.414809992080329000E-017, -0.02755905511811025000 ) ) ;
#1037 = TOROIDAL_SURFACE ( 'NONE', #506, 0.4133858267716542500, 0.01968503937007868100 ) ;
#1038 = EDGE_CURVE ( 'NONE', #73, #371, #654, .T. ) ;
#1039 = AXIS2_PLACEMENT_3D ( 'NONE', #847, #191, #193 ) ;
#1040 = ORIENTED_EDGE ( 'NONE', *, *, #566, .F. ) ;
#1041 = PERSON ( 'UNSPECIFIED', 'UNSPECIFIED', 'UNSPECIFIED', ('UNSPECIFIED'), ('UNSPECIFIED'), ('UNSPECIFIED') ) ;
#1042 = ORIENTED_EDGE ( 'NONE', *, *, #138, .T. ) ;
#1043 = VERTEX_POINT ( 'NONE', #746 ) ;
#1044 = CIRCLE ( 'NONE', #186, 0.01599409448818851400 ) ;
#1045 = DIRECTION ( 'NONE',  ( 0.0000000000000000000, 0.0000000000000000000, -1.000000000000000000 ) ) ;
#1046 = CARTESIAN_POINT ( 'NONE',  ( -0.4133858267716542500, -1.767103688472771900E-017, 0.1181102362204723800 ) ) ;
#1047 = AXIS2_PLACEMENT_3D ( 'NONE', #698, #113, #203 ) ;
#1048 = DIRECTION ( 'NONE',  ( 1.000000000000000000, 0.0000000000000000000, 0.0000000000000000000 ) ) ;
#1049 = DIRECTION ( 'NONE',  ( 0.0000000000000000000, 0.0000000000000000000, 1.000000000000000000 ) ) ;
#1050 = LINE ( 'NONE', #779, #524 ) ;
#1051 = DIRECTION ( 'NONE',  ( 0.4999999999998984700, 0.0000000000000000000, 0.8660254037844971100 ) ) ;
#1052 = VERTEX_POINT ( 'NONE', #5 ) ;
#1053 = EDGE_CURVE ( 'NONE', #641, #45, #266, .T. ) ;
#1054 =( GEOMETRIC_REPRESENTATION_CONTEXT ( 3 ) GLOBAL_UNCERTAINTY_ASSIGNED_CONTEXT ( ( #727 ) ) GLOBAL_UNIT_ASSIGNED_CONTEXT ( ( #81, #668, #903 ) ) REPRESENTATION_CONTEXT ( 'NONE', 'WORKASPACE' ) );
#1055 = DIRECTION ( 'NONE',  ( -1.000000000000000000, 0.0000000000000000000, 0.0000000000000000000 ) ) ;
#1056 = ORIENTED_EDGE ( 'NONE', *, *, #463, .T. ) ;
#1057 = LENGTH_MEASURE_WITH_UNIT ( LENGTH_MEASURE( 0.02539999999999999900 ), #430 );
#1058 = ORIENTED_EDGE ( 'NONE', *, *, #609, .F. ) ;
#1059 = VERTEX_POINT ( 'NONE', #246 ) ;
#1060 = DIRECTION ( 'NONE',  ( 0.0000000000000000000, 0.0000000000000000000, 1.000000000000000000 ) ) ;
#1061 = EDGE_CURVE ( 'NONE', #119, #573, #403, .T. ) ;
#1062 = PLANE ( 'NONE',  #6 ) ;
#1063 = CARTESIAN_POINT ( 'NONE',  ( 0.0000000000000000000, -3.522547650101167200E-017, -0.1322146919477583700 ) ) ;
#1064 = CIRCLE ( 'NONE', #464, 0.2595964566929139200 ) ;
#1065 = CIRCLE ( 'NONE', #366, 0.01599409448818851400 ) ;
#1066 = DIRECTION ( 'NONE',  ( 0.0000000000000000000, 0.0000000000000000000, 1.000000000000000000 ) ) ;
#1067 = ORIENTED_EDGE ( 'NONE', *, *, #770, .T. ) ;
#1068 = AXIS2_PLACEMENT_3D ( 'NONE', #334, #575, #408 ) ;
#1069 = ORIENTED_EDGE ( 'NONE', *, *, #125, .T. ) ;
#1070 = DIRECTION ( 'NONE',  ( 0.0000000000000000000, 0.0000000000000000000, 1.000000000000000000 ) ) ;
#1071 = CARTESIAN_POINT ( 'NONE',  ( 0.0000000000000000000, 0.4133858267716541400, -0.1377952755905510800 ) ) ;
#1072 = DIRECTION ( 'NONE',  ( 0.0000000000000000000, 0.0000000000000000000, -1.000000000000000000 ) ) ;
#1073 = EDGE_CURVE ( 'NONE', #808, #875, #470, .T. ) ;
#1074 = DIRECTION ( 'NONE',  ( 1.000000000000000000, 0.0000000000000000000, 0.0000000000000000000 ) ) ;
#1075 = PERSON_AND_ORGANIZATION_ROLE ( 'design_owner' ) ;
#1076 = CIRCLE ( 'NONE', #214, 0.01968503937007869100 ) ;
#1077 = CYLINDRICAL_SURFACE ( 'NONE', #348, 0.2755905511811024300 ) ;
#1078 = EDGE_LOOP ( 'NONE', ( #511, #315, #837, #469 ) ) ;
#1079 = ORGANIZATION ( 'UNSPECIFIED', 'UNSPECIFIED', '' ) ;
#1080 = PERSON_AND_ORGANIZATION_ROLE ( 'creator' ) ;
#1081 = ORIENTED_EDGE ( 'NONE', *, *, #632, .F. ) ;
#1082 = ORIENTED_EDGE ( 'NONE', *, *, #40, .F. ) ;
ENDSEC;
END-ISO-10303-21;
