ISO-10303-21;
HEADER;
FILE_DESCRIPTION (( 'STEP AP203' ),
    '1' );
FILE_NAME ('91580A211_Internal Retaining Ring.STEP',
    '2021-09-08T22:50:53',
    ( 'Administrator' ),
    ( 'Managed by Terraform' ),
    'SwSTEP 2.0',
    'SolidWorks 2017',
    '' );
FILE_SCHEMA (( 'CONFIG_CONTROL_DESIGN' ));
ENDSEC;

DATA;
#1 = DIRECTION ( 'NONE',  ( 3.414809992080330600E-014, 0.0000000000000000000, -1.000000000000000000 ) ) ;
#2 = FACE_BOUND ( 'NONE', #583, .T. ) ;
#3 = ORIENTED_EDGE ( 'NONE', *, *, #26, .T. ) ;
#4 = DATE_AND_TIME ( #549, #37 ) ;
#5 = CIRCLE ( 'NONE', #226, 0.009999999999999995000 ) ;
#6 = CARTESIAN_POINT ( 'NONE',  ( 0.2347644443969554600, -0.04200000000000001000, 0.5034539756988605200 ) ) ;
#7 = AXIS2_PLACEMENT_3D ( 'NONE', #515, #615, #144 ) ;
#8 = CARTESIAN_POINT ( 'NONE',  ( -0.3774938363754825100, 0.0000000000000000000, 0.3263756538707037200 ) ) ;
#9 = DIRECTION ( 'NONE',  ( 0.0000000000000000000, 0.0000000000000000000, -1.000000000000000000 ) ) ;
#10 = CARTESIAN_POINT ( 'NONE',  ( 0.2695775211805872500, 0.0000000000000000000, 0.3947302370912696400 ) ) ;
#11 = CIRCLE ( 'NONE', #377, 0.009999999999999995000 ) ;
#12 = EDGE_CURVE ( 'NONE', #327, #418, #378, .T. ) ;
#13 = CARTESIAN_POINT ( 'NONE',  ( 0.3783653938029596400, 0.0000000000000000000, 0.3264137068897871600 ) ) ;
#14 = PERSON_AND_ORGANIZATION_ROLE ( 'creator' ) ;
#15 = APPROVAL_ROLE ( '' ) ;
#16 = AXIS2_PLACEMENT_3D ( 'NONE', #366, #318, #385 ) ;
#17 = ORIENTED_EDGE ( 'NONE', *, *, #112, .T. ) ;
#18 = ORIENTED_EDGE ( 'NONE', *, *, #43, .F. ) ;
#19 = VECTOR ( 'NONE', #303, 39.37007874015748900 ) ;
#20 = CARTESIAN_POINT ( 'NONE',  ( 0.3829848181411142400, 0.0000000000000000000, 0.3268560525268248700 ) ) ;
#21 = FACE_OUTER_BOUND ( 'NONE', #347, .T. ) ;
#22 = AXIS2_PLACEMENT_3D ( 'NONE', #238, #604, #653 ) ;
#23 = EDGE_LOOP ( 'NONE', ( #601, #106, #356, #662 ) ) ;
#24 = ORIENTED_EDGE ( 'NONE', *, *, #235, .F. ) ;
#25 = VECTOR ( 'NONE', #214, 39.37007874015748100 ) ;
#26 = EDGE_CURVE ( 'NONE', #116, #306, #582, .T. ) ;
#27 = CARTESIAN_POINT ( 'NONE',  ( 0.3783653938029596400, -0.04200000000000001000, 0.3264137068897871600 ) ) ;
#28 = ORIENTED_EDGE ( 'NONE', *, *, #490, .T. ) ;
#29 = ORIENTED_EDGE ( 'NONE', *, *, #468, .F. ) ;
#30 = ORIENTED_EDGE ( 'NONE', *, *, #59, .F. ) ;
#31 =( GEOMETRIC_REPRESENTATION_CONTEXT ( 3 ) GLOBAL_UNCERTAINTY_ASSIGNED_CONTEXT ( ( #433 ) ) GLOBAL_UNIT_ASSIGNED_CONTEXT ( ( #532, #425, #369 ) ) REPRESENTATION_CONTEXT ( 'NONE', 'WORKASPACE' ) );
#32 = FACE_OUTER_BOUND ( 'NONE', #179, .T. ) ;
#33 = CARTESIAN_POINT ( 'NONE',  ( 0.2695775211805872500, -0.04200000000000001000, 0.4257302370912697300 ) ) ;
#34 = VERTEX_POINT ( 'NONE', #208 ) ;
#35 = CARTESIAN_POINT ( 'NONE',  ( -0.3829848181411138500, 0.0000000000000000000, 0.3268560525268239800 ) ) ;
#36 = CARTESIAN_POINT ( 'NONE',  ( 0.3829848181411142400, -0.04200000000000001000, 0.3268560525268248700 ) ) ;
#37 = LOCAL_TIME ( 17, 50, 53.00000000000000000, #590 ) ;
#38 = CIRCLE ( 'NONE', #231, 0.03099999999999995500 ) ;
#39 = CARTESIAN_POINT ( 'NONE',  ( 0.2695775211805872500, -0.04200000000000001000, 0.3637302370912698400 ) ) ;
#40 = DIRECTION ( 'NONE',  ( 0.0000000000000000000, 0.0000000000000000000, 1.000000000000000000 ) ) ;
#41 = CARTESIAN_POINT ( 'NONE',  ( -0.2695775211805872500, 0.0000000000000000000, 0.4257302370912696100 ) ) ;
#42 = CARTESIAN_POINT ( 'NONE',  ( -0.3774938363754825100, -0.04200000000000001000, 0.3263756538707037200 ) ) ;
#43 = EDGE_CURVE ( 'NONE', #477, #390, #175, .T. ) ;
#44 = DIMENSIONAL_EXPONENTS ( 1.000000000000000000, 0.0000000000000000000, 0.0000000000000000000, 0.0000000000000000000, 0.0000000000000000000, 0.0000000000000000000, 0.0000000000000000000 ) ;
#45 = VECTOR ( 'NONE', #431, 39.37007874015748900 ) ;
#46 = CARTESIAN_POINT ( 'NONE',  ( -0.2695775211805872500, -0.04200000000000001000, 0.3947302370912696400 ) ) ;
#47 = ORIENTED_EDGE ( 'NONE', *, *, #456, .T. ) ;
#48 = DIRECTION ( 'NONE',  ( 0.0000000000000000000, 1.000000000000000000, 0.0000000000000000000 ) ) ;
#49 = CARTESIAN_POINT ( 'NONE',  ( -0.2763320912435304800, 0.0000000000000000000, 0.3175251479891592600 ) ) ;
#50 = LENGTH_MEASURE_WITH_UNIT ( LENGTH_MEASURE( 0.02539999999999999900 ), #317 );
#51 = AXIS2_PLACEMENT_3D ( 'NONE', #399, #93, #629 ) ;
#52 = CARTESIAN_POINT ( 'NONE',  ( 0.2695775211805872500, 0.0000000000000000000, 0.3947302370912697500 ) ) ;
#53 = ORIENTED_EDGE ( 'NONE', *, *, #633, .T. ) ;
#54 = CARTESIAN_POINT ( 'NONE',  ( -0.3829848181411138500, -0.04200000000000001000, 0.3268560525268239800 ) ) ;
#55 = LOCAL_TIME ( 17, 50, 53.00000000000000000, #76 ) ;
#56 = VECTOR ( 'NONE', #355, 39.37007874015748100 ) ;
#57 = CARTESIAN_POINT ( 'NONE',  ( 5.375708469151022600E-016, 0.0000000000000000000, 0.03190056776637512800 ) ) ;
#58 = AXIS2_PLACEMENT_3D ( 'NONE', #575, #308, #164 ) ;
#59 = EDGE_CURVE ( 'NONE', #409, #649, #331, .T. ) ;
#60 = ORIENTED_EDGE ( 'NONE', *, *, #479, .T. ) ;
#61 = DIRECTION ( 'NONE',  ( 0.4226182617406941100, -0.0000000000000000000, 0.9063077870366522700 ) ) ;
#62 = ORIENTED_EDGE ( 'NONE', *, *, #647, .F. ) ;
#63 = PERSON_AND_ORGANIZATION ( #209, #332 ) ;
#64 = DIRECTION ( 'NONE',  ( -0.0000000000000000000, 1.000000000000000000, -0.0000000000000000000 ) ) ;
#65 = CARTESIAN_POINT ( 'NONE',  ( -0.3863578935920528600, -0.04200000000000001000, 0.3224236941710820800 ) ) ;
#66 = DIRECTION ( 'NONE',  ( -0.0000000000000000000, -1.000000000000000000, -0.0000000000000000000 ) ) ;
#67 = CC_DESIGN_PERSON_AND_ORGANIZATION_ASSIGNMENT ( #624, #114, ( #176 ) ) ;
#68 = LINE ( 'NONE', #599, #484 ) ;
#69 = ORIENTED_EDGE ( 'NONE', *, *, #386, .F. ) ;
#70 = LINE ( 'NONE', #570, #19 ) ;
#71 = EDGE_CURVE ( 'NONE', #418, #210, #451, .T. ) ;
#72 = CARTESIAN_POINT ( 'NONE',  ( -0.3829848181411138500, -0.04200000000000001000, 0.3268560525268239800 ) ) ;
#73 = EDGE_CURVE ( 'NONE', #252, #467, #309, .T. ) ;
#74 = ORIENTED_EDGE ( 'NONE', *, *, #71, .T. ) ;
#75 = CARTESIAN_POINT ( 'NONE',  ( -0.2695775211805872500, 0.0000000000000000000, 0.3637302370912696700 ) ) ;
#76 = COORDINATED_UNIVERSAL_TIME_OFFSET ( 6, 0, .BEHIND. ) ;
#77 = AXIS2_PLACEMENT_3D ( 'NONE', #632, #340, #246 ) ;
#78 = DIRECTION ( 'NONE',  ( 0.0000000000000000000, 1.000000000000000000, 0.0000000000000000000 ) ) ;
#79 = DIRECTION ( 'NONE',  ( 0.0000000000000000000, 0.0000000000000000000, -1.000000000000000000 ) ) ;
#80 = CARTESIAN_POINT ( 'NONE',  ( -0.2347644443969557300, 0.0000000000000000000, 0.5034539756988604100 ) ) ;
#81 = LINE ( 'NONE', #656, #353 ) ;
#82 = ORIENTED_EDGE ( 'NONE', *, *, #440, .F. ) ;
#83 = APPROVAL_PERSON_ORGANIZATION ( #357, #581, #587 ) ;
#84 = DESIGN_CONTEXT ( 'detailed design', #166, 'design' ) ;
#85 = DIRECTION ( 'NONE',  ( -0.9063077870366524900, 0.0000000000000000000, 0.4226182617406942200 ) ) ;
#86 = ADVANCED_FACE ( 'NONE', ( #449 ), #100, .T. ) ;
#87 = VECTOR ( 'NONE', #404, 39.37007874015748100 ) ;
#88 = CARTESIAN_POINT ( 'NONE',  ( 0.0000000000000000000, 0.0000000000000000000, 0.0000000000000000000 ) ) ;
#89 = CARTESIAN_POINT ( 'NONE',  ( 0.1993386676852466300, -0.04200000000000001000, 0.4274831523761734600 ) ) ;
#90 = DIRECTION ( 'NONE',  ( -0.9961946980917456600, -0.0000000000000000000, 0.08715574274765605600 ) ) ;
#91 = AXIS2_PLACEMENT_3D ( 'NONE', #551, #141, #395 ) ;
#92 = ADVANCED_FACE ( 'NONE', ( #239 ), #435, .F. ) ;
#93 = DIRECTION ( 'NONE',  ( 0.0000000000000000000, 1.000000000000000000, 0.0000000000000000000 ) ) ;
#94 = DIRECTION ( 'NONE',  ( 0.0000000000000000000, 0.0000000000000000000, -1.000000000000000000 ) ) ;
#95 = CARTESIAN_POINT ( 'NONE',  ( 0.3783653938029596400, -0.04200000000000001000, 0.3164137068897871500 ) ) ;
#96 = ADVANCED_FACE ( 'NONE', ( #576 ), #370, .T. ) ;
#97 = ORIENTED_EDGE ( 'NONE', *, *, #219, .F. ) ;
#98 = VERTEX_POINT ( 'NONE', #227 ) ;
#99 = EDGE_CURVE ( 'NONE', #279, #205, #177, .T. ) ;
#100 = PLANE ( 'NONE',  #278 ) ;
#101 = CIRCLE ( 'NONE', #51, 0.03099999999999995500 ) ;
#102 = CARTESIAN_POINT ( 'NONE',  ( 0.3783653938029596400, -0.04200000000000001000, 0.3164137068897871500 ) ) ;
#103 = ORIENTED_EDGE ( 'NONE', *, *, #443, .F. ) ;
#104 = DIRECTION ( 'NONE',  ( 0.0000000000000000000, 0.0000000000000000000, 1.000000000000000000 ) ) ;
#105 = FACE_OUTER_BOUND ( 'NONE', #301, .T. ) ;
#106 = ORIENTED_EDGE ( 'NONE', *, *, #577, .T. ) ;
#107 = CARTESIAN_POINT ( 'NONE',  ( -0.2347644443969557300, -0.04200000000000001000, 0.5034539756988604100 ) ) ;
#108 = CC_DESIGN_DATE_AND_TIME_ASSIGNMENT ( #283, #218, ( #326 ) ) ;
#109 = VECTOR ( 'NONE', #258, 39.37007874015748100 ) ;
#110 = DIRECTION ( 'NONE',  ( 0.0000000000000000000, 1.000000000000000000, 0.0000000000000000000 ) ) ;
#111 = ORIENTED_EDGE ( 'NONE', *, *, #606, .F. ) ;
#112 = EDGE_CURVE ( 'NONE', #34, #271, #657, .T. ) ;
#113 = DIRECTION ( 'NONE',  ( 0.0000000000000000000, 1.000000000000000000, 0.0000000000000000000 ) ) ;
#114 = PERSON_AND_ORGANIZATION_ROLE ( 'classification_officer' ) ;
#115 = VERTEX_POINT ( 'NONE', #236 ) ;
#116 = VERTEX_POINT ( 'NONE', #174 ) ;
#117 = AXIS2_PLACEMENT_3D ( 'NONE', #120, #225, #638 ) ;
#118 = FACE_OUTER_BOUND ( 'NONE', #23, .T. ) ;
#119 = MECHANICAL_CONTEXT ( 'NONE', #172, 'mechanical' ) ;
#120 = CARTESIAN_POINT ( 'NONE',  ( 0.2695775211805872500, -0.04200000000000001000, 0.3947302370912697500 ) ) ;
#121 = AXIS2_PLACEMENT_3D ( 'NONE', #454, #664, #344 ) ;
#122 = DIRECTION ( 'NONE',  ( 1.000000000000000000, 0.0000000000000000000, 0.0000000000000000000 ) ) ;
#123 = FACE_BOUND ( 'NONE', #125, .T. ) ;
#124 = ORIENTED_EDGE ( 'NONE', *, *, #397, .T. ) ;
#125 = EDGE_LOOP ( 'NONE', ( #470, #17 ) ) ;
#126 = VERTEX_POINT ( 'NONE', #80 ) ;
#127 = DIRECTION ( 'NONE',  ( 0.4226182617406941100, 0.0000000000000000000, -0.9063077870366522700 ) ) ;
#128 = VECTOR ( 'NONE', #66, 39.37007874015748100 ) ;
#129 = LINE ( 'NONE', #216, #422 ) ;
#130 = DIRECTION ( 'NONE',  ( 0.0000000000000000000, 0.0000000000000000000, 1.000000000000000000 ) ) ;
#131 = AXIS2_PLACEMENT_3D ( 'NONE', #297, #288, #500 ) ;
#132 = VERTEX_POINT ( 'NONE', #75 ) ;
#133 = CIRCLE ( 'NONE', #495, 0.009999999999999995000 ) ;
#134 = PLANE ( 'NONE',  #544 ) ;
#135 = VECTOR ( 'NONE', #251, 39.37007874015748100 ) ;
#136 = ORIENTED_EDGE ( 'NONE', *, *, #73, .T. ) ;
#137 = PERSON_AND_ORGANIZATION ( #209, #332 ) ;
#138 = CIRCLE ( 'NONE', #157, 0.5555000000000001000 ) ;
#139 = DIRECTION ( 'NONE',  ( -0.0000000000000000000, 1.000000000000000000, -0.0000000000000000000 ) ) ;
#140 = CC_DESIGN_DATE_AND_TIME_ASSIGNMENT ( #180, #636, ( #176 ) ) ;
#141 = DIRECTION ( 'NONE',  ( 0.0000000000000000000, -1.000000000000000000, 0.0000000000000000000 ) ) ;
#142 = CARTESIAN_POINT ( 'NONE',  ( 0.3863578935920533600, -0.04200000000000001000, 0.3224236941710829100 ) ) ;
#143 = DIRECTION ( 'NONE',  ( 0.0000000000000000000, 1.000000000000000000, 0.0000000000000000000 ) ) ;
#144 = DIRECTION ( 'NONE',  ( 0.0000000000000000000, 0.0000000000000000000, 1.000000000000000000 ) ) ;
#145 = ADVANCED_FACE ( 'NONE', ( #105 ), #597, .T. ) ;
#146 = AXIS2_PLACEMENT_3D ( 'NONE', #498, #85, #554 ) ;
#147 = DIRECTION ( 'NONE',  ( 0.0000000000000000000, 1.000000000000000000, 0.0000000000000000000 ) ) ;
#148 = LINE ( 'NONE', #35, #471 ) ;
#149 = DIRECTION ( 'NONE',  ( 0.08715574274766184300, 0.0000000000000000000, -0.9961946980917452100 ) ) ;
#150 = ADVANCED_FACE ( 'NONE', ( #32 ), #289, .F. ) ;
#151 = DIRECTION ( 'NONE',  ( 0.0000000000000000000, -1.000000000000000000, 0.0000000000000000000 ) ) ;
#152 = EDGE_CURVE ( 'NONE', #116, #252, #211, .T. ) ;
#153 = ORIENTED_EDGE ( 'NONE', *, *, #314, .T. ) ;
#154 = PLANE ( 'NONE',  #650 ) ;
#155 = ORIENTED_EDGE ( 'NONE', *, *, #182, .T. ) ;
#156 = ORIENTED_EDGE ( 'NONE', *, *, #368, .T. ) ;
#157 = AXIS2_PLACEMENT_3D ( 'NONE', #88, #300, #396 ) ;
#158 = LINE ( 'NONE', #8, #25 ) ;
#159 = DIRECTION ( 'NONE',  ( -0.0000000000000000000, 1.000000000000000000, -0.0000000000000000000 ) ) ;
#160 = VECTOR ( 'NONE', #183, 39.37007874015748900 ) ;
#161 = DIRECTION ( 'NONE',  ( -0.0000000000000000000, 1.000000000000000000, -0.0000000000000000000 ) ) ;
#162 = DATE_AND_TIME ( #311, #336 ) ;
#163 = AXIS2_PLACEMENT_3D ( 'NONE', #557, #185, #652 ) ;
#164 = DIRECTION ( 'NONE',  ( 0.0000000000000000000, 0.0000000000000000000, 1.000000000000000000 ) ) ;
#165 = LINE ( 'NONE', #107, #109 ) ;
#166 = APPLICATION_CONTEXT ( 'configuration controlled 3d designs of mechanical parts and assemblies' ) ;
#167 = EDGE_CURVE ( 'NONE', #541, #536, #619, .T. ) ;
#168 = CARTESIAN_POINT ( 'NONE',  ( 0.2347644443969554600, 0.0000000000000000000, 0.5034539756988605200 ) ) ;
#169 = CARTESIAN_POINT ( 'NONE',  ( -0.3783653938029590800, -0.04200000000000001000, 0.3164137068897862600 ) ) ;
#170 = VERTEX_POINT ( 'NONE', #442 ) ;
#171 = VERTEX_POINT ( 'NONE', #49 ) ;
#172 = APPLICATION_CONTEXT ( 'configuration controlled 3d designs of mechanical parts and assemblies' ) ;
#173 = APPROVAL_STATUS ( 'not_yet_approved' ) ;
#174 = CARTESIAN_POINT ( 'NONE',  ( 0.1993386676852466300, -0.04200000000000001000, 0.4274831523761734600 ) ) ;
#175 = LINE ( 'NONE', #65, #128 ) ;
#176 = SECURITY_CLASSIFICATION ( '', '', #640 ) ;
#177 = LINE ( 'NONE', #72, #160 ) ;
#178 = EDGE_LOOP ( 'NONE', ( #635, #196, #476, #529 ) ) ;
#179 = EDGE_LOOP ( 'NONE', ( #613, #69, #18, #595 ) ) ;
#180 = DATE_AND_TIME ( #411, #55 ) ;
#181 = FACE_BOUND ( 'NONE', #436, .T. ) ;
#182 = EDGE_CURVE ( 'NONE', #346, #132, #589, .T. ) ;
#183 = DIRECTION ( 'NONE',  ( -0.9961946980917456600, -0.0000000000000000000, 0.08715574274765605600 ) ) ;
#184 = DIRECTION ( 'NONE',  ( 0.0000000000000000000, 1.000000000000000000, 0.0000000000000000000 ) ) ;
#185 = DIRECTION ( 'NONE',  ( -0.0000000000000000000, -1.000000000000000000, -0.0000000000000000000 ) ) ;
#186 = EDGE_CURVE ( 'NONE', #381, #327, #641, .T. ) ;
#187 = ORIENTED_EDGE ( 'NONE', *, *, #235, .T. ) ;
#188 = ORIENTED_EDGE ( 'NONE', *, *, #152, .F. ) ;
#189 = AXIS2_PLACEMENT_3D ( 'NONE', #663, #139, #79 ) ;
#190 = DIRECTION ( 'NONE',  ( 0.0000000000000000000, 0.0000000000000000000, 1.000000000000000000 ) ) ;
#191 = PLANE ( 'NONE',  #91 ) ;
#192 = LINE ( 'NONE', #445, #496 ) ;
#193 = ORIENTED_EDGE ( 'NONE', *, *, #343, .T. ) ;
#194 = CARTESIAN_POINT ( 'NONE',  ( -0.2695775211805872500, -0.04200000000000001000, 0.3947302370912696400 ) ) ;
#195 = PERSON_AND_ORGANIZATION ( #209, #332 ) ;
#196 = ORIENTED_EDGE ( 'NONE', *, *, #423, .T. ) ;
#197 = CIRCLE ( 'NONE', #591, 0.07749999999999999900 ) ;
#198 = CARTESIAN_POINT ( 'NONE',  ( 0.3783653938029596400, 0.0000000000000000000, 0.3164137068897871500 ) ) ;
#199 = AXIS2_PLACEMENT_3D ( 'NONE', #660, #250, #339 ) ;
#200 = CARTESIAN_POINT ( 'NONE',  ( -0.2695775211805872500, 0.0000000000000000000, 0.3947302370912696400 ) ) ;
#201 = DIRECTION ( 'NONE',  ( 0.0000000000000000000, 1.000000000000000000, 0.0000000000000000000 ) ) ;
#202 = ADVANCED_BREP_SHAPE_REPRESENTATION ( '91580A211_Internal Retaining Ring', ( #223, #296 ), #31 ) ;
#203 = CARTESIAN_POINT ( 'NONE',  ( 0.3863578935920533600, -0.04200000000000001000, 0.3224236941710829100 ) ) ;
#204 = EDGE_CURVE ( 'NONE', #170, #205, #519, .T. ) ;
#205 = VERTEX_POINT ( 'NONE', #42 ) ;
#206 = DIRECTION ( 'NONE',  ( 0.0000000000000000000, 1.000000000000000000, 0.0000000000000000000 ) ) ;
#207 = DIRECTION ( 'NONE',  ( 0.0000000000000000000, 1.000000000000000000, 0.0000000000000000000 ) ) ;
#208 = CARTESIAN_POINT ( 'NONE',  ( -0.2695775211805872500, -0.04200000000000001000, 0.3637302370912696700 ) ) ;
#209 = PERSON ( 'UNSPECIFIED', 'UNSPECIFIED', 'UNSPECIFIED', ('UNSPECIFIED'), ('UNSPECIFIED'), ('UNSPECIFIED') ) ;
#210 = VERTEX_POINT ( 'NONE', #243 ) ;
#211 = LINE ( 'NONE', #89, #135 ) ;
#212 = ORIENTED_EDGE ( 'NONE', *, *, #217, .F. ) ;
#213 = CARTESIAN_POINT ( 'NONE',  ( 0.2695775211805872500, 0.0000000000000000000, 0.3947302370912697500 ) ) ;
#214 = DIRECTION ( 'NONE',  ( -0.0000000000000000000, 1.000000000000000000, -0.0000000000000000000 ) ) ;
#215 = CYLINDRICAL_SURFACE ( 'NONE', #319, 0.03099999999999995500 ) ;
#216 = CARTESIAN_POINT ( 'NONE',  ( -0.2347644443969554600, 0.0000000000000000000, 0.5034539756988605200 ) ) ;
#217 = EDGE_CURVE ( 'NONE', #649, #388, #389, .T. ) ;
#218 = DATE_TIME_ROLE ( 'creation_date' ) ;
#219 = EDGE_CURVE ( 'NONE', #408, #210, #81, .T. ) ;
#220 = EDGE_LOOP ( 'NONE', ( #335, #136, #585, #485, #520, #193, #254, #588, #512, #47, #492, #74 ) ) ;
#221 = PERSON_AND_ORGANIZATION ( #209, #332 ) ;
#222 = APPROVAL_STATUS ( 'not_yet_approved' ) ;
#223 = MANIFOLD_SOLID_BREP ( 'Fillet1', #448 ) ;
#224 = PERSON_AND_ORGANIZATION_ROLE ( 'design_supplier' ) ;
#225 = DIRECTION ( 'NONE',  ( 0.0000000000000000000, 1.000000000000000000, 0.0000000000000000000 ) ) ;
#226 = AXIS2_PLACEMENT_3D ( 'NONE', #627, #161, #1 ) ;
#227 = CARTESIAN_POINT ( 'NONE',  ( -0.2347644443969557300, -0.04200000000000001000, 0.5034539756988604100 ) ) ;
#228 = VECTOR ( 'NONE', #78, 39.37007874015748100 ) ;
#229 = ORIENTED_EDGE ( 'NONE', *, *, #99, .F. ) ;
#230 = FACE_OUTER_BOUND ( 'NONE', #259, .T. ) ;
#231 = AXIS2_PLACEMENT_3D ( 'NONE', #563, #201, #310 ) ;
#232 = ORIENTED_EDGE ( 'NONE', *, *, #59, .T. ) ;
#233 = ORIENTED_EDGE ( 'NONE', *, *, #530, .T. ) ;
#234 = FACE_OUTER_BOUND ( 'NONE', #596, .T. ) ;
#235 = EDGE_CURVE ( 'NONE', #98, #620, #192, .T. ) ;
#236 = CARTESIAN_POINT ( 'NONE',  ( 0.2695775211805872500, 0.0000000000000000000, 0.4257302370912697300 ) ) ;
#237 = ORIENTED_EDGE ( 'NONE', *, *, #325, .F. ) ;
#238 = CARTESIAN_POINT ( 'NONE',  ( -0.3783653938029590800, -0.04200000000000001000, 0.3164137068897862600 ) ) ;
#239 = FACE_OUTER_BOUND ( 'NONE', #534, .T. ) ;
#240 = ORIENTED_EDGE ( 'NONE', *, *, #368, .F. ) ;
#241 = VECTOR ( 'NONE', #147, 39.37007874015748100 ) ;
#242 = APPROVAL ( #222, 'UNSPECIFIED' ) ;
#243 = CARTESIAN_POINT ( 'NONE',  ( 0.2763320912435310300, 0.0000000000000000000, 0.3175251479891595400 ) ) ;
#244 = CARTESIAN_POINT ( 'NONE',  ( -0.2695775211805872500, -0.04200000000000001000, 0.3637302370912696700 ) ) ;
#245 = ADVANCED_FACE ( 'NONE', ( #600, #2, #535 ), #191, .F. ) ;
#246 = DIRECTION ( 'NONE',  ( 0.0000000000000000000, 0.0000000000000000000, 1.000000000000000000 ) ) ;
#247 = ORIENTED_EDGE ( 'NONE', *, *, #479, .F. ) ;
#248 = ORIENTED_EDGE ( 'NONE', *, *, #647, .T. ) ;
#249 = LINE ( 'NONE', #341, #241 ) ;
#250 = DIRECTION ( 'NONE',  ( 0.0000000000000000000, 1.000000000000000000, 0.0000000000000000000 ) ) ;
#251 = DIRECTION ( 'NONE',  ( 0.0000000000000000000, 1.000000000000000000, 0.0000000000000000000 ) ) ;
#252 = VERTEX_POINT ( 'NONE', #562 ) ;
#253 = DIRECTION ( 'NONE',  ( -0.9961946980917456600, 0.0000000000000000000, 0.08715574274765605600 ) ) ;
#254 = ORIENTED_EDGE ( 'NONE', *, *, #440, .T. ) ;
#255 = ORIENTED_EDGE ( 'NONE', *, *, #530, .F. ) ;
#256 = FACE_OUTER_BOUND ( 'NONE', #387, .T. ) ;
#257 = ORIENTED_EDGE ( 'NONE', *, *, #186, .T. ) ;
#258 = DIRECTION ( 'NONE',  ( 0.0000000000000000000, 1.000000000000000000, 0.0000000000000000000 ) ) ;
#259 = EDGE_LOOP ( 'NONE', ( #29, #282, #547, #155 ) ) ;
#260 = COORDINATED_UNIVERSAL_TIME_OFFSET ( 6, 0, .BEHIND. ) ;
#261 = LINE ( 'NONE', #244, #87 ) ;
#262 = DIRECTION ( 'NONE',  ( 0.0000000000000000000, 0.0000000000000000000, 1.000000000000000000 ) ) ;
#263 = CARTESIAN_POINT ( 'NONE',  ( -0.1993386676852466300, 0.0000000000000000000, 0.4274831523761734600 ) ) ;
#264 = EDGE_LOOP ( 'NONE', ( #382, #255 ) ) ;
#265 = AXIS2_PLACEMENT_3D ( 'NONE', #52, #207, #262 ) ;
#266 = ORIENTED_EDGE ( 'NONE', *, *, #606, .T. ) ;
#267 = PERSON_AND_ORGANIZATION_ROLE ( 'design_owner' ) ;
#268 = FACE_OUTER_BOUND ( 'NONE', #497, .T. ) ;
#269 = DIRECTION ( 'NONE',  ( 0.0000000000000000000, -1.000000000000000000, 0.0000000000000000000 ) ) ;
#270 = DIRECTION ( 'NONE',  ( 0.0000000000000000000, 1.000000000000000000, 0.0000000000000000000 ) ) ;
#271 = VERTEX_POINT ( 'NONE', #552 ) ;
#272 = EDGE_LOOP ( 'NONE', ( #522, #642, #444, #437 ) ) ;
#273 = EDGE_LOOP ( 'NONE', ( #237, #517, #323, #316 ) ) ;
#274 = APPROVAL_DATE_TIME ( #523, #581 ) ;
#275 = CYLINDRICAL_SURFACE ( 'NONE', #16, 0.5555000000000001000 ) ;
#276 = EDGE_CURVE ( 'NONE', #620, #329, #68, .T. ) ;
#277 = CIRCLE ( 'NONE', #462, 0.07750000000000005500 ) ;
#278 = AXIS2_PLACEMENT_3D ( 'NONE', #36, #149, #383 ) ;
#279 = VERTEX_POINT ( 'NONE', #503 ) ;
#280 = ORIENTED_EDGE ( 'NONE', *, *, #26, .F. ) ;
#281 = ORIENTED_EDGE ( 'NONE', *, *, #610, .F. ) ;
#282 = ORIENTED_EDGE ( 'NONE', *, *, #406, .F. ) ;
#283 = DATE_AND_TIME ( #614, #428 ) ;
#284 = CC_DESIGN_PERSON_AND_ORGANIZATION_ASSIGNMENT ( #221, #14, ( #508 ) ) ;
#285 = VECTOR ( 'NONE', #48, 39.37007874015748100 ) ;
#286 = PRODUCT_DEFINITION_SHAPE ( 'NONE', 'NONE',  #326 ) ;
#287 = DIRECTION ( 'NONE',  ( 0.0000000000000000000, 0.0000000000000000000, 1.000000000000000000 ) ) ;
#288 = DIRECTION ( 'NONE',  ( 0.0000000000000000000, 1.000000000000000000, 0.0000000000000000000 ) ) ;
#289 = CYLINDRICAL_SURFACE ( 'NONE', #22, 0.01000000000000003000 ) ;
#290 = CARTESIAN_POINT ( 'NONE',  ( 0.3783653938029596400, -0.04200000000000001000, 0.3264137068897871600 ) ) ;
#291 = CARTESIAN_POINT ( 'NONE',  ( 0.2347644443969554600, 0.0000000000000000000, 0.5034539756988605200 ) ) ;
#292 = LOCAL_TIME ( 17, 50, 53.00000000000000000, #420 ) ;
#293 = EDGE_CURVE ( 'NONE', #509, #477, #464, .T. ) ;
#294 = ADVANCED_FACE ( 'NONE', ( #123, #181, #256 ), #134, .T. ) ;
#295 = CYLINDRICAL_SURFACE ( 'NONE', #7, 0.03099999999999995500 ) ;
#296 = AXIS2_PLACEMENT_3D ( 'NONE', #461, #524, #122 ) ;
#297 = CARTESIAN_POINT ( 'NONE',  ( 5.375708469151022600E-016, -0.04200000000000001000, 0.03190056776637512800 ) ) ;
#298 = CARTESIAN_POINT ( 'NONE',  ( 0.2347644443969554600, -0.04200000000000001000, 0.5034539756988605200 ) ) ;
#299 = EDGE_CURVE ( 'NONE', #271, #346, #514, .T. ) ;
#300 = DIRECTION ( 'NONE',  ( 0.0000000000000000000, 1.000000000000000000, 0.0000000000000000000 ) ) ;
#301 = EDGE_LOOP ( 'NONE', ( #424, #188, #3, #60 ) ) ;
#302 = ORIENTED_EDGE ( 'NONE', *, *, #633, .F. ) ;
#303 = DIRECTION ( 'NONE',  ( -0.9961946980917451000, 0.0000000000000000000, -0.08715574274766181600 ) ) ;
#304 = CARTESIAN_POINT ( 'NONE',  ( -0.2695775211805872500, -0.04200000000000001000, 0.3947302370912696400 ) ) ;
#305 = DIRECTION ( 'NONE',  ( 0.0000000000000000000, 0.0000000000000000000, -1.000000000000000000 ) ) ;
#306 = VERTEX_POINT ( 'NONE', #6 ) ;
#307 = AXIS2_PLACEMENT_3D ( 'NONE', #304, #578, #572 ) ;
#308 = DIRECTION ( 'NONE',  ( 0.0000000000000000000, 1.000000000000000000, 0.0000000000000000000 ) ) ;
#309 = LINE ( 'NONE', #168, #371 ) ;
#310 = DIRECTION ( 'NONE',  ( 0.0000000000000000000, 0.0000000000000000000, 1.000000000000000000 ) ) ;
#311 = CALENDAR_DATE ( 2021, 8, 9 ) ;
#312 = CYLINDRICAL_SURFACE ( 'NONE', #474, 0.07749999999999999900 ) ;
#313 = DIRECTION ( 'NONE',  ( 0.0000000000000000000, 0.0000000000000000000, -1.000000000000000000 ) ) ;
#314 = EDGE_CURVE ( 'NONE', #279, #171, #605, .T. ) ;
#315 = AXIS2_PLACEMENT_3D ( 'NONE', #194, #143, #190 ) ;
#316 = ORIENTED_EDGE ( 'NONE', *, *, #167, .T. ) ;
#317 =( LENGTH_UNIT ( ) NAMED_UNIT ( * ) SI_UNIT ( $, .METRE. ) );
#318 = DIRECTION ( 'NONE',  ( 0.0000000000000000000, 1.000000000000000000, 0.0000000000000000000 ) ) ;
#319 = AXIS2_PLACEMENT_3D ( 'NONE', #351, #526, #466 ) ;
#320 = VECTOR ( 'NONE', #392, 39.37007874015748100 ) ;
#321 = EDGE_LOOP ( 'NONE', ( #212, #30, #426, #365 ) ) ;
#322 = CALENDAR_DATE ( 2021, 8, 9 ) ;
#323 = ORIENTED_EDGE ( 'NONE', *, *, #380, .T. ) ;
#324 = CIRCLE ( 'NONE', #163, 0.4834005677663750800 ) ;
#325 = EDGE_CURVE ( 'NONE', #477, #536, #403, .T. ) ;
#326 = PRODUCT_DEFINITION ( 'UNKNOWN', '', #508, #84 ) ;
#327 = VERTEX_POINT ( 'NONE', #13 ) ;
#328 = DIRECTION ( 'NONE',  ( 0.0000000000000000000, 0.0000000000000000000, 1.000000000000000000 ) ) ;
#329 = VERTEX_POINT ( 'NONE', #263 ) ;
#330 = EDGE_CURVE ( 'NONE', #620, #279, #277, .T. ) ;
#331 = CIRCLE ( 'NONE', #117, 0.03099999999999995500 ) ;
#332 = ORGANIZATION ( 'UNSPECIFIED', 'UNSPECIFIED', '' ) ;
#333 = ORIENTED_EDGE ( 'NONE', *, *, #167, .F. ) ;
#334 = VECTOR ( 'NONE', #360, 39.37007874015748100 ) ;
#335 = ORIENTED_EDGE ( 'NONE', *, *, #564, .T. ) ;
#336 = LOCAL_TIME ( 17, 50, 53.00000000000000000, #260 ) ;
#337 = CC_DESIGN_APPROVAL ( #242, ( #176 ) ) ;
#338 = CYLINDRICAL_SURFACE ( 'NONE', #307, 0.07750000000000005500 ) ;
#339 = DIRECTION ( 'NONE',  ( 0.0000000000000000000, 0.0000000000000000000, 1.000000000000000000 ) ) ;
#340 = DIRECTION ( 'NONE',  ( 0.0000000000000000000, 1.000000000000000000, 0.0000000000000000000 ) ) ;
#341 = CARTESIAN_POINT ( 'NONE',  ( -0.3783653938029590800, -0.04200000000000001000, 0.3264137068897862700 ) ) ;
#342 = CARTESIAN_POINT ( 'NONE',  ( 0.2695775211805872500, -0.04200000000000001000, 0.3947302370912697500 ) ) ;
#343 = EDGE_CURVE ( 'NONE', #171, #548, #148, .T. ) ;
#344 = DIRECTION ( 'NONE',  ( 0.0000000000000000000, 0.0000000000000000000, -1.000000000000000000 ) ) ;
#345 = ADVANCED_FACE ( 'NONE', ( #543 ), #367, .F. ) ;
#346 = VERTEX_POINT ( 'NONE', #41 ) ;
#347 = EDGE_LOOP ( 'NONE', ( #569, #28, #82, #372 ) ) ;
#348 = CARTESIAN_POINT ( 'NONE',  ( 0.2763320912435310300, -0.04200000000000001000, 0.3175251479891595400 ) ) ;
#349 = CARTESIAN_POINT ( 'NONE',  ( -0.3783653938029590800, 0.0000000000000000000, 0.3164137068897862600 ) ) ;
#350 = CARTESIAN_POINT ( 'NONE',  ( 0.2695775211805872500, -0.04200000000000001000, 0.4257302370912697300 ) ) ;
#351 = CARTESIAN_POINT ( 'NONE',  ( -0.2695775211805872500, -0.04200000000000001000, 0.3947302370912696400 ) ) ;
#352 = DIRECTION ( 'NONE',  ( 0.4226182617406941100, 0.0000000000000000000, -0.9063077870366522700 ) ) ;
#353 = VECTOR ( 'NONE', #556, 39.37007874015748100 ) ;
#354 = ORIENTED_EDGE ( 'NONE', *, *, #112, .F. ) ;
#355 = DIRECTION ( 'NONE',  ( 0.0000000000000000000, 1.000000000000000000, 0.0000000000000000000 ) ) ;
#356 = ORIENTED_EDGE ( 'NONE', *, *, #343, .F. ) ;
#357 = PERSON_AND_ORGANIZATION ( #209, #332 ) ;
#358 = CARTESIAN_POINT ( 'NONE',  ( 0.2695775211805872500, -0.04200000000000001000, 0.3947302370912696400 ) ) ;
#359 = CIRCLE ( 'NONE', #121, 0.009999999999999995000 ) ;
#360 = DIRECTION ( 'NONE',  ( 0.0000000000000000000, 1.000000000000000000, 0.0000000000000000000 ) ) ;
#361 = DIRECTION ( 'NONE',  ( -0.0000000000000000000, 1.000000000000000000, -0.0000000000000000000 ) ) ;
#362 = EDGE_CURVE ( 'NONE', #115, #388, #429, .T. ) ;
#363 = CARTESIAN_POINT ( 'NONE',  ( 0.2695775211805872500, -0.04200000000000001000, 0.3947302370912696400 ) ) ;
#364 = APPROVAL ( #173, 'UNSPECIFIED' ) ;
#365 = ORIENTED_EDGE ( 'NONE', *, *, #362, .T. ) ;
#366 = CARTESIAN_POINT ( 'NONE',  ( 0.0000000000000000000, -0.04200000000000001000, 0.0000000000000000000 ) ) ;
#367 = CYLINDRICAL_SURFACE ( 'NONE', #555, 0.03099999999999995500 ) ;
#368 = EDGE_CURVE ( 'NONE', #306, #98, #538, .T. ) ;
#369 =( NAMED_UNIT ( * ) SI_UNIT ( $, .STERADIAN. ) SOLID_ANGLE_UNIT ( ) );
#370 = PLANE ( 'NONE',  #502 ) ;
#371 = VECTOR ( 'NONE', #61, 39.37007874015748100 ) ;
#372 = ORIENTED_EDGE ( 'NONE', *, *, #577, .F. ) ;
#373 = ORIENTED_EDGE ( 'NONE', *, *, #593, .T. ) ;
#374 = ORIENTED_EDGE ( 'NONE', *, *, #12, .F. ) ;
#375 = APPROVAL_PERSON_ORGANIZATION ( #137, #242, #430 ) ;
#376 = CYLINDRICAL_SURFACE ( 'NONE', #527, 0.03099999999999995500 ) ;
#377 = AXIS2_PLACEMENT_3D ( 'NONE', #169, #64, #472 ) ;
#378 = CIRCLE ( 'NONE', #646, 0.009999999999999995000 ) ;
#379 = ORIENTED_EDGE ( 'NONE', *, *, #468, .T. ) ;
#380 = EDGE_CURVE ( 'NONE', #390, #541, #324, .T. ) ;
#381 = VERTEX_POINT ( 'NONE', #27 ) ;
#382 = ORIENTED_EDGE ( 'NONE', *, *, #182, .F. ) ;
#383 = DIRECTION ( 'NONE',  ( -0.9961946980917451000, 0.0000000000000000000, -0.08715574274766183000 ) ) ;
#384 = VECTOR ( 'NONE', #609, 39.37007874015748100 ) ;
#385 = DIRECTION ( 'NONE',  ( 0.0000000000000000000, 0.0000000000000000000, 1.000000000000000000 ) ) ;
#386 = EDGE_CURVE ( 'NONE', #390, #170, #11, .T. ) ;
#387 = EDGE_LOOP ( 'NONE', ( #302, #643, #266, #248, #481, #459, #658, #229, #568, #24, #240, #280 ) ) ;
#388 = VERTEX_POINT ( 'NONE', #545 ) ;
#389 = LINE ( 'NONE', #39, #228 ) ;
#390 = VERTEX_POINT ( 'NONE', #594 ) ;
#391 = CIRCLE ( 'NONE', #265, 0.03099999999999995500 ) ;
#392 = DIRECTION ( 'NONE',  ( 0.0000000000000000000, 1.000000000000000000, 0.0000000000000000000 ) ) ;
#393 = CARTESIAN_POINT ( 'NONE',  ( 0.3774938363754830100, 0.0000000000000000000, 0.3263756538707045000 ) ) ;
#394 = ADVANCED_FACE ( 'NONE', ( #234 ), #275, .T. ) ;
#395 = DIRECTION ( 'NONE',  ( 0.0000000000000000000, -0.0000000000000000000, -1.000000000000000000 ) ) ;
#396 = DIRECTION ( 'NONE',  ( 0.0000000000000000000, 0.0000000000000000000, 1.000000000000000000 ) ) ;
#397 = EDGE_CURVE ( 'NONE', #649, #409, #101, .T. ) ;
#398 = PRODUCT ( '91580A211_Internal Retaining Ring', '91580A211_Internal Retaining Ring', '', ( #119 ) ) ;
#399 = CARTESIAN_POINT ( 'NONE',  ( 0.2695775211805872500, -0.04200000000000001000, 0.3947302370912697500 ) ) ;
#400 = ORIENTED_EDGE ( 'NONE', *, *, #593, .F. ) ;
#401 = CC_DESIGN_APPROVAL ( #364, ( #326 ) ) ;
#402 = ADVANCED_FACE ( 'NONE', ( #268 ), #312, .T. ) ;
#403 = CIRCLE ( 'NONE', #598, 0.4834005677663750800 ) ;
#404 = DIRECTION ( 'NONE',  ( 0.0000000000000000000, 1.000000000000000000, 0.0000000000000000000 ) ) ;
#405 = DIRECTION ( 'NONE',  ( 0.0000000000000000000, 1.000000000000000000, 0.0000000000000000000 ) ) ;
#406 = EDGE_CURVE ( 'NONE', #271, #34, #665, .T. ) ;
#407 = CARTESIAN_POINT ( 'NONE',  ( 0.3863578935920533600, 0.0000000000000000000, 0.3224236941710829100 ) ) ;
#408 = VERTEX_POINT ( 'NONE', #348 ) ;
#409 = VERTEX_POINT ( 'NONE', #33 ) ;
#410 = CARTESIAN_POINT ( 'NONE',  ( 0.2695775211805872500, -0.04200000000000001000, 0.3637302370912698400 ) ) ;
#411 = CALENDAR_DATE ( 2021, 8, 9 ) ;
#412 = CIRCLE ( 'NONE', #199, 0.07750000000000005500 ) ;
#413 = CARTESIAN_POINT ( 'NONE',  ( -0.3783653938029590800, -0.04200000000000001000, 0.3164137068897862600 ) ) ;
#414 = CARTESIAN_POINT ( 'NONE',  ( 0.3783653938029596400, -0.04200000000000001000, 0.3164137068897871500 ) ) ;
#415 = CC_DESIGN_SECURITY_CLASSIFICATION ( #176, ( #508 ) ) ;
#416 = DIRECTION ( 'NONE',  ( -0.08715574274765607000, 0.0000000000000000000, -0.9961946980917457700 ) ) ;
#417 = DIRECTION ( 'NONE',  ( 0.0000000000000000000, 0.0000000000000000000, 1.000000000000000000 ) ) ;
#418 = VERTEX_POINT ( 'NONE', #393 ) ;
#419 = ORIENTED_EDGE ( 'NONE', *, *, #542, .F. ) ;
#420 = COORDINATED_UNIVERSAL_TIME_OFFSET ( 6, 0, .BEHIND. ) ;
#421 = PERSON_AND_ORGANIZATION_ROLE ( 'creator' ) ;
#422 = VECTOR ( 'NONE', #352, 39.37007874015748100 ) ;
#423 = EDGE_CURVE ( 'NONE', #418, #644, #439, .T. ) ;
#424 = ORIENTED_EDGE ( 'NONE', *, *, #73, .F. ) ;
#425 =( NAMED_UNIT ( * ) PLANE_ANGLE_UNIT ( ) SI_UNIT ( $, .RADIAN. ) );
#426 = ORIENTED_EDGE ( 'NONE', *, *, #540, .T. ) ;
#427 = EDGE_LOOP ( 'NONE', ( #354, #379, #233, #482 ) ) ;
#428 = LOCAL_TIME ( 17, 50, 53.00000000000000000, #560 ) ;
#429 = CIRCLE ( 'NONE', #654, 0.03099999999999995500 ) ;
#430 = APPROVAL_ROLE ( '' ) ;
#431 = DIRECTION ( 'NONE',  ( -0.9961946980917451000, 0.0000000000000000000, -0.08715574274766181600 ) ) ;
#432 = AXIS2_PLACEMENT_3D ( 'NONE', #95, #457, #40 ) ;
#433 = UNCERTAINTY_MEASURE_WITH_UNIT (LENGTH_MEASURE( 1.000000000000000100E-005 ), #532, 'distance_accuracy_value', 'NONE');
#434 = AXIS2_PLACEMENT_3D ( 'NONE', #414, #184, #130 ) ;
#435 = CYLINDRICAL_SURFACE ( 'NONE', #434, 0.01000000000000003000 ) ;
#436 = EDGE_LOOP ( 'NONE', ( #232, #124 ) ) ;
#437 = ORIENTED_EDGE ( 'NONE', *, *, #540, .F. ) ;
#438 = SHAPE_DEFINITION_REPRESENTATION ( #286, #202 ) ;
#439 = LINE ( 'NONE', #567, #384 ) ;
#440 = EDGE_CURVE ( 'NONE', #548, #509, #359, .T. ) ;
#441 = CC_DESIGN_PERSON_AND_ORGANIZATION_ASSIGNMENT ( #571, #421, ( #326 ) ) ;
#442 = CARTESIAN_POINT ( 'NONE',  ( -0.3783653938029590800, -0.04200000000000001000, 0.3264137068897862700 ) ) ;
#443 = EDGE_CURVE ( 'NONE', #467, #126, #138, .T. ) ;
#444 = ORIENTED_EDGE ( 'NONE', *, *, #542, .T. ) ;
#445 = CARTESIAN_POINT ( 'NONE',  ( -0.2347644443969554600, -0.04200000000000001000, 0.5034539756988605200 ) ) ;
#446 = ORIENTED_EDGE ( 'NONE', *, *, #186, .F. ) ;
#447 = CARTESIAN_POINT ( 'NONE',  ( -0.3863578935920528600, 0.0000000000000000000, 0.3224236941710820800 ) ) ;
#448 = CLOSED_SHELL ( 'NONE', ( #92, #607, #506, #513, #402, #86, #455, #565, #558, #96, #394, #145, #294, #245, #345, #611, #150, #501 ) ) ;
#449 = FACE_OUTER_BOUND ( 'NONE', #178, .T. ) ;
#450 = AXIS2_PLACEMENT_3D ( 'NONE', #413, #110, #104 ) ;
#451 = LINE ( 'NONE', #20, #45 ) ;
#452 = DIRECTION ( 'NONE',  ( 0.0000000000000000000, 1.000000000000000000, 0.0000000000000000000 ) ) ;
#453 = LINE ( 'NONE', #298, #285 ) ;
#454 = CARTESIAN_POINT ( 'NONE',  ( -0.3783653938029590800, 0.0000000000000000000, 0.3164137068897862600 ) ) ;
#455 = ADVANCED_FACE ( 'NONE', ( #637 ), #550, .F. ) ;
#456 = EDGE_CURVE ( 'NONE', #536, #327, #133, .T. ) ;
#457 = DIRECTION ( 'NONE',  ( 0.0000000000000000000, 1.000000000000000000, 0.0000000000000000000 ) ) ;
#458 = ORIENTED_EDGE ( 'NONE', *, *, #456, .F. ) ;
#459 = ORIENTED_EDGE ( 'NONE', *, *, #386, .T. ) ;
#460 = DIRECTION ( 'NONE',  ( -0.0000000000000000000, 1.000000000000000000, -0.0000000000000000000 ) ) ;
#461 = CARTESIAN_POINT ( 'NONE',  ( 0.0000000000000000000, 0.0000000000000000000, 0.0000000000000000000 ) ) ;
#462 = AXIS2_PLACEMENT_3D ( 'NONE', #46, #405, #287 ) ;
#463 = ORIENTED_EDGE ( 'NONE', *, *, #276, .F. ) ;
#464 = CIRCLE ( 'NONE', #616, 0.009999999999999995000 ) ;
#465 = EDGE_LOOP ( 'NONE', ( #446, #111, #528, #374 ) ) ;
#466 = DIRECTION ( 'NONE',  ( 0.0000000000000000000, 0.0000000000000000000, 1.000000000000000000 ) ) ;
#467 = VERTEX_POINT ( 'NONE', #291 ) ;
#468 = EDGE_CURVE ( 'NONE', #34, #132, #261, .T. ) ;
#469 = APPROVAL_DATE_TIME ( #162, #364 ) ;
#470 = ORIENTED_EDGE ( 'NONE', *, *, #406, .T. ) ;
#471 = VECTOR ( 'NONE', #90, 39.37007874015748900 ) ;
#472 = DIRECTION ( 'NONE',  ( -6.829619984160661400E-015, 0.0000000000000000000, -1.000000000000000000 ) ) ;
#473 = EDGE_CURVE ( 'NONE', #329, #171, #412, .T. ) ;
#474 = AXIS2_PLACEMENT_3D ( 'NONE', #363, #628, #328 ) ;
#475 = APPLICATION_PROTOCOL_DEFINITION ( 'international standard', 'config_control_design', 1994, #172 ) ;
#476 = ORIENTED_EDGE ( 'NONE', *, *, #666, .T. ) ;
#477 = VERTEX_POINT ( 'NONE', #447 ) ;
#478 = APPROVAL_DATE_TIME ( #4, #242 ) ;
#479 = EDGE_CURVE ( 'NONE', #306, #467, #453, .T. ) ;
#480 = APPROVAL_STATUS ( 'not_yet_approved' ) ;
#481 = ORIENTED_EDGE ( 'NONE', *, *, #380, .F. ) ;
#482 = ORIENTED_EDGE ( 'NONE', *, *, #299, .F. ) ;
#483 = ORIENTED_EDGE ( 'NONE', *, *, #152, .T. ) ;
#484 = VECTOR ( 'NONE', #602, 39.37007874015748100 ) ;
#485 = ORIENTED_EDGE ( 'NONE', *, *, #610, .T. ) ;
#486 = DIRECTION ( 'NONE',  ( 0.9063077870366524900, -0.0000000000000000000, 0.4226182617406942200 ) ) ;
#487 = PERSON_AND_ORGANIZATION ( #209, #332 ) ;
#488 = VECTOR ( 'NONE', #206, 39.37007874015748100 ) ;
#489 = PRODUCT_RELATED_PRODUCT_CATEGORY ( 'detail', '', ( #398 ) ) ;
#490 = EDGE_CURVE ( 'NONE', #170, #509, #249, .T. ) ;
#491 = ORIENTED_EDGE ( 'NONE', *, *, #473, .F. ) ;
#492 = ORIENTED_EDGE ( 'NONE', *, *, #12, .T. ) ;
#493 = FACE_OUTER_BOUND ( 'NONE', #427, .T. ) ;
#494 = DIRECTION ( 'NONE',  ( 0.4226182617406941100, 0.0000000000000000000, -0.9063077870366522700 ) ) ;
#495 = AXIS2_PLACEMENT_3D ( 'NONE', #198, #151, #511 ) ;
#496 = VECTOR ( 'NONE', #494, 39.37007874015748100 ) ;
#497 = EDGE_LOOP ( 'NONE', ( #648, #97, #53, #483 ) ) ;
#498 = CARTESIAN_POINT ( 'NONE',  ( 0.2347644443969554600, -0.04200000000000001000, 0.5034539756988605200 ) ) ;
#499 = LINE ( 'NONE', #350, #488 ) ;
#500 = DIRECTION ( 'NONE',  ( 0.0000000000000000000, 0.0000000000000000000, 1.000000000000000000 ) ) ;
#501 = ADVANCED_FACE ( 'NONE', ( #626 ), #531, .F. ) ;
#502 = AXIS2_PLACEMENT_3D ( 'NONE', #539, #486, #127 ) ;
#503 = CARTESIAN_POINT ( 'NONE',  ( -0.2763320912435304800, -0.04200000000000001000, 0.3175251479891592600 ) ) ;
#504 = CARTESIAN_POINT ( 'NONE',  ( 0.2695775211805872500, -0.04200000000000001000, 0.3947302370912697500 ) ) ;
#505 = DIRECTION ( 'NONE',  ( 0.0000000000000000000, 1.000000000000000000, 0.0000000000000000000 ) ) ;
#506 = ADVANCED_FACE ( 'NONE', ( #493 ), #295, .F. ) ;
#507 = CARTESIAN_POINT ( 'NONE',  ( -0.3774938363754825100, 0.0000000000000000000, 0.3263756538707037200 ) ) ;
#508 = PRODUCT_DEFINITION_FORMATION_WITH_SPECIFIED_SOURCE ( 'ANY', '', #398, .NOT_KNOWN. ) ;
#509 = VERTEX_POINT ( 'NONE', #667 ) ;
#510 = ORIENTED_EDGE ( 'NONE', *, *, #276, .T. ) ;
#511 = DIRECTION ( 'NONE',  ( 0.0000000000000000000, 0.0000000000000000000, -1.000000000000000000 ) ) ;
#512 = ORIENTED_EDGE ( 'NONE', *, *, #325, .T. ) ;
#513 = ADVANCED_FACE ( 'NONE', ( #645 ), #376, .F. ) ;
#514 = LINE ( 'NONE', #521, #56 ) ;
#515 = CARTESIAN_POINT ( 'NONE',  ( -0.2695775211805872500, -0.04200000000000001000, 0.3947302370912696400 ) ) ;
#516 = CARTESIAN_POINT ( 'NONE',  ( -0.1993386676852466300, -0.04200000000000001000, 0.4274831523761734600 ) ) ;
#517 = ORIENTED_EDGE ( 'NONE', *, *, #43, .T. ) ;
#518 = CARTESIAN_POINT ( 'NONE',  ( 0.2347644443969554600, -0.04200000000000001000, 0.5034539756988605200 ) ) ;
#519 = CIRCLE ( 'NONE', #189, 0.009999999999999995000 ) ;
#520 = ORIENTED_EDGE ( 'NONE', *, *, #473, .T. ) ;
#521 = CARTESIAN_POINT ( 'NONE',  ( -0.2695775211805872500, -0.04200000000000001000, 0.4257302370912696100 ) ) ;
#522 = ORIENTED_EDGE ( 'NONE', *, *, #397, .F. ) ;
#523 = DATE_AND_TIME ( #322, #292 ) ;
#524 = DIRECTION ( 'NONE',  ( 0.0000000000000000000, 0.0000000000000000000, 1.000000000000000000 ) ) ;
#525 = DIRECTION ( 'NONE',  ( 0.0000000000000000000, -1.000000000000000000, 0.0000000000000000000 ) ) ;
#526 = DIRECTION ( 'NONE',  ( 0.0000000000000000000, 1.000000000000000000, 0.0000000000000000000 ) ) ;
#527 = AXIS2_PLACEMENT_3D ( 'NONE', #504, #566, #553 ) ;
#528 = ORIENTED_EDGE ( 'NONE', *, *, #423, .F. ) ;
#529 = ORIENTED_EDGE ( 'NONE', *, *, #219, .T. ) ;
#530 = EDGE_CURVE ( 'NONE', #132, #346, #38, .T. ) ;
#531 = CYLINDRICAL_SURFACE ( 'NONE', #432, 0.01000000000000003000 ) ;
#532 =( CONVERSION_BASED_UNIT ( 'INCH', #50 ) LENGTH_UNIT ( ) NAMED_UNIT ( #44 ) );
#533 = VECTOR ( 'NONE', #622, 39.37007874015748100 ) ;
#534 = EDGE_LOOP ( 'NONE', ( #62, #257, #458, #333 ) ) ;
#535 = FACE_OUTER_BOUND ( 'NONE', #220, .T. ) ;
#536 = VERTEX_POINT ( 'NONE', #407 ) ;
#537 = AXIS2_PLACEMENT_3D ( 'NONE', #358, #159, #313 ) ;
#538 = CIRCLE ( 'NONE', #58, 0.5555000000000001000 ) ;
#539 = CARTESIAN_POINT ( 'NONE',  ( -0.2347644443969554600, -0.04200000000000001000, 0.5034539756988605200 ) ) ;
#540 = EDGE_CURVE ( 'NONE', #409, #115, #499, .T. ) ;
#541 = VERTEX_POINT ( 'NONE', #142 ) ;
#542 = EDGE_CURVE ( 'NONE', #388, #115, #391, .T. ) ;
#543 = FACE_OUTER_BOUND ( 'NONE', #321, .T. ) ;
#544 = AXIS2_PLACEMENT_3D ( 'NONE', #621, #269, #623 ) ;
#545 = CARTESIAN_POINT ( 'NONE',  ( 0.2695775211805872500, 0.0000000000000000000, 0.3637302370912698400 ) ) ;
#546 = CC_DESIGN_PERSON_AND_ORGANIZATION_ASSIGNMENT ( #195, #224, ( #508 ) ) ;
#547 = ORIENTED_EDGE ( 'NONE', *, *, #299, .T. ) ;
#548 = VERTEX_POINT ( 'NONE', #507 ) ;
#549 = CALENDAR_DATE ( 2021, 8, 9 ) ;
#550 = CYLINDRICAL_SURFACE ( 'NONE', #131, 0.4834005677663750800 ) ;
#551 = CARTESIAN_POINT ( 'NONE',  ( 0.2695775211805872500, 0.0000000000000000000, 0.3947302370912696400 ) ) ;
#552 = CARTESIAN_POINT ( 'NONE',  ( -0.2695775211805872500, -0.04200000000000001000, 0.4257302370912696100 ) ) ;
#553 = DIRECTION ( 'NONE',  ( 0.0000000000000000000, 0.0000000000000000000, 1.000000000000000000 ) ) ;
#554 = DIRECTION ( 'NONE',  ( 0.4226182617406941100, 0.0000000000000000000, 0.9063077870366522700 ) ) ;
#555 = AXIS2_PLACEMENT_3D ( 'NONE', #342, #505, #559 ) ;
#556 = DIRECTION ( 'NONE',  ( 0.0000000000000000000, 1.000000000000000000, 0.0000000000000000000 ) ) ;
#557 = CARTESIAN_POINT ( 'NONE',  ( 5.375708469151022600E-016, -0.04200000000000001000, 0.03190056776637512800 ) ) ;
#558 = ADVANCED_FACE ( 'NONE', ( #592 ), #338, .T. ) ;
#559 = DIRECTION ( 'NONE',  ( 0.0000000000000000000, 0.0000000000000000000, 1.000000000000000000 ) ) ;
#560 = COORDINATED_UNIVERSAL_TIME_OFFSET ( 6, 0, .BEHIND. ) ;
#561 = CYLINDRICAL_SURFACE ( 'NONE', #450, 0.01000000000000003000 ) ;
#562 = CARTESIAN_POINT ( 'NONE',  ( 0.1993386676852466300, 0.0000000000000000000, 0.4274831523761734600 ) ) ;
#563 = CARTESIAN_POINT ( 'NONE',  ( -0.2695775211805872500, 0.0000000000000000000, 0.3947302370912696400 ) ) ;
#564 = EDGE_CURVE ( 'NONE', #210, #252, #197, .T. ) ;
#565 = ADVANCED_FACE ( 'NONE', ( #118 ), #154, .T. ) ;
#566 = DIRECTION ( 'NONE',  ( 0.0000000000000000000, 1.000000000000000000, 0.0000000000000000000 ) ) ;
#567 = CARTESIAN_POINT ( 'NONE',  ( 0.3774938363754830100, -0.04200000000000001000, 0.3263756538707045000 ) ) ;
#568 = ORIENTED_EDGE ( 'NONE', *, *, #330, .F. ) ;
#569 = ORIENTED_EDGE ( 'NONE', *, *, #204, .F. ) ;
#570 = CARTESIAN_POINT ( 'NONE',  ( 0.3829848181411142400, -0.04200000000000001000, 0.3268560525268248700 ) ) ;
#571 = PERSON_AND_ORGANIZATION ( #209, #332 ) ;
#572 = DIRECTION ( 'NONE',  ( 0.0000000000000000000, 0.0000000000000000000, 1.000000000000000000 ) ) ;
#573 = CARTESIAN_POINT ( 'NONE',  ( 0.3783653938029596400, 0.0000000000000000000, 0.3164137068897871500 ) ) ;
#574 = AXIS2_PLACEMENT_3D ( 'NONE', #102, #460, #617 ) ;
#575 = CARTESIAN_POINT ( 'NONE',  ( 0.0000000000000000000, -0.04200000000000001000, 0.0000000000000000000 ) ) ;
#576 = FACE_OUTER_BOUND ( 'NONE', #655, .T. ) ;
#577 = EDGE_CURVE ( 'NONE', #205, #548, #158, .T. ) ;
#578 = DIRECTION ( 'NONE',  ( 0.0000000000000000000, 1.000000000000000000, 0.0000000000000000000 ) ) ;
#579 = VECTOR ( 'NONE', #113, 39.37007874015748100 ) ;
#580 = CARTESIAN_POINT ( 'NONE',  ( -0.2763320912435304800, -0.04200000000000001000, 0.3175251479891592600 ) ) ;
#581 = APPROVAL ( #480, 'UNSPECIFIED' ) ;
#582 = LINE ( 'NONE', #518, #533 ) ;
#583 = EDGE_LOOP ( 'NONE', ( #639, #419 ) ) ;
#584 = APPLICATION_PROTOCOL_DEFINITION ( 'international standard', 'config_control_design', 1994, #166 ) ;
#585 = ORIENTED_EDGE ( 'NONE', *, *, #443, .T. ) ;
#586 = AXIS2_PLACEMENT_3D ( 'NONE', #200, #452, #608 ) ;
#587 = APPROVAL_ROLE ( '' ) ;
#588 = ORIENTED_EDGE ( 'NONE', *, *, #293, .T. ) ;
#589 = CIRCLE ( 'NONE', #586, 0.03099999999999995500 ) ;
#590 = COORDINATED_UNIVERSAL_TIME_OFFSET ( 6, 0, .BEHIND. ) ;
#591 = AXIS2_PLACEMENT_3D ( 'NONE', #10, #361, #305 ) ;
#592 = FACE_OUTER_BOUND ( 'NONE', #634, .T. ) ;
#593 = EDGE_CURVE ( 'NONE', #98, #126, #165, .T. ) ;
#594 = CARTESIAN_POINT ( 'NONE',  ( -0.3863578935920528600, -0.04200000000000001000, 0.3224236941710820800 ) ) ;
#595 = ORIENTED_EDGE ( 'NONE', *, *, #293, .F. ) ;
#596 = EDGE_LOOP ( 'NONE', ( #103, #247, #156, #373 ) ) ;
#597 = PLANE ( 'NONE',  #146 ) ;
#598 = AXIS2_PLACEMENT_3D ( 'NONE', #57, #631, #417 ) ;
#599 = CARTESIAN_POINT ( 'NONE',  ( -0.1993386676852466300, -0.04200000000000001000, 0.4274831523761734600 ) ) ;
#600 = FACE_BOUND ( 'NONE', #264, .T. ) ;
#601 = ORIENTED_EDGE ( 'NONE', *, *, #99, .T. ) ;
#602 = DIRECTION ( 'NONE',  ( 0.0000000000000000000, 1.000000000000000000, 0.0000000000000000000 ) ) ;
#603 = APPROVAL_PERSON_ORGANIZATION ( #487, #364, #15 ) ;
#604 = DIRECTION ( 'NONE',  ( 0.0000000000000000000, 1.000000000000000000, 0.0000000000000000000 ) ) ;
#605 = LINE ( 'NONE', #580, #579 ) ;
#606 = EDGE_CURVE ( 'NONE', #644, #381, #5, .T. ) ;
#607 = ADVANCED_FACE ( 'NONE', ( #21 ), #561, .F. ) ;
#608 = DIRECTION ( 'NONE',  ( 0.0000000000000000000, 0.0000000000000000000, 1.000000000000000000 ) ) ;
#609 = DIRECTION ( 'NONE',  ( 0.0000000000000000000, -1.000000000000000000, 0.0000000000000000000 ) ) ;
#610 = EDGE_CURVE ( 'NONE', #126, #329, #129, .T. ) ;
#611 = ADVANCED_FACE ( 'NONE', ( #230 ), #215, .F. ) ;
#612 = CC_DESIGN_APPROVAL ( #581, ( #508 ) ) ;
#613 = ORIENTED_EDGE ( 'NONE', *, *, #490, .F. ) ;
#614 = CALENDAR_DATE ( 2021, 8, 9 ) ;
#615 = DIRECTION ( 'NONE',  ( 0.0000000000000000000, 1.000000000000000000, 0.0000000000000000000 ) ) ;
#616 = AXIS2_PLACEMENT_3D ( 'NONE', #349, #618, #94 ) ;
#617 = DIRECTION ( 'NONE',  ( 0.0000000000000000000, 0.0000000000000000000, -1.000000000000000000 ) ) ;
#618 = DIRECTION ( 'NONE',  ( 0.0000000000000000000, -1.000000000000000000, 0.0000000000000000000 ) ) ;
#619 = LINE ( 'NONE', #203, #334 ) ;
#620 = VERTEX_POINT ( 'NONE', #516 ) ;
#621 = CARTESIAN_POINT ( 'NONE',  ( 0.2695775211805872500, -0.04200000000000001000, 0.3947302370912696400 ) ) ;
#622 = DIRECTION ( 'NONE',  ( 0.4226182617406941100, -0.0000000000000000000, 0.9063077870366522700 ) ) ;
#623 = DIRECTION ( 'NONE',  ( 0.0000000000000000000, -0.0000000000000000000, -1.000000000000000000 ) ) ;
#624 = PERSON_AND_ORGANIZATION ( #209, #332 ) ;
#625 = DIRECTION ( 'NONE',  ( 0.0000000000000000000, 0.0000000000000000000, 1.000000000000000000 ) ) ;
#626 = FACE_OUTER_BOUND ( 'NONE', #465, .T. ) ;
#627 = CARTESIAN_POINT ( 'NONE',  ( 0.3783653938029596400, -0.04200000000000001000, 0.3164137068897871500 ) ) ;
#628 = DIRECTION ( 'NONE',  ( 0.0000000000000000000, 1.000000000000000000, 0.0000000000000000000 ) ) ;
#629 = DIRECTION ( 'NONE',  ( 0.0000000000000000000, 0.0000000000000000000, 1.000000000000000000 ) ) ;
#630 = CARTESIAN_POINT ( 'NONE',  ( 0.3774938363754830100, -0.04200000000000001000, 0.3263756538707045000 ) ) ;
#631 = DIRECTION ( 'NONE',  ( -0.0000000000000000000, -1.000000000000000000, -0.0000000000000000000 ) ) ;
#632 = CARTESIAN_POINT ( 'NONE',  ( -0.2695775211805872500, -0.04200000000000001000, 0.3947302370912696400 ) ) ;
#633 = EDGE_CURVE ( 'NONE', #408, #116, #651, .T. ) ;
#634 = EDGE_LOOP ( 'NONE', ( #491, #463, #668, #153 ) ) ;
#635 = ORIENTED_EDGE ( 'NONE', *, *, #71, .F. ) ;
#636 = DATE_TIME_ROLE ( 'classification_date' ) ;
#637 = FACE_OUTER_BOUND ( 'NONE', #273, .T. ) ;
#638 = DIRECTION ( 'NONE',  ( 0.0000000000000000000, 0.0000000000000000000, 1.000000000000000000 ) ) ;
#639 = ORIENTED_EDGE ( 'NONE', *, *, #362, .F. ) ;
#640 = SECURITY_CLASSIFICATION_LEVEL ( 'unclassified' ) ;
#641 = LINE ( 'NONE', #290, #320 ) ;
#642 = ORIENTED_EDGE ( 'NONE', *, *, #217, .T. ) ;
#643 = ORIENTED_EDGE ( 'NONE', *, *, #666, .F. ) ;
#644 = VERTEX_POINT ( 'NONE', #630 ) ;
#645 = FACE_OUTER_BOUND ( 'NONE', #272, .T. ) ;
#646 = AXIS2_PLACEMENT_3D ( 'NONE', #573, #525, #9 ) ;
#647 = EDGE_CURVE ( 'NONE', #381, #541, #659, .T. ) ;
#648 = ORIENTED_EDGE ( 'NONE', *, *, #564, .F. ) ;
#649 = VERTEX_POINT ( 'NONE', #410 ) ;
#650 = AXIS2_PLACEMENT_3D ( 'NONE', #54, #416, #253 ) ;
#651 = CIRCLE ( 'NONE', #537, 0.07749999999999999900 ) ;
#652 = DIRECTION ( 'NONE',  ( 0.0000000000000000000, 0.0000000000000000000, 1.000000000000000000 ) ) ;
#653 = DIRECTION ( 'NONE',  ( 0.0000000000000000000, 0.0000000000000000000, 1.000000000000000000 ) ) ;
#654 = AXIS2_PLACEMENT_3D ( 'NONE', #213, #270, #625 ) ;
#655 = EDGE_LOOP ( 'NONE', ( #281, #400, #187, #510 ) ) ;
#656 = CARTESIAN_POINT ( 'NONE',  ( 0.2763320912435310300, -0.04200000000000001000, 0.3175251479891595400 ) ) ;
#657 = CIRCLE ( 'NONE', #315, 0.03099999999999995500 ) ;
#658 = ORIENTED_EDGE ( 'NONE', *, *, #204, .T. ) ;
#659 = CIRCLE ( 'NONE', #574, 0.009999999999999995000 ) ;
#660 = CARTESIAN_POINT ( 'NONE',  ( -0.2695775211805872500, 0.0000000000000000000, 0.3947302370912696400 ) ) ;
#661 = CC_DESIGN_PERSON_AND_ORGANIZATION_ASSIGNMENT ( #63, #267, ( #398 ) ) ;
#662 = ORIENTED_EDGE ( 'NONE', *, *, #314, .F. ) ;
#663 = CARTESIAN_POINT ( 'NONE',  ( -0.3783653938029590800, -0.04200000000000001000, 0.3164137068897862600 ) ) ;
#664 = DIRECTION ( 'NONE',  ( 0.0000000000000000000, -1.000000000000000000, 0.0000000000000000000 ) ) ;
#665 = CIRCLE ( 'NONE', #77, 0.03099999999999995500 ) ;
#666 = EDGE_CURVE ( 'NONE', #644, #408, #70, .T. ) ;
#667 = CARTESIAN_POINT ( 'NONE',  ( -0.3783653938029590800, 0.0000000000000000000, 0.3264137068897862700 ) ) ;
#668 = ORIENTED_EDGE ( 'NONE', *, *, #330, .T. ) ;
ENDSEC;
END-ISO-10303-21;
