ISO-10303-21;
HEADER;
FILE_DESCRIPTION (( 'STEP AP203' ),
    '1' );
FILE_NAME ('9559K338_Ultra-Chemical-Resistant Rigid PTFE O-Ring.STEP',
    '2022-12-08T20:58:26',
    ( 'Administrator' ),
    ( 'Managed by Terraform' ),
    'SwSTEP 2.0',
    'SolidWorks 2017',
    '' );
FILE_SCHEMA (( 'CONFIG_CONTROL_DESIGN' ));
ENDSEC;

DATA;
#1 = APPLICATION_CONTEXT ( 'configuration controlled 3d designs of mechanical parts and assemblies' ) ;
#2 = CIRCLE ( 'NONE', #141, 1.689500000000000000 ) ;
#3 = DIRECTION ( 'NONE',  ( 1.224646799147353200E-016, 1.000000000000000000, -2.249639673992785000E-032 ) ) ;
#4 = PERSON_AND_ORGANIZATION ( #17, #110 ) ;
#5 = ORIENTED_EDGE ( 'NONE', *, *, #72, .F. ) ;
#6 = PRODUCT_DEFINITION_SHAPE ( 'NONE', 'NONE',  #127 ) ;
#7 = DIRECTION ( 'NONE',  ( 1.224646799147353200E-016, 1.000000000000000000, -2.249639673992785000E-032 ) ) ;
#8 =( LENGTH_UNIT ( ) NAMED_UNIT ( * ) SI_UNIT ( $, .METRE. ) );
#9 = PERSON_AND_ORGANIZATION_ROLE ( 'creator' ) ;
#10 = VERTEX_POINT ( 'NONE', #95 ) ;
#11 = AXIS2_PLACEMENT_3D ( 'NONE', #192, #102, #167 ) ;
#12 = VERTEX_POINT ( 'NONE', #80 ) ;
#13 = ORIENTED_EDGE ( 'NONE', *, *, #136, .T. ) ;
#14 = AXIS2_PLACEMENT_3D ( 'NONE', #20, #25, #37 ) ;
#15 = CIRCLE ( 'NONE', #123, 0.03500000000000003800 ) ;
#16 = CC_DESIGN_APPROVAL ( #52, ( #154 ) ) ;
#17 = PERSON ( 'UNSPECIFIED', 'UNSPECIFIED', 'UNSPECIFIED', ('UNSPECIFIED'), ('UNSPECIFIED'), ('UNSPECIFIED') ) ;
#18 = LENGTH_MEASURE_WITH_UNIT ( LENGTH_MEASURE( 0.02539999999999999900 ), #8 );
#19 = CARTESIAN_POINT ( 'NONE',  ( 0.0000000000000000000, 0.0000000000000000000, -3.030643867971292100E-016 ) ) ;
#20 = CARTESIAN_POINT ( 'NONE',  ( 0.0000000000000000000, 0.0000000000000000000, -3.030643867971292100E-016 ) ) ;
#21 = CC_DESIGN_SECURITY_CLASSIFICATION ( #165, ( #154 ) ) ;
#22 = DATE_TIME_ROLE ( 'creation_date' ) ;
#23 = DATE_AND_TIME ( #143, #59 ) ;
#24 = CARTESIAN_POINT ( 'NONE',  ( 1.654500000000000100, 0.0000000000000000000, -6.069911061755233700E-016 ) ) ;
#25 = DIRECTION ( 'NONE',  ( 1.836970198721028700E-016, -0.0000000000000000000, 1.000000000000000000 ) ) ;
#26 =( GEOMETRIC_REPRESENTATION_CONTEXT ( 3 ) GLOBAL_UNCERTAINTY_ASSIGNED_CONTEXT ( ( #98 ) ) GLOBAL_UNIT_ASSIGNED_CONTEXT ( ( #38, #35, #100 ) ) REPRESENTATION_CONTEXT ( 'NONE', 'WORKASPACE' ) );
#27 = DIRECTION ( 'NONE',  ( 0.0000000000000000000, 0.0000000000000000000, -1.000000000000000000 ) ) ;
#28 = AXIS2_PLACEMENT_3D ( 'NONE', #144, #111, #77 ) ;
#29 = CIRCLE ( 'NONE', #108, 1.619499999999999900 ) ;
#30 = PERSON_AND_ORGANIZATION ( #17, #110 ) ;
#31 = FACE_OUTER_BOUND ( 'NONE', #189, .T. ) ;
#32 = CARTESIAN_POINT ( 'NONE',  ( 1.689500000000000000, 0.0000000000000000000, -6.134205018710470400E-016 ) ) ;
#33 = TOROIDAL_SURFACE ( 'NONE', #11, 1.654500000000000100, 0.03500000000000012800 ) ;
#34 = CARTESIAN_POINT ( 'NONE',  ( -7.873738858974775700E-034, 0.0000000000000000000, -3.073506505941449200E-016 ) ) ;
#35 =( NAMED_UNIT ( * ) PLANE_ANGLE_UNIT ( ) SI_UNIT ( $, .RADIAN. ) );
#36 = CARTESIAN_POINT ( 'NONE',  ( -1.654500000000000100, 2.026178129189296100E-016, 8.623325812650303400E-019 ) ) ;
#37 = DIRECTION ( 'NONE',  ( 1.000000000000000000, 0.0000000000000000000, -1.836970198721028700E-016 ) ) ;
#38 =( CONVERSION_BASED_UNIT ( 'INCH', #18 ) LENGTH_UNIT ( ) NAMED_UNIT ( #85 ) );
#39 = PERSON_AND_ORGANIZATION_ROLE ( 'design_supplier' ) ;
#40 = COORDINATED_UNIVERSAL_TIME_OFFSET ( 6, 0, .BEHIND. ) ;
#41 = CIRCLE ( 'NONE', #148, 0.03500000000000003800 ) ;
#42 = CALENDAR_DATE ( 2022, 8, 12 ) ;
#43 = ORIENTED_EDGE ( 'NONE', *, *, #146, .F. ) ;
#44 = EDGE_LOOP ( 'NONE', ( #43, #61, #78, #183 ) ) ;
#45 = ORIENTED_EDGE ( 'NONE', *, *, #155, .F. ) ;
#46 = CC_DESIGN_DATE_AND_TIME_ASSIGNMENT ( #65, #67, ( #165 ) ) ;
#47 = CARTESIAN_POINT ( 'NONE',  ( -1.619499999999999900, 1.983315491219138700E-016, -3.073506505941458100E-016 ) ) ;
#48 = ADVANCED_FACE ( 'NONE', ( #74 ), #161, .T. ) ;
#49 = DIRECTION ( 'NONE',  ( 0.0000000000000000000, 0.0000000000000000000, -1.000000000000000000 ) ) ;
#50 = APPROVAL_PERSON_ORGANIZATION ( #173, #52, #121 ) ;
#51 = DIRECTION ( 'NONE',  ( 1.000000000000000000, 0.0000000000000000000, -1.836970198721028900E-016 ) ) ;
#52 = APPROVAL ( #166, 'UNSPECIFIED' ) ;
#53 = DIRECTION ( 'NONE',  ( 0.0000000000000000000, -1.000000000000000000, -0.0000000000000000000 ) ) ;
#54 = EDGE_LOOP ( 'NONE', ( #188, #138, #128, #45 ) ) ;
#55 = CC_DESIGN_PERSON_AND_ORGANIZATION_ASSIGNMENT ( #107, #117, ( #175 ) ) ;
#56 = PERSON_AND_ORGANIZATION ( #17, #110 ) ;
#57 = LOCAL_TIME ( 14, 58, 26.00000000000000000, #140 ) ;
#58 = APPROVAL_DATE_TIME ( #23, #158 ) ;
#59 = LOCAL_TIME ( 14, 58, 26.00000000000000000, #147 ) ;
#60 = DIRECTION ( 'NONE',  ( 1.000000000000000000, 0.0000000000000000000, -1.836970198721028700E-016 ) ) ;
#61 = ORIENTED_EDGE ( 'NONE', *, *, #136, .F. ) ;
#62 = EDGE_CURVE ( 'NONE', #151, #10, #153, .T. ) ;
#63 = DESIGN_CONTEXT ( 'detailed design', #1, 'design' ) ;
#64 = CC_DESIGN_PERSON_AND_ORGANIZATION_ASSIGNMENT ( #184, #9, ( #127 ) ) ;
#65 = DATE_AND_TIME ( #169, #76 ) ;
#66 = SHAPE_DEFINITION_REPRESENTATION ( #6, #191 ) ;
#67 = DATE_TIME_ROLE ( 'classification_date' ) ;
#68 = CARTESIAN_POINT ( 'NONE',  ( 1.654500000000000100, 0.0000000000000000000, -6.069911061755233700E-016 ) ) ;
#69 = CIRCLE ( 'NONE', #142, 0.03500000000000012800 ) ;
#70 = ADVANCED_FACE ( 'NONE', ( #122 ), #170, .T. ) ;
#71 = APPROVAL_DATE_TIME ( #105, #172 ) ;
#72 = EDGE_CURVE ( 'NONE', #12, #151, #41, .T. ) ;
#73 = ORIENTED_EDGE ( 'NONE', *, *, #112, .F. ) ;
#74 = FACE_OUTER_BOUND ( 'NONE', #106, .T. ) ;
#75 = EDGE_CURVE ( 'NONE', #12, #92, #101, .T. ) ;
#76 = LOCAL_TIME ( 14, 58, 26.00000000000000000, #157 ) ;
#77 = DIRECTION ( 'NONE',  ( 1.000000000000000000, 0.0000000000000000000, -1.836970198721028900E-016 ) ) ;
#78 = ORIENTED_EDGE ( 'NONE', *, *, #155, .T. ) ;
#79 = CARTESIAN_POINT ( 'NONE',  ( 0.0000000000000000000, 0.0000000000000000000, -3.030643867971292100E-016 ) ) ;
#80 = CARTESIAN_POINT ( 'NONE',  ( -1.689500000000000000, 2.069040767159453500E-016, 7.291728276788645500E-018 ) ) ;
#81 = CARTESIAN_POINT ( 'NONE',  ( 0.0000000000000000000, 0.0000000000000000000, 0.0000000000000000000 ) ) ;
#82 = CARTESIAN_POINT ( 'NONE',  ( -7.873738858974775700E-034, 0.0000000000000000000, -3.073506505941449200E-016 ) ) ;
#83 = EDGE_CURVE ( 'NONE', #92, #10, #69, .T. ) ;
#84 = DIRECTION ( 'NONE',  ( 1.836970198721028700E-016, -0.0000000000000000000, 1.000000000000000000 ) ) ;
#85 = DIMENSIONAL_EXPONENTS ( 1.000000000000000000, 0.0000000000000000000, 0.0000000000000000000, 0.0000000000000000000, 0.0000000000000000000, 0.0000000000000000000, 0.0000000000000000000 ) ;
#86 = AXIS2_PLACEMENT_3D ( 'NONE', #81, #120, #119 ) ;
#87 = APPROVAL_STATUS ( 'not_yet_approved' ) ;
#88 = MANIFOLD_SOLID_BREP ( 'Revolve1', #168 ) ;
#89 = TOROIDAL_SURFACE ( 'NONE', #14, 1.654500000000000100, 0.03500000000000012800 ) ;
#90 = APPLICATION_PROTOCOL_DEFINITION ( 'international standard', 'config_control_design', 1994, #177 ) ;
#91 = AXIS2_PLACEMENT_3D ( 'NONE', #34, #130, #162 ) ;
#92 = VERTEX_POINT ( 'NONE', #32 ) ;
#93 = ORIENTED_EDGE ( 'NONE', *, *, #75, .F. ) ;
#94 = DATE_AND_TIME ( #137, #57 ) ;
#95 = CARTESIAN_POINT ( 'NONE',  ( 1.619499999999999900, 0.0000000000000000000, -3.073506505941441400E-016 ) ) ;
#96 = DIRECTION ( 'NONE',  ( 1.836970198721028700E-016, -0.0000000000000000000, 1.000000000000000000 ) ) ;
#97 = ORIENTED_EDGE ( 'NONE', *, *, #62, .F. ) ;
#98 = UNCERTAINTY_MEASURE_WITH_UNIT (LENGTH_MEASURE( 1.000000000000000100E-005 ), #38, 'distance_accuracy_value', 'NONE');
#99 = DATE_AND_TIME ( #42, #129 ) ;
#100 =( NAMED_UNIT ( * ) SI_UNIT ( $, .STERADIAN. ) SOLID_ANGLE_UNIT ( ) );
#101 = CIRCLE ( 'NONE', #28, 1.689500000000000000 ) ;
#102 = DIRECTION ( 'NONE',  ( 1.836970198721028700E-016, -0.0000000000000000000, 1.000000000000000000 ) ) ;
#103 = APPROVAL_ROLE ( '' ) ;
#104 = CIRCLE ( 'NONE', #190, 0.03500000000000012800 ) ;
#105 = DATE_AND_TIME ( #145, #171 ) ;
#106 = EDGE_LOOP ( 'NONE', ( #5, #195, #180, #97 ) ) ;
#107 = PERSON_AND_ORGANIZATION ( #17, #110 ) ;
#108 = AXIS2_PLACEMENT_3D ( 'NONE', #82, #84, #51 ) ;
#109 = CC_DESIGN_DATE_AND_TIME_ASSIGNMENT ( #94, #22, ( #127 ) ) ;
#110 = ORGANIZATION ( 'UNSPECIFIED', 'UNSPECIFIED', '' ) ;
#111 = DIRECTION ( 'NONE',  ( 1.836970198721028700E-016, -0.0000000000000000000, 1.000000000000000000 ) ) ;
#112 = EDGE_CURVE ( 'NONE', #151, #12, #15, .T. ) ;
#113 = DIRECTION ( 'NONE',  ( -1.000000000000000000, 1.224646799147352500E-016, 0.0000000000000000000 ) ) ;
#114 = DIRECTION ( 'NONE',  ( 1.000000000000000000, 0.0000000000000000000, -1.836970198721028900E-016 ) ) ;
#115 = PERSON_AND_ORGANIZATION ( #17, #110 ) ;
#116 = ORIENTED_EDGE ( 'NONE', *, *, #62, .T. ) ;
#117 = PERSON_AND_ORGANIZATION_ROLE ( 'design_owner' ) ;
#118 = ADVANCED_FACE ( 'NONE', ( #31 ), #33, .T. ) ;
#119 = DIRECTION ( 'NONE',  ( 1.000000000000000000, 0.0000000000000000000, 0.0000000000000000000 ) ) ;
#120 = DIRECTION ( 'NONE',  ( 0.0000000000000000000, 0.0000000000000000000, 1.000000000000000000 ) ) ;
#121 = APPROVAL_ROLE ( '' ) ;
#122 = FACE_OUTER_BOUND ( 'NONE', #54, .T. ) ;
#123 = AXIS2_PLACEMENT_3D ( 'NONE', #36, #7, #194 ) ;
#124 = ADVANCED_FACE ( 'NONE', ( #131 ), #89, .T. ) ;
#125 = AXIS2_PLACEMENT_3D ( 'NONE', #19, #96, #159 ) ;
#126 = APPROVAL_DATE_TIME ( #99, #52 ) ;
#127 = PRODUCT_DEFINITION ( 'UNKNOWN', '', #154, #63 ) ;
#128 = ORIENTED_EDGE ( 'NONE', *, *, #72, .T. ) ;
#129 = LOCAL_TIME ( 14, 58, 26.00000000000000000, #40 ) ;
#130 = DIRECTION ( 'NONE',  ( 1.836970198721028700E-016, -0.0000000000000000000, 1.000000000000000000 ) ) ;
#131 = FACE_OUTER_BOUND ( 'NONE', #44, .T. ) ;
#132 = CC_DESIGN_APPROVAL ( #172, ( #165 ) ) ;
#133 = SECURITY_CLASSIFICATION_LEVEL ( 'unclassified' ) ;
#134 = AXIS2_PLACEMENT_3D ( 'NONE', #79, #176, #60 ) ;
#135 = PERSON_AND_ORGANIZATION_ROLE ( 'creator' ) ;
#136 = EDGE_CURVE ( 'NONE', #10, #92, #104, .T. ) ;
#137 = CALENDAR_DATE ( 2022, 8, 12 ) ;
#138 = ORIENTED_EDGE ( 'NONE', *, *, #146, .T. ) ;
#139 = CC_DESIGN_PERSON_AND_ORGANIZATION_ASSIGNMENT ( #115, #135, ( #154 ) ) ;
#140 = COORDINATED_UNIVERSAL_TIME_OFFSET ( 6, 0, .BEHIND. ) ;
#141 = AXIS2_PLACEMENT_3D ( 'NONE', #181, #182, #114 ) ;
#142 = AXIS2_PLACEMENT_3D ( 'NONE', #24, #53, #27 ) ;
#143 = CALENDAR_DATE ( 2022, 8, 12 ) ;
#144 = CARTESIAN_POINT ( 'NONE',  ( 0.0000000000000000000, 0.0000000000000000000, -3.030643867971292100E-016 ) ) ;
#145 = CALENDAR_DATE ( 2022, 8, 12 ) ;
#146 = EDGE_CURVE ( 'NONE', #92, #12, #2, .T. ) ;
#147 = COORDINATED_UNIVERSAL_TIME_OFFSET ( 6, 0, .BEHIND. ) ;
#148 = AXIS2_PLACEMENT_3D ( 'NONE', #174, #3, #113 ) ;
#149 = APPLICATION_PROTOCOL_DEFINITION ( 'international standard', 'config_control_design', 1994, #1 ) ;
#150 = APPROVAL_STATUS ( 'not_yet_approved' ) ;
#151 = VERTEX_POINT ( 'NONE', #47 ) ;
#152 = PERSON_AND_ORGANIZATION ( #17, #110 ) ;
#153 = CIRCLE ( 'NONE', #91, 1.619499999999999900 ) ;
#154 = PRODUCT_DEFINITION_FORMATION_WITH_SPECIFIED_SOURCE ( 'ANY', '', #175, .NOT_KNOWN. ) ;
#155 = EDGE_CURVE ( 'NONE', #10, #151, #29, .T. ) ;
#156 = CC_DESIGN_APPROVAL ( #158, ( #127 ) ) ;
#157 = COORDINATED_UNIVERSAL_TIME_OFFSET ( 6, 0, .BEHIND. ) ;
#158 = APPROVAL ( #150, 'UNSPECIFIED' ) ;
#159 = DIRECTION ( 'NONE',  ( 1.000000000000000000, 0.0000000000000000000, -1.836970198721028700E-016 ) ) ;
#160 = CC_DESIGN_PERSON_AND_ORGANIZATION_ASSIGNMENT ( #152, #39, ( #154 ) ) ;
#161 = TOROIDAL_SURFACE ( 'NONE', #125, 1.654500000000000100, 0.03500000000000012800 ) ;
#162 = DIRECTION ( 'NONE',  ( 1.000000000000000000, 0.0000000000000000000, -1.836970198721028900E-016 ) ) ;
#163 = MECHANICAL_CONTEXT ( 'NONE', #177, 'mechanical' ) ;
#164 = PERSON_AND_ORGANIZATION_ROLE ( 'classification_officer' ) ;
#165 = SECURITY_CLASSIFICATION ( '', '', #133 ) ;
#166 = APPROVAL_STATUS ( 'not_yet_approved' ) ;
#167 = DIRECTION ( 'NONE',  ( 1.000000000000000000, 0.0000000000000000000, -1.836970198721028700E-016 ) ) ;
#168 = CLOSED_SHELL ( 'NONE', ( #48, #70, #124, #118 ) ) ;
#169 = CALENDAR_DATE ( 2022, 8, 12 ) ;
#170 = TOROIDAL_SURFACE ( 'NONE', #134, 1.654500000000000100, 0.03500000000000012800 ) ;
#171 = LOCAL_TIME ( 14, 58, 26.00000000000000000, #179 ) ;
#172 = APPROVAL ( #87, 'UNSPECIFIED' ) ;
#173 = PERSON_AND_ORGANIZATION ( #17, #110 ) ;
#174 = CARTESIAN_POINT ( 'NONE',  ( -1.654500000000000100, 2.026178129189296100E-016, 8.623325812650303400E-019 ) ) ;
#175 = PRODUCT ( '9559K338_Ultra-Chemical-Resistant Rigid PTFE O-Ring', '9559K338_Ultra-Chemical-Resistant Rigid PTFE O-Ring', '', ( #163 ) ) ;
#176 = DIRECTION ( 'NONE',  ( 1.836970198721028700E-016, -0.0000000000000000000, 1.000000000000000000 ) ) ;
#177 = APPLICATION_CONTEXT ( 'configuration controlled 3d designs of mechanical parts and assemblies' ) ;
#178 = DIRECTION ( 'NONE',  ( 0.0000000000000000000, -1.000000000000000000, -0.0000000000000000000 ) ) ;
#179 = COORDINATED_UNIVERSAL_TIME_OFFSET ( 6, 0, .BEHIND. ) ;
#180 = ORIENTED_EDGE ( 'NONE', *, *, #83, .T. ) ;
#181 = CARTESIAN_POINT ( 'NONE',  ( 0.0000000000000000000, 0.0000000000000000000, -3.030643867971292100E-016 ) ) ;
#182 = DIRECTION ( 'NONE',  ( 1.836970198721028700E-016, -0.0000000000000000000, 1.000000000000000000 ) ) ;
#183 = ORIENTED_EDGE ( 'NONE', *, *, #112, .T. ) ;
#184 = PERSON_AND_ORGANIZATION ( #17, #110 ) ;
#185 = PRODUCT_RELATED_PRODUCT_CATEGORY ( 'detail', '', ( #175 ) ) ;
#186 = APPROVAL_PERSON_ORGANIZATION ( #30, #158, #103 ) ;
#187 = APPROVAL_PERSON_ORGANIZATION ( #56, #172, #196 ) ;
#188 = ORIENTED_EDGE ( 'NONE', *, *, #83, .F. ) ;
#189 = EDGE_LOOP ( 'NONE', ( #93, #73, #116, #13 ) ) ;
#190 = AXIS2_PLACEMENT_3D ( 'NONE', #68, #178, #49 ) ;
#191 = ADVANCED_BREP_SHAPE_REPRESENTATION ( '9559K338_Ultra-Chemical-Resistant Rigid PTFE O-Ring', ( #88, #86 ), #26 ) ;
#192 = CARTESIAN_POINT ( 'NONE',  ( 0.0000000000000000000, 0.0000000000000000000, -3.030643867971292100E-016 ) ) ;
#193 = CC_DESIGN_PERSON_AND_ORGANIZATION_ASSIGNMENT ( #4, #164, ( #165 ) ) ;
#194 = DIRECTION ( 'NONE',  ( -1.000000000000000000, 1.224646799147352500E-016, 0.0000000000000000000 ) ) ;
#195 = ORIENTED_EDGE ( 'NONE', *, *, #75, .T. ) ;
#196 = APPROVAL_ROLE ( '' ) ;
ENDSEC;
END-ISO-10303-21;
